<?xml version="1.0" encoding="UTF-8"?>
<svg version="1.1" xmlns="http://www.w3.org/2000/svg" width="1000" height="787">
<path d="M0 0 C5.56013541 3.22702393 7.06792274 8.04492708 9.3125 13.75 C10.09522575 15.65518361 10.88172732 17.55882005 11.671875 19.4609375 C12.06181641 20.40163086 12.45175781 21.34232422 12.85351562 22.31152344 C15.30786354 28.06690659 18.16083742 33.6172395 21.05126953 39.16308594 C21.96043799 40.92340078 22.83840402 42.69972569 23.71484375 44.4765625 C32.45484265 61.72706361 43.75131361 78.05210392 56 93 C56.41491699 93.50966309 56.82983398 94.01932617 57.25732422 94.54443359 C66.96175178 106.41915715 77.16428563 118.20863629 89 128 C90.46566406 129.29744141 90.46566406 129.29744141 91.9609375 130.62109375 C107.38516499 144.25802274 124.29134948 155.54941231 142 166 C142.6496875 166.38494629 143.299375 166.76989258 143.96875 167.16650391 C174.01585255 184.71869018 209.09795509 195.42862871 243.25 201.25 C244.13429688 201.40114258 245.01859375 201.55228516 245.9296875 201.70800781 C263.81279718 204.56183259 281.59818049 205.40844587 299.6875 205.375 C301.35801926 205.37418427 301.35801926 205.37418427 303.06228638 205.37335205 C348.76317777 205.27123811 393.10931205 196.59223944 435 178 C435.86931152 177.61618164 436.73862305 177.23236328 437.63427734 176.83691406 C456.90834114 168.2332528 475.16530147 157.74538212 492 145 C493.12880768 144.1587219 494.25771534 143.31757792 495.38671875 142.4765625 C501.42596776 137.93928483 507.19583464 133.1848188 512.75390625 128.0625 C514.71593864 126.26084243 516.71654749 124.53212157 518.75 122.8125 C528.76236984 114.05929229 537.78225343 104.44338626 546 94 C547.43683987 92.29111141 548.87435835 90.58279321 550.3125 88.875 C559.56115233 77.52292153 567.58161921 65.44546541 574.90356445 52.77563477 C581.92611163 40.71833005 581.92611163 40.71833005 586.09765625 39.2734375 C589.23923476 39.43582526 591.4830116 39.60462279 594.01660156 41.54223633 C596.6230065 44.77200965 598.08451498 48.13609714 599.671875 51.94921875 C600.16279633 53.1072979 600.16279633 53.1072979 600.66363525 54.28877258 C601.35100016 55.91978861 602.03316947 57.55300279 602.71044922 59.18823242 C603.74259902 61.6697067 604.80178063 64.1383862 605.86328125 66.60742188 C606.53033124 68.19981587 607.19574914 69.79289472 607.859375 71.38671875 C608.17493347 72.11517502 608.49049194 72.84363129 608.81561279 73.59416199 C611.20486341 79.472976 612.39062033 85.39756033 610.04125977 91.48364258 C609.59580811 92.11423584 609.15035645 92.7448291 608.69140625 93.39453125 C608.19608398 94.11640625 607.70076172 94.83828125 607.19042969 95.58203125 C606.65321289 96.31808594 606.11599609 97.05414063 605.5625 97.8125 C605.01625977 98.59367187 604.47001953 99.37484375 603.90722656 100.1796875 C602.29456654 102.47081595 600.6534906 104.73822248 599 107 C598.56349121 107.60376465 598.12698242 108.2075293 597.67724609 108.82958984 C595.18237354 112.27110926 592.61467288 115.64886917 590 119 C589.36964844 119.81210937 588.73929688 120.62421875 588.08984375 121.4609375 C586.08952431 123.99933055 584.04993427 126.50152676 582 129 C580.88431641 130.39605469 580.88431641 130.39605469 579.74609375 131.8203125 C572.67177679 140.4878577 564.8237183 148.39264762 556.9375 156.3125 C556.3831427 156.87203369 555.8287854 157.43156738 555.25762939 158.00805664 C548.17152778 165.14620617 540.89791076 171.75081135 533 178 C531.86058944 178.95227276 530.72454916 179.90861098 529.59375 180.87109375 C471.43812511 229.53039674 391.93175687 259.66974167 316 261 C314.92911133 261.02046387 313.85822266 261.04092773 312.75488281 261.06201172 C218.08969905 262.57996656 126.82273941 231.69970697 56 168 C55.42620605 167.48405273 54.85241211 166.96810547 54.26123047 166.43652344 C43.97418613 157.14366721 33.96379196 147.59357232 25 137 C23.82244141 135.65615234 23.82244141 135.65615234 22.62109375 134.28515625 C2.92509835 111.66553653 -38.78233233 62.88467122 -37.87109375 31.52734375 C-35.79101438 25.49231527 -29.70335244 21.1069183 -25 17 C-24.25363281 16.33871094 -23.50726563 15.67742187 -22.73828125 14.99609375 C-21.48297943 13.8986595 -20.22025003 12.80964625 -18.94921875 11.73046875 C-15.77555718 8.9129696 -12.84103444 5.86099358 -9.8828125 2.8203125 C-6.68046197 -0.27573594 -4.39146605 -0.43053589 0 0 Z " fill="#00CB77" transform="translate(213,280)"/>
<path d="M0 0 C1.8216632 1.23710334 3.63815226 2.48139698 5.45263672 3.72900391 C6.11150879 4.18065918 6.77038086 4.63231445 7.44921875 5.09765625 C22.38774735 15.3773656 36.74054861 26.38374722 50.49169922 38.20556641 C53.37582548 40.66354209 56.31019368 43.04445374 59.26513672 45.41650391 C63.19381094 48.61068686 66.82352944 51.93954659 70.30810547 55.61181641 C72.11251354 57.39321745 73.94740041 59.01933815 75.87451172 60.66259766 C81.43142577 65.48855835 86.58802722 70.71490533 91.7800293 75.92602539 C93.51158372 77.66293991 95.24842031 79.3944428 96.98583984 81.12548828 C102.16077976 86.29732316 107.26371494 91.4744292 112.01391602 97.04516602 C114.21005344 99.61546294 116.52339803 102.06773414 118.82763672 104.54150391 C123.04413576 109.11063727 127.06021715 113.79523144 130.95654297 118.64306641 C132.8394187 120.97087835 134.74114303 123.27358411 136.66748047 125.56494141 C191.24863339 190.66278261 191.24863339 190.66278261 191.70263672 220.85400391 C191.74130859 222.37380859 191.74130859 222.37380859 191.78076172 223.92431641 C190.87454466 234.43211895 187.08678542 243.48224455 182.45263672 252.85400391 C181.87666748 254.0318042 181.30069824 255.20960449 180.70727539 256.4230957 C171.36482108 275.25070591 159.89688678 292.57655959 146.45263672 308.72900391 C146.02789063 309.24398438 145.60314453 309.75896484 145.16552734 310.28955078 C135.12951259 322.42053054 124.45179164 333.90959397 112.05810547 343.67431641 C110.36571249 345.00894715 108.69934089 346.37750408 107.06591797 347.78369141 C92.70838631 360.09014711 76.22886251 370.08793669 59.45263672 378.72900391 C58.71932129 379.10863281 57.98600586 379.48826172 57.23046875 379.87939453 C-7.7855879 413.11642937 -84.32455976 416.40023022 -153.39746094 394.83935547 C-185.68409695 384.39452773 -215.51090372 367.39352423 -241.54736328 345.72900391 C-242.05702637 345.3095752 -242.56668945 344.89014648 -243.09179688 344.45800781 C-256.48624505 333.40333931 -268.88245185 321.4684844 -279.54736328 307.72900391 C-280.42443455 306.64028351 -281.30344297 305.55312167 -282.18408203 304.46728516 C-292.72943497 291.39023263 -301.64511718 277.54526286 -309.54736328 262.72900391 C-309.89009277 262.08882324 -310.23282227 261.44864258 -310.5859375 260.7890625 C-314.86095189 252.72813302 -318.57745517 244.50583464 -321.98486328 236.04150391 C-322.32718994 235.19168945 -322.6695166 234.341875 -323.0222168 233.46630859 C-327.7737009 221.39098103 -328.14887914 208.98460521 -323.54736328 196.72900391 C-319.84289877 188.64046853 -315.11880937 182.57667816 -308.82028198 176.36027527 C-307.52059736 175.04783237 -307.52059736 175.04783237 -306.19465649 173.70887548 C-303.81167778 171.30759866 -301.41814661 168.91786011 -299.01922131 166.53257954 C-296.42519971 163.94787153 -293.84567652 161.3487584 -291.26417542 158.7515564 C-286.21428047 153.67565836 -281.15098324 148.61334067 -276.08254556 143.55596473 C-271.96096409 139.44296341 -267.84413315 135.32526284 -263.73059464 131.20421791 C-262.85028314 130.32232408 -262.85028314 130.32232408 -261.95218758 129.42261422 C-260.75973672 128.2279923 -259.56729373 127.03336254 -258.37485851 125.83872501 C-247.20872044 114.65318532 -236.02696 103.48336762 -224.84000279 92.31865523 C-215.25561265 82.75251355 -205.68589492 73.1718923 -196.12646484 63.58081055 C-185.00807703 52.42561103 -173.87982125 41.28039984 -162.73642266 30.15018064 C-161.54660788 28.96170687 -160.3568091 27.77321708 -159.16702652 26.58471107 C-158.5817295 26.00004473 -157.99643249 25.41537838 -157.3933992 24.81299486 C-153.2830323 20.70564752 -149.17983007 16.59122679 -145.07946396 12.47389793 C-140.07726994 7.45132154 -135.06451337 2.43957965 -130.0381351 -2.55879853 C-127.47717203 -5.10604473 -124.92112386 -7.65773197 -122.37804222 -10.22284126 C-119.61372421 -13.01078442 -116.82625802 -15.7748426 -114.03634644 -18.53718567 C-113.24662126 -19.34097729 -112.45689609 -20.14476891 -111.64323986 -20.97291785 C-76.56252933 -55.36183328 -31.84850122 -21.41402894 0 0 Z M-101.65744019 -1.78910828 C-102.51662461 -0.93701824 -103.37580904 -0.08492819 -104.26102936 0.79298276 C-106.6228477 3.14032945 -108.97306626 5.49825752 -111.31886816 7.86154449 C-113.85920325 10.41531931 -116.41398459 12.95457439 -118.96690369 15.49575806 C-123.95722347 20.46774719 -128.9340619 25.45302088 -133.90622143 30.44316403 C-137.94836198 34.49935655 -141.99557126 38.55042708 -146.04642105 42.59792137 C-146.62396176 43.17498464 -147.20150247 43.7520479 -147.79654441 44.34659794 C-148.96998471 45.51901186 -150.1434395 46.69141129 -151.31690861 47.86379638 C-161.68069725 58.2190275 -172.03184181 68.58680797 -182.37646484 78.96118164 C-192.40682105 89.02038413 -202.44799814 99.0686293 -212.50048828 109.10571289 C-223.45811487 120.04656859 -234.40933229 130.99376875 -245.34982502 141.95175999 C-246.51694523 143.12072452 -247.68407024 144.28968426 -248.8512001 145.45863914 C-249.42538642 146.03373756 -249.99957274 146.60883597 -250.59115865 147.2013616 C-254.63197629 151.24777823 -258.67722496 155.28973217 -262.7241478 159.33004189 C-267.65668372 164.2548369 -272.58188807 169.18682933 -277.49797611 174.12804524 C-280.00491019 176.64745534 -282.51488374 179.16361731 -285.0336628 181.67119026 C-287.76644147 184.39203997 -290.48348487 187.12826664 -293.19918823 189.86616516 C-293.99392386 190.65266002 -294.78865949 191.43915489 -295.60747802 192.24948293 C-301.96760317 198.70588389 -306.34663051 205.22227711 -306.81689453 214.52587891 C-304.56779423 241.25431721 -283.03677418 270.51109564 -266.54736328 290.72900391 C-265.77908203 291.70095703 -265.01080078 292.67291016 -264.21923828 293.67431641 C-251.97080713 308.73449433 -237.96531008 323.1224461 -222.20996094 334.51513672 C-220.45842545 335.79393767 -218.7427643 337.11252465 -217.02783203 338.43994141 C-186.01661263 362.20270509 -147.91597009 377.87670696 -109.54736328 384.72900391 C-108.67708496 384.88981445 -107.80680664 385.050625 -106.91015625 385.21630859 C-79.68457162 390.02928783 -49.71458545 389.6805682 -22.54736328 384.72900391 C-21.62745605 384.56803223 -20.70754883 384.40706055 -19.75976562 384.24121094 C3.61265423 380.03684096 26.18365579 372.24210131 47.45263672 361.72900391 C48.19690918 361.36307129 48.94118164 360.99713867 49.70800781 360.62011719 C64.68579912 353.17559287 78.26747566 344.0024419 91.45263672 333.72900391 C92.31888672 333.05740234 93.18513672 332.38580078 94.07763672 331.69384766 C125.23056055 306.89204074 148.81373905 275.38075882 165.95263672 239.60400391 C166.27893066 238.92998535 166.60522461 238.2559668 166.94140625 237.56152344 C170.5801527 229.76697608 172.70194748 222.23776025 170.45263672 213.72900391 C160.22930713 188.45624781 142.43275705 165.80248658 125.45263672 144.72900391 C124.70626953 143.79958984 123.95990234 142.87017578 123.19091797 141.91259766 C113.85736087 130.400652 104.15997729 119.24330549 94.03417969 108.42382812 C92.38664445 106.6582848 90.74903097 104.88392491 89.11279297 103.10791016 C73.93184323 86.62174598 73.93184323 86.62174598 57.46044922 71.45556641 C55.32296249 69.61749416 53.25588349 67.71102907 51.19042969 65.79272461 C45.14068474 60.17837076 38.89864245 54.88751378 32.45263672 49.72900391 C31.32179715 48.80660015 30.19162157 47.88338195 29.06201172 46.95947266 C6.01599239 28.19289403 -18.82227135 11.58470757 -44.54736328 -3.27099609 C-45.37091309 -3.74859375 -46.19446289 -4.22619141 -47.04296875 -4.71826172 C-49.47554418 -6.12241969 -51.91552283 -7.51243575 -54.35986328 -8.89599609 C-55.08286621 -9.31026855 -55.80586914 -9.72454102 -56.55078125 -10.15136719 C-62.77502399 -13.62097678 -68.6625737 -15.55612508 -75.85986328 -15.70849609 C-76.88724609 -15.74845703 -77.91462891 -15.78841797 -78.97314453 -15.82958984 C-88.49579302 -14.34135079 -95.1034543 -8.44237242 -101.65744019 -1.78910828 Z " fill="#EF2B6D" transform="translate(582.54736328125,35.27099609375)"/>
<path d="M0 0 C19.11193961 14.9461932 19.11193961 14.9461932 20.70703125 23.1875 C20.1039762 31.6476427 9.33900365 39.05397232 3.72666931 44.61802673 C2.20109148 46.13062332 0.67885039 47.64651202 -0.84265137 49.16320801 C-4.61913857 52.92645801 -8.40110386 56.68418668 -12.18292236 60.44207764 C-15.39056743 63.62985668 -18.5960617 66.81977042 -21.79884338 70.01243591 C-23.28500564 71.49220556 -24.77418871 72.96888565 -26.2635498 74.44543457 C-30.86972044 79.03502825 -35.33470148 83.66916975 -39.56640625 88.60662842 C-41.54488123 90.89235912 -43.64180931 93.04089909 -45.77734375 95.1796875 C-46.59847656 96.00210938 -47.41960937 96.82453125 -48.265625 97.671875 C-49.09964844 98.50203125 -49.93367188 99.3321875 -50.79296875 100.1875 C-51.64246094 101.04085937 -52.49195313 101.89421875 -53.3671875 102.7734375 C-54.18316406 103.588125 -54.99914062 104.4028125 -55.83984375 105.2421875 C-56.57557617 105.97679199 -57.31130859 106.71139648 -58.06933594 107.46826172 C-61.75197017 110.90945655 -64.07652509 111.65291583 -69.11328125 111.49609375 C-71.59059987 111.26039744 -73.06606474 110.85009201 -75.04296875 109.3125 C-87.12204392 92.14912023 -80.5885264 56.23796378 -77.50048828 36.91357422 C-74.66092995 20.77021541 -67.58062857 5.34035075 -54.10546875 -4.625 C-36.544496 -15.87251125 -16.35782058 -11.56215431 0 0 Z M-49.4453125 19.98046875 C-60.4883503 36.09952392 -60.35205245 59.56142218 -60.04296875 78.3125 C-53.59606236 73.00235746 -47.74347438 67.14123116 -41.859375 61.2265625 C-40.79342766 60.15874655 -39.7272567 59.09115378 -38.66087341 58.02377319 C-35.87546736 55.23457682 -33.09307946 52.442389 -30.31134033 49.64953613 C-27.46395811 46.79186425 -24.61368889 43.93707498 -21.76367188 41.08203125 C-16.18729794 35.49498158 -10.61411381 29.90476366 -5.04296875 24.3125 C-7.08213575 18.19499901 -14.9294965 14.75425729 -20.48046875 11.9375 C-32.59342326 6.41229268 -41.26117526 9.93206335 -49.4453125 19.98046875 Z " fill="#EF2B6D" transform="translate(321.04296875,89.6875)"/>
<path d="M0 0 C5.28 0 10.56 0 16 0 C30.18300112 36.2102319 44.21674211 72.47868136 58.04232788 108.82702637 C58.72965393 110.63401008 59.41815384 112.44054715 60.10668945 114.24707031 C60.49945068 115.2831543 60.89221191 116.31923828 61.296875 117.38671875 C61.63041992 118.26545654 61.96396484 119.14419434 62.30761719 120.04956055 C63 122 63 122 63 123 C57.39 123 51.78 123 46 123 C41.34737186 112.0954028 37.23151088 101.10771606 33 90 C16.17 89.67 -0.66 89.34 -18 89 C-18.33 90.98 -18.66 92.96 -19 95 C-19.71457673 97.25248115 -20.48003499 99.48921047 -21.28515625 101.7109375 C-21.50570175 102.32393707 -21.72624725 102.93693665 -21.95347595 103.56851196 C-22.65169956 105.50577673 -23.35696647 107.44038706 -24.0625 109.375 C-24.54018336 110.69644485 -25.0174015 112.01805796 -25.49414062 113.33984375 C-26.6581883 116.56155147 -27.82848778 119.7809991 -29 123 C-34.61 123 -40.22 123 -46 123 C-44.75381496 116.82959511 -43.10831948 111.1676194 -40.7890625 105.32421875 C-40.46879089 104.50132858 -40.14851929 103.67843842 -39.81854248 102.83061218 C-38.75986233 100.11392307 -37.69233955 97.40079726 -36.625 94.6875 C-35.87375752 92.7634779 -35.12328621 90.83915454 -34.37353516 88.91455078 C-33.18220493 85.85655681 -31.99041842 82.79874969 -30.7963562 79.74182129 C-25.93986565 67.30522028 -21.16000037 54.83923566 -16.375 42.375 C-10.94567737 28.2386158 -5.50314947 14.10783016 0 0 Z M7 20 C4.77272971 26.22431909 2.54945845 32.4500563 0.32885742 38.67675781 C-0.42577334 40.79133813 -1.18129219 42.90560174 -1.93774414 45.01953125 C-3.02989109 48.07207118 -4.11875448 51.12576597 -5.20703125 54.1796875 C-5.70877617 55.57874832 -5.70877617 55.57874832 -6.22065735 57.006073 C-6.54076279 57.90625153 -6.86086823 58.80643005 -7.19067383 59.73388672 C-7.46825027 60.51110077 -7.74582672 61.28831482 -8.03181458 62.08908081 C-9.45277271 66.36129376 -10.70626659 70.68755529 -12 75 C1.2 75 14.4 75 28 75 C21.65228502 56.54734017 14.83170585 38.27747156 8 20 C7.67 20 7.34 20 7 20 Z " fill="#000000" transform="translate(894,662)"/>
<path d="M0 0 C54.62874532 0 54.62874532 0 67.01953125 11.7109375 C75.19494103 21.1602277 75.66880739 31.90164812 75.17480469 43.81640625 C74.47596896 52.54599667 70.05925747 59.87136172 64 66 C54.88005336 73.76101419 45.11890945 77.16192962 33.1640625 77.09765625 C32.2045166 77.09515869 31.2449707 77.09266113 30.25634766 77.09008789 C29.05800293 77.08098389 27.8596582 77.07187988 26.625 77.0625 C22.78875 77.041875 18.9525 77.02125 15 77 C15 92.18 15 107.36 15 123 C10.05 123 5.1 123 0 123 C0 82.41 0 41.82 0 0 Z M15 14 C15 30.17 15 46.34 15 63 C34.7829201 64.12740948 34.7829201 64.12740948 52.4609375 56.6171875 C57.64538974 51.1695651 59.32420612 45.28593976 59.5625 37.875 C59.23545727 29.93991055 57.44809506 25.02201493 51.625 19.625 C41.41281708 11.60735001 27.030516 14 15 14 Z " fill="#000000" transform="translate(343,662)"/>
<path d="M0 0 C4.95 0 9.9 0 15 0 C15.33 17.49 15.66 34.98 16 53 C18.31 50.36 20.62 47.72 23 45 C25.6953125 43.16015625 25.6953125 43.16015625 28.125 42.0625 C28.93195312 41.68222656 29.73890625 41.30195312 30.5703125 40.91015625 C39.86040047 37.43010722 49.40459148 38.26690355 58.52734375 41.734375 C63.90350451 44.48615397 66.64952124 47.51071143 69.25 52.9375 C70.00023437 54.46697266 70.00023437 54.46697266 70.765625 56.02734375 C72.79389466 60.91187924 73.12374996 65.26876956 73.11352539 70.53442383 C73.11341209 72.48588066 73.11341209 72.48588066 73.11329651 74.47676086 C73.10819062 75.88685139 73.10297464 77.29694151 73.09765625 78.70703125 C73.09578979 80.15720063 73.09436696 81.60737065 73.09336853 83.05754089 C73.0895613 86.86332966 73.07974642 90.66907991 73.06866455 94.47485352 C73.05841177 98.36278767 73.05386264 102.25072808 73.04882812 106.13867188 C73.03812246 113.75913413 73.02054028 121.37955675 73 129 C68.05 129 63.1 129 58 129 C57.98541748 127.22955322 57.97083496 125.45910645 57.95581055 123.63500977 C57.90395952 117.75558821 57.83862081 111.87639766 57.76428509 105.99722385 C57.7197438 102.4360796 57.68045322 98.87504546 57.65356445 95.3137207 C57.62234345 91.21016331 57.56756222 87.10720301 57.51171875 83.00390625 C57.50532883 81.73793106 57.4989389 80.47195587 57.49235535 79.1676178 C57.36767693 71.60555962 57.17912338 63.98835478 52.28125 57.84375 C51.39953125 57.17859375 51.39953125 57.17859375 50.5 56.5 C49.9121875 56.0359375 49.324375 55.571875 48.71875 55.09375 C44.19254963 52.21344067 39.15911255 52.48408875 34 53 C27.89362534 54.53147096 23.73796601 57.35221316 20.31538391 62.6534729 C15.88011287 70.56559925 15.53851126 78.9097104 15.48828125 87.7890625 C15.47033005 88.97349945 15.45237885 90.1579364 15.43388367 91.37826538 C15.38010011 95.1271417 15.34598708 98.87589304 15.3125 102.625 C15.2792988 105.18100685 15.24480658 107.73699729 15.20898438 110.29296875 C15.12439179 116.52855519 15.05742835 122.76410662 15 129 C10.05 129 5.1 129 0 129 C0 86.43 0 43.86 0 0 Z " fill="#000000" transform="translate(714,656)"/>
<path d="M0 0 C6.90554494 5.39253228 10.36964611 13.09430181 11.7734375 21.62890625 C11.85858831 23.77509342 11.89119932 25.92366168 11.88696289 28.0715332 C11.88684959 29.99295891 11.88684959 29.99295891 11.88673401 31.95320129 C11.88162815 33.3411971 11.87641217 34.7291925 11.87109375 36.1171875 C11.86922725 37.54493663 11.86780444 38.9726864 11.86680603 40.4004364 C11.86299915 44.1470417 11.85318457 47.89360785 11.84210205 51.64019775 C11.83184852 55.46780874 11.82729998 59.29542609 11.82226562 63.12304688 C11.81156057 70.62501986 11.79397868 78.12695257 11.7734375 85.62890625 C6.8234375 85.62890625 1.8734375 85.62890625 -3.2265625 85.62890625 C-3.24114502 83.88875244 -3.25572754 82.14859863 -3.27075195 80.35571289 C-3.32260869 74.57607353 -3.38794883 68.79666901 -3.46227741 63.01728153 C-3.50681358 59.51667185 -3.54610519 56.01617406 -3.57299805 52.51538086 C-3.60422567 48.48131748 -3.65900651 44.44786089 -3.71484375 40.4140625 C-3.72123367 39.16996109 -3.7276236 37.92585968 -3.73420715 36.64405823 C-3.89937101 26.79351075 -4.97250615 18.71024698 -12.2265625 11.62890625 C-17.99293869 8.81816007 -24.38645248 8.48917714 -30.54296875 10.31640625 C-37.2109417 13.35305427 -40.69655446 17.83725014 -43.32910156 24.5246582 C-45.59998803 30.96053702 -45.82867629 36.95987785 -45.8359375 43.734375 C-45.85247375 44.93959305 -45.86901001 46.1448111 -45.88604736 47.3865509 C-45.93422693 51.19655608 -45.95583239 55.00616298 -45.9765625 58.81640625 C-46.00474715 61.41603534 -46.03467803 64.01564612 -46.06640625 66.61523438 C-46.13997839 72.95309218 -46.18973665 79.29073275 -46.2265625 85.62890625 C-51.1765625 85.62890625 -56.1265625 85.62890625 -61.2265625 85.62890625 C-61.2265625 56.58890625 -61.2265625 27.54890625 -61.2265625 -2.37109375 C-56.2765625 -2.37109375 -51.3265625 -2.37109375 -46.2265625 -2.37109375 C-45.8965625 1.25890625 -45.5665625 4.88890625 -45.2265625 8.62890625 C-44.0921875 7.39140625 -42.9578125 6.15390625 -41.7890625 4.87890625 C-31.09302603 -5.83609482 -13.02265748 -8.0192154 0 0 Z " fill="#000000" transform="translate(597.2265625,699.37109375)"/>
<path d="M0 0 C4.95 0 9.9 0 15 0 C15.01981934 1.6492749 15.03963867 3.2985498 15.06005859 4.99780273 C15.136383 11.14248392 15.22505889 17.28693658 15.31738281 23.43139648 C15.35660555 26.08600769 15.39043285 28.74053087 15.421875 31.39526367 C15.46776614 35.2207208 15.52572142 39.04583849 15.5859375 42.87109375 C15.59748871 44.04957382 15.60903992 45.22805389 15.62094116 46.44224548 C15.7852034 55.70524543 16.32408789 64.38232848 22 72 C26.9141525 75.92667505 32.16028671 76.63876925 38.3203125 76.3828125 C44.06174631 75.56260767 47.70920291 73.26211271 51.8125 69.25 C57.23251614 61.1974046 57.46239515 54.0054243 57.51171875 44.53125 C57.52966995 43.25519897 57.54762115 41.97914795 57.56611633 40.66442871 C57.61091839 37.297583 57.6433182 33.93109495 57.66955566 30.56408691 C57.69951356 27.11811372 57.74599087 23.67236593 57.79101562 20.2265625 C57.8757912 13.48445941 57.94267321 6.74239009 58 0 C62.95 0 67.9 0 73 0 C73 29.04 73 58.08 73 88 C68.05 88 63.1 88 58 88 C57.67 84.7 57.34 81.4 57 78 C56.505 78.721875 56.01 79.44375 55.5 80.1875 C49.76121114 86.64363746 42.88616032 89.50432334 34.40234375 90.21875 C25.48366252 90.51980253 16.97266421 88.86337672 10 83 C-0.2077964 71.96454443 -0.15769313 58.80843052 -0.09765625 44.53125 C-0.0962413 43.25519897 -0.09482635 41.97914795 -0.09336853 40.66442871 C-0.08874011 37.29761844 -0.07977971 33.93087793 -0.06866455 30.56408691 C-0.0583733 27.11825152 -0.0538545 23.67240888 -0.04882812 20.2265625 C-0.03783326 13.48435349 -0.02058634 6.74218627 0 0 Z " fill="#000000" transform="translate(436,697)"/>
<path d="M0 0 C20.46 0 40.92 0 62 0 C62 4.62 62 9.24 62 14 C46.49 14 30.98 14 15 14 C15 27.53 15 41.06 15 55 C29.52 55 44.04 55 59 55 C59 59.62 59 64.24 59 69 C44.48 69 29.96 69 15 69 C15 86.82 15 104.64 15 123 C10.05 123 5.1 123 0 123 C0 82.41 0 41.82 0 0 Z " fill="#000000" transform="translate(0,662)"/>
<path d="M0 0 C4.62 0 9.24 0 14 0 C14.01981934 1.58345215 14.03963867 3.1669043 14.06005859 4.79833984 C14.13647096 10.70637169 14.22513245 16.61416864 14.31738281 22.52197266 C14.35552584 25.07270653 14.39040357 27.6234915 14.421875 30.17431641 C14.46784528 33.85337514 14.5257864 37.53208651 14.5859375 41.2109375 C14.59748871 42.34050873 14.60903992 43.47007996 14.62094116 44.63388062 C14.78624732 59.09740846 14.78624732 59.09740846 21.421875 71.4375 C26.53354808 75.89123496 30.6042894 76.35977191 37.1484375 76.2734375 C43.00597273 75.71175604 47.20307593 73.11949618 51.3125 69 C57.45111825 60.94815776 57.45519425 49.94162319 57.51171875 40.234375 C57.52966995 39.07496399 57.54762115 37.91555298 57.56611633 36.7210083 C57.61974819 33.06404115 57.65396319 29.4072009 57.6875 25.75 C57.72071467 23.2512846 57.75520808 20.75258584 57.79101562 18.25390625 C57.8754473 12.16936315 57.94248179 6.08485461 58 0 C62.95 0 67.9 0 73 0 C73 29.04 73 58.08 73 88 C68.05 88 63.1 88 58 88 C57.67 84.37 57.34 80.74 57 77 C56.21625 78.051875 55.4325 79.10375 54.625 80.1875 C50.17012695 85.41667241 43.75267991 88.73709422 37 90 C26.71441616 90.78423806 17.06166414 89.65792054 8.82421875 83.0078125 C2.30138376 75.82850375 -0.13217872 67.01461002 -0.11352539 57.55737305 C-0.11344986 56.27642258 -0.11337433 54.99547211 -0.11329651 53.67570496 C-0.10819065 52.28770915 -0.10297467 50.89971375 -0.09765625 49.51171875 C-0.09578975 48.08396962 -0.09436694 46.65621985 -0.09336853 45.22846985 C-0.08956165 41.48186455 -0.07974707 37.7352984 -0.06866455 33.9887085 C-0.05841102 30.16109751 -0.05386248 26.33348016 -0.04882812 22.50585938 C-0.03812307 15.00388639 -0.02054118 7.50195368 0 0 Z " fill="#000000" transform="translate(141,697)"/>
<path d="M0 0 C12.54 0 25.08 0 38 0 C38 4.62 38 9.24 38 14 C34.37 14 30.74 14 27 14 C27 45.68 27 77.36 27 110 C30.63 110 34.26 110 38 110 C38 114.29 38 118.58 38 123 C25.46 123 12.92 123 0 123 C0 118.71 0 114.42 0 110 C3.63 110 7.26 110 11 110 C11 78.32 11 46.64 11 14 C7.37 14 3.74 14 0 14 C0 9.38 0 4.76 0 0 Z " fill="#000000" transform="translate(962,662)"/>
<path d="M0 0 C0 8.25 0 16.5 0 25 C7.26 25 14.52 25 22 25 C22 29.29 22 33.58 22 38 C14.74 38 7.48 38 0 38 C0.06889686 45.72329991 0.15687614 53.44605952 0.26245117 61.16894531 C0.29568038 63.79551191 0.3237185 66.42214957 0.34643555 69.04882812 C0.38001728 72.82713061 0.43233753 76.60478305 0.48828125 80.3828125 C0.49467117 81.55490265 0.5010611 82.7269928 0.50764465 83.93460083 C0.63562544 91.88456924 0.63562544 91.88456924 4 99 C6.95047357 101.40408958 10.08198669 101.23548167 13.8046875 101.265625 C16.69681921 100.98992904 16.69681921 100.98992904 22 99 C22 103.29 22 107.58 22 112 C13.74918284 116.12540858 4.97898997 115.94403434 -3.66796875 113.1015625 C-9.46030674 110.36548325 -12.20490402 105.40869516 -14.35624695 99.5488739 C-15.6979819 94.23641258 -15.36044355 88.75647679 -15.29296875 83.3125 C-15.28872391 82.01425293 -15.28447906 80.71600586 -15.28010559 79.37841797 C-15.26873422 75.95227243 -15.23933543 72.52651766 -15.20599365 69.1005249 C-15.1751248 65.5944141 -15.1615646 62.08823922 -15.14648438 58.58203125 C-15.11445666 51.72117894 -15.06175344 44.86064855 -15 38 C-19.95 38 -24.9 38 -30 38 C-30 33.71 -30 29.42 -30 25 C-25.05 25 -20.1 25 -15 25 C-15 18.07 -15 11.14 -15 4 C-4.5 0 -4.5 0 0 0 Z " fill="#000000" transform="translate(302,672)"/>
<path d="M0 0 C0 5.28 0 10.56 0 16 C-5 14 -5 14 -7.21875 12.9296875 C-14.77298738 9.43714624 -22.46255504 8.50882723 -30.58203125 10.6953125 C-39.17991444 14.18133669 -44.13999584 19.31085209 -48.0546875 27.6328125 C-51.50896876 36.28278953 -51.64812177 48.84381225 -48.4375 57.625 C-45.2002128 64.16725287 -41.08673049 69.38383941 -34.375 72.5 C-23.2941919 76.24397001 -14.20728369 73.94162147 -4 69 C-2.515 68.505 -2.515 68.505 -1 68 C-1 72.62 -1 77.24 -1 82 C-13.36943542 88.74696478 -26.41617125 90.0032201 -40.0859375 86.08984375 C-51.13274954 81.95839528 -58.36263115 74.77170379 -63.34375 64.12890625 C-68.86199734 49.91941934 -68.42643281 33.44500972 -62.3125 19.44140625 C-56.61241891 8.83857684 -47.77519885 0.99710194 -36.203125 -2.4921875 C-24.49423984 -5.19104401 -10.99742274 -5.49871137 0 0 Z " fill="#000000" transform="translate(695,699)"/>
<path d="M0 0 C1.87751953 0.00966797 1.87751953 0.00966797 3.79296875 0.01953125 C6.8125 0.1875 6.8125 0.1875 7.8125 1.1875 C7.88563567 3.71799402 7.90497527 6.22054837 7.875 8.75 C7.87048828 9.46091797 7.86597656 10.17183594 7.86132812 10.90429688 C7.84950864 12.66540013 7.83157263 14.42646036 7.8125 16.1875 C7.0390625 16.00832031 6.265625 15.82914063 5.46875 15.64453125 C-2.63824708 13.96538922 -2.63824708 13.96538922 -10.44140625 16.015625 C-17.08655055 20.47545339 -20.06907039 26.97400357 -21.70166016 34.58422852 C-22.39090824 39.69609409 -22.4245024 44.77659533 -22.50390625 49.9296875 C-22.52468735 51.05319611 -22.54546844 52.17670471 -22.56687927 53.33425903 C-22.63207224 56.91027932 -22.69111884 60.48637077 -22.75 64.0625 C-22.793214 66.49219475 -22.8368292 68.9218824 -22.88085938 71.3515625 C-22.98772258 77.29680274 -23.08907485 83.24211432 -23.1875 89.1875 C-28.1375 89.1875 -33.0875 89.1875 -38.1875 89.1875 C-38.1875 60.1475 -38.1875 31.1075 -38.1875 1.1875 C-33.2375 1.1875 -28.2875 1.1875 -23.1875 1.1875 C-22.8575 5.4775 -22.5275 9.7675 -22.1875 14.1875 C-21.671875 13.32125 -21.15625 12.455 -20.625 11.5625 C-15.4686943 3.81886654 -9.27289813 -0.10570143 0 0 Z " fill="#000000" transform="translate(120.1875,695.8125)"/>
<path d="M0 0 C4.62 0 9.24 0 14 0 C14 29.04 14 58.08 14 88 C9.38 88 4.76 88 0 88 C0 58.96 0 29.92 0 0 Z " fill="#000000" transform="translate(241,697)"/>
<path d="M0 0 C3.49761236 4.48308282 3.56577843 8.36237534 3.41015625 13.86328125 C2.53759819 20.5362729 -0.4350456 25.89898659 -5.375 30.4375 C-12.36404952 35.72044321 -19.34240628 37.20309885 -28 36 C-30.8671875 34.9765625 -30.8671875 34.9765625 -33 33 C-33.60514424 28.03633024 -33.73515677 26.04801582 -30.82861328 21.90454102 C-29.84634899 20.91684069 -28.84216294 19.9505935 -27.8203125 19.00390625 C-27.29235077 18.48489243 -26.76438904 17.9658786 -26.22042847 17.43113708 C-24.53987339 15.78851923 -22.83334116 14.1761475 -21.125 12.5625 C-19.98390819 11.45298822 -18.84456452 10.34167552 -17.70703125 9.22851562 C-7.40999426 -0.7799994 -7.40999426 -0.7799994 0 0 Z " fill="#000000" transform="translate(610,164)"/>
<path d="M0 0 C3.15571593 6.16799022 2.47957155 12.09332916 0.4375 18.5 C-2.35072937 25.60706019 -6.48245482 29.95082198 -13.25 33.4375 C-18.4228609 35.49247214 -23.51006779 35.74941932 -29 35 C-31.54878922 33.82755696 -33.06297378 32.93702622 -35 31 C-35.41137695 28.32739258 -35.41137695 28.32739258 -35 25 C-33.19985041 22.65121908 -31.53288256 20.78325838 -29.41796875 18.76171875 C-28.8479866 18.19548294 -28.27800446 17.62924713 -27.69075012 17.04585266 C-26.48626411 15.85478218 -25.27461778 14.67091489 -24.05639648 13.49389648 C-22.19043478 11.69033664 -20.34675732 9.86621142 -18.50585938 8.03710938 C-17.33196642 6.88155427 -16.15687569 5.72721441 -14.98046875 4.57421875 C-14.42723434 4.0294841 -13.87399994 3.48474945 -13.30400085 2.92350769 C-8.62882807 -1.57901159 -6.07196014 -2.97138475 0 0 Z " fill="#000000" transform="translate(680,232)"/>
<path d="M0 0 C2.83627039 2.17447397 3.29908116 4.73547768 3.875 8.125 C4.43172466 15.49555038 2.44374246 21.6769658 -2.25 27.375 C-6.74799625 32.09217827 -12.09371025 35.76375463 -18.77734375 36.16796875 C-19.82019531 36.17441406 -20.86304688 36.18085938 -21.9375 36.1875 C-22.97777344 36.20167969 -24.01804687 36.21585938 -25.08984375 36.23046875 C-27.9790201 36.0016615 -29.60136274 35.58610585 -32 34 C-33.4620091 31.0759818 -33.40085349 29.2530148 -33 26 C-31.24962189 23.64024768 -29.62915543 21.76300987 -27.55859375 19.7265625 C-26.9980983 19.15795502 -26.43760284 18.58934753 -25.86012268 18.00350952 C-24.67292563 16.80786461 -23.47804524 15.61980633 -22.27612305 14.43896484 C-20.44481946 12.6322213 -18.65079096 10.79353162 -16.85742188 8.94921875 C-15.69740366 7.78957106 -14.53535756 6.63194764 -13.37109375 5.4765625 C-12.57220985 4.6517186 -12.57220985 4.6517186 -11.75718689 3.81021118 C-7.88511016 0.07840073 -5.31149624 -0.71303362 0 0 Z " fill="#000000" transform="translate(542,98)"/>
<path d="M0 0 C3.0382079 3.08908698 3.43198682 5.49382859 3.4375 9.75 C3.24467606 16.35421981 1.90855221 20.9122479 -2.6484375 25.75 C-7.70250821 30.34059698 -12.15121337 32.28762596 -19.0625 32.375 C-20.59583984 32.41753906 -20.59583984 32.41753906 -22.16015625 32.4609375 C-25 32 -25 32 -27.43359375 30.3515625 C-29 28 -29 28 -28.88671875 25.17456055 C-27.79921924 21.28118055 -26.25863083 19.66896801 -23.37890625 16.85546875 C-22.44369141 15.93185547 -21.50847656 15.00824219 -20.54492188 14.05664062 C-19.5508361 13.10020341 -18.55669485 12.14382384 -17.5625 11.1875 C-16.57117601 10.21269538 -15.58092949 9.23679375 -14.59179688 8.25976562 C-5.47601188 -0.66780633 -5.47601188 -0.66780633 0 0 Z " fill="#000000" transform="translate(262,654)"/>
</svg>
