<?xml version="1.0" encoding="UTF-8"?>
<svg version="1.1" xmlns="http://www.w3.org/2000/svg" width="275" height="183">
<path d="M0 0 C90.75 0 181.5 0 275 0 C275 60.39 275 120.78 275 183 C184.25 183 93.5 183 0 183 C0 122.61 0 62.22 0 0 Z " fill="#FEFEFE" transform="translate(0,0)"/>
<path d="M0 0 C11.55 0 23.1 0 35 0 C35.495 1.485 35.495 1.485 36 3 C32.7 3 29.4 3 26 3 C26 3.66 26 4.32 26 5 C30.29 5 34.58 5 39 5 C39.495 8.96 39.495 8.96 40 13 C26.52364547 14.13144806 13.47043811 14.23460644 0 13 C0 12.01 0 11.02 0 10 C4.29 10 8.58 10 13 10 C13 9.34 13 8.68 13 8 C8.71 8 4.42 8 0 8 C0 5.36 0 2.72 0 0 Z " fill="#D0E7F1" transform="translate(103,95)"/>
<path d="M0 0 C3.95819611 -0.08678303 7.91614934 -0.14031733 11.875 -0.1875 C13.00292969 -0.21263672 14.13085938 -0.23777344 15.29296875 -0.26367188 C16.36933594 -0.27333984 17.44570312 -0.28300781 18.5546875 -0.29296875 C20.04718018 -0.31653442 20.04718018 -0.31653442 21.56982422 -0.34057617 C22.37178223 -0.22818604 23.17374023 -0.1157959 24 0 C24.66 0.99 25.32 1.98 26 3 C26.66 2.01 27.32 1.02 28 0 C30.43017578 -0.34057617 30.43017578 -0.34057617 33.4453125 -0.29296875 C34.52167969 -0.28330078 35.59804687 -0.27363281 36.70703125 -0.26367188 C38.39892578 -0.2259668 38.39892578 -0.2259668 40.125 -0.1875 C41.26066406 -0.17396484 42.39632812 -0.16042969 43.56640625 -0.14648438 C46.37807387 -0.11104319 49.18880417 -0.06163517 52 0 C52 2.64 52 5.28 52 8 C34.84 8 17.68 8 0 8 C0 5.36 0 2.72 0 0 Z " fill="#EEFCFD" transform="translate(155,85)"/>
<path d="M0 0 C15.84 0 31.68 0 48 0 C48.495 1.485 48.495 1.485 49 3 C32.83 3 16.66 3 0 3 C0 2.01 0 1.02 0 0 Z " fill="#3993C6" transform="translate(94,70)"/>
<path d="M0 0 C15.84 0 31.68 0 48 0 C48 0.99 48 1.98 48 3 C32.16 3 16.32 3 0 3 C0 2.01 0 1.02 0 0 Z " fill="#3691C4" transform="translate(94,110)"/>
<path d="M0 0 C15.18 0 30.36 0 46 0 C45.34 0.99 44.68 1.98 44 3 C42.08908081 3.36076355 42.08908081 3.36076355 39.73388672 3.34057617 C38.85312469 3.34034958 37.97236267 3.34012299 37.06491089 3.33988953 C36.11278717 3.32440567 35.16066345 3.30892181 34.1796875 3.29296875 C33.20589142 3.28872391 32.23209534 3.28447906 31.22879028 3.28010559 C28.11058195 3.26327786 24.99301383 3.22561811 21.875 3.1875 C19.76433223 3.17245846 17.65365436 3.15876914 15.54296875 3.14648438 C10.36175977 3.11336109 5.18092561 3.06312151 0 3 C0 2.01 0 1.02 0 0 Z " fill="#358FC3" transform="translate(94,115)"/>
<path d="M0 0 C6.2295758 -0.07589768 12.45903295 -0.12853504 18.68896484 -0.16479492 C20.80945288 -0.17990645 22.92990954 -0.2003964 25.05029297 -0.22631836 C28.09350311 -0.26259786 31.13630103 -0.27970242 34.1796875 -0.29296875 C35.13181122 -0.30845261 36.08393494 -0.32393646 37.06491089 -0.33988953 C38.38605392 -0.34022942 38.38605392 -0.34022942 39.73388672 -0.34057617 C40.51110077 -0.34723801 41.28831482 -0.35389984 42.08908081 -0.36076355 C42.71968414 -0.24171158 43.35028748 -0.12265961 44 0 C44.66 0.99 45.32 1.98 46 3 C30.82 3 15.64 3 0 3 C0 2.01 0 1.02 0 0 Z " fill="#338EC2" transform="translate(94,65)"/>
<path d="M0 0 C12.87 0 25.74 0 39 0 C36 3 36 3 32.35473633 3.34057617 C30.84708452 3.34010204 29.33937995 3.32320244 27.83203125 3.29296875 C27.03721848 3.28872391 26.2424057 3.28447906 25.42350769 3.28010559 C22.88615979 3.2633193 20.34960762 3.22566824 17.8125 3.1875 C16.09180835 3.17245305 14.37110424 3.15876466 12.65039062 3.14648438 C8.43328738 3.11341607 4.21677858 3.06163495 0 3 C0 2.01 0 1.02 0 0 Z " fill="#328FC1" transform="translate(94,120)"/>
<path d="M0 0 C4.89297012 -0.04955872 9.78579305 -0.0857946 14.67895508 -0.10986328 C16.34239244 -0.11990057 18.00581225 -0.13353331 19.66918945 -0.15087891 C22.06466005 -0.17522749 24.45989668 -0.18650588 26.85546875 -0.1953125 C27.96513252 -0.21079636 27.96513252 -0.21079636 29.09721375 -0.22659302 C33.18331761 -0.22747437 36.3243223 0.17635905 40 2 C40 2.33 40 2.66 40 3 C26.8 3 13.6 3 0 3 C0 2.01 0 1.02 0 0 Z " fill="#2F8CBF" transform="translate(94,60)"/>
<path d="M0 0 C12.21 0 24.42 0 37 0 C36.34 0.99 35.68 1.98 35 3 C32.30459685 3.26686213 29.84152536 3.34818073 27.1484375 3.29296875 C26.37440582 3.28872391 25.60037415 3.28447906 24.80288696 3.28010559 C22.32657323 3.26328998 19.85106842 3.22563395 17.375 3.1875 C15.69792841 3.17245682 14.02084408 3.15876778 12.34375 3.14648438 C8.22885419 3.11337721 4.11456431 3.06157637 0 3 C0 2.01 0 1.02 0 0 Z " fill="#328EC1" transform="translate(103,85)"/>
<path d="M0 0 C4.62 0 9.24 0 14 0 C14 2.64 14 5.28 14 8 C9.38 8 4.76 8 0 8 C0.33 6.68 0.66 5.36 1 4 C0.67 2.68 0.34 1.36 0 0 Z " fill="#7FBBD7" transform="translate(67,100)"/>
<path d="M0 0 C11.55 0 23.1 0 35 0 C35.495 1.485 35.495 1.485 36 3 C24.12 3 12.24 3 0 3 C0 2.01 0 1.02 0 0 Z " fill="#328FC0" transform="translate(103,95)"/>
<path d="M0 0 C10.23 0 20.46 0 31 0 C31 0.99 31 1.98 31 3 C20.77 3 10.54 3 0 3 C0 2.01 0 1.02 0 0 Z " fill="#328FC1" transform="translate(59,120)"/>
<path d="M0 0 C10.23 0 20.46 0 31 0 C31 0.99 31 1.98 31 3 C20.77 3 10.54 3 0 3 C0 2.01 0 1.02 0 0 Z " fill="#3591C3" transform="translate(59,115)"/>
<path d="M0 0 C10.23 0 20.46 0 31 0 C31 0.99 31 1.98 31 3 C20.77 3 10.54 3 0 3 C0 2.01 0 1.02 0 0 Z " fill="#3791C3" transform="translate(59,110)"/>
<path d="M0 0 C10.23 0 20.46 0 31 0 C31 0.99 31 1.98 31 3 C20.77 3 10.54 3 0 3 C0 2.01 0 1.02 0 0 Z " fill="#3892C6" transform="translate(59,70)"/>
<path d="M0 0 C10.23 0 20.46 0 31 0 C31 0.99 31 1.98 31 3 C20.77 3 10.54 3 0 3 C0 2.01 0 1.02 0 0 Z " fill="#348EC2" transform="translate(59,65)"/>
<path d="M0 0 C10.23 0 20.46 0 31 0 C31 0.99 31 1.98 31 3 C20.77 3 10.54 3 0 3 C0 2.01 0 1.02 0 0 Z " fill="#2F8CC0" transform="translate(59,60)"/>
<path d="M0 0 C10.23 0 20.46 0 31 0 C30.67 0.99 30.34 1.98 30 3 C20.1 3 10.2 3 0 3 C0 2.01 0 1.02 0 0 Z " fill="#2D8BC0" transform="translate(103,90)"/>
<path d="M0 0 C9.24 0 18.48 0 28 0 C28.33 0.99 28.66 1.98 29 3 C19.43 3 9.86 3 0 3 C0 2.01 0 1.02 0 0 Z " fill="#3C94C7" transform="translate(146,70)"/>
<path d="M0 0 C9.24 0 18.48 0 28 0 C28 0.99 28 1.98 28 3 C18.76 3 9.52 3 0 3 C0 2.01 0 1.02 0 0 Z " fill="#3992C6" transform="translate(188,70)"/>
<path d="M0 0 C8.58 0 17.16 0 26 0 C26.33 0.99 26.66 1.98 27 3 C18.09 3 9.18 3 0 3 C0 2.01 0 1.02 0 0 Z " fill="#3891C3" transform="translate(146,65)"/>
<path d="M0 0 C8.58 0 17.16 0 26 0 C26 0.99 26 1.98 26 3 C17.42 3 8.84 3 0 3 C0 2.01 0 1.02 0 0 Z " fill="#358FC2" transform="translate(190,65)"/>
<path d="M0 0 C7.92 0 15.84 0 24 0 C24 0.99 24 1.98 24 3 C15.75 3 7.5 3 -1 3 C-0.67 2.01 -0.34 1.02 0 0 Z " fill="#348FC1" transform="translate(183,85)"/>
<path d="M0 0 C7.92 0 15.84 0 24 0 C24.33 0.99 24.66 1.98 25 3 C16.75 3 8.5 3 0 3 C0 2.01 0 1.02 0 0 Z " fill="#358FC1" transform="translate(155,85)"/>
<path d="M0 0 C7.92 0 15.84 0 24 0 C24.33 0.99 24.66 1.98 25 3 C16.75 3 8.5 3 0 3 C0 2.01 0 1.02 0 0 Z " fill="#318DC0" transform="translate(146,60)"/>
<path d="M0 0 C7.92 0 15.84 0 24 0 C24 0.99 24 1.98 24 3 C15.75 3 7.5 3 -1 3 C-0.67 2.01 -0.34 1.02 0 0 Z " fill="#308CC0" transform="translate(192,60)"/>
<path d="M0 0 C7.59 0 15.18 0 23 0 C23.33 0.99 23.66 1.98 24 3 C16.08 3 8.16 3 0 3 C0 2.01 0 1.02 0 0 Z " fill="#3892C3" transform="translate(155,80)"/>
<path d="M0 0 C7.59 0 15.18 0 23 0 C23 0.99 23 1.98 23 3 C15.41 3 7.82 3 0 3 C0 2.01 0 1.02 0 0 Z " fill="#3892C2" transform="translate(146,120)"/>
<path d="M0 0 C7.59 0 15.18 0 23 0 C23 0.99 23 1.98 23 3 C15.41 3 7.82 3 0 3 C0 2.01 0 1.02 0 0 Z " fill="#3B94C4" transform="translate(146,115)"/>
<path d="M0 0 C7.59 0 15.18 0 23 0 C23 0.99 23 1.98 23 3 C15.41 3 7.82 3 0 3 C0 2.01 0 1.02 0 0 Z " fill="#3E94C4" transform="translate(146,110)"/>
<path d="M0 0 C7.26 0 14.52 0 22 0 C22 0.99 22 1.98 22 3 C14.41 3 6.82 3 -1 3 C-0.67 2.01 -0.34 1.02 0 0 Z " fill="#338FC1" transform="translate(185,80)"/>
<path d="M0 0 C7.26 0 14.52 0 22 0 C22 0.99 22 1.98 22 3 C14.74 3 7.48 3 0 3 C0 2.01 0 1.02 0 0 Z " fill="#328EC0" transform="translate(194,120)"/>
<path d="M0 0 C7.26 0 14.52 0 22 0 C22 0.99 22 1.98 22 3 C14.74 3 7.48 3 0 3 C0 2.01 0 1.02 0 0 Z " fill="#3590C3" transform="translate(194,115)"/>
<path d="M0 0 C7.26 0 14.52 0 22 0 C22 0.99 22 1.98 22 3 C14.74 3 7.48 3 0 3 C0 2.01 0 1.02 0 0 Z " fill="#3891C3" transform="translate(194,110)"/>
<path d="M0 0 C7.26 0 14.52 0 22 0 C22 0.99 22 1.98 22 3 C15.07 3 8.14 3 1 3 C0.67 2.01 0.34 1.02 0 0 Z " fill="#3591C1" transform="translate(170,90)"/>
<path d="M0 0 C6.93 0 13.86 0 21 0 C21.33 0.99 21.66 1.98 22 3 C14.74 3 7.48 3 0 3 C0 2.01 0 1.02 0 0 Z " fill="#338EC0" transform="translate(155,75)"/>
<path d="M0 0 C6.6 0 13.2 0 20 0 C20 0.99 20 1.98 20 3 C13.07 3 6.14 3 -1 3 C-0.67 2.01 -0.34 1.02 0 0 Z " fill="#2F8CC0" transform="translate(187,75)"/>
<path d="M0 0 C5.94 0 11.88 0 18 0 C18 0.99 18 1.98 18 3 C12.06 3 6.12 3 0 3 C0 2.01 0 1.02 0 0 Z " fill="#3491C1" transform="translate(172,95)"/>
<path d="M0 0 C2.64 0 5.28 0 8 0 C7.67 2.31 7.34 4.62 7 7 C5.35 7.33 3.7 7.66 2 8 C0 2.25 0 2.25 0 0 Z " fill="#9DCBE1" transform="translate(177,110)"/>
<path d="M0 0 C5.28 0 10.56 0 16 0 C15.67 0.99 15.34 1.98 15 3 C10.38 3 5.76 3 1 3 C0.67 2.01 0.34 1.02 0 0 Z " fill="#3792C1" transform="translate(173,100)"/>
<path d="M0 0 C4.62 0 9.24 0 14 0 C14 0.99 14 1.98 14 3 C9.38 3 4.76 3 0 3 C0 2.01 0 1.02 0 0 Z " fill="#3791BF" transform="translate(67,105)"/>
<path d="M0 0 C4.62 0 9.24 0 14 0 C14 0.99 14 1.98 14 3 C9.38 3 4.76 3 0 3 C0 2.01 0 1.02 0 0 Z " fill="#3691C0" transform="translate(155,105)"/>
<path d="M0 0 C4.62 0 9.24 0 14 0 C14 0.99 14 1.98 14 3 C9.38 3 4.76 3 0 3 C0 2.01 0 1.02 0 0 Z " fill="#3B94C3" transform="translate(155,100)"/>
<path d="M0 0 C4.62 0 9.24 0 14 0 C14 0.99 14 1.98 14 3 C9.38 3 4.76 3 0 3 C0 2.01 0 1.02 0 0 Z " fill="#3D95C3" transform="translate(67,95)"/>
<path d="M0 0 C4.62 0 9.24 0 14 0 C14 0.99 14 1.98 14 3 C9.38 3 4.76 3 0 3 C0 2.01 0 1.02 0 0 Z " fill="#3D94C2" transform="translate(155,95)"/>
<path d="M0 0 C4.62 0 9.24 0 14 0 C14 0.99 14 1.98 14 3 C9.38 3 4.76 3 0 3 C0 2.01 0 1.02 0 0 Z " fill="#3C93C4" transform="translate(155,90)"/>
<path d="M0 0 C4.62 0 9.24 0 14 0 C14 0.99 14 1.98 14 3 C9.38 3 4.76 3 0 3 C0 2.01 0 1.02 0 0 Z " fill="#348EBF" transform="translate(129,75)"/>
<path d="M0 0 C4.29 0 8.58 0 13 0 C13 0.99 13 1.98 13 3 C8.71 3 4.42 3 0 3 C0 2.01 0 1.02 0 0 Z " fill="#2C8BBD" transform="translate(103,105)"/>
<path d="M0 0 C4.29 0 8.58 0 13 0 C13 0.99 13 1.98 13 3 C8.71 3 4.42 3 0 3 C0 2.01 0 1.02 0 0 Z " fill="#2D8BBD" transform="translate(194,105)"/>
<path d="M0 0 C4.29 0 8.58 0 13 0 C13 0.99 13 1.98 13 3 C8.71 3 4.42 3 0 3 C0 2.01 0 1.02 0 0 Z " fill="#3390C0" transform="translate(194,100)"/>
<path d="M0 0 C4.29 0 8.58 0 13 0 C13 0.99 13 1.98 13 3 C8.71 3 4.42 3 0 3 C0 2.01 0 1.02 0 0 Z " fill="#3490C1" transform="translate(129,100)"/>
<path d="M0 0 C4.29 0 8.58 0 13 0 C13 0.99 13 1.98 13 3 C8.71 3 4.42 3 0 3 C0 2.01 0 1.02 0 0 Z " fill="#3390BF" transform="translate(103,100)"/>
<path d="M0 0 C4.29 0 8.58 0 13 0 C13 0.99 13 1.98 13 3 C8.71 3 4.42 3 0 3 C0 2.01 0 1.02 0 0 Z " fill="#338FC0" transform="translate(194,95)"/>
<path d="M0 0 C4.29 0 8.58 0 13 0 C13 0.99 13 1.98 13 3 C8.71 3 4.42 3 0 3 C0 2.01 0 1.02 0 0 Z " fill="#348FC0" transform="translate(194,90)"/>
<path d="M0 0 C4.29 0 8.58 0 13 0 C13 0.99 13 1.98 13 3 C8.71 3 4.42 3 0 3 C0 2.01 0 1.02 0 0 Z " fill="#3590C1" transform="translate(68,90)"/>
<path d="M0 0 C4.29 0 8.58 0 13 0 C13 0.99 13 1.98 13 3 C8.71 3 4.42 3 0 3 C0 2.01 0 1.02 0 0 Z " fill="#328CBF" transform="translate(68,85)"/>
<path d="M0 0 C4.29 0 8.58 0 13 0 C13 0.99 13 1.98 13 3 C8.71 3 4.42 3 0 3 C0 2.01 0 1.02 0 0 Z " fill="#338FC0" transform="translate(129,80)"/>
<path d="M0 0 C4.29 0 8.58 0 13 0 C13 0.99 13 1.98 13 3 C8.71 3 4.42 3 0 3 C0 2.01 0 1.02 0 0 Z " fill="#318EC0" transform="translate(103,80)"/>
<path d="M0 0 C4.29 0 8.58 0 13 0 C13 0.99 13 1.98 13 3 C8.71 3 4.42 3 0 3 C0 2.01 0 1.02 0 0 Z " fill="#308EBF" transform="translate(68,80)"/>
<path d="M0 0 C4.29 0 8.58 0 13 0 C13 0.99 13 1.98 13 3 C8.71 3 4.42 3 0 3 C0 2.01 0 1.02 0 0 Z " fill="#2F8CBF" transform="translate(103,75)"/>
<path d="M0 0 C4.29 0 8.58 0 13 0 C13 0.99 13 1.98 13 3 C8.71 3 4.42 3 0 3 C0 2.01 0 1.02 0 0 Z " fill="#2F8BBE" transform="translate(68,75)"/>
<path d="M0 0 C3.96 0 7.92 0 12 0 C11.67 0.99 11.34 1.98 11 3 C7.7 3 4.4 3 1 3 C0.67 2.01 0.34 1.02 0 0 Z " fill="#2E8DBF" transform="translate(175,105)"/>
<path d="M0 0 C2.64 0 5.28 0 8 0 C8 0.99 8 1.98 8 3 C5.69 3 3.38 3 1 3 C0.67 2.01 0.34 1.02 0 0 Z " fill="#378FC1" transform="translate(177,110)"/>
</svg>
