<?xml version="1.0" encoding="UTF-8"?>
<svg version="1.1" xmlns="http://www.w3.org/2000/svg" width="389" height="129">
<path d="M0 0 C128.37 0 256.74 0 389 0 C389 42.57 389 85.14 389 129 C260.63 129 132.26 129 0 129 C0 86.43 0 43.86 0 0 Z " fill="#F9FAFB" transform="translate(0,0)"/>
<path d="M0 0 C3.63 0 7.26 0 11 0 C11.01458252 1.13542236 11.02916504 2.27084473 11.04418945 3.44067383 C11.10213676 7.65095609 11.17936941 11.8607015 11.26245117 16.07055664 C11.2957174 17.89305919 11.32374406 19.71566519 11.34643555 21.53833008 C11.37995081 24.1575125 11.43226352 26.77574548 11.48828125 29.39453125 C11.49467117 30.21025101 11.5010611 31.02597076 11.50764465 31.8664093 C11.51233078 36.06260865 11.51233078 36.06260865 13.30436707 39.71586609 C16.1063756 41.83787852 18.62883878 41.36776304 22 41 C24.57069617 37.14395575 24.35065056 33.87253657 24.4140625 29.39453125 C24.43342865 28.55532639 24.4527948 27.71612152 24.4727478 26.85148621 C24.53251213 24.17192742 24.57891612 21.4923256 24.625 18.8125 C24.6631827 16.99542401 24.70223461 15.17836606 24.7421875 13.36132812 C24.83821103 8.90769868 24.92225359 4.45398449 25 0 C28.63 0 32.26 0 36 0 C36.09911689 5.87153231 36.17158611 11.74257413 36.21972656 17.61474609 C36.23980169 19.61092618 36.26706789 21.60704775 36.30175781 23.60302734 C36.35045657 26.4776862 36.37300986 29.3515654 36.390625 32.2265625 C36.41127014 33.11429352 36.43191528 34.00202454 36.45318604 34.91665649 C36.4551734 40.4449177 35.73989537 43.64301765 32 48 C25.51826929 52.29391964 18.49185905 51.71389235 11 51 C6.48294405 49.82076858 3.93861142 48.4850324 1.42358398 44.50585938 C-0.40752746 39.99638239 -0.37904357 36.25861665 -0.29296875 31.4453125 C-0.28872391 30.54376434 -0.28447906 29.64221619 -0.28010559 28.71334839 C-0.26339058 25.85025435 -0.22575192 22.98787921 -0.1875 20.125 C-0.17244387 18.17709354 -0.15875709 16.22917598 -0.14648438 14.28125 C-0.11351058 9.52055878 -0.06177813 4.76040104 0 0 Z " fill="#21337E" transform="translate(54,26)"/>
<path d="M0 0 C12.87 0 25.74 0 39 0 C38.34 2.97 37.68 5.94 37 9 C32.71 9 28.42 9 24 9 C24 22.86 24 36.72 24 51 C20.04 51 16.08 51 12 51 C12 37.14 12 23.28 12 9 C8.04 9 4.08 9 0 9 C0 6.03 0 3.06 0 0 Z " fill="#1F317E" transform="translate(7,26)"/>
<path d="M0 0 C1.12148437 -0.02835938 2.24296875 -0.05671875 3.3984375 -0.0859375 C7.30682301 0.47240329 8.86572183 1.59622163 11.625 4.375 C14.74839153 8.90111228 13.75072292 14.09463742 13.625 19.375 C7.355 19.375 1.085 19.375 -5.375 19.375 C-3.84187233 23.69108796 -3.84187233 23.69108796 -1.375 27.375 C3.17450416 27.63747139 6.50939805 27.37044337 10.625 25.375 C11.615 27.025 12.605 28.675 13.625 30.375 C8.76028877 34.82273598 4.25164918 35.09444295 -2.234375 34.89453125 C-6.21047763 34.23679288 -8.26756172 32.95621168 -11.10546875 30.17578125 C-15.32239521 24.19423326 -15.2236346 17.41866715 -14.375 10.375 C-11.52760885 3.2127161 -7.82095992 0.08948467 0 0 Z " fill="#22347F" transform="translate(140.375,42.625)"/>
<path d="M0 0 C2.05078125 0.03255208 4.1015625 0.06510417 6.15234375 0.09765625 C2.92618809 14.01750271 -1.16534596 27.69118365 -5.18357849 41.3969574 C-7.13402218 48.05753109 -9.03321874 54.73247684 -10.90771484 61.41479492 C-12.4024816 66.69693956 -14.07023646 71.90389712 -15.84765625 77.09765625 C-18.48765625 77.09765625 -21.12765625 77.09765625 -23.84765625 77.09765625 C-22.35050143 68.4692893 -19.96443853 60.11845165 -17.53125 51.71875 C-17.11025994 50.25577634 -16.68953391 48.79272668 -16.26905823 47.3296051 C-15.39330343 44.28563416 -14.51473228 41.24249518 -13.6340332 38.19995117 C-12.50360197 34.29397709 -11.37982965 30.38612382 -10.25804043 26.47766018 C-9.39319231 23.46678215 -8.52516102 20.45682938 -7.65611458 17.44716072 C-7.24012851 16.00526639 -6.82508024 14.56310117 -6.41097832 13.1206646 C-5.83504841 11.1165287 -5.25491692 9.11365823 -4.67358398 7.11108398 C-4.34430405 5.97098373 -4.01502411 4.83088348 -3.67576599 3.65623474 C-2.53576752 0.13402577 -2.53576752 0.13402577 0 0 Z " fill="#CF285B" transform="translate(120.84765625,12.90234375)"/>
<path d="M0 0 C4 0 8 0 12 0 C12 4.29 12 8.58 12 13 C8.04 13 4.08 13 0 13 C0 8.71 0 4.42 0 0 Z " fill="#B1B7D2" transform="translate(175,45)"/>
<path d="M0 0 C0.66 0 1.32 0 2 0 C2 0.66 2 1.32 2 2 C5.59136531 3.24316491 8.31517639 2.65507975 12 2 C13 3 13 3 13.09765625 5.06640625 C13.08605469 5.89011719 13.07445312 6.71382813 13.0625 7.5625 C13.05347656 8.38878906 13.04445313 9.21507813 13.03515625 10.06640625 C13.02355469 10.70449219 13.01195312 11.34257813 13 12 C11.02090602 12.02686553 9.04171029 12.04633375 7.0625 12.0625 C5.96035156 12.07410156 4.85820312 12.08570312 3.72265625 12.09765625 C1 12 1 12 0 11 C-0.25910191 9.52887696 -0.45873776 8.04698431 -0.625 6.5625 C-0.72039062 5.75941406 -0.81578125 4.95632812 -0.9140625 4.12890625 C-1 2 -1 2 0 0 Z " fill="#D2D5E3" transform="translate(259,105)"/>
<path d="M0 0 C0.99 0 1.98 0 3 0 C3.33 1.65 3.66 3.3 4 5 C4.33 5 4.66 5 5 5 C5.33 3.35 5.66 1.7 6 0 C6.99 0 7.98 0 9 0 C9.66 1.98 10.32 3.96 11 6 C11.33 4.02 11.66 2.04 12 0 C12.99 0 13.98 0 15 0 C14.343621 4.48525648 13.29925791 8.66914029 12 13 C11.01 13 10.02 13 9 13 C8.67 11.35 8.34 9.7 8 8 C7.34 9.65 6.68 11.3 6 13 C5.01 13 4.02 13 3 13 C2.49689942 11.2092015 1.99761372 9.41733089 1.5 7.625 C1.2215625 6.62726563 0.943125 5.62953125 0.65625 4.6015625 C0 2 0 2 0 0 Z " fill="#203480" transform="translate(101,104)"/>
<path d="M0 0 C0.99 0 1.98 0 3 0 C3 0.66 3 1.32 3 2 C4.98 2 6.96 2 9 2 C9 5.3 9 8.6 9 12 C8.01 12 7.02 12 6 12 C5.67 9.69 5.34 7.38 5 5 C4.25042843 8.47147842 4.25042843 8.47147842 4 12 C2.68 11.67 1.36 11.34 0 11 C-1.125 3.375 -1.125 3.375 0 0 Z " fill="#7883B0" transform="translate(213,105)"/>
<path d="M0 0 C0.66 0 1.32 0 2 0 C2 4.29 2 8.58 2 13 C0.02 13 -1.96 13 -4 13 C-5 12 -5 12 -5.0625 8.4375 C-5.041875 7.303125 -5.02125 6.16875 -5 5 C-3.35 4.67 -1.7 4.34 0 4 C0 2.68 0 1.36 0 0 Z " fill="#0F267A" transform="translate(206,45)"/>
<path d="M0 0 C2.93453261 0.36681658 3.86437246 0.86437246 6 3 C5.625 6.125 5.625 6.125 5 9 C2.6875 9.6875 2.6875 9.6875 0 10 C-1.875 8.875 -1.875 8.875 -3 7 C-2.75546876 3.65807308 -2.39456443 2.39456443 0 0 Z " fill="#293A85" transform="translate(227,107)"/>
<path d="M0 0 C4.70588235 0.70588235 4.70588235 0.70588235 6 2 C6.1875 4.9375 6.1875 4.9375 6 8 C5.34 8.66 4.68 9.32 4 10 C-0.55555556 9.44444444 -0.55555556 9.44444444 -2 8 C-1.28 1.28 -1.28 1.28 0 0 Z " fill="#3A4C8D" transform="translate(186,107)"/>
<path d="M0 0 C2.625 0.375 2.625 0.375 5 1 C5.625 3.8125 5.625 3.8125 6 7 C5.01 8.485 5.01 8.485 4 10 C-0.875 9.125 -0.875 9.125 -2 8 C-2.1875 5.0625 -2.1875 5.0625 -2 2 C-1.34 1.34 -0.68 0.68 0 0 Z " fill="#515B96" transform="translate(331,68)"/>
<path d="M0 0 C3 0.125 3 0.125 4 1.125 C4.1875 4.0625 4.1875 4.0625 4 7.125 C3.34 7.785 2.68 8.445 2 9.125 C-2.55555556 8.56944444 -2.55555556 8.56944444 -4 7.125 C-4.125 4.125 -4.125 4.125 -4 1.125 C-3 0.125 -3 0.125 0 0 Z " fill="#233481" transform="translate(226,48.875)"/>
<path d="M0 0 C2.31 0 4.62 0 7 0 C7 0.66 7 1.32 7 2 C5.68 2 4.36 2 3 2 C3 2.99 3 3.98 3 5 C3.99 5 4.98 5 6 5 C6 5.66 6 6.32 6 7 C5.01 7 4.02 7 3 7 C3 8.32 3 9.64 3 11 C4.65 11 6.3 11 8 11 C8 11.66 8 12.32 8 13 C5.36 13 2.72 13 0 13 C0 8.71 0 4.42 0 0 Z " fill="#3A488A" transform="translate(175,45)"/>
<path d="M0 0 C2.5 0.25 2.5 0.25 4.5 2.25 C4.5 3.9 4.5 5.55 4.5 7.25 C1.2 7.25 -2.1 7.25 -5.5 7.25 C-4.42513369 0.44251337 -4.42513369 0.44251337 0 0 Z " fill="#FBFBFC" transform="translate(140.5,48.75)"/>
<path d="M0 0 C0.66 0 1.32 0 2 0 C2 1.32 2 2.64 2 4 C2.61875 3.814375 3.2375 3.62875 3.875 3.4375 C6 3 6 3 8 4 C8 6.97 8 9.94 8 13 C7.01 13 6.02 13 5 13 C5 10.36 5 7.72 5 5 C4.01 5.495 4.01 5.495 3 6 C2.59270772 8.32156597 2.25561323 10.6568787 2 13 C1.34 13 0.68 13 0 13 C0 8.71 0 4.42 0 0 Z " fill="#2D3F87" transform="translate(118,104)"/>
<path d="M0 0 C1.67542976 0.28604898 3.34385343 0.61781233 5 1 C5.33 2.65 5.66 4.3 6 6 C4.35 6 2.7 6 1 6 C1 6.66 1 7.32 1 8 C2.65 8 4.3 8 6 8 C5.67 8.66 5.34 9.32 5 10 C2.625 10.1875 2.625 10.1875 0 10 C-2 7 -2 7 -1.6875 3.875 C-1 1 -1 1 0 0 Z " fill="#2B3B84" transform="translate(130,107)"/>
<path d="M0 0 C0 2.97 0 5.94 0 9 C-0.99 9 -1.98 9 -3 9 C-3 6.36 -3 3.72 -3 1 C-3.66 1 -4.32 1 -5 1 C-5 3.64 -5 6.28 -5 9 C-5.99 9 -6.98 9 -8 9 C-8 6.03 -8 3.06 -8 0 C-4 -1 -4 -1 0 0 Z " fill="#4A5893" transform="translate(182,108)"/>
<path d="M0 0 C3.53571429 0.53571429 3.53571429 0.53571429 5 2 C5.1875 4.9375 5.1875 4.9375 5 8 C4.34 8.66 3.68 9.32 3 10 C-0.53571429 9.46428571 -0.53571429 9.46428571 -2 8 C-2.1875 5.0625 -2.1875 5.0625 -2 2 C-1.34 1.34 -0.68 0.68 0 0 Z " fill="#4B5194" transform="translate(347,68)"/>
<path d="M0 0 C2.33294775 -0.04241723 4.66702567 -0.04092937 7 0 C8 1 8 1 8.09765625 2.84765625 C8.04882812 5.92382812 8.04882812 5.92382812 8 9 C7.01 9 6.02 9 5 9 C4.67 6.69 4.34 4.38 4 2 C3.67 4.31 3.34 6.62 3 9 C2.01 9 1.02 9 0 9 C0 6.03 0 3.06 0 0 Z " fill="#445390" transform="translate(251,49)"/>
<path d="M0 0 C0.598125 0.226875 1.19625 0.45375 1.8125 0.6875 C2.1425 2.3375 2.4725 3.9875 2.8125 5.6875 C1.1625 5.6875 -0.4875 5.6875 -2.1875 5.6875 C-2.1875 6.3475 -2.1875 7.0075 -2.1875 7.6875 C-0.5375 7.6875 1.1125 7.6875 2.8125 7.6875 C2.1525 8.3475 1.4925 9.0075 0.8125 9.6875 C-1.8125 9.3125 -1.8125 9.3125 -4.1875 8.6875 C-4.875 5.875 -4.875 5.875 -5.1875 2.6875 C-3.62441875 0.13720955 -3.00012909 -0.42858987 0 0 Z " fill="#3A498D" transform="translate(149.1875,107.3125)"/>
<path d="M0 0 C0.94875 0.04125 1.8975 0.0825 2.875 0.125 C2.125 2.5625 2.125 2.5625 0.875 5.125 C-1.25 5.9375 -1.25 5.9375 -3.125 6.125 C-3.125 6.785 -3.125 7.445 -3.125 8.125 C-1.475 8.125 0.175 8.125 1.875 8.125 C1.545 9.775 1.215 11.425 0.875 13.125 C-0.775 13.125 -2.425 13.125 -4.125 13.125 C-4.125 12.135 -4.125 11.145 -4.125 10.125 C-2.145 10.62 -2.145 10.62 -0.125 11.125 C0.205 10.465 0.535 9.805 0.875 9.125 C-0.775 9.125 -2.425 9.125 -4.125 9.125 C-4.75 5.75 -4.75 5.75 -5.125 2.125 C-3.125 0.125 -3.125 0.125 0 0 Z " fill="#3D458B" transform="translate(360.125,67.875)"/>
<path d="M0 0 C1.98 0 3.96 0 6 0 C6.33 1.65 6.66 3.3 7 5 C5.35 5 3.7 5 2 5 C2 5.66 2 6.32 2 7 C3.65 7 5.3 7 7 7 C6.67 7.66 6.34 8.32 6 9 C3.625 9.125 3.625 9.125 1 9 C0.34 8.34 -0.32 7.68 -1 7 C-0.625 3.375 -0.625 3.375 0 0 Z " fill="#3A498D" transform="translate(242,49)"/>
<path d="M0 0 C2.64 0 5.28 0 8 0 C8 2.97 8 5.94 8 9 C7.34 9 6.68 9 6 9 C5.67 6.69 5.34 4.38 5 2 C4.67 2 4.34 2 4 2 C3.67 4.31 3.34 6.62 3 9 C2.01 9 1.02 9 0 9 C0 6.03 0 3.06 0 0 Z " fill="#475692" transform="translate(190,49)"/>
<path d="M0 0 C0.33 1.65 0.66 3.3 1 5 C-0.65 5 -2.3 5 -4 5 C-4 5.66 -4 6.32 -4 7 C-2.68 7.33 -1.36 7.66 0 8 C-1.875 8.625 -1.875 8.625 -4 9 C-6 7 -6 7 -6.125 3.375 C-6.08375 2.26125 -6.0425 1.1475 -6 0 C-3.50907189 -1.24546405 -2.58919267 -0.7767578 0 0 Z " fill="#7B81B1" transform="translate(218,69)"/>
<path d="M0 0 C0.66 0 1.32 0 2 0 C2 1.32 2 2.64 2 4 C3.65 4 5.3 4 7 4 C7 6.97 7 9.94 7 13 C6.34 13 5.68 13 5 13 C5 10.36 5 7.72 5 5 C4.01 5.495 4.01 5.495 3 6 C2.59270772 8.32156597 2.25561323 10.6568787 2 13 C1.34 13 0.68 13 0 13 C0 8.71 0 4.42 0 0 Z " fill="#0E2579" transform="translate(212,45)"/>
<path d="M0 0 C2.625 0.375 2.625 0.375 5 1 C5 2.32 5 3.64 5 5 C3.35 5 1.7 5 0 5 C0 5.99 0 6.98 0 8 C1.65 8 3.3 8 5 8 C3.02 8.99 3.02 8.99 1 10 C0.01 9.34 -0.98 8.68 -2 8 C-2.3125 5 -2.3125 5 -2 2 C-1.34 1.34 -0.68 0.68 0 0 Z " fill="#6268A2" transform="translate(344,29)"/>
<path d="M0 0 C1.67542976 0.28604898 3.34385343 0.61781233 5 1 C3.68 1.33 2.36 1.66 1 2 C1 2.66 1 3.32 1 4 C2.32 4.33 3.64 4.66 5 5 C5 6.32 5 7.64 5 9 C3.02 9.33 1.04 9.66 -1 10 C-1.33 9.34 -1.66 8.68 -2 8 C-0.35 8 1.3 8 3 8 C3 7.34 3 6.68 3 6 C1.35 5.67 -0.3 5.34 -2 5 C-1.125 1.125 -1.125 1.125 0 0 Z " fill="#1D2E7E" transform="translate(290,107)"/>
<path d="M0 0 C0 2.97 0 5.94 0 9 C-1.98 9 -3.96 9 -6 9 C-6.33 7.68 -6.66 6.36 -7 5 C-6.34 5 -5.68 5 -5 5 C-5 5.66 -5 6.32 -5 7 C-4.01 7 -3.02 7 -2 7 C-2 6.01 -2 5.02 -2 4 C-2.66 3.67 -3.32 3.34 -4 3 C-4.33 2.67 -4.66 2.34 -5 2 C-5.66 2 -6.32 2 -7 2 C-7 1.34 -7 0.68 -7 0 C-4.3333581 -1.33332095 -2.83319697 -0.67102033 0 0 Z " fill="#1F3180" transform="translate(210,108)"/>
<path d="M0 0 C0 2.97 0 5.94 0 9 C-1.98 9 -3.96 9 -6 9 C-6.33 7.68 -6.66 6.36 -7 5 C-6.34 5 -5.68 5 -5 5 C-5 5.66 -5 6.32 -5 7 C-4.01 7 -3.02 7 -2 7 C-2 6.01 -2 5.02 -2 4 C-2.66 3.67 -3.32 3.34 -4 3 C-4.33 2.67 -4.66 2.34 -5 2 C-5.66 2 -6.32 2 -7 2 C-7 1.34 -7 0.68 -7 0 C-4.3333581 -1.33332095 -2.83319697 -0.67102033 0 0 Z " fill="#223381" transform="translate(272,108)"/>
<path d="M0 0 C0 2.97 0 5.94 0 9 C-0.66 9 -1.32 9 -2 9 C-2 6.36 -2 3.72 -2 1 C-2.99 1.495 -2.99 1.495 -4 2 C-4.40729228 4.32156597 -4.74438677 6.6568787 -5 9 C-5.66 9 -6.32 9 -7 9 C-7 6.03 -7 3.06 -7 0 C-4 -1 -4 -1 0 0 Z " fill="#162A7D" transform="translate(171,108)"/>
<path d="M0 0 C1.67542976 0.28604898 3.34385343 0.61781233 5 1 C3.68 1.33 2.36 1.66 1 2 C1 2.66 1 3.32 1 4 C2.32 4.33 3.64 4.66 5 5 C4.67 6.65 4.34 8.3 4 10 C2.35 10 0.7 10 -1 10 C-1.33 9.34 -1.66 8.68 -2 8 C-0.35 8 1.3 8 3 8 C3 7.34 3 6.68 3 6 C1.68 5.67 0.36 5.34 -1 5 C-1 1 -1 1 0 0 Z " fill="#192C7D" transform="translate(251,107)"/>
<path d="M0 0 C2.00720923 0.28674418 4.0085944 0.61866701 6 1 C6 3.97 6 6.94 6 10 C5.34 10 4.68 10 4 10 C4 7.36 4 4.72 4 2 C3.01 2.495 3.01 2.495 2 3 C1.59270772 5.32156597 1.25561323 7.6568787 1 10 C0.34 10 -0.32 10 -1 10 C-1.02689216 8.52093108 -1.04634621 7.04172517 -1.0625 5.5625 C-1.07410156 4.73878906 -1.08570313 3.91507812 -1.09765625 3.06640625 C-1 1 -1 1 0 0 Z " fill="#172C7C" transform="translate(236,107)"/>
<path d="M0 0 C0.66 0 1.32 0 2 0 C2.33 1.32 2.66 2.64 3 4 C4.32 4.33 5.64 4.66 7 5 C7 7.64 7 10.28 7 13 C6.67 13 6.34 13 6 13 C6 10.69 6 8.38 6 6 C4.68 6 3.36 6 2 6 C2 8.31 2 10.62 2 13 C1.34 13 0.68 13 0 13 C0 8.71 0 4.42 0 0 Z " fill="#535B96" transform="translate(308,64)"/>
<path d="M0 0 C0.33 1.32 0.66 2.64 1 4 C-0.98 4 -2.96 4 -5 4 C-3.74458443 6.51083114 -2.49936512 6.87125446 0 8 C-1.66611905 8.042721 -3.33382885 8.04063832 -5 8 C-6 7 -6 7 -6.0625 3.4375 C-6.041875 2.303125 -6.02125 1.16875 -6 0 C-3.50907189 -1.24546405 -2.58919267 -0.7767578 0 0 Z " fill="#5D63A0" transform="translate(312,30)"/>
<path d="M0 0 C0.66 0 1.32 0 2 0 C2.66 0.66 3.32 1.32 4 2 C4.33 1.34 4.66 0.68 5 0 C5.66 0 6.32 0 7 0 C6.34 2.97 5.68 5.94 5 9 C4.01 9 3.02 9 2 9 C1.34 6.03 0.68 3.06 0 0 Z " fill="#243883" transform="translate(232,49)"/>
<path d="M0 0 C2.625 0.375 2.625 0.375 5 1 C5 2.32 5 3.64 5 5 C3.35 5 1.7 5 0 5 C-0.33 5.99 -0.66 6.98 -1 8 C-2 7 -2 7 -2.1875 4.5625 C-2 2 -2 2 0 0 Z " fill="#686EA5" transform="translate(256,29)"/>
<path d="M0 0 C0.66 0 1.32 0 2 0 C2.66 0.66 3.32 1.32 4 2 C4.33 1.34 4.66 0.68 5 0 C5.66 0 6.32 0 7 0 C6.34 2.97 5.68 5.94 5 9 C4.01 9 3.02 9 2 9 C1.34 6.03 0.68 3.06 0 0 Z " fill="#223783" transform="translate(194,108)"/>
<path d="M0 0 C0.66 0 1.32 0 2 0 C1.52343588 1.79236067 1.04366502 3.58386897 0.5625 5.375 C0.29566406 6.37273437 0.02882812 7.37046875 -0.24609375 8.3984375 C-1 11 -1 11 -2 13 C-2.66 12.67 -3.32 12.34 -4 12 C-4.4140625 9.49609375 -4.4140625 9.49609375 -4.625 6.4375 C-4.69976562 5.42558594 -4.77453125 4.41367188 -4.8515625 3.37109375 C-4.90054688 2.58863281 -4.94953125 1.80617188 -5 1 C-3 3 -3 3 -3 6 C-2.34 6 -1.68 6 -1 6 C-0.67 4.02 -0.34 2.04 0 0 Z " fill="#4E5695" transform="translate(253,68)"/>
<path d="M0 0 C0.66 0 1.32 0 2 0 C2 0.66 2 1.32 2 2 C2.66 2 3.32 2 4 2 C4 2.66 4 3.32 4 4 C3.34 4 2.68 4 2 4 C2 5.98 2 7.96 2 10 C2.66 10 3.32 10 4 10 C4 10.66 4 11.32 4 12 C2.68 11.67 1.36 11.34 0 11 C-0.19491452 9.54263913 -0.38069358 8.08405407 -0.5625 6.625 C-0.66691406 5.81289062 -0.77132813 5.00078125 -0.87890625 4.1640625 C-1 2 -1 2 0 0 Z " fill="#172B7D" transform="translate(259,105)"/>
<path d="M0 0 C0.66 0 1.32 0 2 0 C2 0.66 2 1.32 2 2 C2.66 2 3.32 2 4 2 C4 2.66 4 3.32 4 4 C3.34 4 2.68 4 2 4 C2 5.98 2 7.96 2 10 C2.66 10 3.32 10 4 10 C4 10.66 4 11.32 4 12 C2.68 11.67 1.36 11.34 0 11 C-0.19491452 9.54263913 -0.38069358 8.08405407 -0.5625 6.625 C-0.66691406 5.81289062 -0.77132813 5.00078125 -0.87890625 4.1640625 C-1 2 -1 2 0 0 Z " fill="#192D7D" transform="translate(282,105)"/>
<path d="M0 0 C0.99 0 1.98 0 3 0 C2.343621 4.48525648 1.29925791 8.66914029 0 13 C-0.99 12.67 -1.98 12.34 -3 12 C-2.34 12 -1.68 12 -1 12 C-1.18433594 11.42765625 -1.36867188 10.8553125 -1.55859375 10.265625 C-2.28163726 6.55442821 -1.02067687 3.60238895 0 0 Z " fill="#324489" transform="translate(113,104)"/>
<path d="M0 0 C1.99954746 -0.04254356 4.00041636 -0.04080783 6 0 C7 1 7 1 7.09765625 2.84765625 C7.06510417 4.8984375 7.03255208 6.94921875 7 9 C6.34 9 5.68 9 5 9 C5 6.69 5 4.38 5 2 C4.01 2.33 3.02 2.66 2 3 C1.67 4.98 1.34 6.96 1 9 C0.67 9 0.34 9 0 9 C0 6.03 0 3.06 0 0 Z " fill="#566198" transform="translate(319,68)"/>
<path d="M0 0 C1.99954746 -0.04254356 4.00041636 -0.04080783 6 0 C7 1 7 1 7.09765625 2.84765625 C7.06510417 4.8984375 7.03255208 6.94921875 7 9 C6.34 9 5.68 9 5 9 C5 6.69 5 4.38 5 2 C4.01 2.33 3.02 2.66 2 3 C1.67 4.98 1.34 6.96 1 9 C0.67 9 0.34 9 0 9 C0 6.03 0 3.06 0 0 Z " fill="#545F97" transform="translate(187,68)"/>
<path d="M0 0 C0.66 0 1.32 0 2 0 C2 0.66 2 1.32 2 2 C2.66 2 3.32 2 4 2 C4 2.66 4 3.32 4 4 C3.34 4 2.68 4 2 4 C2 5.98 2 7.96 2 10 C2.66 10 3.32 10 4 10 C4 10.66 4 11.32 4 12 C2.68 11.67 1.36 11.34 0 11 C-0.19491452 9.54263913 -0.38069358 8.08405407 -0.5625 6.625 C-0.66691406 5.81289062 -0.77132812 5.00078125 -0.87890625 4.1640625 C-1 2 -1 2 0 0 Z " fill="#737BA7" transform="translate(242,66)"/>
<path d="M0 0 C0.99 0.33 1.98 0.66 3 1 C3 3.64 3 6.28 3 9 C1.68 8.67 0.36 8.34 -1 8 C-1.04241723 5.66705225 -1.04092937 3.33297433 -1 1 C-0.67 0.67 -0.34 0.34 0 0 Z " fill="#E7E8EF" transform="translate(264,69)"/>
<path d="M0 0 C2.125 0.375 2.125 0.375 4 1 C4.33 2.32 4.66 3.64 5 5 C3.02 5 1.04 5 -1 5 C-1.33 5.99 -1.66 6.98 -2 8 C-2.125 5.125 -2.125 5.125 -2 2 C-1.34 1.34 -0.68 0.68 0 0 Z " fill="#636CA5" transform="translate(292,68)"/>
<path d="M0 0 C1.32 0 2.64 0 4 0 C4 0.66 4 1.32 4 2 C3.34 2 2.68 2 2 2 C2 4.64 2 7.28 2 10 C1.01 10 0.02 10 -1 10 C-1.02689216 8.52093108 -1.04634621 7.04172517 -1.0625 5.5625 C-1.07410156 4.73878906 -1.08570313 3.91507812 -1.09765625 3.06640625 C-1 1 -1 1 0 0 Z " fill="#43518F" transform="translate(139,107)"/>
<path d="M0 0 C1.32 0 2.64 0 4 0 C3.67 0.66 3.34 1.32 3 2 C2.34 2 1.68 2 1 2 C0.67 2.66 0.34 3.32 0 4 C1.65 4.33 3.3 4.66 5 5 C5 6.32 5 7.64 5 9 C3.35 9.33 1.7 9.66 0 10 C-0.33 9.34 -0.66 8.68 -1 8 C0.32 8 1.64 8 3 8 C3 7.34 3 6.68 3 6 C1.68 5.67 0.36 5.34 -1 5 C-0.67 3.35 -0.34 1.7 0 0 Z " fill="#525897" transform="translate(229,68)"/>
<path d="M0 0 C0.66 0 1.32 0 2 0 C2 0.99 2 1.98 2 3 C2.66 3.33 3.32 3.66 4 4 C3.34 4 2.68 4 2 4 C2 5.98 2 7.96 2 10 C2.66 10 3.32 10 4 10 C4 10.66 4 11.32 4 12 C2.68 11.67 1.36 11.34 0 11 C-1.125 3.375 -1.125 3.375 0 0 Z " fill="#0F2378" transform="translate(213,105)"/>
<path d="M0 0 C0.66 0 1.32 0 2 0 C2 0.66 2 1.32 2 2 C2.66 2.33 3.32 2.66 4 3 C3.34 3 2.68 3 2 3 C2 5.31 2 7.62 2 10 C2.66 10 3.32 10 4 10 C4 10.66 4 11.32 4 12 C2.68 11.67 1.36 11.34 0 11 C-0.19491452 9.54263913 -0.38069358 8.08405407 -0.5625 6.625 C-0.66691406 5.81289063 -0.77132813 5.00078125 -0.87890625 4.1640625 C-1 2 -1 2 0 0 Z " fill="#6A72A2" transform="translate(336,27)"/>
<path d="M0 0 C0.33 0.99 0.66 1.98 1 3 C1.66 3 2.32 3 3 3 C3 3.66 3 4.32 3 5 C2.34 5 1.68 5 1 5 C1 7.64 1 10.28 1 13 C0.34 13 -0.32 13 -1 13 C-1.02686553 11.02090602 -1.04633375 9.04171029 -1.0625 7.0625 C-1.07410156 5.96035156 -1.08570313 4.85820313 -1.09765625 3.72265625 C-1 1 -1 1 0 0 Z " fill="#606B9E" transform="translate(273,65)"/>
<path d="M0 0 C0.66 0.99 1.32 1.98 2 3 C4.05925139 3.72382467 4.05925139 3.72382467 6 4 C6 4.66 6 5.32 6 6 C3.36 6 0.72 6 -2 6 C-1.125 1.125 -1.125 1.125 0 0 Z " fill="#F1F1F5" transform="translate(287,109)"/>
<path d="M0 0 C0 1.98 0 3.96 0 6 C-0.99 6 -1.98 6 -3 6 C-3.33 5.01 -3.66 4.02 -4 3 C-4.99 2.67 -5.98 2.34 -7 2 C-7 1.34 -7 0.68 -7 0 C-3.98968256 -0.93423645 -3.13349732 -1.04449911 0 0 Z " fill="#E2E4EC" transform="translate(259,109)"/>
<path d="M0 0 C0.99 0.33 1.98 0.66 3 1 C3 2.98 3 4.96 3 7 C1.68 7 0.36 7 -1 7 C-1.04254356 5.00045254 -1.04080783 2.99958364 -1 1 C-0.67 0.67 -0.34 0.34 0 0 Z " fill="#F8F8FA" transform="translate(332,69)"/>
<path d="M0 0 C0 0.66 0 1.32 0 2 C-0.99 2.495 -0.99 2.495 -2 3 C-2.40729228 5.32156597 -2.74438677 7.6568787 -3 10 C-3.66 10 -4.32 10 -5 10 C-5 7.03 -5 4.06 -5 1 C-2 0 -2 0 0 0 Z " fill="#182C7D" transform="translate(280,107)"/>
<path d="M0 0 C0.66 0.33 1.32 0.66 2 1 C2 2.98 2 4.96 2 7 C0.68 6.67 -0.64 6.34 -2 6 C-2 4.35 -2 2.7 -2 1 C-1.34 0.67 -0.68 0.34 0 0 Z " fill="#F3F4F7" transform="translate(348,69)"/>
<path d="M0 0 C1.98 0 3.96 0 6 0 C5.34 1.65 4.68 3.3 4 5 C2.68 5 1.36 5 0 5 C0 3.35 0 1.7 0 0 Z " fill="#949BBE" transform="translate(357,68)"/>
<path d="M0 0 C1.65 0 3.3 0 5 0 C5 2.97 5 5.94 5 9 C4.34 9 3.68 9 3 9 C2.87625 7.88625 2.7525 6.7725 2.625 5.625 C2.3534187 1.96896323 2.3534187 1.96896323 0 0 Z " fill="#314288" transform="translate(193,49)"/>
<path d="M0 0 C1.65 0.33 3.3 0.66 5 1 C4.67 1.99 4.34 2.98 4 4 C2.02 4 0.04 4 -2 4 C-1.34 2.68 -0.68 1.36 0 0 Z " fill="#959DC0" transform="translate(183,29)"/>
<path d="M0 0 C1.67542976 0.28604898 3.34385343 0.61781233 5 1 C3.68 1.33 2.36 1.66 1 2 C1 3.32 1 4.64 1 6 C0.01 5.67 -0.98 5.34 -2 5 C-1.125 1.125 -1.125 1.125 0 0 Z " fill="#334188" transform="translate(290,107)"/>
<path d="M0 0 C2.475 0.495 2.475 0.495 5 1 C5.33 2.32 5.66 3.64 6 5 C4.35 5 2.7 5 1 5 C0.67 3.35 0.34 1.7 0 0 Z " fill="#616EA3" transform="translate(130,107)"/>
<path d="M0 0 C0.99 0.33 1.98 0.66 3 1 C2.67 2.65 2.34 4.3 2 6 C1.01 5.67 0.02 5.34 -1 5 C-0.67 3.35 -0.34 1.7 0 0 Z " fill="#D4D6E3" transform="translate(225,50)"/>
<path d="M0 0 C2.475 0.495 2.475 0.495 5 1 C5 2.98 5 4.96 5 7 C4.01 7 3.02 7 2 7 C2.04125 6.21625 2.0825 5.4325 2.125 4.625 C2.28728734 1.83883881 2.28728734 1.83883881 0 0 Z " fill="#0B2378" transform="translate(187,108)"/>
<path d="M0 0 C2.625 0.375 2.625 0.375 5 1 C3.68 1.33 2.36 1.66 1 2 C0.67 3.32 0.34 4.64 0 6 C-0.66 4.68 -1.32 3.36 -2 2 C-1.34 1.34 -0.68 0.68 0 0 Z " fill="#2B3984" transform="translate(251,107)"/>
<path d="M0 0 C0.99 0 1.98 0 3 0 C3 1.98 3 3.96 3 6 C2.01 6 1.02 6 0 6 C0 4.02 0 2.04 0 0 Z " fill="#EBECF2" transform="translate(227,109)"/>
<path d="M0 0 C0.99 0.33 1.98 0.66 3 1 C3 2.65 3 4.3 3 6 C2.01 6 1.02 6 0 6 C0 4.02 0 2.04 0 0 Z " fill="#E9EAF0" transform="translate(187,109)"/>
<path d="M0 0 C1.66611905 -0.042721 3.33382885 -0.04063832 5 0 C6 1 6 1 6.0625 3.5625 C6.041875 4.366875 6.02125 5.17125 6 6 C5.34 6 4.68 6 4 6 C3.67 4.68 3.34 3.36 3 2 C2.01 2 1.02 2 0 2 C0 1.34 0 0.68 0 0 Z " fill="#12277B" transform="translate(224,49)"/>
<path d="M0 0 C0.66 0 1.32 0 2 0 C2 1.98 2 3.96 2 6 C1.01 6 0.02 6 -1 6 C-1.042721 4.33388095 -1.04063832 2.66617115 -1 1 C-0.67 0.67 -0.34 0.34 0 0 Z " fill="#E7E8EF" transform="translate(204,50)"/>
</svg>
