<?xml version="1.0" standalone="no"?>
<!DOCTYPE svg PUBLIC "-//W3C//DTD SVG 20010904//EN"
 "http://www.w3.org/TR/2001/REC-SVG-20010904/DTD/svg10.dtd">
<svg version="1.0" xmlns="http://www.w3.org/2000/svg"
 width="512.000000pt" height="512.000000pt" viewBox="0 0 512.000000 512.000000"
 preserveAspectRatio="xMidYMid meet">

<g transform="translate(0.000000,512.000000) scale(0.100000,-0.100000)"
fill="#000000" stroke="none">
<path d="M1310 4989 c-369 -31 -670 -90 -876 -170 -157 -61 -251 -129 -297
-214 l-22 -40 -3 -1540 c-2 -1110 0 -1555 8 -1592 14 -67 77 -138 169 -193 78
-46 109 -50 143 -15 l26 25 56 -21 c45 -17 56 -26 56 -44 0 -47 34 -71 129
-94 125 -29 299 -58 471 -76 166 -18 543 -31 584 -21 19 5 32 18 42 41 14 34
16 35 69 35 31 0 66 -6 78 -14 12 -7 58 -19 102 -26 44 -6 95 -19 113 -27 46
-22 82 -87 82 -150 0 -45 -6 -60 -60 -139 -40 -58 -60 -99 -60 -118 0 -24 24
-54 143 -174 78 -79 155 -150 170 -158 35 -19 56 -12 135 42 118 82 152 90
228 53 58 -28 79 -66 99 -179 25 -147 12 -140 281 -140 196 0 224 2 243 18 16
13 26 43 41 122 23 119 37 145 101 178 68 36 110 27 221 -47 73 -50 96 -61
117 -56 34 8 328 302 336 336 5 20 -6 44 -56 117 -74 110 -83 152 -47 221 32
62 60 79 158 97 103 18 138 31 150 55 13 24 13 435 0 459 -16 29 -42 40 -136
55 -104 17 -140 37 -172 95 -37 70 -28 119 40 216 67 95 74 114 54 151 -8 15
-79 92 -159 171 -119 116 -150 142 -174 142 -18 0 -60 -21 -117 -60 -79 -53
-94 -60 -138 -60 -60 0 -111 23 -139 61 -13 18 -28 69 -39 130 -27 151 -13
143 -279 147 -216 3 -219 3 -245 -20 -17 -16 -28 -38 -33 -73 l-8 -50 -230 -3
c-249 -3 -331 5 -458 45 -84 26 -92 43 -22 43 24 0 117 9 207 21 518 66 841
191 929 361 18 35 19 71 19 844 0 800 0 807 -21 850 -81 169 -429 298 -984
365 -147 17 -248 22 -550 24 -203 2 -417 -1 -475 -6z m840 -159 c447 -33 866
-138 993 -249 43 -39 48 -71 14 -105 -79 -79 -328 -165 -622 -216 -203 -34
-398 -51 -692 -57 l-283 -6 0 321 0 321 83 3 c128 5 348 -1 507 -12z m1031
-818 c2 -318 10 -293 -120 -360 -247 -127 -662 -200 -1198 -209 l-303 -6 0
299 0 299 227 2 c559 5 1071 90 1329 221 33 17 60 29 61 28 1 -1 3 -124 4
-274z m-28 -1065 c-120 -125 -694 -257 -1142 -261 l-155 -1 -65 76 c-113 130
-201 314 -217 453 l-6 53 248 6 c137 4 303 12 369 17 395 34 735 109 924 205
l66 33 3 -276 2 -276 -27 -29z m-2100 -314 c-7 -2 -19 -2 -25 0 -7 3 -2 5 12
5 14 0 19 -2 13 -5z m2261 -275 c9 -39 27 -91 41 -114 55 -94 164 -154 279
-154 76 0 132 18 196 64 l47 34 87 -87 88 -88 -40 -61 c-71 -109 -78 -206 -26
-323 37 -82 105 -142 191 -169 36 -11 76 -20 89 -20 l24 0 0 -124 c0 -138 6
-127 -74 -141 -97 -16 -186 -87 -233 -184 -22 -45 -28 -69 -28 -131 0 -83 11
-118 64 -198 l35 -53 -87 -86 -86 -87 -53 35 c-80 53 -115 64 -198 64 -62 0
-86 -6 -131 -28 -97 -47 -168 -136 -184 -233 -14 -80 -3 -74 -139 -74 l-122 0
-12 60 c-22 119 -82 198 -188 247 -108 49 -209 40 -316 -29 l-61 -40 -87 87
-87 87 37 56 c48 74 60 111 60 188 0 174 -113 297 -302 329 l-38 6 0 123 0
124 53 6 c159 20 274 142 285 301 5 86 -8 138 -54 206 -19 29 -37 55 -39 59
-2 3 35 45 83 93 l87 87 49 -35 c77 -54 124 -68 213 -63 166 10 288 123 309
285 l6 53 123 0 123 0 16 -72z"/>
<path d="M3050 1894 c-146 -31 -303 -143 -379 -268 -147 -244 -111 -539 88
-736 117 -115 253 -171 421 -171 270 -1 508 184 575 446 19 74 19 223 1 293
-83 312 -393 504 -706 436z m342 -200 c16 -9 51 -34 75 -57 96 -89 144 -193
144 -318 0 -133 -37 -227 -127 -316 -183 -184 -491 -164 -653 41 -17 21 -31
42 -31 46 0 5 33 18 73 29 252 74 408 169 453 277 10 23 14 76 14 174 0 91 4
140 10 140 6 0 25 -7 42 -16z"/>
<path d="M4086 4097 c-15 -16 -27 -44 -34 -87 -20 -109 -65 -128 -159 -63 -84
58 -98 53 -220 -70 -121 -122 -125 -135 -68 -220 39 -58 45 -105 18 -130 -10
-8 -48 -21 -86 -27 -102 -18 -107 -28 -107 -204 0 -182 5 -189 135 -211 84
-14 98 -67 40 -152 -57 -85 -53 -99 68 -219 56 -57 113 -106 127 -109 19 -4
41 4 88 34 102 66 145 51 164 -58 7 -44 18 -72 34 -88 22 -22 30 -23 172 -23
143 0 149 1 170 23 14 15 27 47 34 87 19 108 64 126 158 63 85 -57 95 -54 221
74 66 66 109 118 109 130 0 11 -18 48 -40 82 -70 107 -51 143 85 166 22 4 50
16 63 28 21 19 22 28 22 172 0 144 -1 153 -22 172 -13 12 -41 24 -63 28 -133
22 -157 64 -90 157 64 89 63 93 -63 220 -127 129 -137 132 -222 75 -94 -63
-140 -45 -158 64 -9 48 -18 70 -37 87 -25 21 -35 22 -171 22 -138 0 -146 -1
-168 -23z m233 -182 c34 -134 199 -205 327 -140 l49 25 34 -34 34 -34 -27 -53
c-33 -67 -34 -127 -2 -194 29 -63 84 -112 142 -127 l44 -12 0 -51 0 -51 -44
-12 c-58 -15 -113 -64 -142 -127 -32 -67 -31 -127 2 -194 l27 -53 -35 -35 -35
-34 -48 25 c-88 47 -190 30 -267 -44 -34 -33 -50 -58 -58 -92 l-12 -48 -54 0
c-48 0 -54 2 -54 20 0 34 -25 84 -61 119 -74 74 -180 92 -272 45 l-51 -25 -33
33 -33 33 25 49 c45 89 28 201 -41 270 -31 31 -97 65 -126 66 -15 0 -18 9 -18
55 0 46 3 55 18 55 10 0 41 11 69 25 51 26 91 72 112 128 19 49 13 129 -12
180 l-24 46 36 34 36 35 44 -24 c124 -67 306 16 328 148 l6 38 52 0 53 0 11
-45z"/>
<path d="M4160 3686 c-203 -55 -335 -254 -300 -454 29 -170 160 -301 331 -333
174 -32 348 60 431 228 31 63 33 74 33 168 0 92 -3 106 -31 165 -40 82 -87
136 -155 177 -96 57 -212 76 -309 49z m207 -175 c113 -57 164 -198 112 -311
-72 -160 -271 -198 -394 -75 -127 127 -78 338 92 401 50 19 138 12 190 -15z"/>
</g>
</svg>
