<?xml version="1.0" encoding="UTF-8"?>
<svg version="1.1" xmlns="http://www.w3.org/2000/svg" width="361" height="160">
<path d="M0 0 C119.13 0 238.26 0 361 0 C361 52.8 361 105.6 361 160 C241.87 160 122.74 160 0 160 C0 107.2 0 54.4 0 0 Z " fill="#FDFDFD" transform="translate(0,0)"/>
<path d="M0 0 C14.19 0 28.38 0 43 0 C43 0.66 43 1.32 43 2 C44.98 2 46.96 2 49 2 C49 2.99 49 3.98 49 5 C49.66 5 50.32 5 51 5 C51 5.99 51 6.98 51 8 C51.99 8 52.98 8 54 8 C54 8.99 54 9.98 54 11 C54.99 11 55.98 11 57 11 C57 11.66 57 12.32 57 13 C57.99 13 58.98 13 60 13 C60 13.99 60 14.98 60 16 C60.66 16 61.32 16 62 16 C62 19.63 62 23.26 62 27 C62.99 27 63.98 27 65 27 C65 33.27 65 39.54 65 46 C64.01 46 63.02 46 62 46 C62 48.64 62 51.28 62 54 C61.34 54 60.68 54 60 54 C59.67 55.32 59.34 56.64 59 58 C58.34 58 57.68 58 57 58 C57 59.65 57 61.3 57 63 C55.35 63 53.7 63 52 63 C52 63.99 52 64.98 52 66 C51.01 66 50.02 66 49 66 C49 66.66 49 67.32 49 68 C47.02 68 45.04 68 43 68 C43 68.99 43 69.98 43 71 C40.36 71 37.72 71 35 71 C35 71.99 35 72.98 35 74 C24.11 74 13.22 74 2 74 C2 73.01 2 72.02 2 71 C1.34 71 0.68 71 0 71 C0 47.57 0 24.14 0 0 Z " fill="#545454" transform="translate(130,46)"/>
<path d="M0 0 C20.79 0 41.58 0 63 0 C63 0.66 63 1.32 63 2 C65.64 2 68.28 2 71 2 C71 2.99 71 3.98 71 5 C71.99 5 72.98 5 74 5 C74 5.99 74 6.98 74 8 C75.65 8 77.3 8 79 8 C79 8.99 79 9.98 79 11 C79.99 11 80.98 11 82 11 C82 11.99 82 12.98 82 14 C82.99 14 83.98 14 85 14 C85 14.66 85 15.32 85 16 C85.66 16 86.32 16 87 16 C87 16.99 87 17.98 87 19 C87.99 19 88.98 19 90 19 C90 19.99 90 20.98 90 22 C90.99 22 91.98 22 93 22 C93 22.66 93 23.32 93 24 C93.66 24 94.32 24 95 24 C95 25.98 95 27.96 95 30 C95.99 30 96.98 30 98 30 C98 31.98 98 33.96 98 36 C98.99 36 99.98 36 101 36 C101 37.65 101 39.3 101 41 C101.99 41 102.98 41 104 41 C104 49.25 104 57.5 104 66 C103.01 66 102.02 66 101 66 C101 68.64 101 71.28 101 74 C100.34 74 99.68 74 99 74 C98.67 75.65 98.34 77.3 98 79 C97.01 79 96.02 79 95 79 C95 80.98 95 82.96 95 85 C94.34 85 93.68 85 93 85 C93 85.66 93 86.32 93 87 C92.01 87 91.02 87 90 87 C90 88.32 90 89.64 90 91 C89.01 91 88.02 91 87 91 C87 91.66 87 92.32 87 93 C86.34 93 85.68 93 85 93 C85 93.99 85 94.98 85 96 C84.01 96 83.02 96 82 96 C82 96.99 82 97.98 82 99 C81.01 99 80.02 99 79 99 C79 99.66 79 100.32 79 101 C77.35 101 75.7 101 74 101 C74 101.99 74 102.98 74 104 C73.01 104 72.02 104 71 104 C71 104.99 71 105.98 71 107 C69.02 107 67.04 107 65 107 C65 98.75 65 90.5 65 82 C66.98 82 68.96 82 71 82 C71 81.01 71 80.02 71 79 C71.99 79 72.98 79 74 79 C74 78.34 74 77.68 74 77 C74.99 77 75.98 77 77 77 C77 76.01 77 75.02 77 74 C77.66 74 78.32 74 79 74 C79 72.35 79 70.7 79 69 C79.99 69 80.98 69 82 69 C82 59.76 82 50.52 82 41 C81.01 41 80.02 41 79 41 C79 39.02 79 37.04 79 35 C78.34 35 77.68 35 77 35 C77 34.34 77 33.68 77 33 C76.01 33 75.02 33 74 33 C74 32.01 74 31.02 74 30 C73.01 30 72.02 30 71 30 C71 29.01 71 28.02 71 27 C70.01 27 69.02 27 68 27 C68 26.01 68 25.02 68 24 C66.35 24 64.7 24 63 24 C63 23.34 63 22.68 63 22 C41.22 22 19.44 22 -3 22 C-3 15.4 -3 8.8 -3 2 C-2.01 2 -1.02 2 0 2 C0 1.34 0 0.68 0 0 Z " fill="#FF6156" transform="translate(23,13)"/>
<path d="M0 0 C22.44 0 44.88 0 68 0 C68 3.63 68 7.26 68 11 C47.21 11 26.42 11 5 11 C5 11.66 5 12.32 5 13 C4.01 13 3.02 13 2 13 C2 13.99 2 14.98 2 16 C1.34 16 0.68 16 0 16 C0 19.63 0 23.26 0 27 C1.65 27 3.3 27 5 27 C5 27.99 5 28.98 5 30 C25.79 30 46.58 30 68 30 C68 34.62 68 39.24 68 44 C46.22 44 24.44 44 2 44 C2 45.65 2 47.3 2 49 C1.34 49 0.68 49 0 49 C0 51.64 0 54.28 0 57 C0.66 57 1.32 57 2 57 C2 57.99 2 58.98 2 60 C2.99 60 3.98 60 5 60 C5 60.66 5 61.32 5 62 C25.79 62 46.58 62 68 62 C68 65.96 68 69.92 68 74 C46.22 74 24.44 74 2 74 C2 73.01 2 72.02 2 71 C0.35 71 -1.3 71 -3 71 C-3 70.01 -3 69.02 -3 68 C-3.99 68 -4.98 68 -6 68 C-6 66.35 -6 64.7 -6 63 C-6.66 63 -7.32 63 -8 63 C-8 55.74 -8 48.48 -8 41 C-7.34 41 -6.68 41 -6 41 C-6 40.01 -6 39.02 -6 38 C-5.34 38 -4.68 38 -4 38 C-4 37.34 -4 36.68 -4 36 C-4.66 36 -5.32 36 -6 36 C-6 34.02 -6 32.04 -6 30 C-6.66 30 -7.32 30 -8 30 C-8 23.73 -8 17.46 -8 11 C-7.34 11 -6.68 11 -6 11 C-6 9.02 -6 7.04 -6 5 C-5.34 5 -4.68 5 -4 5 C-4 4.01 -4 3.02 -4 2 C-2.68 2 -1.36 2 0 2 C0 1.34 0 0.68 0 0 Z " fill="#505050" transform="translate(18,46)"/>
<path d="M0 0 C17.16 0 34.32 0 52 0 C52 3.63 52 7.26 52 11 C39.13 11 26.26 11 13 11 C13 17.27 13 23.54 13 30 C24.88 30 36.76 30 49 30 C49 33.63 49 37.26 49 41 C37.12 41 25.24 41 13 41 C13 47.27 13 53.54 13 60 C26.86 60 40.72 60 55 60 C55 64.62 55 69.24 55 74 C36.85 74 18.7 74 0 74 C0 49.58 0 25.16 0 0 Z " fill="#4F4F4F" transform="translate(206,46)"/>
<path d="M0 0 C17.82 0 35.64 0 54 0 C54 3.63 54 7.26 54 11 C40.8 11 27.6 11 14 11 C14 17.27 14 23.54 14 30 C25.55 30 37.1 30 49 30 C49 34.62 49 39.24 49 44 C37.45 44 25.9 44 14 44 C14 53.9 14 63.8 14 74 C9.38 74 4.76 74 0 74 C0 49.58 0 25.16 0 0 Z " fill="#4F4F4F" transform="translate(269,46)"/>
<path d="M0 0 C7.26 0 14.52 0 22 0 C22 0.66 22 1.32 22 2 C24.64 2 27.28 2 30 2 C30 2.99 30 3.98 30 5 C30.99 5 31.98 5 33 5 C33 6.98 33 8.96 33 11 C33.99 11 34.98 11 36 11 C36 12.65 36 14.3 36 16 C36.66 16 37.32 16 38 16 C38 22.27 38 28.54 38 35 C37.34 35 36.68 35 36 35 C36 36.98 36 38.96 36 41 C35.01 41 34.02 41 33 41 C33 41.66 33 42.32 33 43 C32.01 43 31.02 43 30 43 C30 44.32 30 45.64 30 47 C29.34 47 28.68 47 28 47 C28 47.66 28 48.32 28 49 C18.76 49 9.52 49 0 49 C0 32.83 0 16.66 0 0 Z " fill="#FCFCFC" transform="translate(143,57)"/>
<path d="M0 0 C19.8 0 39.6 0 60 0 C60 6.27 60 12.54 60 19 C40.2 19 20.4 19 0 19 C0 18.01 0 17.02 0 16 C-1.65 16 -3.3 16 -5 16 C-5 12.37 -5 8.74 -5 5 C-4.34 5 -3.68 5 -3 5 C-3 4.01 -3 3.02 -3 2 C-2.01 2 -1.02 2 0 2 C0 1.34 0 0.68 0 0 Z " fill="#D1D1D1" transform="translate(23,57)"/>
<path d="M0 0 C20.79 0 41.58 0 63 0 C63 5.94 63 11.88 63 18 C43.2 18 23.4 18 3 18 C3 17.34 3 16.68 3 16 C2.01 16 1.02 16 0 16 C0 15.01 0 14.02 0 13 C-0.66 13 -1.32 13 -2 13 C-2 10.36 -2 7.72 -2 5 C-1.34 5 -0.68 5 0 5 C0 3.35 0 1.7 0 0 Z " fill="#D2D2D2" transform="translate(20,90)"/>
<path d="M0 0 C3.3 0 6.6 0 10 0 C10 23.43 10 46.86 10 71 C6.7 71 3.4 71 0 71 C0 47.57 0 24.14 0 0 Z " fill="#4D4D4D" transform="translate(335,46)"/>
<path d="M0 0 C0.66 0 1.32 0 2 0 C2 6.27 2 12.54 2 19 C15.86 19 29.72 19 44 19 C44 23.62 44 28.24 44 33 C25.85 33 7.7 33 -11 33 C-11 32.01 -11 31.02 -11 30 C5.83 30 22.66 30 40 30 C40 27.36 40 24.72 40 22 C26.8 22 13.6 22 0 22 C0 14.74 0 7.48 0 0 Z " fill="#989898" transform="translate(217,87)"/>
<path d="M0 0 C1.32 0 2.64 0 4 0 C4 23.43 4 46.86 4 71 C7.3 71 10.6 71 14 71 C14 71.99 14 72.98 14 74 C9.38 74 4.76 74 0 74 C0 49.58 0 25.16 0 0 Z " fill="#B5B5B5" transform="translate(331,46)"/>
<path d="M0 0 C19.8 0 39.6 0 60 0 C60 4.62 60 9.24 60 14 C40.2 14 20.4 14 0 14 C0 13.01 0 12.02 0 11 C19.47 11 38.94 11 59 11 C59 8.36 59 5.72 59 3 C29.795 2.505 29.795 2.505 0 2 C0 1.34 0 0.68 0 0 Z " fill="#7E7E7E" transform="translate(26,76)"/>
<path d="M0 0 C3.63 0 7.26 0 11 0 C11 0.99 11 1.98 11 3 C11.99 3 12.98 3 14 3 C14 6.63 14 10.26 14 14 C13.01 14 12.02 14 11 14 C11 14.99 11 15.98 11 17 C7.37 17 3.74 17 0 17 C0 16.01 0 15.02 0 14 C-0.99 14 -1.98 14 -3 14 C-3 10.37 -3 6.74 -3 3 C-2.01 3 -1.02 3 0 3 C0 2.01 0 1.02 0 0 Z " fill="#858585" transform="translate(162,136)"/>
<path d="M0 0 C0.33 0 0.66 0 1 0 C1 6.27 1 12.54 1 19 C12.55 19 24.1 19 36 19 C36 23.62 36 28.24 36 33 C24.45 33 12.9 33 1 33 C1 32.01 1 31.02 1 30 C12.22 30 23.44 30 35 30 C35 27.36 35 24.72 35 22 C23.45 22 11.9 22 0 22 C0 14.74 0 7.48 0 0 Z " fill="#959595" transform="translate(282,57)"/>
<path d="M0 0 C3.96 0 7.92 0 12 0 C12 0.99 12 1.98 12 3 C12.66 3 13.32 3 14 3 C14 6.63 14 10.26 14 14 C13.34 14 12.68 14 12 14 C12 14.99 12 15.98 12 17 C8.04 17 4.08 17 0 17 C0 11.39 0 5.78 0 0 Z " fill="#949494" transform="translate(219,136)"/>
<path d="M0 0 C0.99 0 1.98 0 3 0 C3 5.61 3 11.22 3 17 C21.15 17 39.3 17 58 17 C58 17.99 58 18.98 58 20 C38.86 20 19.72 20 0 20 C0 13.4 0 6.8 0 0 Z " fill="#FF7F76" transform="translate(20,15)"/>
<path d="M0 0 C0.99 0 1.98 0 3 0 C3 24.42 3 48.84 3 74 C2.01 74 1.02 74 0 74 C0 49.58 0 25.16 0 0 Z " fill="#DCDCDC" transform="translate(345,46)"/>
<path d="M0 0 C3.63 0 7.26 0 11 0 C11 0.99 11 1.98 11 3 C11.99 3 12.98 3 14 3 C14 6.63 14 10.26 14 14 C13.01 14 12.02 14 11 14 C11 14.99 11 15.98 11 17 C7.37 17 3.74 17 0 17 C0 11.39 0 5.78 0 0 Z " fill="#7B7B7B" transform="translate(337,136)"/>
<path d="M0 0 C0.99 0 1.98 0 3 0 C3 23.43 3 46.86 3 71 C2.01 71 1.02 71 0 71 C0 47.57 0 24.14 0 0 Z " fill="#5B5B5B" transform="translate(206,46)"/>
<path d="M0 0 C3.63 0 7.26 0 11 0 C11 0.99 11 1.98 11 3 C11.99 3 12.98 3 14 3 C14 5.64 14 8.28 14 11 C13.01 11 12.02 11 11 11 C11 12.98 11 14.96 11 17 C7.37 17 3.74 17 0 17 C0 11.39 0 5.78 0 0 Z " fill="#737373" transform="translate(42,136)"/>
<path d="M0 0 C0.66 0 1.32 0 2 0 C2 23.43 2 46.86 2 71 C5.63 71 9.26 71 13 71 C13 62.09 13 53.18 13 44 C13.33 44 13.66 44 14 44 C14 53.9 14 63.8 14 74 C9.38 74 4.76 74 0 74 C0 49.58 0 25.16 0 0 Z " fill="#979797" transform="translate(269,46)"/>
<path d="M0 0 C0.33 0 0.66 0 1 0 C1 3.63 1 7.26 1 11 C-19.79 11 -40.58 11 -62 11 C-61.01 10.67 -60.02 10.34 -59 10 C-59 9.34 -59 8.68 -59 8 C-39.53 8 -20.06 8 0 8 C0 5.36 0 2.72 0 0 Z " fill="#686868" transform="translate(85,46)"/>
<path d="M0 0 C0.66 0 1.32 0 2 0 C2 6.27 2 12.54 2 19 C14.87 19 27.74 19 41 19 C41 22.63 41 26.26 41 30 C40.67 30 40.34 30 40 30 C40 27.36 40 24.72 40 22 C26.8 22 13.6 22 0 22 C0 14.74 0 7.48 0 0 Z " fill="#858585" transform="translate(217,87)"/>
<path d="M0 0 C0.33 0 0.66 0 1 0 C1 3.63 1 7.26 1 11 C-11.87 11 -24.74 11 -38 11 C-38 17.27 -38 23.54 -38 30 C-38.66 30 -39.32 30 -40 30 C-40.02887814 26.52085059 -40.04675687 23.04173169 -40.0625 19.5625 C-40.07087891 18.56927734 -40.07925781 17.57605469 -40.08789062 16.55273438 C-40.09111328 15.60849609 -40.09433594 14.66425781 -40.09765625 13.69140625 C-40.10289307 12.81685791 -40.10812988 11.94230957 -40.11352539 11.04125977 C-40 9 -40 9 -39 8 C-36.1156618 7.91134792 -33.25537842 7.88478704 -30.37109375 7.90234375 C-29.07474754 7.90446617 -29.07474754 7.90446617 -27.75221252 7.90663147 C-24.98060708 7.91224761 -22.2090812 7.92480281 -19.4375 7.9375 C-17.5631522 7.94251292 -15.68880315 7.94707619 -13.81445312 7.95117188 C-9.20960456 7.96222228 -4.60481579 7.9794977 0 8 C0 5.36 0 2.72 0 0 Z " fill="#757575" transform="translate(257,46)"/>
<path d="M0 0 C4.62 0 9.24 0 14 0 C14 0.99 14 1.98 14 3 C11.36 3 8.72 3 6 3 C6 3.99 6 4.98 6 6 C7.65 6 9.3 6 11 6 C11 6.99 11 7.98 11 9 C9.35 9 7.7 9 6 9 C6 10.65 6 12.3 6 14 C8.64 14 11.28 14 14 14 C14 14.99 14 15.98 14 17 C9.38 17 4.76 17 0 17 C0 11.39 0 5.78 0 0 Z " fill="#898989" transform="translate(315,136)"/>
<path d="M0 0 C17.82 0 35.64 0 54 0 C54 0.99 54 1.98 54 3 C36.18 3 18.36 3 0 3 C0 2.01 0 1.02 0 0 Z " fill="#CDCDCD" transform="translate(269,43)"/>
<path d="M0 0 C20.79 0 41.58 0 63 0 C63 0.66 63 1.32 63 2 C65.64 2 68.28 2 71 2 C71 2.99 71 3.98 71 5 C71.99 5.33 72.98 5.66 74 6 C71.03 6 68.06 6 65 6 C65 5.01 65 4.02 65 3 C43.55 2.67 22.1 2.34 0 2 C0 1.34 0 0.68 0 0 Z " fill="#FF9F98" transform="translate(23,13)"/>
<path d="M0 0 C17.16 0 34.32 0 52 0 C52 0.99 52 1.98 52 3 C34.84 3 17.68 3 0 3 C0 2.01 0 1.02 0 0 Z " fill="#CCCCCC" transform="translate(206,43)"/>
<path d="M0 0 C20.79 0 41.58 0 63 0 C63 3.96 63 7.92 63 12 C41.22 12 19.44 12 -3 12 C-3 11.01 -3 10.02 -3 9 C-1.02 9 0.96 9 3 9 C3 9.66 3 10.32 3 11 C22.47 11 41.94 11 62 11 C62 7.7 62 4.4 62 1 C41.54 1 21.08 1 0 1 C0 0.67 0 0.34 0 0 Z " fill="#7D7D7D" transform="translate(23,108)"/>
<path d="M0 0 C4.62 0 9.24 0 14 0 C14 0.99 14 1.98 14 3 C11.36 3 8.72 3 6 3 C6 3.99 6 4.98 6 6 C7.65 6 9.3 6 11 6 C11 6.99 11 7.98 11 9 C8.36 9 5.72 9 3 9 C3 10.65 3 12.3 3 14 C6.63 14 10.26 14 14 14 C14 14.99 14 15.98 14 17 C9.38 17 4.76 17 0 17 C0 11.39 0 5.78 0 0 Z " fill="#9E9E9E" transform="translate(20,136)"/>
<path d="M0 0 C0.99 0 1.98 0 3 0 C3 0.99 3 1.98 3 3 C3.99 3 4.98 3 6 3 C6 3.99 6 4.98 6 6 C6.66 6 7.32 6 8 6 C8 6.99 8 7.98 8 9 C8.99 9 9.98 9 11 9 C11 6.03 11 3.06 11 0 C11.99 0 12.98 0 14 0 C14 5.61 14 11.22 14 17 C13.01 17 12.02 17 11 17 C11 16.01 11 15.02 11 14 C10.01 14 9.02 14 8 14 C8 13.01 8 12.02 8 11 C7.01 11 6.02 11 5 11 C5 10.34 5 9.68 5 9 C4.34 9 3.68 9 3 9 C3 11.64 3 14.28 3 17 C2.01 17 1.02 17 0 17 C0 11.39 0 5.78 0 0 Z " fill="#636363" transform="translate(184,136)"/>
<path d="M0 0 C0.99 0 1.98 0 3 0 C3 16.17 3 32.34 3 49 C2.01 49 1.02 49 0 49 C0 32.83 0 16.66 0 0 Z " fill="#EBEBEB" transform="translate(143,57)"/>
<path d="M0 0 C0.99 0 1.98 0 3 0 C3 0.99 3 1.98 3 3 C3.66 3 4.32 3 5 3 C5 5.64 5 8.28 5 11 C6.32 11 7.64 11 9 11 C9 12.98 9 14.96 9 17 C7.68 17 6.36 17 5 17 C5 16.01 5 15.02 5 14 C2.36 14 -0.28 14 -3 14 C-3 14.99 -3 15.98 -3 17 C-3.99 17 -4.98 17 -6 17 C-6 14.36 -6 11.72 -6 9 C-5.01 9 -4.02 9 -3 9 C-3 7.02 -3 5.04 -3 3 C-2.01 3 -1.02 3 0 3 C0 2.01 0 1.02 0 0 Z " fill="#D0D0D0" transform="translate(113,136)"/>
<path d="M0 0 C3.96 0 7.92 0 12 0 C12 0.99 12 1.98 12 3 C9.36 3 6.72 3 4 3 C4 3.99 4 4.98 4 6 C6.31 6 8.62 6 11 6 C11 6.99 11 7.98 11 9 C8.69 9 6.38 9 4 9 C4 10.65 4 12.3 4 14 C6.64 14 9.28 14 12 14 C12 14.99 12 15.98 12 17 C8.04 17 4.08 17 0 17 C0 11.39 0 5.78 0 0 Z " fill="#919191" transform="translate(241,136)"/>
<path d="M0 0 C0.66 0 1.32 0 2 0 C2 3.63 2 7.26 2 11 C-11.2 11 -24.4 11 -38 11 C-38 10.01 -38 9.02 -38 8 C-25.46 8 -12.92 8 0 8 C0 5.36 0 2.72 0 0 Z " fill="#717171" transform="translate(321,46)"/>
<path d="M0 0 C19.8 0 39.6 0 60 0 C60 3.63 60 7.26 60 11 C59.67 11 59.34 11 59 11 C59 8.36 59 5.72 59 3 C29.795 2.505 29.795 2.505 0 2 C0 1.34 0 0.68 0 0 Z " fill="#747474" transform="translate(26,76)"/>
<path d="M0 0 C11.88 0 23.76 0 36 0 C36 0.99 36 1.98 36 3 C24.45 3 12.9 3 1 3 C1 8.28 1 13.56 1 19 C0.67 19 0.34 19 0 19 C0 12.73 0 6.46 0 0 Z " fill="#D6D6D6" transform="translate(219,87)"/>
<path d="M0 0 C0.33 0 0.66 0 1 0 C1 3.63 1 7.26 1 11 C-10.55 11 -22.1 11 -34 11 C-34 10.01 -34 9.02 -34 8 C-22.78 8 -11.56 8 0 8 C0 5.36 0 2.72 0 0 Z " fill="#8E8E8E" transform="translate(317,79)"/>
<path d="M0 0 C0.33 0 0.66 0 1 0 C1 23.43 1 46.86 1 71 C4.3 71 7.6 71 11 71 C11 71.99 11 72.98 11 74 C7.37 74 3.74 74 0 74 C0 49.58 0 25.16 0 0 Z " fill="#818181" transform="translate(334,46)"/>
<path d="M0 0 C10.89 0 21.78 0 33 0 C33 0.99 33 1.98 33 3 C22.11 3 11.22 3 0 3 C0 2.01 0 1.02 0 0 Z " fill="#A0A0A0" transform="translate(132,117)"/>
<path d="M0 0 C0.99 0 1.98 0 3 0 C3 4.62 3 9.24 3 14 C-15.15 14 -33.3 14 -52 14 C-52 13.67 -52 13.34 -52 13 C-35.17 13 -18.34 13 -1 13 C-0.505 6.565 -0.505 6.565 0 0 Z " fill="#A9A9A9" transform="translate(258,106)"/>
<path d="M0 0 C10.56 0 21.12 0 32 0 C32 0.99 32 1.98 32 3 C21.44 3 10.88 3 0 3 C0 2.01 0 1.02 0 0 Z " fill="#CDCDCD" transform="translate(130,43)"/>
<path d="M0 0 C1.98 0 3.96 0 6 0 C6 0.99 6 1.98 6 3 C6.66 3 7.32 3 8 3 C8 4.65 8 6.3 8 8 C7.34 8 6.68 8 6 8 C6 8.99 6 9.98 6 11 C4.02 11 2.04 11 0 11 C0 10.01 0 9.02 0 8 C-0.99 8 -1.98 8 -3 8 C-3 6.35 -3 4.7 -3 3 C-2.01 3 -1.02 3 0 3 C0 2.01 0 1.02 0 0 Z " fill="#F9F9F9" transform="translate(165,139)"/>
<path d="M0 0 C3.63 0 7.26 0 11 0 C11 0.99 11 1.98 11 3 C8.36 3 5.72 3 3 3 C3 3.99 3 4.98 3 6 C4.65 6 6.3 6 8 6 C8 7.65 8 9.3 8 11 C6.35 11 4.7 11 3 11 C3 11.99 3 12.98 3 14 C2.01 14 1.02 14 0 14 C0 9.38 0 4.76 0 0 Z " fill="#878787" transform="translate(263,136)"/>
<path d="M0 0 C0.99 0 1.98 0 3 0 C3 0.99 3 1.98 3 3 C2.34 3 1.68 3 1 3 C1 9.27 1 15.54 1 22 C1.66 22 2.32 22 3 22 C3 22.99 3 23.98 3 25 C2.01 25 1.02 25 0 25 C0 24.01 0 23.02 0 22 C-0.99 22 -1.98 22 -3 22 C-3 16.39 -3 10.78 -3 5 C-2.01 5 -1.02 5 0 5 C0 3.35 0 1.7 0 0 Z " fill="#AEAEAE" transform="translate(9,54)"/>
<path d="M0 0 C1.32 0 2.64 0 4 0 C4 5.61 4 11.22 4 17 C2.35 17 0.7 17 -1 17 C-1 15.02 -1 13.04 -1 11 C-1.99 11 -2.98 11 -4 11 C-4 10.34 -4 9.68 -4 9 C-2.68 9 -1.36 9 0 9 C0 6.03 0 3.06 0 0 Z " fill="#DBDBDB" transform="translate(305,136)"/>
<path d="M0 0 C1.98 0 3.96 0 6 0 C6 1.98 6 3.96 6 6 C6.66 6 7.32 6 8 6 C8 6.99 8 7.98 8 9 C6.68 9 5.36 9 4 9 C3.67 11.64 3.34 14.28 3 17 C2.01 17 1.02 17 0 17 C0 11.39 0 5.78 0 0 Z " fill="#7F7F7F" transform="translate(293,136)"/>
<path d="M0 0 C4.29 0 8.58 0 13 0 C13 0.99 13 1.98 13 3 C11.35 3 9.7 3 8 3 C8 7.62 8 12.24 8 17 C7.01 17 6.02 17 5 17 C5 12.38 5 7.76 5 3 C3.35 3 1.7 3 0 3 C0 2.01 0 1.02 0 0 Z " fill="#7B7B7B" transform="translate(127,136)"/>
<path d="M0 0 C3.63 0 7.26 0 11 0 C11 0.99 11 1.98 11 3 C11.66 3 12.32 3 13 3 C13 5.64 13 8.28 13 11 C12.34 11 11.68 11 11 11 C11 9.35 11 7.7 11 6 C10.01 6 9.02 6 8 6 C8 5.01 8 4.02 8 3 C6.02 3 4.04 3 2 3 C2 6.63 2 10.26 2 14 C1.34 14 0.68 14 0 14 C0 9.38 0 4.76 0 0 Z " fill="#828282" transform="translate(220,136)"/>
<path d="M0 0 C0.33 0 0.66 0 1 0 C1 23.43 1 46.86 1 71 C1.66 71 2.32 71 3 71 C3 71.99 3 72.98 3 74 C2.01 74 1.02 74 0 74 C0 49.58 0 25.16 0 0 Z " fill="#CFCFCF" transform="translate(129,46)"/>
<path d="M0 0 C0.33 0 0.66 0 1 0 C1 23.43 1 46.86 1 71 C1.66 71 2.32 71 3 71 C3 71.99 3 72.98 3 74 C2.01 74 1.02 74 0 74 C0 49.58 0 25.16 0 0 Z " fill="#CECECE" transform="translate(331,46)"/>
<path d="M0 0 C2.64 0 5.28 0 8 0 C8 2.64 8 5.28 8 8 C7.01 8 6.02 8 5 8 C5 8.99 5 9.98 5 11 C3.35 11 1.7 11 0 11 C0 7.37 0 3.74 0 0 Z " fill="#F5F5F5" transform="translate(340,139)"/>
<path d="M0 0 C0.99 0 1.98 0 3 0 C3 4.62 3 9.24 3 14 C2.01 14 1.02 14 0 14 C0 14.99 0 15.98 0 17 C-2.64 17 -5.28 17 -8 17 C-8 16.01 -8 15.02 -8 14 C-6.35 14 -4.7 14 -3 14 C-3 13.01 -3 12.02 -3 11 C-2.01 11 -1.02 11 0 11 C0 7.37 0 3.74 0 0 Z " fill="#8D8D8D" transform="translate(75,136)"/>
<path d="M0 0 C0.99 0 1.98 0 3 0 C3 8.25 3 16.5 3 25 C2.01 25 1.02 25 0 25 C0 16.75 0 8.5 0 0 Z " fill="#FF7E76" transform="translate(124,54)"/>
<path d="M0 0 C0.66 0 1.32 0 2 0 C2 2.64 2 5.28 2 8 C2.99 8 3.98 8 5 8 C5 8.99 5 9.98 5 11 C6.98 11 8.96 11 11 11 C11 10.01 11 9.02 11 8 C11.66 8 12.32 8 13 8 C13 9.98 13 11.96 13 14 C9.37 14 5.74 14 2 14 C2 13.01 2 12.02 2 11 C1.34 11 0.68 11 0 11 C0 7.37 0 3.74 0 0 Z " fill="#848484" transform="translate(86,139)"/>
<path d="M0 0 C1.65 0 3.3 0 5 0 C5 0.99 5 1.98 5 3 C5.99 3 6.98 3 8 3 C8 4.65 8 6.3 8 8 C7.01 8 6.02 8 5 8 C5 8.99 5 9.98 5 11 C3.35 11 1.7 11 0 11 C0 7.37 0 3.74 0 0 Z " fill="#F7F7F7" transform="translate(223,139)"/>
<path d="M0 0 C1.65 0 3.3 0 5 0 C5 0.99 5 1.98 5 3 C5.99 3 6.98 3 8 3 C8 4.65 8 6.3 8 8 C7.01 8 6.02 8 5 8 C5 8.99 5 9.98 5 11 C3.35 11 1.7 11 0 11 C0 7.37 0 3.74 0 0 Z " fill="#F6F6F6" transform="translate(45,139)"/>
<path d="M0 0 C0.33 0 0.66 0 1 0 C1 7.26 1 14.52 1 22 C0.67 21.01 0.34 20.02 0 19 C-0.99 19 -1.98 19 -3 19 C-3 13.72 -3 8.44 -3 3 C-2.01 3 -1.02 3 0 3 C0 2.01 0 1.02 0 0 Z " fill="#AEAEAE" transform="translate(9,87)"/>
<path d="M0 0 C1.80164108 0.0001133 1.80164108 0.0001133 3.63967896 0.00022888 C4.94178314 0.00539017 6.24388733 0.01055145 7.58544922 0.01586914 C8.92780505 0.01773401 10.27016156 0.01915759 11.61251831 0.02015686 C15.14709347 0.02397661 18.68162759 0.03380227 22.21618652 0.04486084 C25.82234136 0.05508661 29.42850282 0.05965698 33.03466797 0.06469727 C40.11150768 0.07542501 47.18831952 0.09249494 54.26513672 0.11352539 C54.26513672 0.44352539 54.26513672 0.77352539 54.26513672 1.11352539 C34.79513672 1.11352539 15.32513672 1.11352539 -4.73486328 1.11352539 C-4.73486328 2.10352539 -4.73486328 3.09352539 -4.73486328 4.11352539 C-5.72486328 4.11352539 -6.71486328 4.11352539 -7.73486328 4.11352539 C-7.73486328 3.12352539 -7.73486328 2.13352539 -7.73486328 1.11352539 C-5.05387275 -0.22696987 -3.00175122 -0.00627981 0 0 Z " fill="#5B5B5B" transform="translate(30.73486328125,85.886474609375)"/>
<path d="M0 0 C6.27 0 12.54 0 19 0 C19 0.66 19 1.32 19 2 C20.98 2 22.96 2 25 2 C25 2.99 25 3.98 25 5 C24.01 5 23.02 5 22 5 C22 4.34 22 3.68 22 3 C14.74 3 7.48 3 0 3 C0 2.01 0 1.02 0 0 Z " fill="#626262" transform="translate(143,54)"/>
<path d="M0 0 C0.99 0 1.98 0 3 0 C3 0.99 3 1.98 3 3 C-16.8 3 -36.6 3 -57 3 C-57 2.67 -57 2.34 -57 2 C-38.19 2 -19.38 2 0 2 C0 1.34 0 0.68 0 0 Z " fill="#888888" transform="translate(83,87)"/>
<path d="M0 0 C3.63 0 7.26 0 11 0 C11 0.99 11 1.98 11 3 C11.99 3 12.98 3 14 3 C14 5.64 14 8.28 14 11 C13.01 11 12.02 11 11 11 C11 9.35 11 7.7 11 6 C10.34 6 9.68 6 9 6 C9 5.01 9 4.02 9 3 C6.03 3 3.06 3 0 3 C0 2.01 0 1.02 0 0 Z " fill="#808080" transform="translate(162,136)"/>
<path d="M0 0 C0.99 0 1.98 0 3 0 C3 6.6 3 13.2 3 20 C2.01 20 1.02 20 0 20 C0 13.4 0 6.8 0 0 Z " fill="#FFA39D" transform="translate(20,15)"/>
<path d="M0 0 C0.99 0 1.98 0 3 0 C3 0.99 3 1.98 3 3 C3.66 3 4.32 3 5 3 C5 5.64 5 8.28 5 11 C4.34 11 3.68 11 3 11 C3 9.35 3 7.7 3 6 C2.01 6 1.02 6 0 6 C0 7.65 0 9.3 0 11 C-0.99 11 -1.98 11 -3 11 C-3 8.36 -3 5.72 -3 3 C-2.01 3 -1.02 3 0 3 C0 2.01 0 1.02 0 0 Z " fill="#6E6E6E" transform="translate(113,136)"/>
<path d="M0 0 C0.99 0 1.98 0 3 0 C3 0.99 3 1.98 3 3 C3.66 3 4.32 3 5 3 C5 3.99 5 4.98 5 6 C4.34 6 3.68 6 3 6 C3 9.63 3 13.26 3 17 C2.01 17 1.02 17 0 17 C0 11.39 0 5.78 0 0 Z " fill="#737373" transform="translate(184,136)"/>
<path d="M0 0 C6.27 0 12.54 0 19 0 C19 0.99 19 1.98 19 3 C12.73 3 6.46 3 0 3 C0 2.01 0 1.02 0 0 Z " fill="#858585" transform="translate(143,106)"/>
<path d="M0 0 C0.66 0 1.32 0 2 0 C2.33 3.63 2.66 7.26 3 11 C5.64 11 8.28 11 11 11 C11 11.99 11 12.98 11 14 C8.03 14 5.06 14 2 14 C2 13.01 2 12.02 2 11 C1.34 11 0.68 11 0 11 C0 7.37 0 3.74 0 0 Z " fill="#818181" transform="translate(242,139)"/>
<path d="M0 0 C0.99 0 1.98 0 3 0 C3 3.63 3 7.26 3 11 C2.01 11 1.02 11 0 11 C0 11.99 0 12.98 0 14 C-0.99 14 -1.98 14 -3 14 C-3 12.02 -3 10.04 -3 8 C-2.01 8 -1.02 8 0 8 C0 5.36 0 2.72 0 0 Z " fill="#A1A1A1" transform="translate(348,139)"/>
<path d="M0 0 C0.99 0 1.98 0 3 0 C3 5.61 3 11.22 3 17 C2.01 17 1.02 17 0 17 C0 11.39 0 5.78 0 0 Z " fill="#C1C1C1" transform="translate(315,136)"/>
<path d="M0 0 C0.99 0 1.98 0 3 0 C3 5.61 3 11.22 3 17 C2.01 17 1.02 17 0 17 C0 11.39 0 5.78 0 0 Z " fill="#FF928B" transform="translate(105,59)"/>
<path d="M0 0 C1.98 0 3.96 0 6 0 C5.01 0.33 4.02 0.66 3 1 C3 1.66 3 2.32 3 3 C2.34 3 1.68 3 1 3 C1 9.27 1 15.54 1 22 C2.65 22 4.3 22 6 22 C6 22.99 6 23.98 6 25 C4.02 25 2.04 25 0 25 C0 16.75 0 8.5 0 0 Z " fill="#FF8A82" transform="translate(88,95)"/>
<path d="M0 0 C0.66 0 1.32 0 2 0 C2 0.99 2 1.98 2 3 C4.64 3 7.28 3 10 3 C10 3.99 10 4.98 10 6 C7.36 6 4.72 6 2 6 C2 7.65 2 9.3 2 11 C1.34 11 0.68 11 0 11 C0 7.37 0 3.74 0 0 Z " fill="#8E8E8E" transform="translate(21,139)"/>
<path d="M0 0 C0.66 0 1.32 0 2 0 C2 4.62 2 9.24 2 14 C2.99 14 3.98 14 5 14 C5 14.99 5 15.98 5 17 C3.35 17 1.7 17 0 17 C0 11.39 0 5.78 0 0 Z " fill="#D0D0D0" transform="translate(261,136)"/>
<path d="M0 0 C0.99 0 1.98 0 3 0 C3 0.99 3 1.98 3 3 C3.99 3 4.98 3 6 3 C6 5.64 6 8.28 6 11 C5.01 11 4.02 11 3 11 C3 9.35 3 7.7 3 6 C2.01 6 1.02 6 0 6 C0 4.02 0 2.04 0 0 Z " fill="#8D8D8D" transform="translate(50,136)"/>
<path d="M0 0 C0.99 0 1.98 0 3 0 C3 4.62 3 9.24 3 14 C2.01 14 1.02 14 0 14 C0 9.38 0 4.76 0 0 Z " fill="#B1B1B1" transform="translate(258,106)"/>
<path d="M0 0 C0.99 0 1.98 0 3 0 C3 4.62 3 9.24 3 14 C2.01 14 1.02 14 0 14 C0 9.38 0 4.76 0 0 Z " fill="#EFEFEF" transform="translate(318,76)"/>
<path d="M0 0 C0.99 0 1.98 0 3 0 C3 4.62 3 9.24 3 14 C2.01 14 1.02 14 0 14 C0 9.38 0 4.76 0 0 Z " fill="#E6E6E6" transform="translate(80,59)"/>
<path d="M0 0 C0.99 0 1.98 0 3 0 C3 6.27 3 12.54 3 19 C2.01 19 1.02 19 0 19 C-0.04241723 16.66705225 -0.04092937 14.33297433 0 12 C0.33 11.67 0.66 11.34 1 11 C1.23075082 9.65252916 1.41153063 8.29622435 1.5625 6.9375 C1.706875 5.638125 1.85125 4.33875 2 3 C1.34 3 0.68 3 0 3 C0 2.01 0 1.02 0 0 Z " fill="#717171" transform="translate(192,73)"/>
<path d="M0 0 C0.66 0 1.32 0 2 0 C2 4.62 2 9.24 2 14 C1.01 14 0.02 14 -1 14 C-1 13.01 -1 12.02 -1 11 C-1.99 11 -2.98 11 -4 11 C-4 10.34 -4 9.68 -4 9 C-2.68 9 -1.36 9 0 9 C0 6.03 0 3.06 0 0 Z " fill="#7A7A7A" transform="translate(305,136)"/>
<path d="M0 0 C1.98 0 3.96 0 6 0 C6 0.99 6 1.98 6 3 C4.35 3 2.7 3 1 3 C1 6.63 1 10.26 1 14 C1.66 14 2.32 14 3 14 C3 14.99 3 15.98 3 17 C2.01 17 1.02 17 0 17 C0 11.39 0 5.78 0 0 Z " fill="#9E9E9E" transform="translate(293,136)"/>
<path d="M0 0 C0.99 0 1.98 0 3 0 C3 0.66 3 1.32 3 2 C5.64 2 8.28 2 11 2 C11 2.99 11 3.98 11 5 C11.99 5.33 12.98 5.66 14 6 C11.03 6 8.06 6 5 6 C5 5.01 5 4.02 5 3 C3.35 3 1.7 3 0 3 C0 2.01 0 1.02 0 0 Z " fill="#FFACA7" transform="translate(83,13)"/>
<path d="M0 0 C0.99 0 1.98 0 3 0 C3 0.99 3 1.98 3 3 C2.34 3 1.68 3 1 3 C1 9.27 1 15.54 1 22 C1.66 22 2.32 22 3 22 C3 22.99 3 23.98 3 25 C2.01 25 1.02 25 0 25 C0 16.75 0 8.5 0 0 Z " fill="#929292" transform="translate(9,54)"/>
<path d="M0 0 C2.64 0 5.28 0 8 0 C8 0.66 8 1.32 8 2 C9.98 2 11.96 2 14 2 C14 2.99 14 3.98 14 5 C13.01 5 12.02 5 11 5 C11 4.34 11 3.68 11 3 C7.37 3 3.74 3 0 3 C0 2.01 0 1.02 0 0 Z " fill="#939393" transform="translate(165,46)"/>
<path d="M0 0 C3.63 0 7.26 0 11 0 C11 0.99 11 1.98 11 3 C7.37 3 3.74 3 0 3 C0 2.01 0 1.02 0 0 Z " fill="#949494" transform="translate(23,150)"/>
<path d="M0 0 C3.63 0 7.26 0 11 0 C11 0.99 11 1.98 11 3 C7.37 3 3.74 3 0 3 C0 2.01 0 1.02 0 0 Z " fill="#7D7D7D" transform="translate(88,136)"/>
<path d="M0 0 C3.63 0 7.26 0 11 0 C11 0.99 11 1.98 11 3 C7.37 3 3.74 3 0 3 C0 2.01 0 1.02 0 0 Z " fill="#A0A0A0" transform="translate(334,117)"/>
<path d="M0 0 C0.99 0 1.98 0 3 0 C3 3.63 3 7.26 3 11 C2.01 11 1.02 11 0 11 C0 7.37 0 3.74 0 0 Z " fill="#C4C4C4" transform="translate(258,46)"/>
<path d="M0 0 C3.63 0 7.26 0 11 0 C11 0.99 11 1.98 11 3 C7.37 3 3.74 3 0 3 C0 2.01 0 1.02 0 0 Z " fill="#CDCDCD" transform="translate(334,43)"/>
<path d="M0 0 C0.33 0.99 0.66 1.98 1 3 C2.32 3 3.64 3 5 3 C5 3.66 5 4.32 5 5 C4.34 5 3.68 5 3 5 C3 6.98 3 8.96 3 11 C2.01 11 1.02 11 0 11 C0 7.37 0 3.74 0 0 Z " fill="#D6D6D6" transform="translate(296,142)"/>
<path d="M0 0 C0.99 0 1.98 0 3 0 C2.67 4.62 2.34 9.24 2 14 C1.34 14 0.68 14 0 14 C0 9.38 0 4.76 0 0 Z " fill="#5D5D5D" transform="translate(220,136)"/>
<path d="M0 0 C8.25 0 16.5 0 25 0 C25 0.99 25 1.98 25 3 C24.01 3 23.02 3 22 3 C22 2.34 22 1.68 22 1 C14.74 1 7.48 1 0 1 C0 0.67 0 0.34 0 0 Z " fill="#878787" transform="translate(143,56)"/>
<path d="M0 0 C0.66 0 1.32 0 2 0 C2 1.98 2 3.96 2 6 C-0.64 6 -3.28 6 -6 6 C-6 5.01 -6 4.02 -6 3 C-4.02 3 -2.04 3 0 3 C0 2.01 0 1.02 0 0 Z " fill="#929292" transform="translate(97,147)"/>
<path d="M0 0 C0.33 0.99 0.66 1.98 1 3 C1.66 3 2.32 3 3 3 C3 3.99 3 4.98 3 6 C3.99 6 4.98 6 6 6 C6 6.66 6 7.32 6 8 C4.02 8 2.04 8 0 8 C0 7.34 0 6.68 0 6 C-0.66 6 -1.32 6 -2 6 C-2 5.01 -2 4.02 -2 3 C-1.34 3 -0.68 3 0 3 C0 2.01 0 1.02 0 0 Z " fill="#A1A1A1" transform="translate(189,139)"/>
<path d="M0 0 C1.98 0 3.96 0 6 0 C6 0.99 6 1.98 6 3 C4.35 3 2.7 3 1 3 C1 4.98 1 6.96 1 9 C1.66 9 2.32 9 3 9 C3 9.66 3 10.32 3 11 C2.01 11 1.02 11 0 11 C0 7.37 0 3.74 0 0 Z " fill="#B0B0B0" transform="translate(159,139)"/>
<path d="M0 0 C0.99 0 1.98 0 3 0 C3 0.99 3 1.98 3 3 C1.35 3 -0.3 3 -2 3 C-2 3.99 -2 4.98 -2 6 C-2.99 6 -3.98 6 -5 6 C-5 6.66 -5 7.32 -5 8 C-5.99 8 -6.98 8 -8 8 C-8 7.01 -8 6.02 -8 5 C-7.01 5 -6.02 5 -5 5 C-5 4.34 -5 3.68 -5 3 C-3.35 2.67 -1.7 2.34 0 2 C0 1.34 0 0.68 0 0 Z " fill="#959595" transform="translate(184,106)"/>
<path d="M0 0 C0.99 0 1.98 0 3 0 C3 5.61 3 11.22 3 17 C2.01 17 1.02 17 0 17 C0 16.01 0 15.02 0 14 C0.66 14 1.32 14 2 14 C2 10.37 2 6.74 2 3 C1.34 3 0.68 3 0 3 C0 2.01 0 1.02 0 0 Z " fill="#939393" transform="translate(195,136)"/>
<path d="M0 0 C0.99 0 1.98 0 3 0 C3 7.26 3 14.52 3 22 C2.67 22 2.34 22 2 22 C2 15.73 2 9.46 2 3 C1.34 3 0.68 3 0 3 C0 2.01 0 1.02 0 0 Z " fill="#8D8D8D" transform="translate(179,70)"/>
<path d="M0 0 C0.99 0.33 1.98 0.66 3 1 C2.34 1 1.68 1 1 1 C1 6.28 1 11.56 1 17 C1.66 17 2.32 17 3 17 C3 17.99 3 18.98 3 20 C2.01 20 1.02 20 0 20 C0 13.4 0 6.8 0 0 Z " fill="#FFB3AE" transform="translate(20,15)"/>
<path d="M0 0 C2.97 0 5.94 0 9 0 C9 0.99 9 1.98 9 3 C6.03 3 3.06 3 0 3 C0 2.01 0 1.02 0 0 Z " fill="#7F7F7F" transform="translate(339,136)"/>
<path d="M0 0 C2.64 0 5.28 0 8 0 C8 0.66 8 1.32 8 2 C6.35 2 4.7 2 3 2 C3 2.99 3 3.98 3 5 C2.01 5 1.02 5 0 5 C0 3.35 0 1.7 0 0 Z " fill="#CACACA" transform="translate(23,145)"/>
<path d="M0 0 C1.65 0 3.3 0 5 0 C5 1.65 5 3.3 5 5 C3.35 5 1.7 5 0 5 C0 3.35 0 1.7 0 0 Z " fill="#BEBEBE" transform="translate(266,142)"/>
<path d="M0 0 C0.66 0 1.32 0 2 0 C2 1.65 2 3.3 2 5 C1.34 5 0.68 5 0 5 C-0.33 6.32 -0.66 7.64 -1 9 C-1.66 9 -2.32 9 -3 9 C-3 7.68 -3 6.36 -3 5 C-2.34 5 -1.68 5 -1 5 C-0.67 3.35 -0.34 1.7 0 0 Z " fill="#797979" transform="translate(190,95)"/>
<path d="M0 0 C1.32 0 2.64 0 4 0 C4 1.98 4 3.96 4 6 C2.68 6 1.36 6 0 6 C0 4.02 0 2.04 0 0 Z " fill="#989898" transform="translate(118,147)"/>
<path d="M0 0 C0.99 0 1.98 0 3 0 C3 2.64 3 5.28 3 8 C2.01 8 1.02 8 0 8 C0 5.36 0 2.72 0 0 Z " fill="#A5A5A5" transform="translate(107,145)"/>
<path d="M0 0 C2.64 0 5.28 0 8 0 C8 0.99 8 1.98 8 3 C5.36 3 2.72 3 0 3 C0 2.01 0 1.02 0 0 Z " fill="#848484" transform="translate(67,150)"/>
<path d="M0 0 C1.65 0 3.3 0 5 0 C5 0.99 5 1.98 5 3 C4.34 3 3.68 3 3 3 C3 3.99 3 4.98 3 6 C2.01 6 1.02 6 0 6 C0 4.02 0 2.04 0 0 Z " fill="#A4A4A4" transform="translate(228,147)"/>
<path d="M0 0 C0.99 0 1.98 0 3 0 C3 2.64 3 5.28 3 8 C2.01 8 1.02 8 0 8 C0 5.36 0 2.72 0 0 Z " fill="#7C7C7C" transform="translate(263,142)"/>
<path d="M0 0 C0.99 0 1.98 0 3 0 C3 2.64 3 5.28 3 8 C2.01 8 1.02 8 0 8 C0 5.36 0 2.72 0 0 Z " fill="#6D6D6D" transform="translate(348,139)"/>
<path d="M0 0 C0.99 0 1.98 0 3 0 C3 0.99 3 1.98 3 3 C3.66 3 4.32 3 5 3 C5 3.99 5 4.98 5 6 C3.35 6 1.7 6 0 6 C0 4.02 0 2.04 0 0 Z " fill="#5A5A5A" transform="translate(184,136)"/>
<path d="M0 0 C0.99 0 1.98 0 3 0 C3 0.99 3 1.98 3 3 C2.34 3 1.68 3 1 3 C1 5.64 1 8.28 1 11 C1.66 11 2.32 11 3 11 C3 11.99 3 12.98 3 14 C2.34 14 1.68 14 1 14 C-0.38226016 11.23547967 -0.09525387 8.9538637 -0.0625 5.875 C-0.05347656 4.77929688 -0.04445313 3.68359375 -0.03515625 2.5546875 C-0.02355469 1.71164063 -0.01195313 0.86859375 0 0 Z " fill="#6F6F70" transform="translate(17,92)"/>
<path d="M0 0 C0.99 0 1.98 0 3 0 C3 2.64 3 5.28 3 8 C2.01 8 1.02 8 0 8 C0 5.36 0 2.72 0 0 Z " fill="#FFACA7" transform="translate(124,54)"/>
<path d="M0 0 C1.32 0 2.64 0 4 0 C4 1.98 4 3.96 4 6 C4.66 6 5.32 6 6 6 C6 6.99 6 7.98 6 9 C5.01 9 4.02 9 3 9 C3 7.02 3 5.04 3 3 C2.01 3 1.02 3 0 3 C0 2.01 0 1.02 0 0 Z " fill="#FFC2BE" transform="translate(118,40)"/>
<path d="M0 0 C0.33 0 0.66 0 1 0 C1 3.63 1 7.26 1 11 C1.66 11 2.32 11 3 11 C3 11.99 3 12.98 3 14 C2.34 14 1.68 14 1 14 C0.67 14.99 0.34 15.98 0 17 C0 11.39 0 5.78 0 0 Z " fill="#C4C4C4" transform="translate(66,136)"/>
<path d="M0 0 C0.33 0 0.66 0 1 0 C1 4.62 1 9.24 1 14 C1.66 14 2.32 14 3 14 C3 14.99 3 15.98 3 17 C2.01 17 1.02 17 0 17 C0 11.39 0 5.78 0 0 Z " fill="#A3A3A3" transform="translate(241,136)"/>
<path d="M0 0 C0.33 0 0.66 0 1 0 C1 4.62 1 9.24 1 14 C1.66 14 2.32 14 3 14 C3 14.99 3 15.98 3 17 C2.01 17 1.02 17 0 17 C0 11.39 0 5.78 0 0 Z " fill="#C1C1C1" transform="translate(282,136)"/>
<path d="M0 0 C0.33 0 0.66 0 1 0 C1 5.61 1 11.22 1 17 C0.01 17 -0.98 17 -2 17 C-2 16.01 -2 15.02 -2 14 C-1.34 14 -0.68 14 0 14 C0 9.38 0 4.76 0 0 Z " fill="#C3C3C3" transform="translate(151,136)"/>
<path d="M0 0 C0.33 0 0.66 0 1 0 C1 4.62 1 9.24 1 14 C1.66 14 2.32 14 3 14 C3 14.99 3 15.98 3 17 C2.01 17 1.02 17 0 17 C0 11.39 0 5.78 0 0 Z " fill="#D1D1D1" transform="translate(6,59)"/>
<path d="M0 0 C1.65 0 3.3 0 5 0 C5 0.99 5 1.98 5 3 C4.01 3 3.02 3 2 3 C2 3.99 2 4.98 2 6 C1.34 6 0.68 6 0 6 C0 4.02 0 2.04 0 0 Z " fill="#A7A7A7" transform="translate(171,147)"/>
<path d="M0 0 C0.99 0 1.98 0 3 0 C3 0.66 3 1.32 3 2 C3.99 2 4.98 2 6 2 C6 3.32 6 4.64 6 6 C5.01 6 4.02 6 3 6 C3 5.01 3 4.02 3 3 C2.01 3 1.02 3 0 3 C0 2.01 0 1.02 0 0 Z " fill="#FFD0CD" transform="translate(102,21)"/>
<path d="M0 0 C1.98 0 3.96 0 6 0 C6 0.99 6 1.98 6 3 C4.02 3 2.04 3 0 3 C0 2.01 0 1.02 0 0 Z " fill="#7A7A7A" transform="translate(165,150)"/>
<path d="M0 0 C0.99 0 1.98 0 3 0 C3 1.98 3 3.96 3 6 C2.01 6 1.02 6 0 6 C0 4.02 0 2.04 0 0 Z " fill="#A0A0A0" transform="translate(50,147)"/>
<path d="M0 0 C0.33 0 0.66 0 1 0 C1 2.97 1 5.94 1 9 C-0.32 9 -1.64 9 -3 9 C-3 8.01 -3 7.02 -3 6 C-2.01 6 -1.02 6 0 6 C0 4.02 0 2.04 0 0 Z " fill="#C8C8C8" transform="translate(304,136)"/>
<path d="M0 0 C1.98 0 3.96 0 6 0 C6 0.99 6 1.98 6 3 C4.02 3 2.04 3 0 3 C0 2.01 0 1.02 0 0 Z " fill="#8B8B8B" transform="translate(247,136)"/>
<path d="M0 0 C1.98 0 3.96 0 6 0 C6 0.99 6 1.98 6 3 C4.02 3 2.04 3 0 3 C0 2.01 0 1.02 0 0 Z " fill="#FFB1AC" transform="translate(88,117)"/>
<path d="M0 0 C0.99 0 1.98 0 3 0 C3 0.99 3 1.98 3 3 C2.34 3 1.68 3 1 3 C1 3.99 1 4.98 1 6 C0.01 6 -0.98 6 -2 6 C-2 5.01 -2 4.02 -2 3 C-1.34 3 -0.68 3 0 3 C0 2.01 0 1.02 0 0 Z " fill="#FFCAC7" transform="translate(99,84)"/>
<path d="M0 0 C0.99 0 1.98 0 3 0 C3 1.98 3 3.96 3 6 C2.01 6 1.02 6 0 6 C0 4.02 0 2.04 0 0 Z " fill="#FFA49E" transform="translate(124,73)"/>
<path d="M0 0 C0.99 0 1.98 0 3 0 C3 0.99 3 1.98 3 3 C3.66 3 4.32 3 5 3 C5 3.99 5 4.98 5 6 C4.01 6 3.02 6 2 6 C2 5.01 2 4.02 2 3 C1.34 3 0.68 3 0 3 C0 2.01 0 1.02 0 0 Z " fill="#9D9D9D" transform="translate(187,59)"/>
<path d="M0 0 C1.32 0 2.64 0 4 0 C4 0.66 4 1.32 4 2 C4.66 2 5.32 2 6 2 C6 2.99 6 3.98 6 5 C5.01 5 4.02 5 3 5 C3 4.01 3 3.02 3 2 C2.01 2 1.02 2 0 2 C0 1.34 0 0.68 0 0 Z " fill="#545454" transform="translate(301,145)"/>
<path d="M0 0 C0.66 0 1.32 0 2 0 C2 1.32 2 2.64 2 4 C1.34 4 0.68 4 0 4 C0 4.66 0 5.32 0 6 C-0.99 6 -1.98 6 -3 6 C-3 5.01 -3 4.02 -3 3 C-2.01 3 -1.02 3 0 3 C0 2.01 0 1.02 0 0 Z " fill="#B8B8B8" transform="translate(171,100)"/>
</svg>
