<svg version="1.1" id="Layer_1" xmlns="http://www.w3.org/2000/svg" xmlns:xlink="http://www.w3.org/1999/xlink" x="0px" y="0px"
	 width="100%" viewBox="0 0 512 512" enable-background="new 0 0 512 512" xml:space="preserve">
<path fill="#000000" opacity="1.000000" stroke="none" 
	d="
M1.366940,175.275040 
	C1.000000,118.362358 1.031927,61.724648 0.916813,5.087240 
	C0.910246,1.856392 1.304983,0.892525 4.908907,0.895110 
	C172.989349,1.015657 341.069885,1.017089 509.150330,0.889175 
	C512.875732,0.886340 513.079224,2.039648 513.073425,5.146475 
	C512.971741,59.451733 513.000000,113.757233 513.000000,168.531342 
	C507.876831,168.944702 509.061005,164.369644 507.625977,161.254028 
	C504.677246,153.163727 499.291351,147.052078 494.228394,140.332855 
	C487.722748,135.794403 482.192932,130.513428 475.406494,126.338135 
	C468.146637,122.513977 461.106659,119.026787 453.562317,115.741974 
	C445.129791,111.756691 436.410004,109.780296 427.516693,107.057724 
	C425.199066,106.052177 423.490875,104.738655 421.230713,104.476578 
	C408.719482,103.025848 396.503082,99.502335 383.933807,98.693367 
	C378.130432,98.319855 374.588409,95.048141 370.513184,91.369232 
	C364.776337,84.267029 358.454742,78.249931 352.316315,72.058723 
	C350.921997,70.652412 349.399872,69.366371 347.987335,67.495026 
	C341.246307,61.293163 335.299377,54.777042 328.953796,48.665302 
	C323.437592,43.352367 320.600983,43.218407 315.078064,48.730038 
	C310.482758,53.315910 305.134430,57.067902 300.800537,61.912785 
	C299.527924,63.335445 297.672119,63.758366 296.009186,65.177544 
	C289.548187,72.665649 288.721008,72.854973 280.296021,68.639221 
	C273.800812,64.855339 266.836517,63.245205 260.323303,60.504505 
	C257.741852,59.418255 254.988327,58.746208 252.374619,57.715549 
	C249.869766,56.727825 248.175217,55.098850 248.294418,51.734016 
	C247.213638,44.397480 246.442566,37.457550 246.511292,30.012993 
	C245.587051,25.821684 245.840042,21.961786 245.452667,18.161911 
	C244.865112,12.398465 242.868500,10.458939 237.145264,10.420991 
	C216.666565,10.285207 196.186707,10.276915 175.708084,10.426439 
	C170.227661,10.466455 168.279556,12.365350 167.574341,17.812235 
	C167.105118,21.436205 167.588303,25.149437 166.570160,29.166100 
	C166.572601,36.917503 165.427734,44.157177 164.986023,51.862129 
	C164.511719,55.500229 162.517288,57.244007 159.548462,58.127323 
	C150.764404,60.740864 142.494400,64.755463 133.793152,67.592560 
	C132.143295,68.130508 130.947647,69.265434 129.325577,70.534958 
	C125.209763,72.331688 122.162094,71.264397 119.408203,67.933868 
	C111.444328,61.408588 104.322655,54.499069 96.993172,47.818604 
	C92.194855,43.445179 89.345383,43.664658 84.576225,48.146400 
	C77.463821,54.830181 71.142212,62.330826 63.345123,68.791794 
	C59.769245,73.602432 55.421482,77.198936 51.450188,81.148422 
	C47.357136,85.219009 43.539410,89.533592 39.427258,94.047058 
	C35.895050,98.430153 38.128307,101.796585 40.791557,104.929588 
	C44.319359,109.079620 48.789532,112.358528 52.157227,117.152924 
	C55.070454,120.571442 58.044441,123.453621 61.044338,126.281700 
	C64.527573,129.565430 65.861969,132.973465 62.910263,137.626007 
	C59.939907,143.651093 57.462784,149.500366 54.723114,155.637924 
	C52.812561,161.372330 51.532528,166.944443 48.217278,172.141998 
	C40.283794,174.331924 32.459393,173.436722 24.758842,174.045059 
	C17.113522,174.649048 9.417089,175.163422 1.366940,175.275040 
z"/>
<path fill="#000000" opacity="1.000000" stroke="none" 
	d="
M512.683228,436.772888 
	C513.000000,460.987610 512.917725,484.975830 513.094727,508.962128 
	C513.119324,512.303345 512.543396,513.103516 509.041199,513.099915 
	C391.268829,512.979492 273.496277,513.000000 155.723785,513.000000 
	C105.583015,513.000000 55.442146,512.959839 5.301704,513.087463 
	C1.841929,513.096252 0.884278,512.558716 0.890567,508.805695 
	C1.032926,423.849762 1.000000,338.893494 1.000000,253.468658 
	C2.079424,252.039337 3.295114,251.837524 4.705340,252.143997 
	C15.989083,254.596069 27.512295,253.916077 38.924301,254.554825 
	C49.069298,255.122711 49.089085,254.739838 51.913448,264.431885 
	C52.192497,265.389465 52.479790,266.345215 52.911575,267.693604 
	C55.142082,275.064545 58.434959,281.525085 61.643364,288.020996 
	C65.982376,296.806030 65.875710,297.318054 58.228619,303.738281 
	C57.714001,304.170349 57.405487,304.764343 56.904991,305.658752 
	C51.832001,311.976959 46.244213,317.333038 40.920918,322.940338 
	C38.552696,325.434906 36.303421,328.344299 38.794228,332.490936 
	C40.172531,335.997864 42.901222,337.991211 45.146946,340.322693 
	C50.989662,346.388611 56.942127,352.350769 63.159447,358.530884 
	C70.387489,365.426147 76.961433,372.495850 83.925873,379.168915 
	C88.536537,383.586670 91.899864,383.870117 96.528763,379.559021 
	C102.242668,374.237427 108.168266,369.166901 114.225288,363.691162 
	C120.745132,355.079315 127.718491,354.405762 136.700119,359.873932 
	C143.293839,363.888306 151.097321,365.839508 158.905060,368.413300 
	C161.617996,370.353149 164.361176,370.709106 167.170486,371.069733 
	C177.242722,372.362732 178.786743,374.316467 178.166397,384.559723 
	C178.126587,385.217072 178.028244,385.870941 178.029007,386.981964 
	C178.493027,393.814545 178.546509,400.197357 178.053436,407.022430 
	C178.451492,413.390778 178.438843,419.329468 178.317200,425.260742 
	C178.203613,430.799652 179.167572,436.084534 181.469940,441.534180 
	C183.592697,447.492432 187.306824,451.965637 191.088837,456.353821 
	C199.375671,465.968964 209.985245,472.512604 221.227402,478.840759 
	C238.131836,486.958771 255.485916,492.545959 273.361145,496.738922 
	C303.969513,503.918671 335.085052,504.962830 366.197449,503.403046 
	C397.591278,501.829224 428.272308,495.728546 457.345978,483.116669 
	C459.480957,482.190521 461.899323,482.018616 464.131714,480.347229 
	C470.415009,476.301178 476.833374,473.255005 482.646301,469.136414 
	C491.506531,462.858704 499.030243,455.350647 505.275024,446.038208 
	C507.312683,442.321960 507.000946,437.290955 512.683228,436.772888 
z"/>
<path fill="#A53993" opacity="1.000000" stroke="none" 
	d="
M51.575508,270.278290 
	C50.526497,268.167297 49.791344,266.358276 49.249329,264.493164 
	C47.073891,257.007233 47.086639,257.244659 39.185226,256.940857 
	C28.366199,256.524933 17.526791,256.410736 6.741674,255.136948 
	C4.478464,254.869644 3.248516,253.519913 1.322702,252.732285 
	C1.000000,247.977905 1.000000,242.955811 1.000000,237.466858 
	C5.252365,233.175095 10.152206,234.837143 15.369594,235.478546 
	C19.248194,238.409409 23.266153,238.686737 27.507908,238.729202 
	C35.640598,238.810608 43.735516,239.811203 51.887585,239.879166 
	C57.785069,239.928345 61.914940,242.689697 63.364700,248.895020 
	C64.574013,254.071182 66.403511,259.080475 68.314827,264.050476 
	C69.092583,266.072876 69.652893,268.191589 68.214630,270.667236 
	C62.528973,272.972870 57.211990,273.208191 51.575508,270.278290 
z"/>
<path fill="#CD4D84" opacity="1.000000" stroke="none" 
	d="
M512.655762,373.665527 
	C513.000000,384.354218 513.000000,394.708466 513.000000,405.531342 
	C508.629456,409.852356 503.558105,408.105560 498.280182,407.633759 
	C494.865662,406.436829 494.884827,403.831757 494.763519,401.327545 
	C494.483917,395.555145 495.014862,389.756073 494.317627,382.953094 
	C490.412750,386.476776 486.793060,389.201935 482.999542,391.657043 
	C480.154510,393.498291 477.559601,396.198059 473.237366,395.335083 
	C465.390411,395.135315 457.936188,395.595947 450.483276,395.293976 
	C448.049591,395.195374 445.386597,395.604309 443.440277,392.804108 
	C442.849426,389.797760 444.375916,388.271790 446.438110,387.357208 
	C455.997925,383.117462 465.370483,378.543579 474.095734,372.727936 
	C475.082428,372.070282 476.280701,371.990967 477.906494,372.206116 
	C487.297058,371.430298 496.269592,371.557007 505.237701,371.687347 
	C507.675171,371.722748 510.297089,371.322021 512.655762,373.665527 
z"/>
<path fill="#B03D8E" opacity="1.000000" stroke="none" 
	d="
M512.664978,275.674133 
	C513.000000,286.687561 513.000000,297.375122 513.000000,308.531342 
	C508.743622,312.893066 503.717010,311.029785 498.546722,310.732178 
	C493.153351,308.765778 495.612213,304.060974 494.235870,300.377533 
	C491.815216,300.961761 490.394775,304.064758 487.133392,303.449768 
	C481.211182,302.655792 475.670563,303.767548 470.136719,303.343262 
	C467.559937,303.145660 464.874329,303.665100 462.191895,301.881897 
	C460.415497,298.792572 462.027802,297.169922 464.166809,295.880890 
	C473.035156,290.536499 481.692352,284.952881 488.056488,276.512268 
	C489.110596,275.114227 490.670471,274.492889 492.870728,274.438873 
	C499.693176,273.710693 506.126862,272.240845 512.664978,275.674133 
z"/>
<path fill="#8F62A5" opacity="1.000000" stroke="none" 
	d="
M1.000000,175.449982 
	C7.477818,171.193573 14.678165,172.529663 21.644983,171.872849 
	C30.091064,171.076584 38.517704,171.060837 47.425095,170.973877 
	C52.477734,167.639847 57.197208,167.899109 62.362148,170.790161 
	C65.498039,177.504822 62.338879,185.117676 55.718128,186.325546 
	C47.274403,187.866013 38.679062,188.679474 29.585361,188.005005 
	C24.511421,185.259476 19.457266,185.918015 14.486265,185.999100 
	C10.143376,186.069916 5.664521,187.484695 1.319299,184.310974 
	C1.000000,181.299988 1.000000,178.599976 1.000000,175.449982 
z"/>
<path fill="#95549F" opacity="1.000000" stroke="none" 
	d="
M512.680664,186.688995 
	C513.000000,196.020889 513.000000,205.041794 513.000000,214.531342 
	C508.922943,218.868286 504.006989,217.005356 498.967438,216.898132 
	C496.602509,216.319290 494.884003,215.280350 492.756653,214.205719 
	C487.502594,214.278732 482.610413,214.497711 477.714966,214.259537 
	C475.932007,214.172806 474.088776,214.233978 472.303955,212.679779 
	C470.374481,209.664032 472.205475,207.924454 473.963562,206.474991 
	C480.742371,200.886230 487.188049,195.035965 491.503845,187.206635 
	C492.248505,185.855728 493.532379,185.061569 495.545715,184.933975 
	C501.453674,185.158295 507.135315,183.120789 512.680664,186.688995 
z"/>
<path fill="#C54986" opacity="1.000000" stroke="none" 
	d="
M513.000000,373.531311 
	C501.279846,373.991211 489.559662,373.982452 477.363922,373.964050 
	C476.047333,371.881866 477.068207,370.418793 478.564636,369.220734 
	C486.687958,362.717072 492.402191,354.626709 495.038910,344.474274 
	C495.342468,343.305389 496.061951,342.413666 497.526672,341.664185 
	C502.795990,340.589447 507.671265,339.556763 512.662720,342.672058 
	C513.000000,353.020905 513.000000,363.041779 513.000000,373.531311 
z"/>
<path fill="#D8547F" opacity="1.000000" stroke="none" 
	d="
M496.761322,406.189301 
	C502.134186,406.022308 507.101410,406.037598 512.534302,406.026428 
	C513.000000,416.020905 513.000000,426.041779 513.000000,436.531342 
	C511.541779,436.171112 511.427429,437.242889 510.990509,438.248932 
	C509.800720,440.988556 508.446747,443.656891 506.996033,446.678986 
	C500.706116,448.573761 494.562225,450.327850 488.837952,445.041077 
	C488.286743,443.007599 488.864563,441.608398 489.711609,440.361816 
	C494.249176,433.683929 494.877319,426.201233 494.757202,418.404388 
	C494.695343,414.391144 493.489166,410.058746 496.761322,406.189301 
z"/>
<path fill="#A73891" opacity="1.000000" stroke="none" 
	d="
M513.000000,275.531342 
	C506.278076,275.991913 499.556152,275.983826 492.358398,275.967072 
	C490.425446,274.591644 490.525543,272.845856 491.341370,271.399597 
	C495.296753,264.387878 494.570770,256.740479 494.698883,249.173233 
	C494.753632,245.939255 494.048889,242.531311 496.512970,239.278931 
	C502.058044,237.330185 507.205139,236.584229 512.639771,239.651321 
	C513.000000,251.687561 513.000000,263.375122 513.000000,275.531342 
z"/>
<path fill="#BB438A" opacity="1.000000" stroke="none" 
	d="
M513.000000,342.531342 
	C508.026825,343.001190 503.053650,343.002380 497.624146,343.004700 
	C495.604309,342.322113 495.018402,340.988098 494.937378,339.422150 
	C494.466644,330.324463 494.376953,321.225555 494.998871,312.129944 
	C495.069244,311.100708 495.539062,310.233185 496.721008,309.259094 
	C502.133759,309.017487 507.100952,309.028839 512.534058,309.020081 
	C513.000000,320.020905 513.000000,331.041779 513.000000,342.531342 
z"/>
<path fill="#8D65A6" opacity="1.000000" stroke="none" 
	d="
M513.000000,186.532059 
	C507.220093,186.637695 501.385193,187.745987 495.299500,186.114105 
	C493.285553,184.689423 493.501831,182.955719 493.840149,181.346146 
	C495.029327,175.688522 494.946472,170.135132 492.919617,164.662384 
	C492.436768,163.358582 492.585724,162.045517 493.517212,160.444641 
	C498.519531,157.884521 503.330200,158.347458 508.609192,159.757416 
	C511.116058,162.551071 510.794159,166.050766 512.619080,168.963776 
	C513.000000,174.688034 513.000000,180.376083 513.000000,186.532059 
z"/>
<path fill="#9E4498" opacity="1.000000" stroke="none" 
	d="
M513.000000,239.531357 
	C508.027283,239.999649 503.054565,239.999298 497.625610,239.998779 
	C496.400146,239.638031 495.558624,239.142761 495.462341,238.323334 
	C494.564758,230.682373 493.320099,223.015564 496.719299,215.251160 
	C502.133942,214.988510 507.100861,214.982513 512.533875,214.988251 
	C513.000000,223.020905 513.000000,231.041809 513.000000,239.531357 
z"/>
<path fill="#9C479A" opacity="1.000000" stroke="none" 
	d="
M16.282188,236.732819 
	C11.198024,236.995239 6.564273,236.996918 1.465261,236.999298 
	C1.000000,229.979050 1.000000,222.958099 1.000000,215.468567 
	C5.644616,211.277298 10.684895,212.504913 16.178135,214.095306 
	C19.337379,221.722946 19.248697,229.091537 16.282188,236.732819 
z"/>
<path fill="#95549F" opacity="1.000000" stroke="none" 
	d="
M16.284536,214.723557 
	C11.197747,214.991974 6.564133,214.994690 1.465259,214.998703 
	C1.000000,209.645065 1.000000,204.290146 1.000000,198.467606 
	C5.646800,194.277664 10.687439,195.502350 16.183075,197.102264 
	C19.211628,203.055038 19.155010,208.749008 16.284536,214.723557 
z"/>
<path fill="#915EA3" opacity="1.000000" stroke="none" 
	d="
M16.202053,197.855804 
	C11.196868,197.991852 6.563685,197.994537 1.465252,197.998627 
	C1.000000,193.643097 1.000000,189.286194 1.000000,184.464630 
	C8.762913,184.098038 16.525873,184.192596 24.288698,184.297104 
	C25.821449,184.317734 27.207699,184.833191 28.770630,185.870377 
	C29.070002,188.675079 27.119650,189.128006 25.307264,189.098831 
	C20.693298,189.024597 18.021601,190.806137 17.922943,195.699997 
	C17.906214,196.529892 17.250904,197.196503 16.202053,197.855804 
z"/>
<path fill="#7B89B6" opacity="1.000000" stroke="none" 
	d="
M427.658447,104.761925 
	C437.010742,106.548355 445.205627,110.324989 453.863403,113.579391 
	C453.748688,117.558945 450.805634,117.153755 448.504517,117.220116 
	C440.383087,117.454323 432.250610,117.598373 424.134308,117.151093 
	C421.415863,117.001282 418.851959,117.190552 415.930847,118.422768 
	C412.692657,119.647011 409.955048,118.845352 407.174438,118.330513 
	C388.215668,114.820145 369.142303,111.356499 349.863373,111.550751 
	C323.110626,111.820305 296.395996,113.661041 269.858704,120.518997 
	C268.826660,120.784599 268.228271,120.902115 267.158539,120.994308 
	C265.761597,121.006584 264.839844,120.937805 263.609375,120.215309 
	C261.576385,118.271011 259.505219,118.925476 257.600189,119.062042 
	C250.024750,119.605087 242.446335,119.333389 234.869400,119.252655 
	C232.913101,119.231812 230.866745,119.261292 229.080780,117.268936 
	C227.977783,114.780396 228.916183,113.060318 230.669785,112.307625 
	C240.567703,108.059204 250.355637,103.364212 261.873169,103.168861 
	C263.973969,104.192230 265.733093,104.578926 267.610107,104.466537 
	C298.696808,102.605225 329.812622,103.941833 360.913757,103.691544 
	C379.376190,103.542953 397.848663,103.204430 416.311584,103.971489 
	C419.948792,104.122604 423.533142,105.233292 427.658447,104.761925 
z"/>
<path fill="#788FB8" opacity="1.000000" stroke="none" 
	d="
M427.891357,104.629585 
	C425.370178,105.786179 422.580414,106.022240 419.723755,106.020607 
	C369.268158,105.991753 318.812561,105.999733 268.356964,105.999153 
	C265.860107,105.999123 263.345001,106.121483 260.579224,104.758347 
	C261.079559,101.384026 263.897186,101.175430 266.462738,100.563354 
	C292.676117,94.309616 319.267120,91.897102 346.180634,92.603340 
	C348.140045,92.654762 350.637115,93.745255 352.103333,90.600800 
	C355.637146,86.205681 360.222992,88.122437 364.310272,87.729454 
	C366.299133,87.538239 368.213654,88.214706 370.575348,88.836884 
	C373.282532,91.233017 375.920135,93.176292 378.361145,95.253273 
	C380.787476,97.317757 384.662354,96.415939 387.799286,96.769928 
	C400.486572,98.201607 412.903412,100.755119 425.222534,103.961418 
	C426.016388,104.168030 426.858429,104.189278 427.891357,104.629585 
z"/>
<path fill="#5FC1CE" opacity="1.000000" stroke="none" 
	d="
M164.491669,29.367920 
	C166.347778,24.038336 164.121857,18.654766 165.824127,13.490500 
	C167.147064,9.477038 169.078018,7.930049 173.162628,7.948626 
	C194.612045,8.046179 216.066010,8.229385 237.510040,7.876113 
	C245.842697,7.738840 246.939072,9.988661 247.994705,18.424194 
	C248.400024,21.663166 247.172119,25.018013 248.763062,28.593143 
	C243.804428,32.823940 238.572952,31.770767 232.880371,29.406343 
	C229.947067,26.216911 226.784744,25.226971 222.856918,25.292637 
	C211.461655,25.483149 200.059814,25.440657 188.662811,25.314459 
	C184.869965,25.272459 181.858612,26.202087 179.529083,29.878836 
	C174.324524,31.569565 169.531967,32.304726 164.491669,29.367920 
z"/>
<path fill="#6BA9C4" opacity="1.000000" stroke="none" 
	d="
M61.892555,68.334541 
	C69.642311,60.075336 77.254776,52.175743 85.060471,44.471947 
	C89.014297,40.569740 93.405022,41.262726 98.417702,45.894367 
	C105.484550,52.424019 112.645531,58.851788 119.937996,65.638771 
	C119.564941,68.682129 117.445259,69.085358 115.206848,69.184845 
	C110.569008,69.390984 105.926300,69.599823 100.912422,68.914856 
	C97.804199,69.974724 95.460388,68.773315 93.720352,67.085442 
	C90.597572,64.056252 88.343079,65.095299 85.848305,67.796341 
	C84.085495,69.704903 82.284363,71.819519 78.808945,71.428329 
	C74.520950,71.051025 70.616493,71.591743 66.724152,71.228973 
	C64.772552,71.047073 62.745594,71.026482 61.892555,68.334541 
z"/>
<path fill="#6BA9C4" opacity="1.000000" stroke="none" 
	d="
M294.752502,64.255646 
	C301.609680,57.742840 308.258789,51.627037 314.936432,45.542530 
	C320.299500,40.655823 324.244904,40.757778 329.374481,45.878021 
	C335.850342,52.342094 342.313934,58.818459 348.917053,65.593506 
	C349.282318,69.002502 347.212311,69.827812 344.747589,70.082344 
	C340.653625,70.505135 336.558380,70.517616 332.099182,69.616455 
	C329.216187,69.958473 327.195343,69.045021 325.586273,67.241638 
	C323.302582,64.682205 321.056000,64.396690 318.555908,66.969528 
	C317.372864,68.187012 315.814667,68.693298 313.676117,68.413139 
	C308.672668,68.124435 304.061493,68.613625 299.465179,68.203796 
	C297.161255,67.998360 294.663208,67.964157 294.752502,64.255646 
z"/>
<path fill="#709EBF" opacity="1.000000" stroke="none" 
	d="
M294.643860,63.996826 
	C295.867645,66.326843 298.027588,65.905449 299.973633,65.999863 
	C304.746887,66.231430 309.586731,65.365669 314.699158,66.954292 
	C316.394897,70.131645 314.083893,71.811317 312.251984,73.264809 
	C307.549927,76.995522 303.544312,81.430618 299.182770,85.501030 
	C293.508636,90.796371 289.257019,91.562103 282.530457,87.798515 
	C273.384888,82.681511 264.071228,78.018410 254.150894,74.578949 
	C252.187057,73.898071 250.017029,73.091377 249.237640,70.259995 
	C249.916855,66.524361 252.426926,65.848320 255.250443,65.800621 
	C263.556671,65.660294 271.890747,64.998055 280.576355,66.903923 
	C281.212036,66.911842 281.419220,66.879608 281.535431,66.967567 
	C286.909607,71.034714 290.969849,69.166458 294.643860,63.996826 
z"/>
<path fill="#709EBF" opacity="1.000000" stroke="none" 
	d="
M98.794174,68.479065 
	C102.481567,66.000061 106.352280,67.344254 110.052742,67.021912 
	C113.141098,66.752892 116.307114,67.458809 119.717628,66.116241 
	C122.566422,66.751122 123.302528,71.521172 127.535904,68.989227 
	C136.932419,66.303452 146.133316,67.913109 155.277817,68.000458 
	C156.481689,68.011963 157.447754,68.685493 158.403320,70.015427 
	C159.043228,73.121498 157.328445,74.347420 155.193176,75.187187 
	C146.810867,78.483818 138.782974,82.461464 131.274323,87.458694 
	C126.197723,90.837318 121.190582,90.554382 116.527718,86.777405 
	C111.111084,82.389870 105.951447,77.691162 100.644974,73.168274 
	C99.363632,72.076149 98.357643,70.721001 98.794174,68.479065 
z"/>
<path fill="#6DA5C2" opacity="1.000000" stroke="none" 
	d="
M158.347076,72.138458 
	C157.154877,69.952759 155.454987,70.022034 153.802170,70.007790 
	C145.448471,69.935776 137.074966,70.351265 128.329590,68.968079 
	C138.217590,62.423080 149.864075,59.026104 161.260544,55.040123 
	C162.030853,54.770702 162.914841,54.874081 163.081238,53.376495 
	C167.877991,50.442501 172.677353,51.637066 177.890015,52.868660 
	C182.085205,59.185863 179.887939,67.140503 173.400879,69.381470 
	C168.682083,71.011566 164.062988,73.713646 158.347076,72.138458 
z"/>
<path fill="#6DA5C2" opacity="1.000000" stroke="none" 
	d="
M280.875458,66.575760 
	C276.148621,69.145363 270.970306,67.616798 265.931519,67.955498 
	C262.314240,68.198647 258.668030,67.985588 255.035797,68.043488 
	C253.182526,68.073021 251.393768,68.388603 250.147522,70.502136 
	C243.228195,73.725494 235.180069,70.162895 232.772888,63.137005 
	C231.507339,59.443199 231.217575,55.697441 233.072769,51.617661 
	C238.665863,48.667263 243.941269,46.627201 249.521973,51.636993 
	C249.248352,55.164986 252.035477,55.339668 253.741913,55.841011 
	C263.027771,58.569164 271.961761,62.155380 280.875458,66.575760 
z"/>
<path fill="#729BBD" opacity="1.000000" stroke="none" 
	d="
M61.641087,68.028732 
	C65.123703,69.908142 68.651497,68.764648 72.016624,68.958916 
	C74.469978,69.100548 76.921646,69.055771 79.697975,69.954056 
	C81.129265,72.098633 80.004143,73.584991 78.701180,74.923134 
	C72.542961,81.247597 66.312759,87.501144 59.974350,93.645721 
	C58.745510,94.836967 57.359264,95.713890 55.122093,95.594345 
	C50.919106,96.038521 47.148933,96.589073 43.317753,96.223091 
	C41.299007,96.030243 39.319496,95.859283 38.025883,93.399246 
	C44.702560,83.750259 53.491348,76.405106 61.641087,68.028732 
z"/>
<path fill="#709EBF" opacity="1.000000" stroke="none" 
	d="
M329.720520,68.372116 
	C336.066101,67.286926 342.509766,69.565971 348.769653,66.167625 
	C356.797607,72.865768 364.015869,80.346359 370.904846,88.584175 
	C367.519409,90.989395 363.649170,89.622238 359.951996,89.982933 
	C357.849030,90.188095 355.669830,89.640160 353.304443,90.877930 
	C351.182098,92.050026 349.731903,91.257530 348.511383,90.082298 
	C342.477722,84.272598 336.533203,78.371529 330.754150,72.307159 
	C329.814514,71.321136 329.303925,70.122208 329.720520,68.372116 
z"/>
<path fill="#798CB7" opacity="1.000000" stroke="none" 
	d="
M37.499924,92.991730 
	C43.555904,94.751724 49.402988,93.711639 55.640556,94.034393 
	C56.188644,98.526123 58.835472,101.529228 61.964130,104.271423 
	C64.453613,106.453400 66.217354,109.262604 68.342995,111.759529 
	C69.700188,113.353783 70.457726,115.088707 69.253448,117.507973 
	C63.347725,120.297600 57.588299,119.660965 51.380608,118.225647 
	C46.686024,113.944756 42.261265,109.931679 38.197517,105.581375 
	C34.124954,101.221634 33.984253,97.446014 37.499924,92.991730 
z"/>
<path fill="#7E82B2" opacity="1.000000" stroke="none" 
	d="
M414.934814,117.545364 
	C418.043762,115.112694 421.523010,115.092346 425.029114,114.979126 
	C434.470886,114.674217 443.942963,115.764229 453.706696,114.129944 
	C461.868042,116.136436 468.728973,120.372223 475.904602,124.578560 
	C476.053894,128.060120 473.600403,128.047058 471.523987,128.174149 
	C466.214294,128.499146 460.892609,128.427765 455.575775,128.244217 
	C454.262451,128.198898 452.926422,127.803757 451.314514,128.820190 
	C449.062378,130.154190 447.212250,129.932571 445.225311,129.213226 
	C436.817291,126.169296 428.297699,123.468979 419.668854,121.110580 
	C417.782440,120.594986 415.748352,120.139511 414.934814,117.545364 
z"/>
<path fill="#817DB0" opacity="1.000000" stroke="none" 
	d="
M449.875000,128.515884 
	C451.433502,125.687645 453.866302,126.105423 456.151184,125.992271 
	C462.550964,125.675316 468.995667,126.732147 475.707153,125.128708 
	C483.592834,127.534195 488.578674,133.742966 494.905396,138.582031 
	C496.064178,142.235672 493.797852,142.841385 491.379944,143.115189 
	C486.950012,143.616867 482.512726,143.293411 477.671173,143.118073 
	C475.240723,144.027817 473.456604,143.555084 471.629608,142.477264 
	C465.813995,139.046341 460.091034,135.444351 453.774170,132.925491 
	C451.966827,132.204803 450.125275,131.226593 449.875000,128.515884 
z"/>
<path fill="#7E82B2" opacity="1.000000" stroke="none" 
	d="
M50.978836,118.452629 
	C54.477180,116.008621 58.347549,117.372421 62.045567,117.012634 
	C64.148949,116.807983 66.328209,117.354675 68.694855,116.119888 
	C75.958260,115.828339 78.125069,121.592720 80.903244,126.128410 
	C83.147034,129.791656 82.815941,134.049088 80.392624,137.850693 
	C79.751419,138.856598 78.763275,139.464859 77.150383,139.767624 
	C73.458183,138.891983 70.129189,139.598633 66.851189,139.290192 
	C64.905876,139.107147 62.830448,139.391830 61.087166,137.353592 
	C63.343819,133.806747 63.422119,131.253754 60.018173,128.325974 
	C56.734535,125.501640 53.272594,122.664772 50.978836,118.452629 
z"/>
<path fill="#8673AC" opacity="1.000000" stroke="none" 
	d="
M475.747681,142.383377 
	C480.031769,140.213013 484.416748,141.328339 488.682770,140.985947 
	C490.746033,140.820343 493.075806,141.702942 494.873566,139.243530 
	C501.229156,144.586990 506.143799,151.158157 509.025574,159.520187 
	C504.460388,162.165466 499.554047,160.468582 494.353943,161.031509 
	C491.655853,161.839554 490.436554,160.234085 489.378876,158.873322 
	C485.834564,154.313370 481.803741,150.258987 477.371490,146.577911 
	C476.184723,145.592255 475.432068,144.356155 475.747681,142.383377 
z"/>
<path fill="#66B2C7" opacity="1.000000" stroke="none" 
	d="
M178.270782,53.754597 
	C173.204590,53.759712 168.511490,54.639374 163.560822,53.087448 
	C162.112823,45.253136 164.657028,37.644142 164.082977,29.460743 
	C168.742432,29.001291 173.333298,28.999140 178.379150,28.995262 
	C179.828201,29.384590 180.640854,30.117912 180.772903,31.112812 
	C181.783569,38.728222 181.234695,46.218155 178.270782,53.754597 
z"/>
<path fill="#66B2C7" opacity="1.000000" stroke="none" 
	d="
M249.902420,51.542854 
	C244.887909,50.691528 239.939148,50.830494 234.577087,51.985447 
	C233.004517,51.504059 232.265442,50.630150 232.087921,49.398144 
	C231.236725,43.490993 230.133881,37.598618 230.915756,31.580912 
	C231.069473,30.397743 231.366089,29.303780 232.727020,28.234243 
	C238.000137,29.650106 243.007202,28.786020 248.394852,29.003939 
	C249.222855,36.366329 249.596512,43.728149 249.902420,51.542854 
z"/>
<path fill="#8673AC" opacity="1.000000" stroke="none" 
	d="
M60.572845,137.137054 
	C66.082275,137.763519 71.590744,135.382904 76.801819,138.801331 
	C77.385841,139.675476 77.901917,140.313400 77.722786,140.911179 
	C75.900139,146.993683 73.961884,153.030670 68.224380,157.232452 
	C64.533440,157.387863 61.359135,158.753677 58.014030,158.058182 
	C56.217327,157.684616 54.448505,157.300461 53.057758,155.352936 
	C54.607552,148.772614 57.992352,143.275726 60.572845,137.137054 
z"/>
<path fill="#8A6BA9" opacity="1.000000" stroke="none" 
	d="
M52.563610,155.161194 
	C57.672001,156.210434 62.568245,155.535461 67.767258,155.894791 
	C70.038719,160.423889 67.450974,168.490692 62.537086,172.086853 
	C57.808289,170.174896 53.255379,171.335663 48.355091,170.966721 
	C48.174896,165.432938 51.142151,160.656616 52.563610,155.161194 
z"/>
<path fill="#EC6078" opacity="1.000000" stroke="none" 
	d="
M466.080566,480.626678 
	C451.829437,489.539581 436.132263,494.093140 420.264832,497.889435 
	C404.888794,501.568176 389.272003,503.865021 373.444122,505.183075 
	C355.522980,506.675476 337.579895,506.575867 319.762115,505.711517 
	C296.853302,504.600220 274.201965,500.569824 252.186401,493.640533 
	C241.177521,490.175568 230.448685,486.077362 220.063309,480.364014 
	C220.542343,477.087524 222.925659,476.864349 225.264236,476.791809 
	C231.682816,476.592743 238.103455,476.469849 244.522858,476.862915 
	C246.282623,476.970642 248.135971,477.644745 250.123535,476.026611 
	C252.802963,474.323914 255.039185,475.375458 257.236084,476.022491 
	C278.231415,482.206055 299.682159,486.259491 321.485687,487.391235 
	C353.821259,489.069672 386.020508,487.629456 417.591461,479.372314 
	C421.608978,478.321533 425.588409,477.045624 430.238190,476.781921 
	C433.094940,478.131195 435.533936,478.393097 438.296936,478.071136 
	C445.851532,477.190765 453.459686,477.614502 461.046570,477.787415 
	C463.012756,477.832214 465.087646,477.937653 466.080566,480.626678 
z"/>
<path fill="#C44887" opacity="1.000000" stroke="none" 
	d="
M158.364822,370.111877 
	C147.704056,367.755005 138.183456,363.653839 128.975800,358.900635 
	C125.671448,357.194855 123.600716,357.147339 121.203568,360.151978 
	C119.720818,362.010498 118.240356,364.158386 115.398293,365.055481 
	C108.474007,366.562012 101.898117,367.355499 95.025047,364.779114 
	C93.073891,361.408752 94.869095,359.416870 96.950409,357.596924 
	C102.582962,352.671814 108.252365,347.791565 113.670357,342.624268 
	C120.315735,336.286407 124.331749,335.933533 132.346191,340.686157 
	C143.303391,347.183960 154.925278,352.057617 167.381454,354.861053 
	C172.920883,356.107819 173.404343,355.638092 173.741913,350.082825 
	C173.966949,346.379974 172.601105,342.344025 176.005890,338.904175 
	C180.698303,337.167816 185.092255,337.485199 189.907272,338.367828 
	C192.469666,339.093658 193.731506,340.551819 193.989227,342.700256 
	C194.954346,350.745880 199.057373,357.242279 204.022705,363.322845 
	C205.317215,364.908142 206.416931,366.510406 205.466919,369.099091 
	C203.143463,371.756317 200.318130,371.293243 197.730316,371.298431 
	C184.757355,371.324432 171.762558,371.941101 158.364822,370.111877 
z"/>
<path fill="#E35B7B" opacity="1.000000" stroke="none" 
	d="
M466.414734,481.059326 
	C464.021057,479.523041 461.628662,480.115326 459.359283,480.003326 
	C449.821259,479.532471 440.224945,480.987671 430.313263,479.046844 
	C429.864838,475.256165 433.019348,475.036591 435.354401,474.273590 
	C447.234314,470.391754 458.608398,465.444977 469.204651,458.781097 
	C474.695374,455.328064 479.839966,451.436066 484.467773,446.865509 
	C485.842407,445.507935 486.938721,443.628510 489.611633,443.750671 
	C490.872375,446.309570 492.991150,445.917725 494.906464,445.996582 
	C498.627319,446.149780 502.405151,445.528412 506.438232,446.911072 
	C501.439453,457.146301 493.149231,464.523773 483.928741,471.018768 
	C478.499420,474.843201 472.968506,478.488251 466.414734,481.059326 
z"/>
<path fill="#E35B7B" opacity="1.000000" stroke="none" 
	d="
M251.105591,476.503784 
	C249.565186,479.314362 247.132095,478.900879 244.846405,479.007233 
	C236.793091,479.381958 228.692581,478.162262 220.283356,479.885803 
	C203.039276,472.347717 189.266571,461.193726 180.210785,444.354248 
	C181.400070,441.673309 183.685822,441.767792 185.792572,441.733765 
	C188.607315,441.688293 191.344193,440.906067 194.568542,441.031158 
	C197.249374,440.954712 199.317978,441.551331 200.777252,443.336456 
	C212.081223,457.164612 227.440399,464.718079 243.506989,471.281189 
	C246.261490,472.406372 249.884750,472.537140 251.105591,476.503784 
z"/>
<path fill="#CB4C84" opacity="1.000000" stroke="none" 
	d="
M158.090485,370.371948 
	C160.040497,368.942047 162.366013,368.994720 164.691422,368.996460 
	C175.956818,369.004974 187.222229,369.014832 198.487564,368.985901 
	C200.454315,368.980835 202.477676,369.311035 204.694611,368.117493 
	C207.502045,366.574951 209.345932,368.236023 210.878616,369.538788 
	C217.798599,375.420898 225.809326,379.489349 233.708740,383.764465 
	C235.595596,384.785675 237.764709,385.633026 237.197540,388.831116 
	C235.257217,391.607147 232.598145,391.158142 230.164917,391.288910 
	C224.032974,391.618500 217.877167,390.932190 211.394852,391.849304 
	C208.119766,393.437531 205.871918,391.742188 203.718369,390.253876 
	C199.901749,387.616272 196.518707,384.428955 193.013306,381.450745 
	C193.138290,383.824799 193.487030,386.387360 190.639984,388.264282 
	C185.707443,389.449158 181.158737,390.371735 176.486206,387.354248 
	C175.529938,383.118103 177.672409,378.168060 175.203003,375.568939 
	C173.086151,373.340851 168.269791,373.737915 164.686722,372.819977 
	C162.516205,372.264008 160.420761,371.414886 158.090485,370.371948 
z"/>
<path fill="#C74A86" opacity="1.000000" stroke="none" 
	d="
M94.658012,362.714172 
	C98.487312,365.003418 102.365311,363.622803 106.067001,363.986481 
	C108.824936,364.257416 111.665176,363.492279 114.703979,364.872101 
	C109.307365,371.956177 102.374863,377.542114 95.440613,383.064301 
	C91.301178,386.360809 87.419151,385.819916 83.676132,382.132233 
	C76.458000,375.020782 69.332848,367.814941 62.024956,360.342896 
	C62.580322,357.454529 64.619339,356.963135 66.889023,356.825256 
	C70.538864,356.603516 74.183937,356.534851 78.196770,357.087280 
	C81.123489,356.206909 83.122665,357.317261 84.663895,359.100494 
	C87.288795,362.137482 90.226448,363.910980 94.658012,362.714172 
z"/>
<path fill="#B03C8E" opacity="1.000000" stroke="none" 
	d="
M51.235790,270.359558 
	C56.421337,270.002777 61.669796,270.003448 67.375000,270.005554 
	C69.767700,269.915466 71.077110,270.978424 71.709320,272.609802 
	C74.188873,279.008087 77.908119,284.763184 81.019005,290.831146 
	C84.102631,296.845978 80.747704,306.221832 73.706291,307.342529 
	C69.312675,306.795288 65.363235,307.692322 61.412590,307.311157 
	C59.308559,307.108185 57.054996,307.486053 55.110779,305.362000 
	C54.954910,304.808136 55.001709,304.639893 55.098511,304.508514 
	C57.435471,301.337189 62.459080,299.494385 62.509438,295.655487 
	C62.553524,292.294617 59.437153,288.929688 57.858711,285.501282 
	C55.604225,280.604431 53.479095,275.648010 51.235790,270.359558 
z"/>
<path fill="#B9428B" opacity="1.000000" stroke="none" 
	d="
M54.581409,305.101990 
	C61.026516,305.402008 67.236107,304.194061 73.726517,305.877686 
	C75.301949,310.530212 71.205315,312.353973 69.267967,315.151886 
	C67.213173,318.119476 64.476669,320.644989 62.022224,323.329346 
	C58.957294,326.681335 56.239407,330.031464 55.034225,334.868225 
	C48.977543,337.051544 43.294437,336.972717 37.297012,334.255951 
	C32.904690,329.575073 35.426758,325.525421 38.362503,322.285645 
	C43.576843,316.531372 49.398304,311.328064 54.581409,305.101990 
z"/>
<path fill="#D8547F" opacity="1.000000" stroke="none" 
	d="
M197.084778,442.110779 
	C191.665665,443.898163 186.395264,444.228333 180.619324,444.005676 
	C177.438339,439.293457 175.961945,434.243774 175.992844,428.767151 
	C176.030136,422.156677 176.022705,415.545898 176.102356,408.471436 
	C180.458435,404.157562 185.316681,405.746552 190.531097,406.730164 
	C193.008591,408.087280 193.172119,410.120514 193.202103,412.112427 
	C193.339569,421.243011 193.706741,430.320618 197.597672,438.838898 
	C198.014999,439.752533 197.753082,440.796173 197.084778,442.110779 
z"/>
<path fill="#C14788" opacity="1.000000" stroke="none" 
	d="
M37.031921,334.348450 
	C42.697857,333.603699 48.574806,334.777283 54.693768,333.118134 
	C56.834675,331.939789 58.281345,332.761536 59.513252,333.941284 
	C66.204498,340.349426 72.706055,346.949249 79.158417,353.596802 
	C80.116096,354.583405 80.609077,355.801086 80.208771,357.552460 
	C76.871567,359.920288 73.341766,358.760132 69.978973,358.957184 
	C67.526077,359.100891 65.074867,359.058319 62.296921,359.949066 
	C53.297424,351.917297 44.683788,343.826538 37.031921,334.348450 
z"/>
<path fill="#D15082" opacity="1.000000" stroke="none" 
	d="
M191.279449,407.748199 
	C186.246216,408.006226 181.662506,408.005615 176.624420,408.006317 
	C176.124466,401.315826 176.078873,394.624084 176.100906,387.468384 
	C180.753006,387.004059 185.337494,387.003601 190.376709,387.003937 
	C191.597275,387.367035 192.419205,387.859161 192.537018,388.678375 
	C193.444916,394.992096 194.586487,401.332825 191.279449,407.748199 
z"/>
<path fill="#000000" opacity="1.000000" stroke="none" 
	d="
M80.343582,358.024841 
	C71.907921,349.644287 63.777580,341.408081 55.342487,333.026611 
	C54.291843,331.364319 51.972054,330.485474 54.319778,328.043945 
	C61.006538,321.090057 67.347168,313.803314 73.971863,306.342407 
	C80.995193,299.976166 81.900925,296.824493 77.536270,289.231171 
	C74.065063,283.192230 71.163811,276.913208 67.997200,270.334778 
	C65.562820,263.247162 62.766018,256.607849 61.185871,249.690643 
	C59.832504,243.766159 56.091839,241.912781 51.082176,242.097870 
	C40.662567,242.482819 30.359856,240.375717 19.954981,241.002930 
	C17.671879,241.140549 15.496885,241.190247 15.900522,237.425888 
	C15.877338,229.968994 15.922902,222.944412 15.899914,215.454559 
	C15.876822,209.632111 15.922280,204.274933 15.898895,198.453461 
	C16.518093,194.458908 14.319137,189.695984 16.952541,187.631714 
	C19.144447,185.913513 23.605194,187.095215 27.060457,186.976868 
	C27.553099,186.959991 28.042723,186.855103 28.789745,186.446106 
	C36.447426,185.732254 43.850559,185.389923 51.250378,184.986740 
	C58.714748,184.580032 60.630749,182.390289 62.072048,172.438324 
	C64.079292,166.957291 66.038910,161.877167 68.058395,156.418106 
	C70.995628,150.612015 73.872993,145.184860 76.893570,139.437958 
	C82.688759,131.521896 79.852936,127.517342 75.591713,122.161919 
	C73.850510,119.973602 71.648209,118.152161 69.347565,116.024063 
	C64.740395,110.968170 60.853867,105.647057 55.838116,101.423462 
	C52.884365,98.936203 52.585415,96.921921 55.975365,94.353836 
	C64.023628,86.249672 71.932671,78.455704 79.977547,70.352707 
	C82.745049,67.522209 85.463058,65.083061 87.975746,62.448124 
	C89.462471,60.889050 90.460289,60.841888 92.007622,62.412357 
	C93.948738,64.382492 96.211685,66.035538 98.648247,67.971466 
	C105.352142,74.688324 112.449692,80.457047 119.681610,86.045044 
	C122.216705,88.003868 125.060104,88.386505 128.170258,86.443802 
	C137.382843,80.689308 146.834717,75.358826 157.623535,71.913895 
	C162.092361,70.562462 166.107834,68.838814 170.295471,68.125046 
	C176.454224,67.075302 177.787704,62.994717 177.997269,57.811855 
	C178.036972,56.829456 177.987976,55.843475 177.906250,54.425873 
	C177.519699,45.932598 179.609818,37.987522 178.909180,29.453053 
	C177.968521,23.588951 180.588562,22.746948 185.473328,22.867739 
	C200.017487,23.227379 214.578033,23.119905 229.127960,22.906631 
	C232.581131,22.856016 233.456039,24.105059 233.097076,27.554291 
	C232.041016,35.746387 234.307632,43.370388 234.097473,51.542660 
	C234.109756,54.148258 233.906174,56.309200 234.026627,58.451931 
	C234.390717,64.929276 236.665924,67.316750 243.726700,69.044151 
	C245.588226,69.499565 247.403534,70.143944 249.619385,70.767929 
	C260.744324,73.841461 270.931396,78.245392 280.425140,84.029579 
	C289.414093,89.506210 291.959045,89.403023 299.624023,81.910461 
	C304.591309,77.054932 309.760468,72.405937 314.977112,67.354095 
	C322.283966,60.811638 322.283966,60.811638 329.580322,67.905441 
	C337.371857,75.636055 344.860291,83.232872 352.654572,90.972099 
	C353.826630,92.213821 354.692871,93.313141 356.019684,94.996979 
	C344.153229,94.996979 332.900085,94.611649 321.685883,95.107658 
	C310.930817,95.583359 300.241669,97.101913 289.552887,98.584145 
	C279.863098,99.927856 270.464355,102.523468 260.496613,104.332993 
	C249.609924,107.475624 239.171295,110.657608 229.068634,115.637451 
	C227.309967,118.794807 224.714035,118.004768 222.272415,117.825752 
	C205.473862,116.594070 188.801605,116.601189 172.747086,122.809883 
	C166.875671,125.080498 161.122604,127.617188 155.141052,130.557220 
	C147.327194,136.199890 140.409073,142.320282 133.321350,148.770462 
	C127.999283,155.928238 122.895058,162.809082 118.635651,170.663651 
	C115.961754,176.932678 114.111320,183.132370 111.643280,189.510101 
	C110.826523,195.834457 109.373924,201.673279 109.007118,208.089569 
	C109.441048,213.116821 109.515770,217.724442 109.068924,222.750641 
	C109.822250,229.248108 111.334641,235.181503 112.752266,241.523071 
	C116.594673,252.798874 121.736893,262.974548 128.832153,272.111816 
	C129.645142,273.158813 130.656845,274.056152 131.361298,275.632324 
	C143.084366,288.276581 156.268036,298.181335 172.365753,303.831360 
	C174.766541,304.674011 177.093216,305.656281 177.676819,309.032471 
	C178.873199,318.169525 178.324112,326.924500 178.161774,335.672607 
	C178.137024,337.007111 177.826477,338.302399 176.474564,339.643799 
	C176.111938,345.168060 175.916321,350.332642 176.050461,355.488647 
	C176.134872,358.733582 175.217316,359.338684 171.985291,358.601135 
	C156.955460,355.171478 142.554977,350.115845 129.574005,341.753723 
	C124.429611,338.439789 120.470749,339.555664 116.539497,343.016113 
	C109.356262,349.339203 102.330589,355.841278 95.101166,362.574097 
	C89.825981,367.328857 89.826370,367.328461 84.879333,362.386230 
	C83.470726,360.979004 82.059135,359.574768 80.343582,358.024841 
z"/>
<path fill="#000000" opacity="1.000000" stroke="none" 
	d="
M237.173920,388.369507 
	C225.859085,382.558014 214.876068,376.766876 205.347610,368.027588 
	C197.625366,360.259125 192.265762,351.591553 191.021622,340.369202 
	C189.051254,338.453094 188.737701,336.359314 188.717361,334.174194 
	C188.642212,326.108459 188.427200,318.041626 188.910461,309.526428 
	C188.930801,304.930603 188.337906,300.781494 188.904175,296.646393 
	C189.488663,292.378113 192.030533,291.307281 195.435806,293.916779 
	C197.674973,295.632690 199.523849,297.801178 201.911224,299.967163 
	C211.251144,306.144165 220.130127,312.337189 230.355347,316.157745 
	C232.392487,316.918915 234.222961,318.095581 236.429977,319.402771 
	C255.651077,325.658478 274.749786,330.641174 294.386322,333.673279 
	C318.221405,337.353668 342.208221,337.414856 366.117737,336.395264 
	C391.925476,335.294739 417.430817,331.250000 441.982056,322.625854 
	C445.587921,321.359222 449.508881,321.247803 453.301758,319.282593 
	C461.883453,314.611206 470.658691,311.153687 478.534607,306.011505 
	C481.311554,304.198425 483.899628,302.149078 487.792419,302.238159 
	C490.774536,299.564880 493.438995,297.085144 496.514008,294.223297 
	C497.481628,299.045807 496.738068,303.599670 497.096222,308.545410 
	C497.119568,320.029846 497.072540,331.053558 497.096649,342.541534 
	C496.058441,355.070099 488.818939,363.423401 480.228333,370.949249 
	C479.259125,371.798340 478.195496,372.539612 477.031982,373.642639 
	C468.858429,378.825134 460.807617,383.655029 452.167877,387.408447 
	C449.644043,388.504883 447.159637,389.692078 444.327972,391.002472 
	C442.544312,393.643219 440.141571,394.677246 437.560150,395.524445 
	C424.571777,399.787170 411.540405,403.829834 397.745209,404.541748 
	C395.576019,404.653687 393.580383,405.643402 391.061523,406.242737 
	C382.167877,407.973206 373.583344,408.903381 364.985962,409.253174 
	C351.256256,409.811768 337.501831,409.810547 323.767883,409.272003 
	C316.322632,408.980103 308.913849,407.992676 301.059204,407.201843 
	C292.206207,404.404297 283.273041,404.528564 274.708954,402.398132 
	C263.389618,399.582397 252.226776,396.381622 241.378479,392.102081 
	C239.674500,391.429840 237.939407,390.745605 237.173920,388.369507 
z"/>
<path fill="#000000" opacity="1.000000" stroke="none" 
	d="
M190.897614,408.469818 
	C190.875519,401.315369 190.921127,394.623932 190.899094,387.468628 
	C190.831467,383.709045 190.831467,380.413330 190.831467,376.624969 
	C197.092392,381.841705 202.625275,387.133667 209.600800,391.058838 
	C212.669952,391.106934 215.009323,392.004974 217.411667,393.355988 
	C224.775620,397.497284 232.314362,401.327301 240.338440,404.088623 
	C242.215378,404.734497 244.129608,405.306976 246.094421,406.739990 
	C254.966049,409.728088 263.778259,411.369934 272.464630,413.491425 
	C303.455841,421.060394 335.051636,421.757050 366.644836,420.409943 
	C389.248413,419.446136 411.570038,415.599976 433.339569,409.101959 
	C435.889130,408.340942 438.447662,407.611908 441.477814,407.163940 
	C450.340088,402.970856 459.267578,399.933594 467.640381,395.630981 
	C469.421875,394.715515 471.426422,394.526367 473.752625,394.172363 
	C482.633240,390.080536 489.738831,384.201233 497.021393,376.417084 
	C497.021393,386.746765 497.021393,395.912781 497.094177,405.542908 
	C497.111664,411.986877 496.884155,417.971344 497.044800,423.945343 
	C497.242798,431.307648 495.011200,437.697327 490.103149,443.564575 
	C483.778381,452.095032 475.559479,457.879486 466.836304,463.006531 
	C455.353638,469.755432 443.040222,474.569031 430.091034,478.627869 
	C420.269653,481.140930 410.689240,483.576630 400.998108,485.435486 
	C392.197479,487.123535 383.209106,487.793945 374.367371,489.173828 
	C364.527435,490.709564 354.580505,490.358704 344.844543,490.434723 
	C335.810883,490.505219 326.511566,490.698181 317.321716,489.373352 
	C308.943207,488.165466 300.480286,487.497803 292.065765,486.221680 
	C278.389923,484.147583 265.066498,480.825470 251.433334,476.934753 
	C238.037140,471.464966 224.796249,466.598724 213.278351,458.118256 
	C207.275772,453.698639 201.834030,448.820435 197.077789,442.693909 
	C190.803482,432.015228 190.782211,420.491913 190.897614,408.469818 
z"/>
<path fill="#D15082" opacity="1.000000" stroke="none" 
	d="
M473.717316,393.884216 
	C467.930298,399.325500 460.084137,401.382568 452.986359,404.873505 
	C450.110382,406.288025 446.885193,406.992493 443.430237,408.070618 
	C440.592529,406.949524 438.167480,408.092316 435.726105,408.160156 
	C422.325134,408.532593 408.920868,408.484680 395.519379,408.177551 
	C393.369049,408.128265 391.086212,407.911407 390.804321,404.610535 
	C408.837524,401.497803 426.280701,397.253204 443.615601,391.109406 
	C445.283691,393.689392 447.664246,392.872803 449.698090,392.984802 
	C457.567291,393.418030 465.489990,392.149475 473.717316,393.884216 
z"/>
<path fill="#000000" opacity="1.000000" stroke="none" 
	d="
M497.102478,214.653259 
	C497.123444,223.019623 497.079803,231.044724 497.102722,239.534241 
	C497.113861,244.602814 496.703735,249.236404 497.082153,253.804642 
	C497.725922,261.575226 495.892181,268.609314 491.938782,275.592651 
	C485.346252,283.959747 477.740540,290.718536 468.740540,295.852570 
	C466.627167,297.058136 464.495728,298.231934 462.171417,299.705109 
	C461.614380,302.002197 460.206116,303.033295 458.500732,303.882690 
	C445.996277,310.110870 433.039520,315.035095 419.196564,317.297028 
	C416.375671,317.757965 413.725983,318.471649 410.849915,320.026001 
	C390.345795,324.077667 370.123718,326.379974 349.584381,326.580322 
	C324.242096,326.827484 299.167969,325.271576 274.085449,319.099304 
	C272.419678,318.588593 271.327698,317.740417 269.990509,317.567535 
	C255.187561,315.653870 241.666870,309.984100 228.462296,303.391541 
	C226.536072,302.429840 224.576065,301.557007 222.205322,300.674866 
	C213.911026,295.334625 206.292175,289.806549 199.906525,282.681091 
	C197.663422,280.178101 195.511414,277.705719 193.883591,274.303040 
	C188.174896,264.107056 188.375549,253.399612 188.976410,242.194290 
	C188.578217,236.774796 188.455505,231.792206 188.954956,226.385498 
	C188.956055,222.172607 188.374146,218.377594 188.900040,214.592789 
	C189.491653,210.334991 192.267242,209.006409 195.373642,211.963547 
	C201.039215,217.356827 207.567841,221.508362 214.191498,226.229599 
	C224.466003,232.013077 234.900162,236.490448 246.001846,240.452484 
	C249.427322,243.033508 253.276642,242.748047 256.768585,243.699127 
	C273.164612,248.164703 289.808746,251.297882 306.701660,253.155411 
	C316.790985,254.264816 326.903442,254.499832 337.045685,254.741272 
	C368.157349,255.481949 398.795654,252.459473 428.898743,244.419571 
	C431.915680,243.613800 435.249023,244.049927 438.325165,241.892853 
	C448.050385,238.598984 456.879517,234.135895 466.472382,230.603210 
	C474.237854,225.779709 481.777222,221.259018 488.590881,215.684250 
	C490.039246,214.499237 491.487366,213.482544 493.696503,213.121292 
	C495.097443,212.869675 495.539917,211.138916 496.687714,211.708420 
	C497.126953,211.926331 496.939667,213.406860 497.102478,214.653259 
z"/>
<path fill="#B6408C" opacity="1.000000" stroke="none" 
	d="
M410.927612,318.382202 
	C423.495178,314.121002 436.306488,311.191895 448.397644,306.010162 
	C452.723785,304.156158 456.992035,302.167053 461.628448,300.114746 
	C465.533661,301.909637 469.381836,300.717255 473.093597,300.975647 
	C477.819244,301.304626 482.623260,300.371155 487.694580,301.953918 
	C478.297180,309.751068 467.379608,315.472687 455.430237,320.064362 
	C442.743591,322.111389 430.340424,321.257294 417.971222,321.276978 
	C415.448120,321.281006 412.528381,321.796204 410.927612,318.382202 
z"/>
<path fill="#000000" opacity="1.000000" stroke="none" 
	d="
M475.532410,142.016388 
	C481.526093,147.324722 487.601654,152.178055 492.080566,158.589966 
	C492.543854,159.253281 492.889313,159.998932 493.585358,160.873032 
	C497.722992,168.890045 498.211060,176.901794 494.996857,185.483383 
	C489.556366,196.056473 481.748871,203.999786 472.058990,210.656326 
	C472.035767,213.143585 470.574066,214.193726 468.957855,215.165009 
	C460.556091,220.214218 451.922546,224.792725 442.364349,227.238525 
	C440.193085,227.794144 438.406158,228.814362 436.199982,230.071136 
	C418.435211,235.350098 401.022827,240.109833 382.691681,240.732849 
	C378.867462,240.862823 374.732819,240.924683 370.524109,242.448456 
	C359.769714,243.504684 349.394348,244.118393 339.011108,243.588837 
	C330.263611,243.142715 321.472412,243.852951 312.754700,242.432953 
	C310.324402,242.037079 307.824249,241.939453 304.940399,241.464813 
	C300.612518,239.879608 296.522491,239.522095 292.401001,239.236832 
	C275.557861,238.071121 259.748505,232.650848 243.539902,227.213806 
	C238.331543,223.398300 232.094437,222.955994 226.921677,219.795868 
	C221.541489,216.509003 215.897049,213.637238 210.500946,209.663025 
	C206.054352,205.445129 200.924057,202.540268 197.727386,197.476669 
	C196.318466,195.244904 194.605652,193.200424 193.303986,190.433792 
	C190.032455,185.168320 188.210663,179.920303 189.144104,173.620239 
	C189.742874,164.808533 193.477203,157.841400 199.131409,151.320190 
	C206.353516,143.277374 214.726349,137.345215 224.269348,132.358978 
	C233.817581,127.148895 243.574448,123.361275 253.557449,120.129456 
	C256.719360,119.105843 259.935608,118.365402 263.670105,119.006966 
	C264.783447,119.068161 265.529724,119.017593 266.643555,118.895401 
	C267.198425,118.698135 267.385803,118.572510 267.842224,118.241676 
	C275.942474,116.595642 283.763275,115.094704 291.608368,113.733902 
	C297.386078,112.731712 303.179382,111.327209 308.995117,111.166840 
	C315.602631,110.984642 322.092773,109.459183 328.745544,109.962097 
	C337.676178,110.637199 346.543365,108.137634 355.472168,109.045219 
	C366.194214,110.135078 376.864105,111.758621 387.593781,112.746796 
	C396.551605,113.571770 405.245544,115.817711 414.542603,117.071136 
	C426.372437,120.755142 437.781891,124.386406 449.576843,128.070038 
	C458.351929,132.772202 467.320740,136.368698 475.532410,142.016388 
z"/>
<path fill="#9C479A" opacity="1.000000" stroke="none" 
	d="
M436.019928,228.393188 
	C447.978027,223.029495 460.166901,218.302795 471.571106,211.101929 
	C476.492371,212.871658 481.328369,211.656494 486.049835,211.997528 
	C488.488770,212.173706 490.996368,211.559097 493.703278,212.871094 
	C487.257019,221.588806 477.562988,226.135544 468.340698,231.831116 
	C464.633759,230.285080 461.131744,231.579269 457.703094,231.413467 
	C452.409851,231.157501 447.096405,231.460297 441.794861,231.235840 
	C439.630859,231.144196 437.422180,231.068558 436.019928,228.393188 
z"/>
<path fill="#7E82B2" opacity="1.000000" stroke="none" 
	d="
M263.866028,118.762314 
	C255.028656,122.578423 245.564987,124.770477 236.805344,128.928177 
	C233.150848,130.662750 229.454529,132.309235 225.412399,134.051682 
	C217.481232,134.121826 209.913162,134.744354 201.926697,133.988968 
	C199.062225,132.284729 196.703369,132.163147 193.665375,132.841782 
	C189.441559,133.785309 185.211563,136.259140 180.238770,134.120850 
	C178.459534,132.657745 176.819946,133.011307 175.166061,133.135666 
	C169.562042,133.557083 163.947098,133.400192 158.338699,133.240356 
	C156.232788,133.180328 153.929779,133.276291 152.893860,130.337677 
	C168.938568,119.831787 186.245865,114.443970 205.274673,114.970657 
	C212.864365,115.180733 220.481964,114.649895 228.454346,115.970779 
	C236.906204,118.161736 245.100250,116.370148 253.177719,117.047356 
	C256.691437,117.341949 260.494965,115.660172 263.866028,118.762314 
z"/>
<path fill="#7E82B2" opacity="1.000000" stroke="none" 
	d="
M267.910797,118.142502 
	C267.917450,118.313034 267.723633,118.589600 267.270447,118.844971 
	C267.220734,118.603584 267.453827,118.411842 267.910797,118.142502 
z"/>
<path fill="#BB438A" opacity="1.000000" stroke="none" 
	d="
M190.492004,307.636292 
	C190.879593,318.364716 190.926620,328.721405 190.902863,339.542603 
	C186.247086,340.006226 181.662094,340.005310 176.622604,340.005768 
	C176.124695,329.649597 176.081299,319.292053 176.102768,308.470276 
	C180.647797,304.343109 185.367294,305.194489 190.492004,307.636292 
z"/>
<path fill="#D15082" opacity="1.000000" stroke="none" 
	d="
M245.453384,407.706299 
	C232.368805,404.736115 221.214584,398.442352 210.103546,391.423767 
	C211.942993,388.890930 214.607986,389.102020 217.236237,388.978943 
	C223.591125,388.681366 229.997681,389.787109 236.697021,388.122009 
	C251.610168,393.677887 266.400238,398.522980 281.781250,401.358154 
	C287.716095,402.452118 293.696472,403.299103 299.885254,404.607941 
	C299.306458,408.206940 296.481903,408.951752 293.936859,408.981995 
	C277.911377,409.172424 261.832336,410.734192 245.453384,407.706299 
z"/>
<path fill="#B03D8E" opacity="1.000000" stroke="none" 
	d="
M190.903015,307.547119 
	C186.247299,308.006531 181.662033,308.005096 176.622192,308.004822 
	C164.260620,303.569885 152.820663,298.210266 143.040375,289.947998 
	C138.511612,286.122131 134.440262,281.754822 130.008347,277.330811 
	C130.662674,274.638763 132.531769,273.956848 134.830124,273.811890 
	C138.922455,273.553741 143.002533,273.663849 147.464996,273.891357 
	C151.130417,272.856964 153.169479,275.238251 155.337509,276.848846 
	C159.474731,279.922302 163.789978,282.697083 168.241592,285.260406 
	C172.304260,287.599792 173.401886,286.914673 173.732788,282.281067 
	C173.938965,279.393921 173.064941,276.193970 176.225586,273.780823 
	C182.746857,272.190613 188.909561,272.124908 195.456421,273.763123 
	C202.918427,283.738373 211.643341,291.649536 222.291962,297.913330 
	C223.192841,301.715179 220.526535,301.881989 218.279617,302.115540 
	C213.166397,302.647034 208.038300,302.347870 202.440674,302.054291 
	C197.460449,300.621277 195.592285,295.985382 191.449341,293.440308 
	C190.470200,298.037018 191.287552,302.597351 190.903015,307.547119 
z"/>
<path fill="#A73891" opacity="1.000000" stroke="none" 
	d="
M149.282318,274.612671 
	C145.032120,276.769257 140.704880,275.664368 136.499130,276.024475 
	C134.554352,276.190979 132.628159,276.574432 130.274353,276.944092 
	C121.343414,267.206421 115.268173,256.008698 111.119324,243.376007 
	C115.708015,238.851151 120.970543,241.007553 126.431290,241.388809 
	C129.363174,241.761688 130.473465,243.667358 131.376862,245.633118 
	C135.560654,254.736954 141.019028,262.970703 147.898346,270.260559 
	C148.950684,271.375702 149.734802,272.619354 149.282318,274.612671 
z"/>
<path fill="#8379AE" opacity="1.000000" stroke="none" 
	d="
M152.627106,130.031998 
	C159.698929,132.277573 166.688217,130.398849 173.542709,131.001053 
	C175.943558,131.211960 178.576736,130.328125 180.800323,132.805145 
	C181.394852,135.777786 179.290375,136.520065 177.543640,137.242676 
	C169.573074,140.540009 162.060547,144.584732 155.360825,150.072647 
	C154.056015,151.141449 152.499939,151.706024 150.338104,151.358566 
	C145.833344,150.873657 141.738876,151.651657 137.642654,151.259109 
	C135.514633,151.055176 133.283768,151.146759 131.983582,148.396820 
	C137.820847,141.031097 144.564331,135.029312 152.627106,130.031998 
z"/>
<path fill="#8A6BA9" opacity="1.000000" stroke="none" 
	d="
M131.574280,148.096893 
	C135.972214,149.776306 140.298965,148.750443 144.518890,148.985855 
	C146.479294,149.095215 148.463882,148.910690 150.722824,149.883698 
	C151.929169,151.599106 151.443161,153.000824 150.364212,154.123352 
	C145.668686,159.008530 141.391495,164.229370 137.450378,169.737015 
	C136.762527,170.698257 135.711380,171.236771 134.087341,171.460861 
	C128.190918,172.154724 122.683884,173.646622 117.137741,170.371429 
	C120.291382,161.796219 125.681717,154.951904 131.574280,148.096893 
z"/>
<path fill="#8F62A5" opacity="1.000000" stroke="none" 
	d="
M116.594818,170.151184 
	C122.575417,169.975372 128.247101,169.986359 134.376434,169.996155 
	C135.153992,170.366165 135.645142,170.811646 135.492401,171.247437 
	C133.043777,178.232986 131.239044,185.532562 125.570068,191.314972 
	C121.624680,192.481323 118.030098,192.443909 114.427658,192.182343 
	C112.613403,192.050583 110.784050,191.861801 109.933624,189.374496 
	C111.091843,182.377747 113.935287,176.441986 116.594818,170.151184 
z"/>
<path fill="#A04096" opacity="1.000000" stroke="none" 
	d="
M128.135727,242.676758 
	C122.580940,243.000793 117.331490,243.000580 111.625717,243.000320 
	C108.714653,237.191544 107.978477,230.991211 107.098709,224.419891 
	C111.659340,220.055038 116.785210,221.826813 122.218903,222.528915 
	C123.279869,222.934372 124.021416,223.214462 124.257362,223.803391 
	C126.643044,229.757874 129.051468,235.718964 128.135727,242.676758 
z"/>
<path fill="#95549F" opacity="1.000000" stroke="none" 
	d="
M109.612854,189.121368 
	C114.803123,191.128159 119.941414,189.490341 125.377899,189.995621 
	C126.068817,190.138260 126.303711,190.281815 126.777657,190.765167 
	C127.247505,191.621201 127.376518,192.161850 127.372208,193.147873 
	C126.319916,198.276443 126.106392,203.179703 123.569550,207.894745 
	C118.177567,211.145004 113.039330,211.213593 107.490128,208.353348 
	C106.296066,201.602890 108.656479,195.574051 109.612854,189.121368 
z"/>
<path fill="#9A4B9B" opacity="1.000000" stroke="none" 
	d="
M107.098442,208.459885 
	C112.125488,207.730499 117.151093,208.684631 122.438431,207.092331 
	C126.985535,212.280380 125.831459,217.851624 123.284477,223.737305 
	C117.914665,224.000427 112.995903,224.000687 107.621613,224.000870 
	C107.120850,218.974747 107.075615,213.948669 107.098442,208.459885 
z"/>
<path fill="#BB438A" opacity="1.000000" stroke="none" 
	d="
M410.530029,317.936737 
	C412.662018,319.282257 414.708252,318.987244 416.674561,318.990662 
	C427.445557,319.009430 438.216705,318.989227 448.987701,319.010803 
	C450.793610,319.014404 452.647491,318.750824 454.704102,319.872192 
	C445.931152,324.898193 436.030884,327.497131 426.139648,329.926758 
	C408.805725,334.184601 391.242432,336.855042 373.377289,338.202515 
	C355.601990,339.543213 337.831207,339.401215 320.139038,338.728882 
	C302.057678,338.041779 284.065491,335.138000 266.407623,330.740753 
	C255.976822,328.143188 245.673843,325.170776 235.378799,320.910797 
	C234.311676,316.606506 237.570435,316.853027 239.980057,316.817780 
	C249.205139,316.682892 258.449829,316.049774 267.650024,317.311829 
	C269.132935,317.515259 270.606934,317.509949 272.545715,317.306885 
	C279.731171,317.304138 286.105713,319.573395 292.725311,320.460815 
	C299.527374,321.372742 306.379639,322.053192 313.124573,323.161499 
	C323.136993,324.806793 333.275574,324.375610 343.200867,324.443207 
	C352.252960,324.504913 361.558960,324.592010 370.768250,323.374237 
	C379.838898,322.174805 388.984161,321.334778 398.054840,319.989594 
	C402.082916,319.392181 406.090454,318.655914 410.530029,317.936737 
z"/>
<path fill="#D55281" opacity="1.000000" stroke="none" 
	d="
M245.341003,408.003418 
	C245.520737,406.529724 246.471939,406.317627 247.804352,406.432526 
	C262.226440,407.675903 276.680450,406.679199 291.116852,406.999268 
	C294.028534,407.063782 296.617126,405.838867 299.724884,405.040344 
	C314.502625,405.957764 328.925385,408.031128 343.266663,407.570160 
	C352.365570,407.277679 361.595490,407.867371 370.759735,406.326172 
	C377.136993,405.253693 383.739258,405.254822 390.579773,404.100220 
	C392.303040,406.713409 394.713959,405.961426 396.759430,405.970184 
	C410.230957,406.027557 423.702972,405.977112 437.174561,406.026764 
	C439.085815,406.033813 441.243927,405.419830 442.869629,407.764709 
	C426.929077,414.386871 410.068115,417.369202 393.077515,420.113495 
	C368.864532,424.024292 344.481018,423.708069 320.220337,422.711914 
	C297.753265,421.789429 275.443726,418.105835 253.900452,411.028351 
	C251.145264,410.123199 248.063599,410.143860 245.341003,408.003418 
z"/>
<path fill="#C94B85" opacity="1.000000" stroke="none" 
	d="
M275.404358,352.023376 
	C289.424774,348.736481 300.757996,352.071075 304.738586,364.203796 
	C309.285217,378.061676 304.903900,389.698669 290.705658,394.379395 
	C276.718201,398.990662 262.313965,389.283295 261.897247,374.086548 
	C261.612244,363.693054 265.545868,356.385010 275.404358,352.023376 
z"/>
<path fill="#C74A86" opacity="1.000000" stroke="none" 
	d="
M322.477173,379.346924 
	C321.487549,366.277496 330.102997,355.185486 340.805267,355.005524 
	C357.414093,354.726257 366.111145,362.713135 365.904114,378.561066 
	C361.670776,382.993195 356.630524,380.871735 351.512085,380.912476 
	C349.040771,379.963501 348.274261,378.225555 347.831177,376.178101 
	C347.407227,374.219269 346.182861,372.882446 344.109222,372.723969 
	C341.822449,372.549164 340.353302,373.819611 339.570068,375.867981 
	C338.922119,377.562622 338.584106,379.416077 336.443451,380.609406 
	C331.586945,381.178650 327.016663,382.472656 322.477173,379.346924 
z"/>
<path fill="#CB4C84" opacity="1.000000" stroke="none" 
	d="
M426.526184,372.659546 
	C427.399536,383.946442 418.292206,394.821808 408.408508,395.006317 
	C391.624084,395.319550 382.910095,388.059509 383.098022,373.432800 
	C386.930725,369.146606 391.935425,371.189331 396.687714,370.373413 
	C398.408875,370.826630 399.252411,371.735229 400.071106,372.805878 
	C403.731598,377.592865 405.211060,377.601959 409.364105,372.984100 
	C409.920044,372.365997 410.569733,371.909546 411.733948,371.499207 
	C416.889252,370.678070 421.682587,369.557861 426.526184,372.659546 
z"/>
<path fill="#C54986" opacity="1.000000" stroke="none" 
	d="
M426.904816,372.572784 
	C421.918518,373.001526 417.002075,373.000488 411.630249,372.999634 
	C410.850677,372.949371 410.491089,372.907990 410.266083,372.695618 
	C404.611328,367.356812 404.613495,367.354523 398.162964,371.944427 
	C393.294739,373.112854 388.681274,373.089783 383.614075,373.001862 
	C380.902283,360.668091 392.392487,351.134064 401.548431,350.977356 
	C418.292969,350.690796 427.091400,357.937714 426.904816,372.572784 
z"/>
<path fill="#B6408C" opacity="1.000000" stroke="none" 
	d="
M272.655823,316.986664 
	C271.865265,319.506195 269.681488,318.970062 267.774780,318.979309 
	C258.681213,319.023438 249.587189,318.975189 240.493637,319.022369 
	C238.736832,319.031464 236.799866,318.529938 235.195648,320.504456 
	C223.348373,316.141296 212.235596,310.462646 202.107819,302.428101 
	C203.015060,299.453857 205.381989,300.195129 207.409882,299.992615 
	C212.210266,299.513245 217.183517,301.165222 222.166946,298.496796 
	C228.152695,300.774323 233.810120,303.366425 239.452438,305.991028 
	C249.980957,310.888428 261.308777,313.350647 272.655823,316.986664 
z"/>
<path fill="#CD4D84" opacity="1.000000" stroke="none" 
	d="
M322.098999,379.407135 
	C326.752197,379.002563 331.338348,379.002441 336.379395,379.003357 
	C341.061676,379.979767 345.289398,381.027496 349.833130,378.969879 
	C355.085052,379.003235 360.003876,379.002350 365.378296,379.002136 
	C367.904663,387.017731 354.900238,399.025208 346.912506,399.237335 
	C335.713959,399.534729 328.024689,395.408661 323.158905,385.490479 
	C322.255493,383.649017 321.818146,381.822052 322.098999,379.407135 
z"/>
<path fill="#E25A7C" opacity="1.000000" stroke="none" 
	d="
M322.545044,451.952728 
	C325.291748,442.620911 332.624054,437.536194 341.905457,436.890991 
	C355.720459,435.930634 363.551025,443.734192 365.323547,451.894012 
	C368.300415,465.597961 364.064789,475.485291 350.438751,480.658997 
	C339.127625,484.953735 325.400787,476.793579 322.351105,464.682617 
	C321.344299,460.684418 321.834076,456.417725 322.545044,451.952728 
z"/>
<path fill="#E35B7B" opacity="1.000000" stroke="none" 
	d="
M426.529083,452.664215 
	C427.440887,464.784332 418.642303,475.780212 408.429352,476.004486 
	C391.255463,476.381592 382.902679,469.105530 383.098236,453.441650 
	C387.393433,449.178619 392.164734,450.672791 397.226196,451.806030 
	C398.236267,452.478333 398.969360,452.851074 399.494720,453.497620 
	C403.902405,458.921722 405.192871,458.913818 409.731934,453.460388 
	C410.044464,453.084961 410.484161,452.843781 411.273682,452.427490 
	C416.508118,450.145355 421.375061,449.667114 426.529083,452.664215 
z"/>
<path fill="#E35B7B" opacity="1.000000" stroke="none" 
	d="
M305.531128,452.666077 
	C306.440887,464.791443 297.635956,475.785217 287.412445,476.004517 
	C271.095032,476.354523 261.909821,468.346069 262.098267,453.439026 
	C266.371307,449.257965 271.013000,450.502380 276.004028,452.031250 
	C277.239105,452.654816 278.044617,453.159149 278.701904,453.933594 
	C282.801422,458.763977 284.343079,458.742737 288.455505,453.845398 
	C288.885010,453.333862 289.411682,452.967957 290.385132,452.550171 
	C295.571930,450.101990 300.390991,449.673889 305.531128,452.666077 
z"/>
<path fill="#DE577E" opacity="1.000000" stroke="none" 
	d="
M277.167023,453.931122 
	C272.337128,452.429718 267.670074,453.165619 262.617554,453.003296 
	C261.595245,442.142670 271.219604,432.443085 282.079651,431.885559 
	C293.015442,431.324127 300.064911,436.172760 304.863647,445.489746 
	C306.000092,447.696228 306.010345,449.879242 305.905182,452.587830 
	C300.870453,453.124420 295.861908,452.512634 290.572083,453.967773 
	C289.838928,453.958405 289.460052,453.930328 289.250946,453.709991 
	C282.823669,446.936188 282.283203,449.100677 277.167023,453.931122 
z"/>
<path fill="#DE577E" opacity="1.000000" stroke="none" 
	d="
M398.167023,453.931122 
	C393.362457,452.092804 388.656342,453.374695 383.618713,453.003296 
	C382.595245,442.142670 392.219604,432.443085 403.079651,431.885559 
	C414.015442,431.324127 421.064880,436.172760 425.863647,445.489777 
	C427.000061,447.696228 427.010345,449.879242 426.905182,452.587830 
	C421.873810,453.269470 416.847351,452.312836 411.560059,453.912231 
	C410.838928,453.958405 410.460052,453.930328 410.250977,453.709961 
	C403.823700,446.936157 403.283203,449.100677 398.167023,453.931122 
z"/>
<path fill="#A43993" opacity="1.000000" stroke="none" 
	d="
M303.576172,239.400909 
	C316.808685,241.347626 329.841980,241.332108 342.708496,241.570694 
	C351.433441,241.732498 360.444519,241.833923 369.647217,240.361511 
	C375.622833,242.196121 381.300201,240.741425 386.832123,240.340622 
	C402.120026,239.232925 417.402252,239.789993 432.685852,239.720596 
	C435.249786,239.708954 438.145874,239.290359 439.985657,242.578827 
	C429.453522,247.740570 418.023926,249.633377 406.739899,251.945175 
	C378.178131,257.796783 349.173645,258.085388 320.286682,256.751312 
	C294.780396,255.573349 269.642761,250.859528 245.096283,242.368942 
	C245.576416,239.065521 248.004547,238.816254 250.353897,238.792694 
	C264.323334,238.652603 278.297028,238.196808 292.256378,239.217331 
	C295.882019,239.482391 299.502655,239.999786 303.576172,239.400909 
z"/>
<path fill="#B03C8E" opacity="1.000000" stroke="none" 
	d="
M413.441162,267.187042 
	C428.276794,273.638428 430.752686,291.193665 422.926605,302.264587 
	C418.092957,309.102356 407.023438,312.182922 397.483551,309.171600 
	C388.174530,306.233124 383.423187,299.371124 382.892944,289.976105 
	C382.272400,278.981964 387.027557,271.564697 396.682831,267.239838 
	C401.921997,264.893066 407.582764,265.410065 413.441162,267.187042 
z"/>
<path fill="#A04096" opacity="1.000000" stroke="none" 
	d="
M303.575989,239.099838 
	C302.703217,241.705795 300.301941,240.963531 298.264038,240.970551 
	C282.857697,241.023666 267.451080,240.995956 252.044540,241.004791 
	C249.898163,241.006027 247.724594,240.829346 245.284119,241.886810 
	C233.993561,239.187546 223.966095,234.320847 214.101089,228.418945 
	C213.753555,224.283813 216.469177,223.924667 219.221817,223.795700 
	C226.874283,223.437103 234.518311,223.405746 242.564636,224.904022 
	C250.343079,227.087708 257.614105,229.373688 264.941040,231.463562 
	C275.748260,234.546143 286.699066,236.952545 297.914276,238.032211 
	C299.676636,238.201874 301.408142,238.691559 303.575989,239.099838 
z"/>
<path fill="#9B4A9B" opacity="1.000000" stroke="none" 
	d="
M242.859589,224.582642 
	C236.123795,227.312531 228.971161,225.387299 221.953384,226.005692 
	C219.396301,226.231003 216.592499,225.229843 214.188995,227.790787 
	C205.458939,224.106308 198.314926,218.295044 190.965546,210.393082 
	C190.965546,215.765030 190.965546,219.923859 190.899750,224.541199 
	C186.245071,228.865921 181.231934,227.391449 175.795670,225.884186 
	C172.548355,220.360214 173.574341,214.907562 174.790924,209.045197 
	C176.110153,207.741776 177.325500,207.082565 178.633698,207.041489 
	C189.123840,206.712067 199.637100,205.623932 210.559128,207.831573 
	C218.083649,211.680130 224.710861,216.167725 231.961319,219.625671 
	C235.491089,221.309128 239.179291,222.555557 242.859589,224.582642 
z"/>
<path fill="#A04096" opacity="1.000000" stroke="none" 
	d="
M440.505096,243.025879 
	C437.802673,241.853729 435.296326,241.998672 432.809357,241.998810 
	C413.899445,241.999832 394.989471,242.017120 376.079651,241.970856 
	C374.163940,241.966171 372.051025,242.589890 370.238129,240.571930 
	C392.283478,239.081406 413.850433,234.381653 435.491455,227.975128 
	C444.666412,230.059372 453.593994,228.503433 462.438416,229.022629 
	C464.424713,229.139221 466.910950,228.205307 467.928467,231.487640 
	C459.183258,236.124710 450.436371,240.533737 440.505096,243.025879 
z"/>
<path fill="#AD3B8F" opacity="1.000000" stroke="none" 
	d="
M262.465729,289.336670 
	C261.524750,277.088959 270.375000,266.172668 280.815155,266.005493 
	C296.940643,265.747284 306.114410,273.818298 305.900513,288.570557 
	C304.157745,291.471893 301.532135,291.284943 299.065735,291.297729 
	C296.562622,291.310699 294.108124,291.900055 291.213104,291.672302 
	C288.929871,290.800446 288.174042,289.209076 287.707977,287.366180 
	C287.173065,285.250885 285.995819,283.704468 283.618866,283.752197 
	C281.316528,283.798431 280.057556,285.312073 279.388184,287.349335 
	C278.916443,288.785126 278.442719,290.185333 276.722534,291.230377 
	C271.728394,291.594238 267.041565,292.229736 262.465729,289.336670 
z"/>
<path fill="#AE3C8F" opacity="1.000000" stroke="none" 
	d="
M322.473816,294.343750 
	C321.530060,282.089233 330.381409,271.173584 340.815399,271.004974 
	C356.938385,270.744415 366.110596,278.813232 365.901978,293.568542 
	C361.739777,297.931305 356.791443,295.928558 351.750000,295.864990 
	C349.709808,295.141815 348.870544,293.891144 348.094696,292.324493 
	C345.698273,287.485352 342.389984,287.423096 339.444489,292.100708 
	C338.655060,293.354340 338.136505,294.763245 336.264221,295.541138 
	C331.450470,296.264130 326.963013,297.441406 322.473816,294.343750 
z"/>
<path fill="#B43F8C" opacity="1.000000" stroke="none" 
	d="
M262.103302,289.420959 
	C266.800873,289.082520 271.471100,288.591614 276.425781,289.967621 
	C281.048706,291.047089 285.265594,292.220001 289.818207,289.981445 
	C295.024689,288.749481 299.984528,288.999329 305.379517,289.004150 
	C307.761261,298.817413 297.004669,310.263184 285.667419,310.233551 
	C274.864532,310.205261 267.927673,305.731567 263.171356,296.557251 
	C262.021515,294.339325 261.988556,292.146759 262.103302,289.420959 
z"/>
<path fill="#B43F8C" opacity="1.000000" stroke="none" 
	d="
M349.818176,294.039246 
	C355.085358,294.005432 360.003845,294.003540 365.377869,294.002289 
	C366.382385,304.986847 356.760468,314.585663 345.679688,315.118347 
	C334.846039,315.639130 327.926056,310.737823 323.169373,301.558502 
	C322.019836,299.340179 321.985962,297.146088 322.101196,294.419037 
	C326.752472,294.002502 331.338226,294.002167 336.378876,294.002533 
	C337.327576,294.031525 337.961945,293.918274 338.281799,294.207184 
	C342.072601,297.631744 345.771881,296.543579 349.818176,294.039246 
z"/>
<path fill="#A73891" opacity="1.000000" stroke="none" 
	d="
M195.779205,273.647522 
	C189.663284,275.849213 183.331894,274.660492 176.624298,275.003662 
	C174.824661,274.412140 174.070297,273.323578 174.019699,271.919830 
	C173.663727,262.041046 172.791306,252.148666 174.919724,241.903488 
	C180.161591,239.071533 185.118195,238.745087 190.477219,241.620819 
	C191.171387,251.172897 190.483734,260.463654 193.986282,269.265625 
	C194.526108,270.622223 195.143265,271.948029 195.779205,273.647522 
z"/>
<path fill="#A04096" opacity="1.000000" stroke="none" 
	d="
M190.898041,241.538788 
	C186.246857,242.002182 181.662659,242.001907 176.623718,242.001724 
	C172.011536,236.721863 173.170059,231.149918 175.715027,225.263519 
	C180.752335,225.000381 185.338593,225.000305 190.379395,224.999985 
	C190.877640,230.358200 190.921341,235.716675 190.898041,241.538788 
z"/>
<path fill="#994D9C" opacity="1.000000" stroke="none" 
	d="
M275.629028,205.888718 
	C283.267334,206.602509 290.098938,208.903397 297.132812,210.227600 
	C309.920135,212.634979 322.699799,214.205643 335.711670,214.035721 
	C340.287689,213.975967 344.810150,214.690079 349.530823,216.342743 
	C348.940277,220.281052 345.900604,220.200226 343.084015,220.261169 
	C331.439697,220.513153 319.792358,220.292526 308.146790,220.383789 
	C295.356323,220.484024 282.572601,220.397751 269.352356,219.236191 
	C259.112488,217.073242 250.322052,212.455643 241.037857,208.370071 
	C241.889099,204.705414 244.751068,204.848358 247.374313,204.746338 
	C256.657837,204.385208 265.926117,204.572189 275.629028,205.888718 
z"/>
<path fill="#9C479A" opacity="1.000000" stroke="none" 
	d="
M269.113251,219.359924 
	C271.787384,218.135223 274.751617,217.975204 277.766388,217.980484 
	C298.891815,218.017426 320.017303,218.002350 341.142792,217.996719 
	C343.797516,217.996002 346.484650,218.200211 349.423340,216.784256 
	C353.458466,218.776337 352.266174,222.351685 351.671173,225.135391 
	C351.094391,227.833969 348.240326,228.967590 345.385010,228.983032 
	C330.520416,229.063416 315.741669,228.812744 300.956818,226.295959 
	C290.303314,224.482437 279.826172,222.108444 269.113251,219.359924 
z"/>
<path fill="#95549F" opacity="1.000000" stroke="none" 
	d="
M210.905716,207.587524 
	C209.343933,209.278366 207.303757,208.986908 205.342361,208.990906 
	C195.922546,209.010086 186.502686,208.999237 176.624603,208.998581 
	C173.918579,207.979813 173.858414,205.877518 173.794418,203.898621 
	C173.660446,199.754730 173.239105,195.582062 174.743439,191.086227 
	C181.272995,187.472809 187.787369,188.389526 194.712784,189.672913 
	C199.323593,196.644501 204.785492,202.197403 210.905716,207.587524 
z"/>
<path fill="#95549F" opacity="1.000000" stroke="none" 
	d="
M275.905457,205.632797 
	C271.824341,207.820557 267.304657,206.726639 262.894501,206.990417 
	C255.834610,207.412674 248.702972,206.117325 241.279449,207.961731 
	C233.767532,204.414307 226.891479,200.455063 221.087372,194.407379 
	C220.941284,190.973907 223.360275,191.000870 225.423386,190.824814 
	C231.001373,190.348831 236.564575,190.682846 242.546204,191.306107 
	C253.318909,197.210617 264.157684,202.078659 275.905457,205.632797 
z"/>
<path fill="#8379AE" opacity="1.000000" stroke="none" 
	d="
M200.563446,131.710541 
	C206.710388,131.971863 212.532730,131.990967 218.355057,132.000473 
	C220.533707,132.004044 222.704773,132.015076 224.767044,133.836029 
	C216.858749,139.449997 208.313522,144.321472 201.414963,151.904953 
	C195.704193,155.236725 190.096085,154.713211 184.036957,152.729630 
	C181.896500,151.204742 181.592789,149.298294 182.573593,147.643250 
	C186.417892,141.156204 191.527283,135.794678 197.830185,131.624100 
	C198.498581,131.181808 199.410980,131.160263 200.563446,131.710541 
z"/>
<path fill="#915EA3" opacity="1.000000" stroke="none" 
	d="
M242.674561,191.011444 
	C241.869400,193.504456 239.698151,192.875626 237.804337,192.994629 
	C232.422180,193.332764 226.985809,192.305710 221.295013,193.868698 
	C214.913300,189.447159 210.706970,183.354614 207.207687,176.328247 
	C209.910812,172.647385 213.745621,173.969101 217.180710,173.674911 
	C219.286545,173.494537 221.395996,173.802536 223.961761,174.122101 
	C229.473831,180.719437 235.397934,186.344437 242.674561,191.011444 
z"/>
<path fill="#8A6BA9" opacity="1.000000" stroke="none" 
	d="
M182.469421,150.869034 
	C188.649261,151.636856 194.379715,152.318832 200.642624,152.033966 
	C196.599838,158.284195 191.963043,164.468994 191.386078,172.878448 
	C186.293137,174.839172 181.498642,174.780243 176.261963,173.188568 
	C174.992386,172.399170 174.432693,171.591125 174.173553,170.591568 
	C172.752106,165.108917 177.289154,153.673523 182.469421,150.869034 
z"/>
<path fill="#8A6BA9" opacity="1.000000" stroke="none" 
	d="
M224.263199,173.846893 
	C221.423355,177.285507 217.546478,175.610077 214.047958,175.960342 
	C212.078690,176.157486 210.073059,175.991211 207.626709,175.984467 
	C205.231750,171.549408 204.997101,166.904266 204.889633,162.119843 
	C204.783859,157.409912 207.181686,155.526077 211.194214,155.053192 
	C215.345917,154.563873 219.009811,155.023056 220.079025,160.320602 
	C220.988983,164.829132 221.122818,169.640686 224.263199,173.846893 
z"/>
<path fill="#8F62A5" opacity="1.000000" stroke="none" 
	d="
M175.717651,172.254242 
	C180.895187,172.294144 185.679474,171.336899 190.707031,172.868073 
	C190.410873,178.949448 192.375824,184.163116 195.049042,189.589020 
	C189.190948,191.776657 183.097885,190.717224 176.624649,190.993790 
	C174.633469,190.301193 173.981400,188.989975 173.951202,187.431656 
	C173.854080,182.416504 172.529602,177.281921 175.717651,172.254242 
z"/>
<path fill="#000000" opacity="1.000000" stroke="none" 
	d="
M176.101471,171.567413 
	C176.123825,178.017609 176.079910,184.041626 176.101776,190.529221 
	C176.123199,196.685379 176.078873,202.377930 176.100464,208.534302 
	C176.122345,214.023560 176.078293,219.049011 176.100159,224.537460 
	C176.122375,230.358475 176.078674,235.716507 176.101974,241.538177 
	C176.122131,252.693100 176.075302,263.384399 176.097626,274.540161 
	C176.166809,280.138916 176.166809,285.273132 176.166809,291.039520 
	C165.681412,287.758179 157.564819,281.739716 149.420959,275.104309 
	C140.058319,265.913086 132.867508,255.601044 127.908371,243.363708 
	C125.588837,237.104065 124.239738,230.968811 122.903610,224.405777 
	C122.879013,218.642090 122.924591,213.283997 122.902122,207.462677 
	C122.699074,202.181229 124.542915,197.669220 125.024826,192.531158 
	C125.175552,191.937103 125.310425,191.755920 125.640991,191.298126 
	C125.871796,190.850296 125.906906,190.679062 125.887970,190.251266 
	C128.208832,183.282227 130.430634,176.499115 134.790024,170.338531 
	C139.013596,162.594604 144.800751,156.524323 150.974213,150.350616 
	C159.455826,143.876358 168.010132,138.077850 177.901382,134.601700 
	C178.807602,134.283218 179.737854,134.033066 180.846130,133.436951 
	C185.451096,132.192062 189.859177,131.222595 194.285706,130.346344 
	C196.662125,129.875931 199.071640,129.543839 201.428436,130.508270 
	C201.483002,130.530594 201.493881,130.773087 201.453033,130.887039 
	C201.399490,131.036407 201.274139,131.160034 201.033875,131.625641 
	C193.456604,136.595413 188.102448,143.235794 183.060547,150.627380 
	C178.920578,157.094177 175.988327,163.610031 176.101471,171.567413 
z"/>
<path fill="#8F62A5" opacity="1.000000" stroke="none" 
	d="
M125.682213,191.187790 
	C125.730690,191.321915 125.624710,191.622299 125.279709,192.020493 
	C125.176247,191.846481 125.338600,191.591736 125.682213,191.187790 
z"/>
<path fill="#000000" opacity="1.000000" stroke="none" 
	d="
M287.894714,366.993652 
	C291.604126,373.099396 290.023865,378.563354 284.801331,378.961304 
	C281.929565,379.180145 279.288635,378.731201 277.880524,375.605499 
	C276.736908,373.066986 276.222046,370.711823 278.209595,368.335327 
	C280.903839,365.113800 284.098145,365.458374 287.894714,366.993652 
z"/>
<path fill="#000000" opacity="1.000000" stroke="none" 
	d="
M350.096832,378.647675 
	C345.181610,384.567444 342.203888,384.716827 336.999207,379.330444 
	C337.078888,376.250732 336.715668,373.206909 339.359528,371.354187 
	C341.617157,369.772156 344.465729,369.073700 346.802612,370.538757 
	C349.418793,372.178894 351.423889,374.687469 350.096832,378.647675 
z"/>
<path fill="#000000" opacity="1.000000" stroke="none" 
	d="
M397.897766,372.379272 
	C398.306793,367.565216 400.807129,365.786224 405.207153,365.967133 
	C409.375916,366.138550 411.087189,368.260071 411.106476,372.600769 
	C410.750092,376.513550 409.148315,378.891998 405.278656,378.991638 
	C400.996094,379.101898 398.455292,377.123871 397.897766,372.379272 
z"/>
<path fill="#000000" opacity="1.000000" stroke="none" 
	d="
M343.098572,452.001404 
	C347.012695,451.763184 350.138275,453.060333 350.599762,456.520355 
	C351.013855,459.624756 349.808044,463.336914 346.535065,464.606842 
	C343.720367,465.698975 340.414124,465.734283 338.075745,462.601685 
	C334.910248,458.361115 337.018555,453.339264 343.098572,452.001404 
z"/>
<path fill="#000000" opacity="1.000000" stroke="none" 
	d="
M397.904114,454.384460 
	C397.935486,449.891113 399.457916,447.114532 404.103210,446.987396 
	C408.463196,446.868134 410.980103,448.634094 411.092468,453.616150 
	C410.802765,457.515656 409.130859,459.732483 405.379944,460.003723 
	C401.449768,460.287903 398.709320,458.959167 397.904114,454.384460 
z"/>
<path fill="#000000" opacity="1.000000" stroke="none" 
	d="
M276.904114,454.384460 
	C276.935486,449.891113 278.457916,447.114532 283.103210,446.987427 
	C287.463196,446.868164 289.980103,448.634094 290.092468,453.616150 
	C289.802765,457.515656 288.130859,459.732513 284.379944,460.003723 
	C280.449768,460.287903 277.709320,458.959167 276.904114,454.384460 
z"/>
<path fill="#000000" opacity="1.000000" stroke="none" 
	d="
M410.997406,287.954407 
	C409.904541,293.253998 407.591827,294.927521 402.715179,293.929871 
	C399.415344,293.254761 397.781158,291.048279 397.988831,287.549377 
	C398.238525,283.342529 400.620819,280.963501 404.887390,281.007935 
	C409.133759,281.052124 411.083435,283.376373 410.997406,287.954407 
z"/>
<path fill="#000000" opacity="1.000000" stroke="none" 
	d="
M290.098206,289.593811 
	C286.571533,295.500549 282.265198,295.743896 276.912781,290.378265 
	C277.114929,287.105347 276.714630,283.915833 279.769287,282.088837 
	C281.997284,280.756226 284.552124,280.292114 286.834290,281.501892 
	C289.808990,283.078766 290.386871,286.023254 290.098206,289.593811 
z"/>
<path fill="#000000" opacity="1.000000" stroke="none" 
	d="
M350.207397,293.662170 
	C349.659241,296.801910 348.213593,298.630219 345.219177,298.994385 
	C341.482819,299.448792 338.516205,298.501038 336.910736,294.367706 
	C337.387878,288.770172 340.478241,285.387543 344.661163,286.080109 
	C348.456879,286.708588 351.018768,288.875702 350.207397,293.662170 
z"/>
</svg>