<svg version="1.1" id="Layer_1" xmlns="http://www.w3.org/2000/svg" xmlns:xlink="http://www.w3.org/1999/xlink" x="0px" y="0px"
	 width="100%" viewBox="0 0 225 225" enable-background="new 0 0 225 225" xml:space="preserve">
<path fill="#FEFEFE" opacity="1.000000" stroke="none" 
	d="
M1.000000,45.000000 
	C1.000000,30.406635 1.000000,15.813272 1.000000,1.000000 
	C15.353479,1.000000 29.708082,1.000000 44.379982,1.320546 
	C43.462639,4.148813 41.499470,6.560935 41.155067,9.185477 
	C40.559738,13.722245 40.969032,18.390844 40.499382,23.013308 
	C37.546871,23.044020 35.050953,23.030296 32.557011,23.093861 
	C25.685186,23.269001 23.282459,25.646317 23.095585,32.473713 
	C23.018223,35.300037 23.031845,38.128849 22.536005,40.970154 
	C18.152740,40.986679 14.227987,41.161427 10.325077,40.944031 
	C6.442985,40.727791 3.336857,41.871567 1.000000,45.000000 
z"/>
<path fill="#FDFDFE" opacity="1.000000" stroke="none" 
	d="
M182.000000,1.000000 
	C196.593369,1.000000 211.186722,1.000000 226.000000,1.000000 
	C226.000000,15.353479 226.000000,29.708082 225.660049,44.420975 
	C222.998718,43.529427 220.769272,41.480038 218.336334,41.200253 
	C213.625793,40.658539 208.800659,41.113251 203.990417,40.684341 
	C203.924271,37.571251 203.917938,34.928143 203.851807,32.286530 
	C203.687943,25.741076 201.317947,23.350695 194.835953,23.176270 
	C191.864761,23.096319 188.892624,23.051521 185.952698,22.524357 
	C185.988846,18.306334 185.805618,14.542541 186.048477,10.806444 
	C186.310074,6.782259 185.191116,3.509804 182.000000,1.000000 
z"/>
<path fill="#FDFDFE" opacity="1.000000" stroke="none" 
	d="
M226.000000,182.000000 
	C226.000000,196.593369 226.000000,211.186722 226.000000,226.000000 
	C211.646515,226.000000 197.291916,226.000000 182.577454,225.659943 
	C183.476730,222.828949 185.495819,220.434418 185.826660,217.825790 
	C186.401398,213.293961 185.932892,208.629807 186.368896,203.995621 
	C189.470825,203.932343 192.106369,203.919937 194.740463,203.851822 
	C201.244843,203.683655 203.664841,201.295639 203.851196,194.854630 
	C203.936920,191.891541 203.964798,188.926788 204.485489,185.978180 
	C208.702545,185.995728 212.465927,185.804016 216.200027,186.052505 
	C220.229660,186.320679 223.492401,185.189499 226.000000,182.000000 
z"/>
<path fill="#FEFEFE" opacity="1.000000" stroke="none" 
	d="
M45.000000,226.000000 
	C30.406635,226.000000 15.813272,226.000000 1.000000,226.000000 
	C1.000000,211.646515 1.000000,197.291916 1.323769,182.613998 
	C4.152242,183.532471 6.559981,185.506073 9.183167,185.853638 
	C13.720234,186.454819 18.390945,186.047348 23.014866,186.519043 
	C23.045139,189.468887 23.029839,191.963623 23.094099,194.456299 
	C23.270947,201.316345 25.654646,203.722382 32.477997,203.908936 
	C35.302917,203.986176 38.130402,203.969727 40.970333,204.463959 
	C40.986725,208.847870 41.172405,212.774536 40.940796,216.676468 
	C40.709568,220.571991 41.879612,223.660477 45.000000,226.000000 
z"/>
<path fill="#FEFEFE" opacity="1.000000" stroke="none" 
	d="
M1.000000,151.000000 
	C1.000000,143.979050 1.000000,136.958099 1.302394,129.658173 
	C3.920693,130.667465 6.134213,132.762558 8.574304,133.072205 
	C13.319593,133.674377 18.191978,133.274979 23.015987,133.731262 
	C23.014021,138.254669 23.007782,142.337296 22.537724,146.471985 
	C18.099354,146.542099 14.114982,146.741730 10.153010,146.527344 
	C6.162117,146.311417 3.017400,147.389069 1.000000,151.000000 
z"/>
<path fill="#FEFEFE" opacity="1.000000" stroke="none" 
	d="
M98.000000,226.000000 
	C90.979050,226.000000 83.958107,226.000000 76.687912,225.717590 
	C77.780685,222.968704 79.905014,220.618301 80.291924,218.010147 
	C80.970184,213.438034 80.583130,208.707886 81.129822,204.000778 
	C85.671570,203.967407 89.725830,203.977203 93.779053,204.455872 
	C93.780266,208.874435 93.976677,212.836304 93.730324,216.770432 
	C93.482422,220.729538 94.619049,223.827347 98.000000,226.000000 
z"/>
<path fill="#FEFEFE" opacity="1.000000" stroke="none" 
	d="
M76.000000,1.000000 
	C83.020950,1.000000 90.041893,1.000000 97.341789,1.302377 
	C96.343704,3.921395 94.264488,6.137978 93.960396,8.575975 
	C93.368279,13.323133 93.770859,18.194363 93.313377,23.018002 
	C88.790474,22.999741 84.715652,22.977680 80.640320,22.503532 
	C80.582214,17.919851 80.342918,13.780457 80.519760,9.658916 
	C80.686119,5.781723 79.252991,2.975295 76.000000,1.000000 
z"/>
<path fill="#FEFDFE" opacity="1.000000" stroke="none" 
	d="
M129.000000,1.000000 
	C136.020950,1.000000 143.041901,1.000000 150.314896,1.285992 
	C149.194763,3.962358 146.970352,6.239803 146.635376,8.767619 
	C146.019135,13.418199 146.514297,18.216055 146.050385,23.030128 
	C141.426361,23.062902 137.298203,23.018080 133.198792,22.507416 
	C133.230667,18.096342 133.031799,14.137662 133.293365,10.209639 
	C133.558105,6.234289 132.293015,3.203047 129.000000,1.000000 
z"/>
<path fill="#FEFDFE" opacity="1.000000" stroke="none" 
	d="
M151.000000,226.000000 
	C143.979050,226.000000 136.958099,226.000000 129.642502,225.687393 
	C130.642944,223.070450 132.762650,220.866455 133.057800,218.440460 
	C133.634323,213.701569 133.191254,208.838638 133.625031,204.002792 
	C138.213104,204.001160 142.346481,204.023804 146.444489,204.500031 
	C146.420410,208.925522 146.583267,212.904404 146.400452,216.867371 
	C146.215973,220.866196 147.499130,223.945572 151.000000,226.000000 
z"/>
<path fill="#FBFBFC" opacity="1.000000" stroke="none" 
	d="
M226.000000,50.000000 
	C226.000000,57.020947 226.000000,64.041893 225.735962,71.294144 
	C223.235962,70.145531 221.000000,68.765633 218.414932,67.235802 
	C213.482208,67.085876 208.898575,67.085876 204.021805,67.085876 
	C204.021805,62.292385 204.021805,58.189354 204.487961,54.110500 
	C208.886322,54.137497 212.833633,53.926624 216.746536,54.202820 
	C220.713928,54.482857 223.695328,53.118782 226.000000,50.000000 
z"/>
<path fill="#FAFAFB" opacity="1.000000" stroke="none" 
	d="
M226.000000,76.000000 
	C226.000000,83.020950 226.000000,90.041893 225.683838,97.360146 
	C223.063126,96.365616 220.856781,94.245346 218.433167,93.958046 
	C213.693542,93.396194 208.832626,93.857681 203.991241,93.436630 
	C203.990005,88.835114 204.019440,84.692520 204.509918,80.585739 
	C208.775009,80.627625 212.583298,80.523819 216.382004,80.669533 
	C220.478165,80.826660 223.843338,79.720764 226.000000,76.000000 
z"/>
<path fill="#FBFBFD" opacity="1.000000" stroke="none" 
	d="
M1.000000,124.000000 
	C1.000000,117.312355 1.000000,110.624710 1.342370,103.568405 
	C4.195034,104.433044 6.608717,106.386948 9.237113,106.739319 
	C13.753971,107.344879 18.404757,106.951492 23.017143,107.442871 
	C23.019472,111.974762 23.003983,116.041199 22.521633,120.109818 
	C18.569714,120.112518 15.070504,120.310822 11.603216,120.062828 
	C7.390987,119.761551 3.783462,120.659752 1.000000,124.000000 
z"/>
<path fill="#FAFAFB" opacity="1.000000" stroke="none" 
	d="
M226.000000,103.000000 
	C226.000000,109.687645 226.000000,116.375290 225.653290,123.440369 
	C222.807297,122.580345 220.400650,120.594971 217.788177,120.271408 
	C213.267532,119.711502 208.619278,120.182022 203.977905,119.741821 
	C203.963089,115.110039 203.994934,110.956749 204.490448,106.850021 
	C208.443405,106.903206 211.945587,106.723778 215.418686,106.964226 
	C219.624359,107.255386 223.221191,106.323570 226.000000,103.000000 
z"/>
<path fill="#FBFAFC" opacity="1.000000" stroke="none" 
	d="
M124.000000,226.000000 
	C117.312355,226.000000 110.624710,226.000000 103.567245,225.657288 
	C104.430428,222.805771 106.399239,220.390564 106.732880,217.767395 
	C107.307343,213.250748 106.863533,208.604584 107.304451,203.985458 
	C109.887489,203.908249 112.013161,203.858368 114.565277,203.865463 
	C116.726265,203.955444 118.460815,203.988449 120.156372,204.486084 
	C120.111534,208.441696 120.281136,211.944138 120.054657,215.420761 
	C119.781799,219.609039 120.582764,223.255310 124.000000,226.000000 
z"/>
<path fill="#FBFAFC" opacity="1.000000" stroke="none" 
	d="
M103.000000,1.000000 
	C109.687645,1.000000 116.375290,1.000000 123.438599,1.346205 
	C122.576523,4.193336 120.597054,6.600296 120.265678,9.216041 
	C119.692596,13.739717 120.141945,18.392916 119.734268,23.035355 
	C117.603653,23.158382 115.901154,23.237835 113.748581,23.240925 
	C111.164589,23.105602 109.030670,23.046644 106.895889,22.520872 
	C106.895981,18.567793 106.700600,15.067513 106.948212,11.598853 
	C107.248985,7.385345 106.327782,3.785496 103.000000,1.000000 
z"/>
<path fill="#FEFEFE" opacity="1.000000" stroke="none" 
	d="
M1.000000,177.000000 
	C1.000000,169.979050 1.000000,162.958099 1.254900,155.704742 
	C4.070942,156.895477 6.506965,159.144012 9.221461,159.555481 
	C13.710044,160.235901 18.378195,159.731705 23.011127,160.207245 
	C23.038034,164.739456 23.024494,168.791107 22.542408,172.849182 
	C18.135386,172.858551 14.185390,173.050461 10.261676,172.811279 
	C6.329984,172.571594 3.255881,173.762741 1.000000,177.000000 
z"/>
<path fill="#FEFEFE" opacity="1.000000" stroke="none" 
	d="
M1.000000,72.000000 
	C1.000000,64.979050 1.000000,57.958103 1.323025,50.623020 
	C3.962263,51.583241 6.178646,53.657326 8.615957,53.961575 
	C13.348783,54.552364 18.205700,54.149086 23.016132,54.611156 
	C23.002529,59.142376 22.983997,63.220097 22.501162,67.309280 
	C18.059061,67.329704 14.077980,67.443108 10.104391,67.318192 
	C6.140909,67.193588 2.966567,68.359573 1.000000,72.000000 
z"/>
<path fill="#FEFEFE" opacity="1.000000" stroke="none" 
	d="
M72.000000,226.000000 
	C64.979050,226.000000 57.958103,226.000000 50.622948,225.676941 
	C51.583088,223.037689 53.657158,220.821320 53.961403,218.384033 
	C54.552185,213.651245 54.148914,208.794357 54.610970,203.984833 
	C59.141399,203.998611 63.218342,204.016479 67.292068,204.498749 
	C67.285469,208.942886 67.368591,212.925125 67.254326,216.901672 
	C67.140274,220.870941 68.407310,224.015198 72.000000,226.000000 
z"/>
<path fill="#FBFBFC" opacity="1.000000" stroke="none" 
	d="
M226.000000,155.000000 
	C226.000000,162.020950 226.000000,169.041901 225.677094,176.377197 
	C223.038940,175.425613 220.818970,173.352493 218.388199,173.065643 
	C213.661026,172.507812 208.815613,172.952011 203.990143,172.520142 
	C204.302582,167.932190 204.644043,163.805267 205.451630,159.702423 
	C209.573303,159.730194 213.231201,159.652512 216.883713,159.759430 
	C220.856491,159.875748 224.006943,158.590851 226.000000,155.000000 
z"/>
<path fill="#FBFBFC" opacity="1.000000" stroke="none" 
	d="
M155.000000,1.000000 
	C162.020950,1.000000 169.041901,1.000000 176.378235,1.323426 
	C175.418854,3.961670 173.331879,6.179800 173.042358,8.611904 
	C172.479797,13.337556 172.926315,18.183327 172.496109,23.019650 
	C167.905472,22.706602 163.773514,22.353239 159.654907,21.534382 
	C159.670837,17.417122 159.564133,13.761127 159.705383,10.114736 
	C159.859863,6.126543 158.601852,2.989553 155.000000,1.000000 
z"/>
<path fill="#FEFEFE" opacity="1.000000" stroke="none" 
	d="
M50.000000,1.000000 
	C57.020947,1.000000 64.041893,1.000000 71.295158,1.254929 
	C70.112549,4.070437 67.876587,6.507303 67.467903,9.219503 
	C66.791557,13.708145 67.292625,18.374201 66.814667,23.007416 
	C62.273613,23.036547 58.215496,23.023766 54.150909,22.542435 
	C54.141544,18.135401 53.949684,14.185399 54.188828,10.261666 
	C54.428452,6.329989 53.237499,3.255764 50.000000,1.000000 
z"/>
<path fill="#FEFDFE" opacity="1.000000" stroke="none" 
	d="
M226.000000,129.000000 
	C226.000000,136.020950 226.000000,143.041901 225.716644,150.321411 
	C223.224518,149.261475 221.015717,147.943008 218.487427,146.409058 
	C213.573486,146.193604 208.979050,146.193604 204.026596,146.193604 
	C204.026596,141.378799 204.026596,137.273880 204.491684,133.210754 
	C208.902039,133.266464 212.858047,133.104263 216.789581,133.343613 
	C220.757004,133.585144 223.789917,132.273331 226.000000,129.000000 
z"/>
<path fill="#FBFBFC" opacity="1.000000" stroke="none" 
	d="
M177.000000,226.000000 
	C169.979050,226.000000 162.958099,226.000000 155.699554,225.739838 
	C156.866013,222.916199 159.047363,220.480087 159.493149,217.759583 
	C160.173141,213.609879 159.652969,209.263535 159.943542,204.677551 
	C164.468536,204.243530 168.692368,204.132660 172.891876,204.487930 
	C172.864777,208.885727 173.067795,212.831360 172.801666,216.745117 
	C172.532623,220.701630 173.876846,223.696472 177.000000,226.000000 
z"/>
<path fill="#FEFEFE" opacity="1.000000" stroke="none" 
	d="
M1.000000,98.000000 
	C1.000000,90.979050 1.000000,83.958107 1.274313,76.681000 
	C4.269627,77.855919 6.863795,80.067177 9.741393,80.534988 
	C14.044803,81.234596 18.547598,80.707748 23.007420,81.184891 
	C23.037451,85.698753 23.025644,89.730301 22.545023,93.767975 
	C18.126375,93.777748 14.164379,93.976135 10.230122,93.730408 
	C6.270895,93.483131 3.173023,94.619308 1.000000,98.000000 
z"/>
<path fill="#5F55AF" opacity="1.000000" stroke="none" 
	d="
M22.965582,80.702591 
	C18.547598,80.707748 14.044803,81.234596 9.741393,80.534988 
	C6.863795,80.067177 4.269627,77.855919 1.274313,76.212418 
	C1.000000,74.933327 1.000000,73.866661 1.000000,72.399994 
	C2.966567,68.359573 6.140909,67.193588 10.104391,67.318192 
	C14.077980,67.443108 18.059061,67.329704 22.556259,67.747833 
	C23.038967,72.350807 23.002274,76.526695 22.965582,80.702591 
z"/>
<path fill="#5F55AF" opacity="1.000000" stroke="none" 
	d="
M67.297592,22.965506 
	C67.292625,18.374201 66.791557,13.708145 67.467903,9.219503 
	C67.876587,6.507303 70.112549,4.070437 71.763733,1.254929 
	C73.066673,1.000000 74.133339,1.000000 75.600006,1.000000 
	C79.252991,2.975295 80.686119,5.781723 80.519760,9.658916 
	C80.342918,13.780457 80.582214,17.919851 80.207428,22.563244 
	C75.615906,23.038528 71.456749,23.002016 67.297592,22.965506 
z"/>
<path fill="#5F55AF" opacity="1.000000" stroke="none" 
	d="
M72.399994,226.000000 
	C68.407310,224.015198 67.140274,220.870941 67.254326,216.901672 
	C67.368591,212.925125 67.285469,208.942886 67.730560,204.443787 
	C72.328957,203.964264 76.485649,204.004089 80.642334,204.043915 
	C80.583130,208.707886 80.970184,213.438034 80.291924,218.010147 
	C79.905014,220.618301 77.780685,222.968704 76.219337,225.717590 
	C74.933327,226.000000 73.866661,226.000000 72.399994,226.000000 
z"/>
<path fill="#3A336D" opacity="1.000000" stroke="none" 
	d="
M154.600006,1.000000 
	C158.601852,2.989553 159.859863,6.126543 159.705383,10.114736 
	C159.564133,13.761127 159.670837,17.417122 159.262573,21.572006 
	C154.753326,22.367594 150.649780,22.660063 146.546249,22.952530 
	C146.514297,18.216055 146.019135,13.418199 146.635376,8.767619 
	C146.970352,6.239803 149.194763,3.962358 150.783478,1.285992 
	C152.066666,1.000000 153.133347,1.000000 154.600006,1.000000 
z"/>
<path fill="#3A336D" opacity="1.000000" stroke="none" 
	d="
M159.642395,205.000671 
	C159.652969,209.263535 160.173141,213.609879 159.493149,217.759583 
	C159.047363,220.480087 156.866013,222.916199 155.230988,225.739838 
	C153.933334,226.000000 152.866653,226.000000 151.399994,226.000000 
	C147.499130,223.945572 146.215973,220.866196 146.400452,216.867371 
	C146.583267,212.904404 146.420410,208.925522 146.867416,204.490845 
	C151.431259,204.352264 155.536819,204.676483 159.642395,205.000671 
z"/>
<path fill="#3F3870" opacity="1.000000" stroke="none" 
	d="
M204.019180,172.981140 
	C208.815613,172.952011 213.661026,172.507812 218.388199,173.065643 
	C220.818970,173.352493 223.038940,175.425613 225.677094,176.845764 
	C226.000000,178.388885 226.000000,179.777786 226.000000,181.583344 
	C223.492401,185.189499 220.229660,186.320679 216.200027,186.052505 
	C212.465927,185.804016 208.702545,185.995728 204.480560,185.517334 
	C204.012421,181.021103 204.015808,177.001114 204.019180,172.981140 
z"/>
<path fill="#645AB1" opacity="1.000000" stroke="none" 
	d="
M1.000000,177.416656 
	C3.255881,173.762741 6.329984,172.571594 10.261676,172.811279 
	C14.185390,173.050461 18.135386,172.858551 22.597931,173.322250 
	C23.083200,177.880249 23.044395,181.971634 23.005592,186.063019 
	C18.390945,186.047348 13.720234,186.454819 9.183167,185.853638 
	C6.559981,185.506073 4.152242,183.532471 1.323769,182.145340 
	C1.000000,180.611115 1.000000,179.222214 1.000000,177.416656 
z"/>
<path fill="#645AB1" opacity="1.000000" stroke="none" 
	d="
M54.157478,203.988892 
	C54.148914,208.794357 54.552185,213.651245 53.961403,218.384033 
	C53.657158,220.821320 51.583088,223.037689 50.154369,225.676941 
	C48.611111,226.000000 47.222221,226.000000 45.416664,226.000000 
	C41.879612,223.660477 40.709568,220.571991 40.940796,216.676468 
	C41.172405,212.774536 40.986725,208.847870 41.436150,204.415009 
	C45.978062,203.928284 50.067772,203.958588 54.157478,203.988892 
z"/>
<path fill="#3E376F" opacity="1.000000" stroke="none" 
	d="
M177.416656,226.000000 
	C173.876846,223.696472 172.532623,220.701630 172.801666,216.745117 
	C173.067795,212.831360 172.864777,208.885727 173.360199,204.473999 
	C177.869171,204.003006 181.885498,204.012085 185.901825,204.021149 
	C185.932892,208.629807 186.401398,213.293961 185.826660,217.825790 
	C185.495819,220.434418 183.476730,222.828949 182.108795,225.659943 
	C180.611115,226.000000 179.222214,226.000000 177.416656,226.000000 
z"/>
<path fill="#3E3870" opacity="1.000000" stroke="none" 
	d="
M226.000000,49.583336 
	C223.695328,53.118782 220.713928,54.482857 216.746536,54.202820 
	C212.833633,53.926624 208.886322,54.137497 204.473267,53.642483 
	C204.002625,49.151859 204.012833,45.153427 204.023026,41.154999 
	C208.800659,41.113251 213.625793,40.658539 218.336334,41.200253 
	C220.769272,41.480038 222.998718,43.529427 225.660049,44.889633 
	C226.000000,46.388889 226.000000,47.777779 226.000000,49.583336 
z"/>
<path fill="#645AB1" opacity="1.000000" stroke="none" 
	d="
M23.011204,54.157654 
	C18.205700,54.149086 13.348783,54.552364 8.615957,53.961575 
	C6.178646,53.657326 3.962263,51.583241 1.323025,50.154442 
	C1.000000,48.611111 1.000000,47.222221 1.000000,45.416664 
	C3.336857,41.871567 6.442985,40.727791 10.325077,40.944031 
	C14.227987,41.161427 18.152740,40.986679 22.585018,41.435982 
	C23.071812,45.978008 23.041508,50.067829 23.011204,54.157654 
z"/>
<path fill="#3E376F" opacity="1.000000" stroke="none" 
	d="
M172.954788,22.979334 
	C172.926315,18.183327 172.479797,13.337556 173.042358,8.611904 
	C173.331879,6.179800 175.418854,3.961670 176.846802,1.323426 
	C178.388885,1.000000 179.777786,1.000000 181.583344,1.000000 
	C185.191116,3.509804 186.310074,6.782259 186.048477,10.806444 
	C185.805618,14.542541 185.988846,18.306334 185.494507,22.526072 
	C180.987946,22.989252 176.971359,22.984293 172.954788,22.979334 
z"/>
<path fill="#645AB1" opacity="1.000000" stroke="none" 
	d="
M49.583336,1.000000 
	C53.237499,3.255764 54.428452,6.329989 54.188828,10.261666 
	C53.949684,14.185399 54.141544,18.135401 53.677921,22.597179 
	C49.126553,23.081696 45.041714,23.042917 40.956871,23.004137 
	C40.969032,18.390844 40.559738,13.722245 41.155067,9.185477 
	C41.499470,6.560935 43.462639,4.148813 44.848640,1.320546 
	C46.388889,1.000000 47.777779,1.000000 49.583336,1.000000 
z"/>
<path fill="#3D376F" opacity="1.000000" stroke="none" 
	d="
M226.000000,128.583344 
	C223.789917,132.273331 220.757004,133.585144 216.789581,133.343613 
	C212.858047,133.104263 208.902039,133.266464 204.471634,132.737625 
	C203.999191,128.221909 204.011871,124.221107 204.024551,120.220306 
	C208.619278,120.182022 213.267532,119.711502 217.788177,120.271408 
	C220.400650,120.594971 222.807297,122.580345 225.653290,123.908905 
	C226.000000,125.388893 226.000000,126.777779 226.000000,128.583344 
z"/>
<path fill="#6359B1" opacity="1.000000" stroke="none" 
	d="
M1.000000,124.416664 
	C3.783462,120.659752 7.390987,119.761551 11.603216,120.062828 
	C15.070504,120.310822 18.569714,120.112518 22.576170,120.564880 
	C23.068949,125.108658 23.040333,129.199570 23.011715,133.290482 
	C18.191978,133.274979 13.319593,133.674377 8.574304,133.072205 
	C6.134213,132.762558 3.920693,130.667465 1.302394,129.189606 
	C1.000000,127.611107 1.000000,126.222221 1.000000,124.416664 
z"/>
<path fill="#6359B1" opacity="1.000000" stroke="none" 
	d="
M1.000000,98.416664 
	C3.173023,94.619308 6.270895,93.483131 10.230122,93.730408 
	C14.164379,93.976135 18.126375,93.777748 22.612686,94.244896 
	C23.099218,98.802933 23.049271,102.890175 22.999325,106.977425 
	C18.404757,106.951492 13.753971,107.344879 9.237113,106.739319 
	C6.608717,106.386948 4.195034,104.433044 1.342370,103.099869 
	C1.000000,101.611107 1.000000,100.222221 1.000000,98.416664 
z"/>
<path fill="#6359B1" opacity="1.000000" stroke="none" 
	d="
M106.847076,204.012787 
	C106.863533,208.604584 107.307343,213.250748 106.732880,217.767395 
	C106.399239,220.390564 104.430428,222.805771 103.098709,225.657288 
	C101.611107,226.000000 100.222221,226.000000 98.416664,226.000000 
	C94.619049,223.827347 93.482422,220.729538 93.730324,216.770432 
	C93.976677,212.836304 93.780266,208.874435 94.255531,204.404327 
	C98.771049,203.926880 102.809059,203.969833 106.847076,204.012787 
z"/>
<path fill="#3E376F" opacity="1.000000" stroke="none" 
	d="
M124.416664,226.000000 
	C120.582764,223.255310 119.781799,219.609039 120.054657,215.420761 
	C120.281136,211.944138 120.111534,208.441696 120.607254,204.485901 
	C125.121521,204.023087 129.145920,204.025070 133.170319,204.027054 
	C133.191254,208.838638 133.634323,213.701569 133.057800,218.440460 
	C132.762650,220.866455 130.642944,223.070450 129.173920,225.687393 
	C127.611107,226.000000 126.222221,226.000000 124.416664,226.000000 
z"/>
<path fill="#3E376F" opacity="1.000000" stroke="none" 
	d="
M120.162384,22.991781 
	C120.141945,18.392916 119.692596,13.739717 120.265678,9.216041 
	C120.597054,6.600296 122.576523,4.193336 123.907127,1.346205 
	C125.388893,1.000000 126.777779,1.000000 128.583344,1.000000 
	C132.293015,3.203047 133.558105,6.234289 133.293365,10.209639 
	C133.031799,14.137662 133.230667,18.096342 132.725159,22.527863 
	C128.202652,23.006695 124.182518,22.999239 120.162384,22.991781 
z"/>
<path fill="#6359B1" opacity="1.000000" stroke="none" 
	d="
M102.583336,1.000000 
	C106.327782,3.785496 107.248985,7.385345 106.948212,11.598853 
	C106.700600,15.067513 106.895981,18.567793 106.440979,22.576492 
	C101.911781,23.070684 97.836617,23.042444 93.761459,23.014204 
	C93.770859,18.194363 93.368279,13.323133 93.960396,8.575975 
	C94.264488,6.137978 96.343704,3.921395 97.810364,1.302377 
	C99.388893,1.000000 100.777779,1.000000 102.583336,1.000000 
z"/>
<path fill="#3E376F" opacity="1.000000" stroke="none" 
	d="
M226.000000,102.583336 
	C223.221191,106.323570 219.624359,107.255386 215.418686,106.964226 
	C211.945587,106.723778 208.443405,106.903206 204.487518,106.399361 
	C204.021271,101.899940 204.021591,97.897736 204.021912,93.895538 
	C208.832626,93.857681 213.693542,93.396194 218.433167,93.958046 
	C220.856781,94.245346 223.063126,96.365616 225.683838,97.828720 
	C226.000000,99.388893 226.000000,100.777779 226.000000,102.583336 
z"/>
<path fill="#5F55AF" opacity="1.000000" stroke="none" 
	d="
M22.970680,159.726685 
	C18.378195,159.731705 13.710044,160.235901 9.221461,159.555481 
	C6.506965,159.144012 4.070942,156.895477 1.254900,155.236176 
	C1.000000,153.933334 1.000000,152.866653 1.000000,151.399994 
	C3.017400,147.389069 6.162117,146.311417 10.153010,146.527344 
	C14.114982,146.741730 18.099354,146.542099 22.617250,146.972870 
	C23.097292,151.523361 23.033987,155.625015 22.970680,159.726685 
z"/>
<path fill="#3A336D" opacity="1.000000" stroke="none" 
	d="
M226.000000,75.600006 
	C223.843338,79.720764 220.478165,80.826660 216.382004,80.669533 
	C212.583298,80.523819 208.775009,80.627625 204.499908,80.153625 
	C204.028854,76.280823 204.028854,72.875961 204.028854,68.899811 
	C207.570770,68.899811 210.659744,69.070374 213.717041,68.832924 
	C215.426529,68.700165 217.083435,67.890427 218.764038,67.385727 
	C221.000000,68.765633 223.235962,70.145531 225.735962,71.762718 
	C226.000000,73.066673 226.000000,74.133339 226.000000,75.600006 
z"/>
<path fill="#3A336D" opacity="1.000000" stroke="none" 
	d="
M218.806931,146.624527 
	C221.015717,147.943008 223.224518,149.261475 225.716644,150.789978 
	C226.000000,152.066666 226.000000,153.133347 226.000000,154.600006 
	C224.006943,158.590851 220.856491,159.875748 216.883713,159.759430 
	C213.231201,159.652512 209.573303,159.730194 205.389664,159.312225 
	C204.484680,155.407928 204.107788,151.917923 203.681641,147.971664 
	C206.826035,147.971664 208.978302,148.143707 211.090881,147.927719 
	C213.680252,147.662994 216.236404,147.073578 218.806931,146.624527 
z"/>
<path fill="#AECEFD" opacity="1.000000" stroke="none" 
	d="
M23.011127,160.207245 
	C23.033987,155.625015 23.097292,151.523361 23.081072,146.920807 
	C23.007782,142.337296 23.014021,138.254669 23.015987,133.731262 
	C23.040333,129.199570 23.068949,125.108658 23.043030,120.562691 
	C23.003983,116.041199 23.019472,111.974762 23.017143,107.442871 
	C23.049271,102.890175 23.099218,98.802933 23.081501,94.238770 
	C23.025644,89.730301 23.037451,85.698753 23.007420,81.184898 
	C23.002274,76.526695 23.038967,72.350807 23.020561,67.736359 
	C22.983997,63.220097 23.002529,59.142376 23.016132,54.611156 
	C23.041508,50.067829 23.071812,45.978008 23.053101,41.422356 
	C23.031845,38.128849 23.018223,35.300037 23.095585,32.473713 
	C23.282459,25.646317 25.685186,23.269001 32.557011,23.093861 
	C35.050953,23.030296 37.546871,23.044020 40.499378,23.013308 
	C45.041714,23.042917 49.126553,23.081696 53.684387,23.065729 
	C58.215496,23.023766 62.273613,23.036547 66.814667,23.007416 
	C71.456749,23.002016 75.615906,23.038528 80.207947,23.015329 
	C84.715652,22.977680 88.790474,22.999741 93.313377,23.018002 
	C97.836617,23.042444 101.911781,23.070684 106.441849,23.043304 
	C109.030670,23.046644 111.164589,23.105602 113.664978,23.675961 
	C114.012703,32.605042 113.993942,41.022724 113.519592,49.559303 
	C94.741669,49.751709 76.419235,49.807137 58.097050,49.909203 
	C52.225456,49.941906 49.932217,51.977318 49.925114,57.486870 
	C49.876984,94.808739 49.878208,132.130722 49.923393,169.452591 
	C49.930099,174.990906 52.198643,177.074677 58.036034,177.095581 
	C72.698036,177.148087 87.360443,177.085052 102.022453,177.137650 
	C106.007256,177.151932 109.991180,177.412323 113.943085,177.992401 
	C113.986710,186.886185 114.062767,195.347351 114.138824,203.808502 
	C112.013161,203.858368 109.887489,203.908249 107.304443,203.985474 
	C102.809059,203.969833 98.771049,203.926880 94.256561,203.935455 
	C89.725830,203.977203 85.671570,203.967407 81.129829,204.000763 
	C76.485649,204.004089 72.328957,203.964264 67.733772,203.979370 
	C63.218342,204.016479 59.141399,203.998611 54.610970,203.984833 
	C50.067772,203.958588 45.978062,203.928284 41.422539,203.946930 
	C38.130402,203.969727 35.302917,203.986176 32.477997,203.908936 
	C25.654646,203.722382 23.270947,201.316345 23.094099,194.456299 
	C23.029839,191.963623 23.045139,189.468887 23.014866,186.519058 
	C23.044395,181.971634 23.083200,177.880249 23.066479,173.315796 
	C23.024494,168.791107 23.038034,164.739456 23.011127,160.207245 
z"/>
<path fill="#7D85E5" opacity="1.000000" stroke="none" 
	d="
M113.975174,49.440407 
	C113.993942,41.022724 114.012703,32.605042 114.115067,23.752323 
	C115.901154,23.237835 117.603653,23.158382 119.734268,23.035355 
	C124.182518,22.999239 128.202652,23.006695 132.696411,22.993706 
	C137.298203,23.018080 141.426361,23.062902 146.050385,23.030128 
	C150.649780,22.660063 154.753326,22.367594 159.249207,22.037500 
	C163.773514,22.353239 167.905472,22.706602 172.496109,23.019650 
	C176.971359,22.984293 180.987946,22.989252 185.462708,22.992496 
	C188.892624,23.051521 191.864761,23.096319 194.835953,23.176270 
	C201.317947,23.350695 203.687943,25.741076 203.851807,32.286530 
	C203.917938,34.928143 203.924271,37.571251 203.990417,40.684341 
	C204.012833,45.153427 204.002625,49.151859 204.007111,53.618305 
	C204.021805,58.189354 204.021805,62.292385 204.021805,67.085876 
	C208.898575,67.085876 213.482208,67.085876 218.414932,67.235802 
	C217.083435,67.890427 215.426529,68.700165 213.717041,68.832924 
	C210.659744,69.070374 207.570770,68.899811 204.028854,68.899811 
	C204.028854,72.875961 204.028854,76.280823 204.038864,80.117813 
	C204.019440,84.692520 203.990005,88.835114 203.991241,93.436623 
	C204.021591,97.897736 204.021271,101.899940 204.023865,106.352798 
	C203.994934,110.956749 203.963089,115.110039 203.977905,119.741821 
	C204.011871,124.221107 203.999191,128.221909 204.006546,132.695831 
	C204.026596,137.273880 204.026596,141.378799 204.026596,146.193604 
	C208.979050,146.193604 213.573486,146.193604 218.487427,146.409058 
	C216.236404,147.073578 213.680252,147.662994 211.090881,147.927719 
	C208.978302,148.143707 206.826035,147.971664 203.681641,147.971664 
	C204.107788,151.917923 204.484680,155.407928 204.923523,159.288132 
	C204.644043,163.805267 204.302582,167.932190 203.990143,172.520142 
	C204.015808,177.001114 204.012421,181.021103 204.013977,185.501923 
	C203.964798,188.926788 203.936920,191.891541 203.851196,194.854630 
	C203.664841,201.295639 201.244843,203.683655 194.740463,203.851822 
	C192.106369,203.919937 189.470825,203.932343 186.368896,203.995636 
	C181.885498,204.012085 177.869171,204.003006 173.384521,204.007858 
	C168.692368,204.132660 164.468536,204.243530 159.943542,204.677551 
	C155.536819,204.676483 151.431259,204.352264 146.902771,204.037262 
	C142.346481,204.023804 138.213104,204.001160 133.625031,204.002792 
	C129.145920,204.025070 125.121521,204.023087 120.646240,204.021271 
	C118.460815,203.988449 116.726265,203.955444 114.565277,203.865479 
	C114.062767,195.347351 113.986710,186.886185 113.957275,177.863434 
	C114.003891,177.301849 114.000603,177.042419 114.467064,177.092560 
	C133.084396,177.149155 151.235367,177.189545 169.386093,177.141800 
	C174.972321,177.127106 177.126480,175.115768 177.133636,169.739288 
	C177.183472,132.271835 177.180832,94.804276 177.136673,57.336811 
	C177.130524,52.113693 175.022659,49.887508 169.945740,49.875351 
	C151.297318,49.830708 132.648560,49.923283 114.001862,49.832882 
	C114.003784,49.701546 113.975174,49.440407 113.975174,49.440407 
z"/>
<path fill="#5F56AF" opacity="1.000000" stroke="none" 
	d="
M113.989700,177.430801 
	C109.991180,177.412323 106.007256,177.151932 102.022453,177.137650 
	C87.360443,177.085052 72.698036,177.148087 58.036034,177.095581 
	C52.198643,177.074677 49.930099,174.990906 49.923393,169.452591 
	C49.878208,132.130722 49.876984,94.808739 49.925114,57.486870 
	C49.932217,51.977318 52.225456,49.941906 58.097050,49.909203 
	C76.419235,49.807137 94.741669,49.751709 113.519592,49.559303 
	C113.975174,49.440407 114.003784,49.701546 113.974045,50.304283 
	C113.936073,62.573029 113.978500,74.239494 113.873039,85.904625 
	C113.853996,88.010551 113.227226,90.110977 112.602654,91.980957 
	C111.687775,90.214821 110.960144,88.712288 110.432915,87.142456 
	C109.158913,83.349075 107.024155,80.733238 102.626083,80.711426 
	C97.987007,80.688431 95.945961,83.546196 94.495789,87.449364 
	C91.255280,96.171242 87.822014,104.821297 84.507957,113.516113 
	C81.549042,121.279144 78.546654,129.027985 75.755020,136.851425 
	C74.211220,141.177872 75.690857,144.853073 79.270203,145.871964 
	C83.343575,147.031479 86.472588,145.799026 88.042664,141.575623 
	C88.621307,140.019089 88.966202,138.221161 89.991638,137.025574 
	C91.188652,135.629929 92.973900,133.906876 94.572815,133.833832 
	C101.040382,133.538330 107.534447,133.822815 114.060852,134.171387 
	C114.151047,134.995483 114.199120,135.541443 114.163574,136.607941 
	C114.053497,150.433121 114.027054,163.737762 114.000610,177.042419 
	C114.000603,177.042419 114.003891,177.301849 113.989700,177.430801 
z"/>
<path fill="#3A336D" opacity="1.000000" stroke="none" 
	d="
M112.881042,92.213943 
	C113.227226,90.110977 113.853996,88.010551 113.873039,85.904625 
	C113.978500,74.239494 113.936073,62.573029 113.972122,50.435619 
	C132.648560,49.923283 151.297318,49.830708 169.945740,49.875351 
	C175.022659,49.887508 177.130524,52.113693 177.136673,57.336811 
	C177.180832,94.804276 177.183472,132.271835 177.133636,169.739288 
	C177.126480,175.115768 174.972321,177.127106 169.386093,177.141800 
	C151.235367,177.189545 133.084396,177.149155 114.467072,177.092560 
	C114.027054,163.737762 114.053497,150.433121 114.401764,136.931488 
	C115.609085,138.881195 116.241890,141.182526 117.439102,143.138397 
	C119.250999,146.098419 121.908470,147.483093 125.492844,146.099747 
	C129.191162,144.672424 131.036163,141.767410 129.740143,138.234024 
	C124.832825,124.854942 119.526054,111.622383 114.367722,97.979240 
	C113.871498,95.820297 113.376266,94.017120 112.881042,92.213943 
M151.986633,126.494339 
	C151.985519,113.670250 152.015427,100.846046 151.965698,88.022148 
	C151.949295,83.788513 150.068497,80.955124 145.510239,80.736511 
	C141.517624,80.545036 138.937408,83.164513 138.914749,87.761559 
	C138.830185,104.915337 138.878632,122.069786 138.881897,139.223984 
	C138.882675,143.335724 140.753830,145.912918 145.003464,146.242798 
	C149.059906,146.557663 151.685638,144.054886 151.917770,139.479660 
	C152.120071,135.492493 151.977066,131.487823 151.986633,126.494339 
z"/>
<path fill="#F6F6F8" opacity="1.000000" stroke="none" 
	d="
M112.602654,91.980957 
	C113.376266,94.017120 113.871498,95.820297 114.255699,98.492325 
	C114.102692,110.871864 114.060715,122.382553 114.018738,133.893234 
	C107.534447,133.822815 101.040382,133.538330 94.572815,133.833832 
	C92.973900,133.906876 91.188652,135.629929 89.991638,137.025574 
	C88.966202,138.221161 88.621307,140.019089 88.042664,141.575623 
	C86.472588,145.799026 83.343575,147.031479 79.270203,145.871964 
	C75.690857,144.853073 74.211220,141.177872 75.755020,136.851425 
	C78.546654,129.027985 81.549042,121.279144 84.507957,113.516113 
	C87.822014,104.821297 91.255280,96.171242 94.495789,87.449364 
	C95.945961,83.546196 97.987007,80.688431 102.626083,80.711426 
	C107.024155,80.733238 109.158913,83.349075 110.432915,87.142456 
	C110.960144,88.712288 111.687775,90.214821 112.602654,91.980957 
M108.057983,118.872124 
	C106.355057,114.052979 104.652122,109.233841 102.580452,103.371185 
	C100.327461,109.426628 98.465408,114.431351 96.274063,120.321106 
	C100.719185,120.090706 104.277420,119.906281 108.057983,118.872124 
z"/>
<path fill="#DCD9EF" opacity="1.000000" stroke="none" 
	d="
M114.060852,134.171387 
	C114.060715,122.382553 114.102692,110.871864 114.256699,98.848099 
	C119.526054,111.622383 124.832825,124.854942 129.740143,138.234024 
	C131.036163,141.767410 129.191162,144.672424 125.492844,146.099747 
	C121.908470,147.483093 119.250999,146.098419 117.439102,143.138397 
	C116.241890,141.182526 115.609085,138.881195 114.485397,136.410965 
	C114.199120,135.541443 114.151047,134.995483 114.060852,134.171387 
z"/>
<path fill="#DFDCF2" opacity="1.000000" stroke="none" 
	d="
M151.986633,126.992615 
	C151.977066,131.487823 152.120071,135.492493 151.917770,139.479660 
	C151.685638,144.054886 149.059906,146.557663 145.003464,146.242798 
	C140.753830,145.912918 138.882675,143.335724 138.881897,139.223984 
	C138.878632,122.069786 138.830185,104.915337 138.914749,87.761559 
	C138.937408,83.164513 141.517624,80.545036 145.510239,80.736511 
	C150.068497,80.955124 151.949295,83.788513 151.965698,88.022148 
	C152.015427,100.846046 151.985519,113.670250 151.986633,126.992615 
z"/>
<path fill="#675EB3" opacity="1.000000" stroke="none" 
	d="
M107.946815,119.296989 
	C104.277420,119.906281 100.719185,120.090706 96.274063,120.321106 
	C98.465408,114.431351 100.327461,109.426628 102.580452,103.371185 
	C104.652122,109.233841 106.355057,114.052979 107.946815,119.296989 
z"/>
</svg>