<svg version="1.1" id="Layer_1" xmlns="http://www.w3.org/2000/svg" xmlns:xlink="http://www.w3.org/1999/xlink" x="0px" y="0px"
	 width="100%" viewBox="0 0 512 512" enable-background="new 0 0 512 512" xml:space="preserve">
<path fill="#000000" opacity="1.000000" stroke="none" 
	d="
M1.000000,192.000000 
	C1.000000,128.000000 1.000000,64.500000 1.000000,1.000000 
	C171.666672,1.000000 342.333344,1.000000 513.000000,1.000000 
	C513.000000,171.666672 513.000000,342.333344 513.000000,513.000000 
	C342.333344,513.000000 171.666672,513.000000 1.000000,513.000000 
	C1.000000,406.166656 1.000000,299.333344 1.000000,192.000000 
M401.916779,71.172859 
	C400.450897,66.492485 397.143829,64.819717 392.409302,64.962006 
	C386.603394,65.136497 380.787964,65.035835 374.977112,64.993553 
	C370.222290,64.958969 367.721069,67.417305 366.067200,71.982391 
	C359.046173,71.995117 352.025177,72.007843 344.984924,71.258949 
	C344.308746,65.410889 340.196167,64.974922 335.507324,64.976944 
	C242.562607,65.016968 149.617905,65.004257 56.673187,65.023697 
	C54.857452,65.024078 52.993126,65.063011 51.233532,65.453621 
	C31.784424,69.771126 21.095190,83.699898 21.060984,103.791687 
	C20.929686,180.912262 21.007751,258.033203 21.008558,335.153992 
	C21.008570,336.319916 20.909855,337.498627 21.044661,338.649445 
	C21.547260,342.940002 23.157415,346.357239 28.001837,347.942200 
	C28.032791,354.953949 28.063745,361.965698 27.337454,369.004425 
	C23.094395,369.867035 21.037054,372.815247 21.080486,376.792267 
	C21.232882,390.747223 21.079193,404.744476 22.149014,418.640442 
	C23.424875,435.212738 39.456184,448.983124 56.266010,448.985016 
	C190.072830,448.999847 323.879669,449.004486 457.686493,448.967743 
	C466.533447,448.965332 474.118042,445.451202 480.751465,439.737946 
	C489.595856,432.120422 492.854034,421.962860 492.915985,410.831604 
	C493.119110,374.339966 492.992096,337.846497 492.992096,301.353729 
	C492.992096,235.366806 493.121582,169.379456 492.913971,103.393188 
	C492.851105,83.407616 482.217010,69.060379 462.329620,65.569313 
	C452.623840,63.865547 442.400482,65.177216 432.414398,64.975220 
	C427.387756,64.873550 424.097137,66.813881 422.043579,71.975655 
	C415.372101,71.941231 408.700623,71.906799 401.916779,71.172859 
z"/>
<path fill="#EBEAFC" opacity="1.000000" stroke="none" 
	d="
M28.094702,368.977448 
	C28.063745,361.965698 28.032791,354.953949 28.362961,347.375244 
	C34.260075,345.631348 35.984924,342.075714 35.974026,336.627594 
	C35.863350,281.303894 35.906681,225.979874 35.906849,170.655945 
	C35.906857,168.722656 35.906853,166.789383 35.906853,164.995010 
	C183.648376,164.995010 330.705414,164.995010 478.091827,164.995010 
	C478.091827,166.115799 478.091888,166.921280 478.091888,167.726761 
	C478.091675,249.212906 478.095673,330.699036 478.065552,412.185181 
	C478.064819,414.164276 477.923981,416.204163 477.440094,418.112152 
	C474.704956,428.896820 466.240204,434.663788 453.276306,434.664307 
	C323.131775,434.669495 192.987244,434.667450 62.842709,434.667297 
	C61.342964,434.667267 59.842129,434.702179 58.343651,434.657990 
	C44.781467,434.258087 35.982681,425.319397 35.919346,411.792023 
	C35.866295,400.460846 35.947319,389.129059 35.889923,377.797943 
	C35.859962,371.883667 33.995502,369.865784 28.094702,368.977448 
M205.976715,387.317932 
	C206.766678,397.267639 211.878372,404.215485 221.076859,407.764374 
	C233.329559,412.491608 246.677597,405.823853 250.995148,392.829376 
	C260.738312,363.505493 270.286469,334.116791 279.906647,304.752075 
	C288.802002,277.599945 297.736420,250.460495 306.558105,223.284439 
	C311.198792,208.988327 303.760559,195.132767 290.048492,192.181412 
	C277.495850,189.479614 266.716339,196.515701 262.161041,210.424881 
	C244.167511,265.366211 226.160126,320.303040 208.252335,375.272308 
	C207.083282,378.860809 206.706955,382.707581 205.976715,387.317932 
M173.388367,263.897369 
	C176.094101,260.515991 178.889923,257.202271 181.488907,253.740753 
	C189.741150,242.749878 188.160995,228.594284 177.830597,220.279999 
	C167.725555,212.147110 153.358521,213.367905 144.763794,223.819580 
	C128.367462,243.758514 112.229332,263.914581 96.259712,284.197601 
	C88.536613,294.006714 88.870758,307.064789 96.438782,317.112061 
	C99.243378,320.835449 102.245560,324.410248 105.165764,328.046295 
	C118.098434,344.149292 130.940735,360.326111 143.998734,376.326813 
	C154.076523,388.675720 170.877472,389.166901 180.966812,377.659790 
	C188.869598,368.646515 188.803207,356.360138 180.655441,346.138519 
	C168.521988,330.916656 156.309662,315.757690 144.020096,300.433807 
	C153.751434,288.333466 163.351334,276.396576 173.388367,263.897369 
M335.728607,343.226288 
	C330.253357,349.385559 326.093872,356.160461 327.362823,364.817810 
	C328.847870,374.949371 334.488617,382.016266 344.411560,384.896667 
	C354.823547,387.918976 363.472137,384.462128 370.157654,376.201447 
	C385.561401,357.168335 400.892334,338.075714 416.160095,318.933319 
	C425.838165,306.799164 425.818451,294.200012 416.111359,282.033722 
	C400.944153,263.023987 385.706421,244.070099 370.424927,225.152039 
	C361.173340,213.698883 346.573517,211.764786 335.993378,220.438461 
	C325.297058,229.207382 324.290375,243.514893 333.570892,255.111008 
	C345.641205,270.192963 357.723633,285.265228 369.980682,300.566162 
	C358.665009,314.646301 347.410034,328.650940 335.728607,343.226288 
z"/>
<path fill="#28292F" opacity="1.000000" stroke="none" 
	d="
M27.716078,368.990936 
	C33.995502,369.865784 35.859962,371.883667 35.889923,377.797943 
	C35.947319,389.129059 35.866295,400.460846 35.919346,411.792023 
	C35.982681,425.319397 44.781467,434.258087 58.343651,434.657990 
	C59.842129,434.702179 61.342964,434.667267 62.842709,434.667297 
	C192.987244,434.667450 323.131775,434.669495 453.276306,434.664307 
	C466.240204,434.663788 474.704956,428.896820 477.440094,418.112152 
	C477.923981,416.204163 478.064819,414.164276 478.065552,412.185181 
	C478.095673,330.699036 478.091675,249.212906 478.091888,167.726761 
	C478.091888,166.921280 478.091827,166.115799 478.091827,164.995010 
	C330.705414,164.995010 183.648376,164.995010 35.906853,164.995010 
	C35.906853,166.789383 35.906857,168.722656 35.906849,170.655945 
	C35.906681,225.979874 35.863350,281.303894 35.974026,336.627594 
	C35.984924,342.075714 34.260075,345.631348 28.381699,346.907410 
	C23.157415,346.357239 21.547260,342.940002 21.044661,338.649445 
	C20.909855,337.498627 21.008570,336.319916 21.008558,335.153992 
	C21.007751,258.033203 20.929686,180.912262 21.060984,103.791687 
	C21.095190,83.699898 31.784424,69.771126 51.233532,65.453621 
	C52.993126,65.063011 54.857452,65.024078 56.673187,65.023697 
	C149.617905,65.004257 242.562607,65.016968 335.507324,64.976944 
	C340.196167,64.974922 344.308746,65.410889 344.930023,72.001312 
	C343.914551,78.521378 339.877747,79.374046 334.900421,79.363701 
	C298.069214,79.287125 261.237793,79.322281 224.406433,79.322304 
	C169.576050,79.322350 114.745651,79.303131 59.915279,79.334862 
	C44.685249,79.343674 35.940289,88.054787 35.907890,103.114082 
	C35.877415,117.279922 35.892368,131.445892 35.913002,145.611771 
	C35.915314,147.200729 36.084648,148.789459 36.172791,150.313721 
	C183.705811,150.313721 330.762573,150.313721 478.098206,150.313721 
	C478.098206,134.130081 478.143097,118.308601 478.084778,102.487511 
	C478.032562,88.326088 469.210358,79.512131 454.956207,79.337379 
	C448.124268,79.253616 441.290466,79.328308 434.457489,79.320480 
	C426.433716,79.311279 425.972992,79.007790 422.973206,71.883255 
	C424.097137,66.813881 427.387756,64.873550 432.414398,64.975220 
	C442.400482,65.177216 452.623840,63.865547 462.329620,65.569313 
	C482.217010,69.060379 492.851105,83.407616 492.913971,103.393188 
	C493.121582,169.379456 492.992096,235.366806 492.992096,301.353729 
	C492.992096,337.846497 493.119110,374.339966 492.915985,410.831604 
	C492.854034,421.962860 489.595856,432.120422 480.751465,439.737946 
	C474.118042,445.451202 466.533447,448.965332 457.686493,448.967743 
	C323.879669,449.004486 190.072830,448.999847 56.266010,448.985016 
	C39.456184,448.983124 23.424875,435.212738 22.149014,418.640442 
	C21.079193,404.744476 21.232882,390.747223 21.080486,376.792267 
	C21.037054,372.815247 23.094395,369.867035 27.716078,368.990936 
z"/>
<path fill="#CFCFFA" opacity="1.000000" stroke="none" 
	d="
M422.508392,71.929459 
	C425.972992,79.007790 426.433716,79.311279 434.457489,79.320480 
	C441.290466,79.328308 448.124268,79.253616 454.956207,79.337379 
	C469.210358,79.512131 478.032562,88.326088 478.084778,102.487511 
	C478.143097,118.308601 478.098206,134.130081 478.098206,150.313721 
	C330.762573,150.313721 183.705811,150.313721 36.172791,150.313721 
	C36.084648,148.789459 35.915314,147.200729 35.913002,145.611771 
	C35.892368,131.445892 35.877415,117.279922 35.907890,103.114082 
	C35.940289,88.054787 44.685249,79.343674 59.915279,79.334862 
	C114.745651,79.303131 169.576050,79.322350 224.406433,79.322304 
	C261.237793,79.322281 298.069214,79.287125 334.900421,79.363701 
	C339.877747,79.374046 343.914551,78.521378 344.939636,72.382126 
	C352.025177,72.007843 359.046173,71.995117 366.674042,72.307938 
	C368.170837,77.601562 371.284973,79.502800 376.148346,79.348099 
	C380.793274,79.200348 385.475433,78.990654 390.089050,79.398537 
	C396.185028,79.937454 400.344940,78.029945 402.029144,71.872375 
	C408.700623,71.906799 415.372101,71.941231 422.508392,71.929459 
M178.150772,108.921593 
	C177.999939,109.907837 177.833832,110.892014 177.700638,111.880638 
	C176.398727,121.544365 181.162933,131.092117 189.633789,135.807098 
	C198.079239,140.507950 208.252411,139.734589 215.885162,133.811493 
	C223.619522,127.809547 226.863449,117.796692 224.120865,108.390762 
	C221.217407,98.433113 212.489944,91.582535 202.116455,91.118507 
	C191.545303,90.645653 182.656326,97.028534 178.150772,108.921593 
M63.077393,98.601616 
	C55.234138,108.200417 54.470654,119.699440 61.066113,128.893936 
	C67.301369,137.586288 78.513657,141.041779 88.542282,137.361740 
	C97.450035,134.093018 103.664665,125.838882 104.105286,116.691284 
	C104.594193,106.541191 99.549294,97.552116 90.747795,93.556946 
	C80.761604,89.024033 71.663437,90.738869 63.077393,98.601616 
M123.315048,98.848099 
	C116.059074,107.813873 114.953804,118.033379 120.263863,127.059776 
	C125.185249,135.425461 135.231979,140.206375 144.447174,138.567825 
	C155.164200,136.662201 162.625854,129.094879 164.368973,118.363914 
	C165.932083,108.741013 160.989532,98.816536 152.269470,94.068527 
	C142.826019,88.926651 132.541641,90.466019 123.315048,98.848099 
z"/>
<path fill="#27282E" opacity="1.000000" stroke="none" 
	d="
M401.972961,71.522614 
	C400.344940,78.029945 396.185028,79.937454 390.089050,79.398537 
	C385.475433,78.990654 380.793274,79.200348 376.148346,79.348099 
	C371.284973,79.502800 368.170837,77.601562 367.142822,72.297089 
	C367.721069,67.417305 370.222290,64.958969 374.977112,64.993553 
	C380.787964,65.035835 386.603394,65.136497 392.409302,64.962006 
	C397.143829,64.819717 400.450897,66.492485 401.972961,71.522614 
z"/>
<path fill="#282930" opacity="1.000000" stroke="none" 
	d="
M205.969299,386.876068 
	C206.706955,382.707581 207.083282,378.860809 208.252335,375.272308 
	C226.160126,320.303040 244.167511,265.366211 262.161041,210.424881 
	C266.716339,196.515701 277.495850,189.479614 290.048492,192.181412 
	C303.760559,195.132767 311.198792,208.988327 306.558105,223.284439 
	C297.736420,250.460495 288.802002,277.599945 279.906647,304.752075 
	C270.286469,334.116791 260.738312,363.505493 250.995148,392.829376 
	C246.677597,405.823853 233.329559,412.491608 221.076859,407.764374 
	C211.878372,404.215485 206.766678,397.267639 205.969299,386.876068 
M282.171143,252.671539 
	C282.989380,250.140732 283.799591,247.607300 284.627289,245.079575 
	C287.578003,236.068405 290.631073,227.089249 293.452026,218.037689 
	C295.080841,212.811172 292.565430,207.929260 287.790649,206.329681 
	C283.248840,204.808151 278.546539,207.149719 276.484619,212.030258 
	C275.903839,213.404922 275.508179,214.858643 275.042725,216.281067 
	C263.352356,252.006638 251.662292,287.732300 239.975922,323.459198 
	C233.563797,343.061981 227.106705,362.650299 220.775696,382.279297 
	C218.270599,390.046173 223.217163,396.319580 230.696426,395.010010 
	C235.283859,394.206787 236.983398,390.666199 238.287857,386.678497 
	C252.818893,342.257324 267.399506,297.852325 282.171143,252.671539 
z"/>
<path fill="#282930" opacity="1.000000" stroke="none" 
	d="
M173.169800,264.178528 
	C163.351334,276.396576 153.751434,288.333466 144.020096,300.433807 
	C156.309662,315.757690 168.521988,330.916656 180.655441,346.138519 
	C188.803207,356.360138 188.869598,368.646515 180.966812,377.659790 
	C170.877472,389.166901 154.076523,388.675720 143.998734,376.326813 
	C130.940735,360.326111 118.098434,344.149292 105.165764,328.046295 
	C102.245560,324.410248 99.243378,320.835449 96.438782,317.112061 
	C88.870758,307.064789 88.536613,294.006714 96.259712,284.197601 
	C112.229332,263.914581 128.367462,243.758514 144.763794,223.819580 
	C153.358521,213.367905 167.725555,212.147110 177.830597,220.279999 
	C188.160995,228.594284 189.741150,242.749878 181.488907,253.740753 
	C178.889923,257.202271 176.094101,260.515991 173.169800,264.178528 
M146.503036,274.990967 
	C147.749573,273.430511 148.993698,271.868103 150.243042,270.309875 
	C157.010223,261.869598 163.870987,253.502151 170.509628,244.962006 
	C174.084671,240.362991 173.450226,235.245590 169.301224,231.583893 
	C165.227158,227.988342 160.067245,228.291702 155.917923,232.412491 
	C154.974594,233.349335 154.099075,234.363312 153.265869,235.400848 
	C138.465805,253.830338 123.662178,272.257019 108.893593,290.711731 
	C103.214432,297.808350 103.325226,303.456390 109.010475,310.500916 
	C118.209610,321.899475 127.350334,333.345123 136.531937,344.757843 
	C142.687866,352.409698 148.746872,360.144653 155.086823,367.641541 
	C159.383698,372.722534 164.741547,373.277771 169.102325,369.610992 
	C173.574631,365.850372 173.941956,360.664368 170.078430,355.459656 
	C169.086761,354.123718 168.038727,352.828949 166.995911,351.531830 
	C155.836960,337.652039 144.644928,323.798737 133.525497,309.887360 
	C128.757751,303.922516 128.792892,297.102570 133.528854,291.102478 
	C137.653580,285.876831 141.868439,280.722321 146.503036,274.990967 
z"/>
<path fill="#282930" opacity="1.000000" stroke="none" 
	d="
M335.941833,342.940918 
	C347.410034,328.650940 358.665009,314.646301 369.980682,300.566162 
	C357.723633,285.265228 345.641205,270.192963 333.570892,255.111008 
	C324.290375,243.514893 325.297058,229.207382 335.993378,220.438461 
	C346.573517,211.764786 361.173340,213.698883 370.424927,225.152039 
	C385.706421,244.070099 400.944153,263.023987 416.111359,282.033722 
	C425.818451,294.200012 425.838165,306.799164 416.160095,318.933319 
	C400.892334,338.075714 385.561401,357.168335 370.157654,376.201447 
	C363.472137,384.462128 354.823547,387.918976 344.411560,384.896667 
	C334.488617,382.016266 328.847870,374.949371 327.362823,364.817810 
	C326.093872,356.160461 330.253357,349.385559 335.941833,342.940918 
M382.222290,338.725067 
	C389.951263,329.132874 397.742157,319.589661 405.386871,309.930756 
	C410.263214,303.769653 410.677979,297.679474 406.238770,292.102875 
	C390.687805,272.567566 375.030396,253.115860 359.267395,233.751266 
	C354.788391,228.248871 349.454132,227.586304 344.941803,231.332108 
	C340.215240,235.255768 339.950134,240.516861 344.511871,246.250793 
	C356.326660,261.101746 368.254547,275.862640 380.121063,290.672485 
	C385.295105,297.129883 385.315887,303.806915 380.191650,310.239685 
	C376.042633,315.448181 371.850586,320.622375 367.682281,325.815491 
	C359.554352,335.941772 351.337067,345.998322 343.346466,356.231873 
	C339.851013,360.708496 340.665527,366.026093 344.869385,369.580872 
	C348.857086,372.952820 353.879791,372.673218 357.890320,368.759247 
	C359.196838,367.484253 360.362579,366.054443 361.510376,364.629150 
	C368.297058,356.201935 375.059509,347.755219 382.222290,338.725067 
z"/>
<path fill="#292A30" opacity="1.000000" stroke="none" 
	d="
M178.266998,108.541077 
	C182.656326,97.028534 191.545303,90.645653 202.116455,91.118507 
	C212.489944,91.582535 221.217407,98.433113 224.120865,108.390762 
	C226.863449,117.796692 223.619522,127.809547 215.885162,133.811493 
	C208.252411,139.734589 198.079239,140.507950 189.633789,135.807098 
	C181.162933,131.092117 176.398727,121.544365 177.700638,111.880638 
	C177.833832,110.892014 177.999939,109.907837 178.266998,108.541077 
M195.028091,122.598694 
	C201.364929,127.981056 210.189117,123.208664 210.999466,116.392136 
	C211.537262,111.868385 209.223053,107.755402 205.063721,105.969109 
	C200.968430,104.210320 196.226257,105.440727 193.481277,108.974319 
	C190.426895,112.906181 190.750824,117.182976 195.028091,122.598694 
z"/>
<path fill="#292A30" opacity="1.000000" stroke="none" 
	d="
M63.329533,98.344894 
	C71.663437,90.738869 80.761604,89.024033 90.747795,93.556946 
	C99.549294,97.552116 104.594193,106.541191 104.105286,116.691284 
	C103.664665,125.838882 97.450035,134.093018 88.542282,137.361740 
	C78.513657,141.041779 67.301369,137.586288 61.066113,128.893936 
	C54.470654,119.699440 55.234138,108.200417 63.329533,98.344894 
M88.868500,109.976593 
	C86.247597,106.197166 82.718208,104.324677 78.135933,105.443169 
	C74.291138,106.381645 71.656654,108.849823 70.908470,112.873207 
	C70.105064,117.193542 71.331184,120.834900 75.146172,123.268517 
	C78.939545,125.688339 82.835052,125.491547 86.329041,122.778236 
	C90.405945,119.612251 91.117638,115.411156 88.868500,109.976593 
z"/>
<path fill="#282A30" opacity="1.000000" stroke="none" 
	d="
M123.569351,98.587204 
	C132.541641,90.466019 142.826019,88.926651 152.269470,94.068527 
	C160.989532,98.816536 165.932083,108.741013 164.368973,118.363914 
	C162.625854,129.094879 155.164200,136.662201 144.447174,138.567825 
	C135.231979,140.206375 125.185249,135.425461 120.263863,127.059776 
	C114.953804,118.033379 116.059074,107.813873 123.569351,98.587204 
M150.062805,118.343239 
	C151.605988,113.871857 150.360779,110.138351 146.791153,107.261116 
	C143.505981,104.613159 139.778137,104.312759 136.100098,106.391212 
	C132.466721,108.444427 130.637741,111.721794 131.066864,115.910027 
	C131.540482,120.532860 134.262512,123.570610 138.735535,124.593010 
	C143.776749,125.745285 147.369034,123.402824 150.062805,118.343239 
z"/>
<path fill="#686DAD" opacity="1.000000" stroke="none" 
	d="
M282.068909,253.057251 
	C267.399506,297.852325 252.818893,342.257324 238.287857,386.678497 
	C236.983398,390.666199 235.283859,394.206787 230.696426,395.010010 
	C223.217163,396.319580 218.270599,390.046173 220.775696,382.279297 
	C227.106705,362.650299 233.563797,343.061981 239.975922,323.459198 
	C251.662292,287.732300 263.352356,252.006638 275.042725,216.281067 
	C275.508179,214.858643 275.903839,213.404922 276.484619,212.030258 
	C278.546539,207.149719 283.248840,204.808151 287.790649,206.329681 
	C292.565430,207.929260 295.080841,212.811172 293.452026,218.037689 
	C290.631073,227.089249 287.578003,236.068405 284.627289,245.079575 
	C283.799591,247.607300 282.989380,250.140732 282.068909,253.057251 
z"/>
<path fill="#686DAD" opacity="1.000000" stroke="none" 
	d="
M146.273254,275.263672 
	C141.868439,280.722321 137.653580,285.876831 133.528854,291.102478 
	C128.792892,297.102570 128.757751,303.922516 133.525497,309.887360 
	C144.644928,323.798737 155.836960,337.652039 166.995911,351.531830 
	C168.038727,352.828949 169.086761,354.123718 170.078430,355.459656 
	C173.941956,360.664368 173.574631,365.850372 169.102325,369.610992 
	C164.741547,373.277771 159.383698,372.722534 155.086823,367.641541 
	C148.746872,360.144653 142.687866,352.409698 136.531937,344.757843 
	C127.350334,333.345123 118.209610,321.899475 109.010475,310.500916 
	C103.325226,303.456390 103.214432,297.808350 108.893593,290.711731 
	C123.662178,272.257019 138.465805,253.830338 153.265869,235.400848 
	C154.099075,234.363312 154.974594,233.349335 155.917923,232.412491 
	C160.067245,228.291702 165.227158,227.988342 169.301224,231.583893 
	C173.450226,235.245590 174.084671,240.362991 170.509628,244.962006 
	C163.870987,253.502151 157.010223,261.869598 150.243042,270.309875 
	C148.993698,271.868103 147.749573,273.430511 146.273254,275.263672 
z"/>
<path fill="#686DAD" opacity="1.000000" stroke="none" 
	d="
M382.026184,339.020081 
	C375.059509,347.755219 368.297058,356.201935 361.510376,364.629150 
	C360.362579,366.054443 359.196838,367.484253 357.890320,368.759247 
	C353.879791,372.673218 348.857086,372.952820 344.869385,369.580872 
	C340.665527,366.026093 339.851013,360.708496 343.346466,356.231873 
	C351.337067,345.998322 359.554352,335.941772 367.682281,325.815491 
	C371.850586,320.622375 376.042633,315.448181 380.191650,310.239685 
	C385.315887,303.806915 385.295105,297.129883 380.121063,290.672485 
	C368.254547,275.862640 356.326660,261.101746 344.511871,246.250793 
	C339.950134,240.516861 340.215240,235.255768 344.941803,231.332108 
	C349.454132,227.586304 354.788391,228.248871 359.267395,233.751266 
	C375.030396,253.115860 390.687805,272.567566 406.238770,292.102875 
	C410.677979,297.679474 410.263214,303.769653 405.386871,309.930756 
	C397.742157,319.589661 389.951263,329.132874 382.026184,339.020081 
z"/>
<path fill="#F8AE57" opacity="1.000000" stroke="none" 
	d="
M194.750824,122.337479 
	C190.750824,117.182976 190.426895,112.906181 193.481277,108.974319 
	C196.226257,105.440727 200.968430,104.210320 205.063721,105.969109 
	C209.223053,107.755402 211.537262,111.868385 210.999466,116.392136 
	C210.189117,123.208664 201.364929,127.981056 194.750824,122.337479 
z"/>
<path fill="#F9788A" opacity="1.000000" stroke="none" 
	d="
M89.035255,110.338547 
	C91.117638,115.411156 90.405945,119.612251 86.329041,122.778236 
	C82.835052,125.491547 78.939545,125.688339 75.146172,123.268517 
	C71.331184,120.834900 70.105064,117.193542 70.908470,112.873207 
	C71.656654,108.849823 74.291138,106.381645 78.135933,105.443169 
	C82.718208,104.324677 86.247597,106.197166 89.035255,110.338547 
z"/>
<path fill="#30BEE9" opacity="1.000000" stroke="none" 
	d="
M149.945557,118.706528 
	C147.369034,123.402824 143.776749,125.745285 138.735535,124.593010 
	C134.262512,123.570610 131.540482,120.532860 131.066864,115.910027 
	C130.637741,111.721794 132.466721,108.444427 136.100098,106.391212 
	C139.778137,104.312759 143.505981,104.613159 146.791153,107.261116 
	C150.360779,110.138351 151.605988,113.871857 149.945557,118.706528 
z"/>
</svg>