<?xml version="1.0" encoding="UTF-8"?>
<svg version="1.1" xmlns="http://www.w3.org/2000/svg" width="300" height="168">
<path d="M0 0 C99 0 198 0 300 0 C300 55.44 300 110.88 300 168 C201 168 102 168 0 168 C0 112.56 0 57.12 0 0 Z " fill="#FEFEFE" transform="translate(0,0)"/>
<path d="M0 0 C0.74548096 0.00870117 1.49096191 0.01740234 2.2590332 0.02636719 C10.74381675 0.25112967 17.9574219 1.96167631 24.6875 7.375 C25.66009766 8.13876953 25.66009766 8.13876953 26.65234375 8.91796875 C33.89443374 15.24299707 37.06695089 23.44385695 38.05859375 32.921875 C38.28661722 44.56448509 34.82534718 53.46647575 27.1875 62.25 C17.33073731 70.62824829 8.2946242 72.37339093 -4.28271484 71.58642578 C-12.21492949 70.76019318 -19.0507486 67.33743689 -24.3125 61.375 C-26.52979652 58.48822989 -28.44492789 55.49659028 -30.3125 52.375 C-30.72886719 51.77171875 -31.14523438 51.1684375 -31.57421875 50.546875 C-36.02478796 43.36350013 -35.32149511 34.31907604 -33.6875 26.3125 C-31.07999975 18.11749921 -25.69127071 10.0164848 -18.3125 5.375 C-17.3225 5.375 -16.3325 5.375 -15.3125 5.375 C-15.3125 4.715 -15.3125 4.055 -15.3125 3.375 C-10.00298298 0.74459707 -5.89823218 -0.11469711 0 0 Z " fill="#FBF7F7" transform="translate(34.3125,44.625)"/>
<path d="M0 0 C0.74548096 0.00870117 1.49096191 0.01740234 2.2590332 0.02636719 C10.74381675 0.25112967 17.9574219 1.96167631 24.6875 7.375 C25.66009766 8.13876953 25.66009766 8.13876953 26.65234375 8.91796875 C33.89443374 15.24299707 37.06695089 23.44385695 38.05859375 32.921875 C38.28661722 44.56448509 34.82534718 53.46647575 27.1875 62.25 C17.33073731 70.62824829 8.2946242 72.37339093 -4.28271484 71.58642578 C-12.21492949 70.76019318 -19.0507486 67.33743689 -24.3125 61.375 C-26.52979652 58.48822989 -28.44492789 55.49659028 -30.3125 52.375 C-30.72886719 51.77171875 -31.14523438 51.1684375 -31.57421875 50.546875 C-36.02478796 43.36350013 -35.32149511 34.31907604 -33.6875 26.3125 C-31.07999975 18.11749921 -25.69127071 10.0164848 -18.3125 5.375 C-17.3225 5.375 -16.3325 5.375 -15.3125 5.375 C-15.3125 4.715 -15.3125 4.055 -15.3125 3.375 C-10.00298298 0.74459707 -5.89823218 -0.11469711 0 0 Z M-13.3125 11.375 C-14.3025 11.87 -14.3025 11.87 -15.3125 12.375 C-15.3125 13.035 -15.3125 13.695 -15.3125 14.375 C-15.869375 14.560625 -16.42625 14.74625 -17 14.9375 C-20.36034653 17.02636406 -22.51087529 19.86551543 -24.3125 23.375 C-26.46295617 33.00471569 -26.99635469 43.60237213 -21.859375 52.2890625 C-17.6528421 57.96150838 -12.3826312 62.06012804 -5.3125 63.375 C2.76210247 64.13199398 10.79529057 64.73172108 17.796875 59.98828125 C24.28363057 54.45309519 29.83438603 48.02038899 31.13671875 39.40234375 C31.59091386 30.93412831 29.7830132 24.2047414 24.6875 17.375 C16.82757575 10.05071503 9.43470729 6.89644237 -1.26171875 7.04296875 C-5.78652816 7.5354256 -9.37450432 9.1764329 -13.3125 11.375 Z " fill="#991819" transform="translate(34.3125,44.625)"/>
<path d="M0 0 C10.89 0 21.78 0 33 0 C33.061875 3.485625 33.12375 6.97125 33.1875 10.5625 C33.22846802 12.18973999 33.22846802 12.18973999 33.27026367 13.84985352 C33.33206509 21.07397462 32.5829456 25.98656346 27.75 31.625 C26.8425 32.40875 25.935 33.1925 25 34 C24.46117188 34.47953125 23.92234375 34.9590625 23.3671875 35.453125 C20.23817709 38.0068465 18.63258457 38.97740769 14.5 39.125 C9.18190749 37.41561312 5.43486325 34.96097978 2.125 30.4375 C0.22771331 26.32671217 -0.12169175 22.87804848 -0.09765625 18.359375 C-0.09515869 17.39483398 -0.09266113 16.43029297 -0.09008789 15.43652344 C-0.08098389 14.2199707 -0.07187988 13.00341797 -0.0625 11.75 C-0.041875 7.8725 -0.02125 3.995 0 0 Z " fill="#B72222" transform="translate(20,64)"/>
<path d="M0 0 C4.07804647 0.65540033 5.67832078 1.57958197 8.5 4.5625 C9.8125 7.3125 9.8125 7.3125 10.5 9.5625 C10.83 6.5925 11.16 3.6225 11.5 0.5625 C13.48 0.5625 15.46 0.5625 17.5 0.5625 C17.83 2.2125 18.16 3.8625 18.5 5.5625 C19.16 4.7375 19.82 3.9125 20.5 3.0625 C23.95211751 0.18573541 23.95211751 0.18573541 27.5625 0.125 C30.86648034 0.49210893 32.78761143 0.75424096 35.5 2.5625 C35.5 3.2225 35.5 3.8825 35.5 4.5625 C31.76562152 5.44117729 28.33225427 5.65162219 24.5 5.5625 C24.5 6.8825 24.5 8.2025 24.5 9.5625 C26.35625 9.9646875 26.35625 9.9646875 28.25 10.375 C34.22807018 11.9119152 34.22807018 11.9119152 36.5 14.5625 C37.0625 17.4375 37.0625 17.4375 36.5 20.5625 C34.5 23.4375 34.5 23.4375 31.5 25.5625 C26.22337471 26.1487917 22.46951707 25.55030683 17.5 23.5625 C17.5 24.2225 17.5 24.8825 17.5 25.5625 C15.52 25.5625 13.54 25.5625 11.5 25.5625 C11.17 24.5725 10.84 23.5825 10.5 22.5625 C9.6028125 23.0265625 9.6028125 23.0265625 8.6875 23.5 C4.47182183 25.54761511 1.16554597 25.96470224 -3.5 25.5625 C-6.1875 24.0390625 -6.1875 24.0390625 -8.5 21.5625 C-9.01659538 18.67260467 -9.2035312 16.49662404 -9.125 13.625 C-9.14433594 12.92181641 -9.16367188 12.21863281 -9.18359375 11.49414062 C-9.14669357 7.5568919 -8.6210424 5.71736906 -6.1796875 2.59375 C-3.5 0.5625 -3.5 0.5625 0 0 Z " fill="#828282" transform="translate(177.5,67.4375)"/>
<path d="M0 0 C2.8125 1.5 2.8125 1.5 5 3 C5.66 3 6.32 3 7 3 C7.33 2.01 7.66 1.02 8 0 C9.65 0 11.3 0 13 0 C13 3.63 13 7.26 13 11 C15.97 11 18.94 11 22 11 C22 7.37 22 3.74 22 0 C23.32 0 24.64 0 26 0 C26 7.92 26 15.84 26 24 C24.68 24 23.36 24 22 24 C22 20.7 22 17.4 22 14 C19.03 14 16.06 14 13 14 C13 17.63 13 21.26 13 25 C11.35 25 9.7 25 8 25 C7.505 22.525 7.505 22.525 7 20 C6.34 20 5.68 20 5 20 C4.67 20.99 4.34 21.98 4 23 C0.78421083 25.14385945 -1.231956 25.4719871 -5.0625 25.39453125 C-7 25 -7 25 -9.4375 22.625 C-12.82385879 16.93591724 -12.70457216 11.54361272 -12 5 C-8.80792572 -0.12666476 -5.86579829 -0.83797118 0 0 Z " fill="#E7E7E7" transform="translate(270,68)"/>
<path d="M0 0 C2.475 0.495 2.475 0.495 5 1 C5 1.66 5 2.32 5 3 C5.639375 3.103125 6.27875 3.20625 6.9375 3.3125 C7.618125 3.539375 8.29875 3.76625 9 4 C11.0455226 10.13656779 11.06078777 16.93898141 8.94140625 23.0546875 C4.69075842 31.37167323 -1.30522989 37.43639831 -10 41 C-12.76310463 41.25904106 -15.25200517 41.37706755 -18 41.3125 C-18.68578125 41.31572266 -19.3715625 41.31894531 -20.078125 41.32226562 C-24.39722349 41.27693158 -28.0327239 40.72885885 -32 39 C-32.875 36.875 -32.875 36.875 -33 35 C-33.66 35 -34.32 35 -35 35 C-35.33 33.68 -35.66 32.36 -36 31 C-36.66 31 -37.32 31 -38 31 C-37.67 29.35 -37.34 27.7 -37 26 C-33.44323406 27.11148935 -30.97981106 28.74643733 -28.125 31.0625 C-24.37278356 33.90296291 -21.86369905 35.34131221 -17 35 C-11.10709372 32.08809489 -6.21721605 28.58652959 -4.05078125 22.203125 C-3.80714844 21.22859375 -3.56351563 20.2540625 -3.3125 19.25 C-2.93544922 17.77273437 -2.93544922 17.77273437 -2.55078125 16.265625 C-2.36902344 15.51796875 -2.18726563 14.7703125 -2 14 C-1.34 14 -0.68 14 0 14 C0 9.38 0 4.76 0 0 Z " fill="#FAEDEB" transform="translate(55,67)"/>
<path d="M0 0 C0 1.65 0 3.3 0 5 C-1.65 5 -3.3 5 -5 5 C-5 5.66 -5 6.32 -5 7 C-6.4562545 7.67119549 -7.91507867 8.33681807 -9.375 9 C-10.18710937 9.37125 -10.99921875 9.7425 -11.8359375 10.125 C-14 11 -14 11 -16 11 C-16 11.66 -16 12.32 -16 13 C-16.763125 13.598125 -17.52625 14.19625 -18.3125 14.8125 C-23.00280462 18.63018981 -24.21440257 22.1393041 -25 28 C-25.59845712 36.91799222 -25.56415425 44.18763378 -21 52 C-20.33036983 53.33184746 -19.66336158 54.66501924 -19 56 C-18.608125 56.70125 -18.21625 57.4025 -17.8125 58.125 C-17.544375 58.74375 -17.27625 59.3625 -17 60 C-17.33 60.66 -17.66 61.32 -18 62 C-18.66 62 -19.32 62 -20 62 C-20 60.35 -20 58.7 -20 57 C-21.98 57.495 -21.98 57.495 -24 58 C-24.66 56.68 -25.32 55.36 -26 54 C-26.66 54.66 -27.32 55.32 -28 56 C-34.19224203 46.63265428 -36.5387181 39.44656149 -35 28 C-33.08154984 18.831456 -28.00246865 11.32031383 -20.9375 5.21875 C-19 4 -19 4 -16 4 C-16 3.34 -16 2.68 -16 2 C-10.23826317 -1.06475363 -6.37259801 -1.19937786 0 0 Z " fill="#A21613" transform="translate(35,46)"/>
<path d="M0 0 C1.98 0 3.96 0 6 0 C6.33 0.99 6.66 1.98 7 3 C7.33 2.01 7.66 1.02 8 0 C10.23046875 -0.3671875 10.23046875 -0.3671875 13 0 C15.23828125 2.5546875 15.23828125 2.5546875 17.3125 5.875 C18.00988281 6.96554688 18.70726562 8.05609375 19.42578125 9.1796875 C21 12 21 12 21 14 C21.66 14 22.32 14 23 14 C23 9.38 23 4.76 23 0 C24.32 0 25.64 0 27 0 C27 7.92 27 15.84 27 24 C25.35 24 23.7 24 22 24 C21.18432826 22.56429734 20.37257907 21.12636566 19.5625 19.6875 C19.11003906 18.88699219 18.65757812 18.08648437 18.19140625 17.26171875 C17 15 17 15 16 12 C15.34 12 14.68 12 14 12 C14 16.29 14 20.58 14 25 C9.38 25 4.76 25 0 25 C0 16.75 0 8.5 0 0 Z " fill="#0C0C0C" transform="translate(138,68)"/>
<path d="M0 0 C10.42315145 -0.48354826 19.6078152 0.2497644 28 7 C28.97259766 7.76376953 28.97259766 7.76376953 29.96484375 8.54296875 C37.07201818 14.75016579 40.46039677 22.99428607 41.30078125 32.34765625 C41.31074872 34.92258654 41.23538305 37.43694007 41 40 C40.01 39.505 40.01 39.505 39 39 C39.495 38.01 39.495 38.01 40 37 C38.35 36.67 36.7 36.34 35 36 C35 38.31 35 40.62 35 43 C34.01 43.495 34.01 43.495 33 44 C33.06960937 43.05640625 33.13921875 42.1128125 33.2109375 41.140625 C33.60279201 31.84807516 32.85255834 24.70316967 27 17 C18.50035807 9.16052443 10.1956954 7.68840845 -1 7 C-1 6.67 -1 6.34 -1 6 C0.65 6 2.3 6 4 6 C4 4.35 4 2.7 4 1 C2.68 0.67 1.36 0.34 0 0 Z " fill="#A01415" transform="translate(31,45)"/>
<path d="M0 0 C2.31 0.33 4.62 0.66 7 1 C6.67 1.70125 6.34 2.4025 6 3.125 C4.90955438 6.26003116 4.84677357 8.70563182 5 12 C4.34 12 3.68 12 3 12 C3 12.66 3 13.32 3 14 C3.99 14.33 4.98 14.66 6 15 C6 15.99 6 16.98 6 18 C7.32 18 8.64 18 10 18 C9.67 22.29 9.34 26.58 9 31 C12.9223894 31.98059735 15.98158793 32.21918611 20 32 C23.2117961 30.36221601 23.2117961 30.36221601 23.51171875 27.6171875 C23.56972656 26.71226563 23.62773438 25.80734375 23.6875 24.875 C23.75324219 23.96492188 23.81898437 23.05484375 23.88671875 22.1171875 C23.92410156 21.41851562 23.96148437 20.71984375 24 20 C23.34 20 22.68 20 22 20 C22 19.34 22 18.68 22 18 C25.37097383 16.50178941 27.20442119 16 31 16 C31.54737325 22.29479241 30.32632615 27.57470869 27 33 C23.18461467 36.7859229 19.78287756 38.9077822 14.375 39.1875 C9.16277709 37.35356972 5.40293564 34.91734537 2.125 30.4375 C0.22771331 26.32671217 -0.12169175 22.87804848 -0.09765625 18.359375 C-0.09443359 17.28945312 -0.09121094 16.21953125 -0.08789062 15.1171875 C-0.07951172 14.00601563 -0.07113281 12.89484375 -0.0625 11.75 C-0.05798828 10.62335938 -0.05347656 9.49671875 -0.04882812 8.3359375 C-0.03705397 5.55723783 -0.0206084 2.77864591 0 0 Z " fill="#B91517" transform="translate(20,64)"/>
<path d="M0 0 C1.98 0 3.96 0 6 0 C6.33 7.26 6.66 14.52 7 22 C7.33 14.74 7.66 7.48 8 0 C9.65 0 11.3 0 13 0 C13 6.93 13 13.86 13 21 C16.63 21 20.26 21 24 21 C24 22.65 24 24.3 24 26 C21.20865148 26.19425873 18.41716313 26.38069517 15.625 26.5625 C14.8309375 26.61857422 14.036875 26.67464844 13.21875 26.73242188 C7.2265625 27.11328125 7.2265625 27.11328125 5 26 C4.67 26.66 4.34 27.32 4 28 C4 27.34 4 26.68 4 26 C2.68 26 1.36 26 0 26 C0 17.42 0 8.84 0 0 Z " fill="#B1B1B1" transform="translate(94,68)"/>
<path d="M0 0 C2.475 0.495 2.475 0.495 5 1 C6.668076 6.50465082 5.25125039 10.59171989 2.703125 15.49609375 C-0.06979785 20.30582848 -2.8428536 24.31795604 -7 28 C-7.33 28.33 -7.66 28.66 -8 29 C-10.375 29.25 -10.375 29.25 -13 29 C-13.495 28.484375 -13.99 27.96875 -14.5 27.4375 C-14.995 26.963125 -15.49 26.48875 -16 26 C-18.65466049 26.23043864 -18.65466049 26.23043864 -21 27 C-19.74179908 24.48359816 -18.85906031 24.38448062 -16.3125 23.3125 C-9.16750748 19.85524556 -5.6704119 14.2694546 -3 7 C-2.34 7 -1.68 7 -1 7 C-0.67 4.69 -0.34 2.38 0 0 Z " fill="#B62829" transform="translate(66,81)"/>
<path d="M0 0 C1.98 0 3.96 0 6 0 C6.33 0.99 6.66 1.98 7 3 C7.33 2.01 7.66 1.02 8 0 C9.65 0 11.3 0 13 0 C11.68 0.33 10.36 0.66 9 1 C9 8.59 9 16.18 9 24 C10.32 24 11.64 24 13 24 C13 19.38 13 14.76 13 10 C13.66 10 14.32 10 15 10 C14.67 14.95 14.34 19.9 14 25 C9.38 25 4.76 25 0 25 C0 16.75 0 8.5 0 0 Z " fill="#B0B0B0" transform="translate(138,68)"/>
<path d="M0 0 C5.28 0 10.56 0 16 0 C16 1.32 16 2.64 16 4 C12.37 4 8.74 4 5 4 C5 6.31 5 8.62 5 11 C7.97 11 10.94 11 14 11 C14 11.99 14 12.98 14 14 C10.7 14 7.4 14 4 14 C4 16.31 4 18.62 4 21 C7.96 21 11.92 21 16 21 C16 22.32 16 23.64 16 25 C10.72 25 5.44 25 0 25 C0 16.75 0 8.5 0 0 Z " fill="#212121" transform="translate(240,68)"/>
<path d="M0 0 C3.4375 1.75 3.4375 1.75 6 4 C6 5.32 6 6.64 6 8 C4.35 8 2.7 8 1 8 C0.67 7.01 0.34 6.02 0 5 C-1.66611905 4.957279 -3.33382885 4.95936168 -5 5 C-6.33901792 6.11126659 -6.33901792 6.11126659 -6.09765625 8.94140625 C-6.08605469 10.13636719 -6.07445312 11.33132812 -6.0625 12.5625 C-6.05347656 13.76003906 -6.04445313 14.95757812 -6.03515625 16.19140625 C-6.02355469 17.11824219 -6.01195312 18.04507813 -6 19 C-4.02 19 -2.04 19 0 19 C0.33 18.34 0.66 17.68 1 17 C2.65 17 4.3 17 6 17 C5.68762196 19.88949684 5.35661121 21.58633099 3.4375 23.8125 C-0.05467864 25.5138178 -3.1942408 25.85961707 -7 25 C-11.3311842 20.77987181 -12.20106906 17.59446216 -12.375 11.6875 C-12.33133776 7.30187051 -12.29088657 5.46718146 -9.9375 1.6875 C-6.20769906 -0.4551516 -4.24504139 -0.67026969 0 0 Z " fill="#383838" transform="translate(270,68)"/>
<path d="M0 0 C2.5 1 2.5 1 4 2 C4 2.66 4 3.32 4 4 C0.26562152 4.87867729 -3.16774573 5.08912219 -7 5 C-7 6.32 -7 7.64 -7 9 C-5.7625 9.268125 -4.525 9.53625 -3.25 9.8125 C2.72807018 11.3494152 2.72807018 11.3494152 5 14 C5.5625 16.875 5.5625 16.875 5 20 C3.01068278 22.85964351 1.55962685 24.70042811 -1.97265625 25.37890625 C-5.74823067 25.48476348 -8.83537196 25.10975203 -12 23 C-11.67 21.68 -11.34 20.36 -11 19 C-10.01 19.33 -9.02 19.66 -8 20 C-5.66700175 20.03954234 -3.33291811 20.04401732 -1 20 C-0.67 18.35 -0.34 16.7 0 15 C-0.61488281 14.97421875 -1.22976562 14.9484375 -1.86328125 14.921875 C-8.43710021 14.46055437 -8.43710021 14.46055437 -11.0625 12.3125 C-12.29737834 9.26646676 -12.47532236 7.25935332 -12 4 C-8.98646945 -0.77142338 -5.1649612 -0.74087558 0 0 Z " fill="#212121" transform="translate(209,68)"/>
<path d="M0 0 C1.32 0 2.64 0 4 0 C4 7.92 4 15.84 4 24 C2.68 24 1.36 24 0 24 C0 20.7 0 17.4 0 14 C-2.97 14 -5.94 14 -9 14 C-9 17.3 -9 20.6 -9 24 C-10.32 24 -11.64 24 -13 24 C-13 16.41 -13 8.82 -13 1 C-11.68 1 -10.36 1 -9 1 C-9 4.3 -9 7.6 -9 11 C-6.03 11 -3.06 11 0 11 C0 7.37 0 3.74 0 0 Z " fill="#060606" transform="translate(292,68)"/>
<path d="M0 0 C0 0.66 0 1.32 0 2 C2.64 1.67 5.28 1.34 8 1 C8 1.66 8 2.32 8 3 C9.62553283 4.70680947 11.29115995 6.37660195 13 8 C9.41250689 9.19583104 6.707443 9.01782444 2.92578125 8.87890625 C2.2419487 8.85529526 1.55811615 8.83168427 0.8535614 8.80735779 C-1.32701226 8.7308855 -3.50721595 8.64679119 -5.6875 8.5625 C-7.1672997 8.50926281 -8.64711738 8.45652252 -10.12695312 8.40429688 C-13.75152817 8.27529303 -17.37581023 8.13945273 -21 8 C-16.38105622 -0.03764477 -9.13825101 -3.04608367 0 0 Z " fill="#FCFAF9" transform="translate(42,54)"/>
<path d="M0 0 C5.61 0 11.22 0 17 0 C17 1.65 17 3.3 17 5 C15.02 5 13.04 5 11 5 C11 11.6 11 18.2 11 25 C9.35 25 7.7 25 6 25 C6 18.07 6 11.14 6 4 C4.02 4 2.04 4 0 4 C0 2.68 0 1.36 0 0 Z " fill="#383838" transform="translate(221,68)"/>
<path d="M0 0 C1.24273302 3.76614509 0.96076615 7.25644349 0.8125 11.1875 C0.68220996 17.67767051 1.72905201 22.40118756 5 28 C5.66963017 29.33184746 6.33663842 30.66501924 7 32 C7.391875 32.70125 7.78375 33.4025 8.1875 34.125 C8.455625 34.74375 8.72375 35.3625 9 36 C8.67 36.66 8.34 37.32 8 38 C7.34 38 6.68 38 6 38 C6 36.35 6 34.7 6 33 C4.02 33.495 4.02 33.495 2 34 C1.34 32.68 0.68 31.36 0 30 C-0.66 30.66 -1.32 31.32 -2 32 C-3.17993203 29.94414903 -4.34378455 27.88163459 -5.5 25.8125 C-6.1496875 24.66394531 -6.799375 23.51539062 -7.46875 22.33203125 C-8.93169679 19.14862918 -9.36140832 17.42692535 -9 14 C-8.01 15.485 -8.01 15.485 -7 17 C-4.52733235 16.65555119 -4.52733235 16.65555119 -2 16 C-1.67 15.34 -1.34 14.68 -1 14 C-2.98 14 -4.96 14 -7 14 C-7 13.34 -7 12.68 -7 12 C-5.35 12 -3.7 12 -2 12 C-1.90912109 11.07767578 -1.90912109 11.07767578 -1.81640625 10.13671875 C-1.73261719 9.32847656 -1.64882812 8.52023438 -1.5625 7.6875 C-1.48128906 6.88699219 -1.40007813 6.08648437 -1.31640625 5.26171875 C-1 3 -1 3 0 0 Z " fill="#AF2526" transform="translate(9,70)"/>
<path d="M0 0 C1.32 0.33 2.64 0.66 4 1 C2.95883498 3.10643108 1.89597964 5.19303779 0.78125 7.26171875 C-2.15691295 12.82452117 -3.90082839 17.80466908 -5 24 C-6.65 24 -8.3 24 -10 24 C-10 24.66 -10 25.32 -10 26 C-8.02 26 -6.04 26 -4 26 C-4.33 26.99 -4.66 27.98 -5 29 C-6.98 29.33 -8.96 29.66 -11 30 C-13.20091563 22.26129665 -12.40800464 15.20924059 -9 8 C-8.34 7.67 -7.68 7.34 -7 7 C-7 7.66 -7 8.32 -7 9 C-6.01 9 -5.02 9 -4 9 C-3.34 7.68 -2.68 6.36 -2 5 C-2.99 4.67 -3.98 4.34 -5 4 C-4.34 3.34 -3.68 2.68 -3 2 C-3 2.66 -3 3.32 -3 4 C-2.01 3.67 -1.02 3.34 0 3 C0 2.01 0 1.02 0 0 Z " fill="#A7191E" transform="translate(12,58)"/>
<path d="M0 0 C1.65 0 3.3 0 5 0 C5 6.93 5 13.86 5 21 C8.63 21 12.26 21 16 21 C16 22.32 16 23.64 16 25 C10.72 25 5.44 25 0 25 C0 16.75 0 8.5 0 0 Z " fill="#272727" transform="translate(120,68)"/>
<path d="M0 0 C3.55676594 1.11148935 6.02018894 2.74643733 8.875 5.0625 C13.09557254 8.34783203 16.67889758 9 22 9 C22.33 9.66 22.66 10.32 23 11 C23.99 10.34 24.98 9.68 26 9 C26.99 9 27.98 9 29 9 C28 12 28 12 26.44140625 13.17578125 C22.95724151 14.35203526 19.56904082 14.24960556 15.9375 14.1875 C15.21755859 14.18685547 14.49761719 14.18621094 13.75585938 14.18554688 C10.58250863 14.15902862 8.02950606 14.00983535 5 13 C4.3125 10.9375 4.3125 10.9375 4 9 C3.34 9 2.68 9 2 9 C1.67 7.68 1.34 6.36 1 5 C0.34 5 -0.32 5 -1 5 C-0.67 3.35 -0.34 1.7 0 0 Z " fill="#FCEAE9" transform="translate(18,93)"/>
<path d="M0 0 C0.33 0 0.66 0 1 0 C1 1.65 1 3.3 1 5 C-2.63 5 -6.26 5 -10 5 C-10 6.65 -10 8.3 -10 10 C-7.03 10 -4.06 10 -1 10 C-0.67 10.66 -0.34 11.32 0 12 C0.66 10.68 1.32 9.36 2 8 C2.06058594 8.67546875 2.12117188 9.3509375 2.18359375 10.046875 C2.26738281 10.93890625 2.35117187 11.8309375 2.4375 12.75 C2.51871094 13.63171875 2.59992188 14.5134375 2.68359375 15.421875 C2.96238465 17.69350452 3.38790577 19.79851823 4 22 C2.68 22.99 1.36 23.98 0 25 C0 23.68 0 22.36 0 21 C-3.96 21 -7.92 21 -12 21 C-12 18.69 -12 16.38 -12 14 C-8.7 14 -5.4 14 -2 14 C-2 13.01 -2 12.02 -2 11 C-4.97 11 -7.94 11 -11 11 C-11 8.69 -11 6.38 -11 4 C-7.37 4 -3.74 4 0 4 C0 2.68 0 1.36 0 0 Z " fill="#CACACA" transform="translate(256,68)"/>
<path d="M0 0 C1.36125 0.185625 2.7225 0.37125 4.125 0.5625 C7.95775121 0.99845274 11.21178569 0.8742033 15 0 C15.61770762 8.18462594 15.61770762 8.18462594 13.4375 11.0625 C10.1196167 12.33860896 7.52778568 12.31498086 4 12 C2.68 11.34 1.36 10.68 0 10 C0 6.7 0 3.4 0 0 Z " fill="#EEAFAD" transform="translate(29,85)"/>
<path d="M0 0 C5.7182853 3.10421202 10.12564089 7.09159517 13 13 C12.67 13.66 12.34 14.32 12 15 C11.34 14.67 10.68 14.34 10 14 C10 13.34 10 12.68 10 12 C7.525 11.505 7.525 11.505 5 11 C5.08378906 11.84304687 5.16757812 12.68609375 5.25390625 13.5546875 C5.40666016 15.19824219 5.40666016 15.19824219 5.5625 16.875 C5.71912109 18.51082031 5.71912109 18.51082031 5.87890625 20.1796875 C6 23 6 23 5 25 C4.34 25 3.68 25 3 25 C3 19.39 3 13.78 3 8 C-7.89 8 -18.78 8 -30 8 C-30 14.27 -30 20.54 -30 27 C-30.33 27 -30.66 27 -31 27 C-31 20.4 -31 13.8 -31 7 C-13.675 6.505 -13.675 6.505 4 6 C3.34 4.68 2.68 3.36 2 2 C1.01 1.67 0.02 1.34 -1 1 C-0.67 0.67 -0.34 0.34 0 0 Z " fill="#EAB0AF" transform="translate(50,56)"/>
<path d="M0 0 C5.56818182 0.56818182 5.56818182 0.56818182 7 2 C7.12537741 4.14307896 7.17574364 6.29078886 7.1875 8.4375 C7.20167969 9.61183594 7.21585938 10.78617188 7.23046875 11.99609375 C7 15 7 15 5 17 C1.875 17.125 1.875 17.125 -1 17 C-2.4241906 14.15161879 -2.16995508 11.67212092 -2.1875 8.5 C-2.20876953 6.75203125 -2.20876953 6.75203125 -2.23046875 4.96875 C-2 2 -2 2 0 0 Z " fill="#E0E0E0" transform="translate(175,72)"/>
<path d="M0 0 C1.65 0 3.3 0 5 0 C5.33 0.99 5.66 1.98 6 3 C6.66 3.33 7.32 3.66 8 4 C8.95067299 7.28414305 9.10102197 8.69693408 8 12 C6.67696283 12.3721042 5.34262065 12.70630173 4 13 C3.67 13.66 3.34 14.32 3 15 C2.01 15 1.02 15 0 15 C0 14.01 0 13.02 0 12 C-1.65 11.67 -3.3 11.34 -5 11 C-4.67 8.69 -4.34 6.38 -4 4 C-2.68 3.67 -1.36 3.34 0 3 C0 2.01 0 1.02 0 0 Z " fill="#DE8180" transform="translate(42,66)"/>
<path d="M0 0 C1.32 0 2.64 0 4 0 C4 6.93 4 13.86 4 21 C7.63 21 11.26 21 15 21 C15 21.99 15 22.98 15 24 C10.05 24 5.1 24 0 24 C0 16.08 0 8.16 0 0 Z " fill="#0C0C0C" transform="translate(103,68)"/>
<path d="M0 0 C0.33 0 0.66 0 1 0 C1.04898437 1.26714844 1.09796875 2.53429687 1.1484375 3.83984375 C1.22354191 5.53908096 1.29908632 7.23829876 1.375 8.9375 C1.4059375 9.76830078 1.436875 10.59910156 1.46875 11.45507812 C1.80549442 18.66702102 2.555033 25.56031182 6 32 C4.02 31.01 2.04 30.02 0 29 C-0.495 31.475 -0.495 31.475 -1 34 C-0.34 34 0.32 34 1 34 C1.33 35.32 1.66 36.64 2 38 C2.66 38 3.32 38 4 38 C4.33 38.99 4.66 39.98 5 41 C-0.2683902 39.60542612 -2.97091462 36.30494656 -6 32 C-7.78938062 28.89926825 -9.15726728 26.22668478 -8.6875 22.5625 C-8.460625 22.046875 -8.23375 21.53125 -8 21 C-7.71125 21.7425 -7.4225 22.485 -7.125 23.25 C-6.17697356 25.56739797 -5.15154089 27.77917115 -4 30 C-3.34 28.02 -2.68 26.04 -2 24 C-1.34 24 -0.68 24 0 24 C-0.08378906 23.35675781 -0.16757812 22.71351562 -0.25390625 22.05078125 C-1.09713105 14.5684954 -0.77285696 7.47887737 0 0 Z " fill="#FDE9EA" transform="translate(18,64)"/>
<path d="M0 0 C0.433125 0.45375 0.86625 0.9075 1.3125 1.375 C3.10798342 3.20024334 3.10798342 3.20024334 6 5 C0.4174808 8.32575612 -3.49686791 9.46450943 -10 9 C-10 7.68 -10 6.36 -10 5 C-10.99 4.67 -11.98 4.34 -13 4 C-12.67 5.65 -12.34 7.3 -12 9 C-12.66 9 -13.32 9 -14 9 C-14 7.35 -14 5.7 -14 4 C-14.99 4.33 -15.98 4.66 -17 5 C-17.73323796 7.01508358 -17.73323796 7.01508358 -18 9 C-18.99 8.67 -19.98 8.34 -21 8 C-20.67 6.35 -20.34 4.7 -20 3 C-19.42967041 2.94465088 -18.85934082 2.88930176 -18.27172852 2.83227539 C-15.70151247 2.58026257 -13.13202369 2.32147272 -10.5625 2.0625 C-9.21575195 1.93198242 -9.21575195 1.93198242 -7.84179688 1.79882812 C-6.98779297 1.71181641 -6.13378906 1.62480469 -5.25390625 1.53515625 C-4.06776733 1.41732788 -4.06776733 1.41732788 -2.85766602 1.29711914 C-0.98896652 1.18448501 -0.98896652 1.18448501 0 0 Z " fill="#BF2324" transform="translate(50,106)"/>
<path d="M0 0 C2.5 1 2.5 1 4 2 C4 2.66 4 3.32 4 4 C0.26562152 4.87867729 -3.16774573 5.08912219 -7 5 C-6.81171228 7.44480079 -6.81171228 7.44480079 -6 10 C-4.03241727 11.36020151 -4.03241727 11.36020151 -2 12 C-2.33 12.66 -2.66 13.32 -3 14 C-5.8125 14.25 -5.8125 14.25 -9 14 C-11.56002346 11.781313 -11.94923191 10.34812407 -12.4375 7 C-12 4 -12 4 -10.5 1.625 C-6.99309024 -0.65449134 -4.07498472 -0.5845265 0 0 Z " fill="#1E1E1E" transform="translate(209,68)"/>
<path d="M0 0 C0.99 0 1.98 0 3 0 C3 7.59 3 15.18 3 23 C1.35 23 -0.3 23 -2 23 C-3.61949011 20.42786866 -4.04408751 19.32330841 -3.625 16.25 C-3.41875 15.5075 -3.2125 14.765 -3 14 C-2.01 14 -1.02 14 0 14 C0 9.38 0 4.76 0 0 Z " fill="#030303" transform="translate(162,69)"/>
<path d="M0 0 C1.32 0 2.64 0 4 0 C4 7.92 4 15.84 4 24 C2.68 24 1.36 24 0 24 C0 16.08 0 8.16 0 0 Z " fill="#131313" transform="translate(94,68)"/>
<path d="M0 0 C3.4375 1.75 3.4375 1.75 6 4 C6 5.32 6 6.64 6 8 C4.35 8 2.7 8 1 8 C0.67 7.01 0.34 6.02 0 5 C-1.65 5 -3.3 5 -5 5 C-6.32 7.31 -7.64 9.62 -9 12 C-9.66 12 -10.32 12 -11 12 C-10.91253716 10.56138706 -10.80434652 9.12402492 -10.6875 7.6875 C-10.62949219 6.88699219 -10.57148438 6.08648437 -10.51171875 5.26171875 C-9.2029393 -0.52288662 -5.30285177 -0.62915191 0 0 Z " fill="#242424" transform="translate(270,68)"/>
<path d="M0 0 C1.32 0 2.64 0 4 0 C4 7.59 4 15.18 4 23 C2.68 23 1.36 23 0 23 C0 15.41 0 7.82 0 0 Z " fill="#040404" transform="translate(190,69)"/>
<path d="M0 0 C1.32 0.33 2.64 0.66 4 1 C4.1875 3.875 4.1875 3.875 4 7 C3.01 7.66 2.02 8.32 1 9 C2.32 9.33 3.64 9.66 5 10 C5 10.66 5 11.32 5 12 C4.01 12 3.02 12 2 12 C1.67 12.99 1.34 13.98 1 15 C-1 14 -3 13 -5 12 C-4.64766839 6.5388601 -4.64766839 6.5388601 -4 4 C-1.9375 2.5 -1.9375 2.5 0 2 C0 1.34 0 0.68 0 0 Z " fill="#E68A88" transform="translate(28,66)"/>
<path d="M0 0 C0.36263859 5.8022175 -0.74315457 9.63999211 -3 15 C-4.32 14.67 -5.64 14.34 -7 14 C-7 10.7 -7 7.4 -7 4 C-7.66 4 -8.32 4 -9 4 C-9 3.34 -9 2.68 -9 2 C-5.62902617 0.50178941 -3.79557881 0 0 0 Z " fill="#B9070B" transform="translate(51,80)"/>
<path d="M0 0 C1.32 0.33 2.64 0.66 4 1 C4 7.6 4 14.2 4 21 C2.68 21 1.36 21 0 21 C0 14.07 0 7.14 0 0 Z " fill="#0C0C0C" transform="translate(227,71)"/>
<path d="M0 0 C5.28 0 10.56 0 16 0 C15.67 0.66 15.34 1.32 15 2 C14.34 1.67 13.68 1.34 13 1 C13 1.99 13 2.98 13 4 C11.68 4.33 10.36 4.66 9 5 C9 5.66 9 6.32 9 7 C8.34 7 7.68 7 7 7 C7 8.98 7 10.96 7 13 C6.34 13 5.68 13 5 13 C4.67 11.35 4.34 9.7 4 8 C3.67 8 3.34 8 3 8 C3 6.02 3 4.04 3 2 C2.01 2 1.02 2 0 2 C0 1.34 0 0.68 0 0 Z " fill="#BC1114" transform="translate(29,65)"/>
<path d="M0 0 C1.98 0.66 3.96 1.32 6 2 C6 2.66 6 3.32 6 4 C4.35 3.67 2.7 3.34 1 3 C0.67 5.31 0.34 7.62 0 10 C1.32 10.33 2.64 10.66 4 11 C4.33 12.32 4.66 13.64 5 15 C3.35 15 1.7 15 0 15 C0 15.66 0 16.32 0 17 C1.98 17 3.96 17 6 17 C5.67 17.99 5.34 18.98 5 20 C3.02 20.33 1.04 20.66 -1 21 C-3.03832848 13.9066169 -2.39769551 6.8933746 0 0 Z " fill="#CE2F31" transform="translate(2,67)"/>
<path d="M0 0 C1.65322266 0.01740234 1.65322266 0.01740234 3.33984375 0.03515625 C4.99693359 0.04869141 4.99693359 0.04869141 6.6875 0.0625 C7.54214844 0.07410156 8.39679687 0.08570312 9.27734375 0.09765625 C9.27734375 0.42765625 9.27734375 0.75765625 9.27734375 1.09765625 C5.64734375 1.09765625 2.01734375 1.09765625 -1.72265625 1.09765625 C-1.72265625 2.74765625 -1.72265625 4.39765625 -1.72265625 6.09765625 C-1.06265625 6.42765625 -0.40265625 6.75765625 0.27734375 7.09765625 C0.60734375 5.44765625 0.93734375 3.79765625 1.27734375 2.09765625 C2.26734375 2.09765625 3.25734375 2.09765625 4.27734375 2.09765625 C4.27734375 3.74765625 4.27734375 5.39765625 4.27734375 7.09765625 C4.60734375 5.44765625 4.93734375 3.79765625 5.27734375 2.09765625 C6.59734375 2.42765625 7.91734375 2.75765625 9.27734375 3.09765625 C9.27734375 4.08765625 9.27734375 5.07765625 9.27734375 6.09765625 C10.59734375 6.75765625 11.91734375 7.41765625 13.27734375 8.09765625 C10.52707958 8.15170074 7.77788172 8.19134931 5.02734375 8.22265625 C4.25003906 8.23941406 3.47273438 8.25617188 2.671875 8.2734375 C-4.44696769 8.33428231 -4.44696769 8.33428231 -7.72265625 6.09765625 C-6.40265625 6.09765625 -5.08265625 6.09765625 -3.72265625 6.09765625 C-3.74328125 5.29328125 -3.76390625 4.48890625 -3.78515625 3.66015625 C-3.6984952 0.10705314 -3.5643909 0.12784759 0 0 Z " fill="#DA6060" transform="translate(31.72265625,107.90234375)"/>
<path d="M0 0 C2.475 0.495 2.475 0.495 5 1 C5 1.66 5 2.32 5 3 C5.66 3 6.32 3 7 3 C7 6.3 7 9.6 7 13 C5.02 13 3.04 13 1 13 C-0.00496852 9.98509443 -0.10335303 7.95818308 -0.0625 4.8125 C-0.05347656 3.91144531 -0.04445312 3.01039062 -0.03515625 2.08203125 C-0.02355469 1.39496094 -0.01195312 0.70789063 0 0 Z " fill="#FAFAFB" transform="translate(55,67)"/>
<path d="M0 0 C2.53731364 1.26865682 2.78646846 2.49709121 4 5 C4.66 5.66 5.32 6.32 6 7 C3 8 3 8 0 7 C-0.33 7.99 -0.66 8.98 -1 10 C-2.32 9.67 -3.64 9.34 -5 9 C-4.34 10.32 -3.68 11.64 -3 13 C-3.99 14.485 -3.99 14.485 -5 16 C-8 15 -8 15 -8.9296875 13.26171875 C-9.03679424 9.816452 -7.31920125 8.38252464 -5.125 5.8125 C-4.38507812 4.93207031 -3.64515625 4.05164062 -2.8828125 3.14453125 C-1 1 -1 1 0 0 Z " fill="#C83C3C" transform="translate(13,52)"/>
<path d="M0 0 C1.65 0 3.3 0 5 0 C3.68 0.33 2.36 0.66 1 1 C1 8.59 1 16.18 1 24 C2.32 24.33 3.64 24.66 5 25 C3.35 25 1.7 25 0 25 C-0.33 24.01 -0.66 23.02 -1 22 C-2.98 22.66 -4.96 23.32 -7 24 C-6.51917969 23.48953125 -6.03835937 22.9790625 -5.54296875 22.453125 C-3.48262506 19.17743934 -3.49039226 16.59247281 -3.3125 12.75 C-3.24675781 11.48671875 -3.18101562 10.2234375 -3.11328125 8.921875 C-3.05720703 7.47554688 -3.05720703 7.47554688 -3 6 C-2.01 7.485 -2.01 7.485 -1 9 C-0.67 6.03 -0.34 3.06 0 0 Z " fill="#ACACAC" transform="translate(189,68)"/>
<path d="M0 0 C0.8971875 0.7734375 0.8971875 0.7734375 1.8125 1.5625 C2.534375 2.036875 3.25625 2.51125 4 3 C4.99 2.67 5.98 2.34 7 2 C5.78290955 4.5356051 4.45735584 6.89875439 3 9.3125 C0.98671733 12.78315893 -0.04767172 16.11132619 -1 20 C-1.33 20 -1.66 20 -2 20 C-2.05379226 17.04142591 -2.09357093 14.08382279 -2.125 11.125 C-2.14175781 10.28324219 -2.15851563 9.44148438 -2.17578125 8.57421875 C-2.18222656 7.76855469 -2.18867187 6.96289062 -2.1953125 6.1328125 C-2.21102295 5.01737061 -2.21102295 5.01737061 -2.22705078 3.87939453 C-2 2 -2 2 0 0 Z " fill="#F8F0EF" transform="translate(2,54)"/>
<path d="M0 0 C0.66 0.33 1.32 0.66 2 1 C2.10841951 2.91541138 2.18578079 4.83259773 2.25 6.75 C2.29640625 7.81734375 2.3428125 8.8846875 2.390625 9.984375 C2 13 2 13 0.1875 15.375 C-2.66265851 17.4922606 -4.53309073 17.31517357 -8 17 C-7.34 16.67 -6.68 16.34 -6 16 C-6 15.34 -6 14.68 -6 14 C-5.01 13.34 -4.02 12.68 -3 12 C-2.49140984 9.37472973 -2.49140984 9.37472973 -2.4375 6.4375 C-2.30859375 3.43359375 -2.30859375 3.43359375 -2 1 C-1.34 0.67 -0.68 0.34 0 0 Z " fill="#090909" transform="translate(184,75)"/>
<path d="M0 0 C0.99 0 1.98 0 3 0 C3.08096803 1.45742463 3.13917774 2.91612807 3.1875 4.375 C3.22230469 5.18710938 3.25710937 5.99921875 3.29296875 6.8359375 C3.19628906 7.55007812 3.09960938 8.26421875 3 9 C-0.22791555 11.1519437 -1.28400809 11.20086443 -5 11 C-5 8.36 -5 5.72 -5 3 C-4.360625 2.690625 -3.72125 2.38125 -3.0625 2.0625 C-1.06389179 1.1654837 -1.06389179 1.1654837 0 0 Z " fill="#F5C8C9" transform="translate(41,85)"/>
<path d="M0 0 C0.763125 0.20625 1.52625 0.4125 2.3125 0.625 C-3.59659091 6.87175325 -3.59659091 6.87175325 -7.6875 8.625 C-11.3541057 8.49856532 -13.73144157 8.39601487 -16.625 6.0625 C-17.1509375 5.3509375 -17.1509375 5.3509375 -17.6875 4.625 C-16.3675 4.625 -15.0475 4.625 -13.6875 4.625 C-13.6875 5.285 -13.6875 5.945 -13.6875 6.625 C-11.7075 6.625 -9.7275 6.625 -7.6875 6.625 C-7.6875 5.965 -7.6875 5.305 -7.6875 4.625 C-12.1425 3.635 -12.1425 3.635 -16.6875 2.625 C-16.6875 1.965 -16.6875 1.305 -16.6875 0.625 C-16.171875 0.79 -15.65625 0.955 -15.125 1.125 C-11.90626586 1.78525316 -8.96472861 1.80375792 -5.6875 1.625 C-2.6875 -0.375 -2.6875 -0.375 0 0 Z " fill="#B5262A" transform="translate(45.6875,94.375)"/>
<path d="M0 0 C0.99 0 1.98 0 3 0 C3 7.59 3 15.18 3 23 C2.01 23 1.02 23 0 23 C0 15.41 0 7.82 0 0 Z " fill="#010101" transform="translate(139,69)"/>
<path d="M0 0 C0.66 0.33 1.32 0.66 2 1 C2 1.99 2 2.98 2 4 C3.32 4 4.64 4 6 4 C5.67 7.63 5.34 11.26 5 15 C4.34 14.01 3.68 13.02 3 12 C0.41619823 11.74969023 0.41619823 11.74969023 -2 12 C-2 9.36 -2 6.72 -2 4 C-1.34 4 -0.68 4 0 4 C0 2.68 0 1.36 0 0 Z " fill="#B10B0E" transform="translate(24,78)"/>
<path d="M0 0 C1.23816075 3.74262227 0.99631716 7.15837296 0.75 11.0625 C0.68296875 12.29097656 0.6159375 13.51945312 0.546875 14.78515625 C0 18 0 18 -1.3828125 19.94921875 C-3 21 -3 21 -5.625 20.75 C-8 20 -8 20 -9 19 C-9.04063832 17.33382885 -9.042721 15.66611905 -9 14 C-8.01 15.485 -8.01 15.485 -7 17 C-4.52733235 16.65555119 -4.52733235 16.65555119 -2 16 C-1.67 15.34 -1.34 14.68 -1 14 C-2.98 14 -4.96 14 -7 14 C-7 13.34 -7 12.68 -7 12 C-5.35 12 -3.7 12 -2 12 C-1.90912109 11.07767578 -1.90912109 11.07767578 -1.81640625 10.13671875 C-1.73261719 9.32847656 -1.64882812 8.52023438 -1.5625 7.6875 C-1.48128906 6.88699219 -1.40007813 6.08648437 -1.31640625 5.26171875 C-1 3 -1 3 0 0 Z " fill="#DE6969" transform="translate(9,70)"/>
<path d="M0 0 C1.32 0.33 2.64 0.66 4 1 C3.67 1.99 3.34 2.98 3 4 C3.66 4 4.32 4 5 4 C8.65859862 11.77452207 9.47318445 20.08938518 6.98046875 28.3984375 C6.65691406 29.25695312 6.33335938 30.11546875 6 31 C4.90673665 27.72020994 5.06223356 25.68100489 5.25 22.25 C5.359416 14.16233416 2.87948596 7.43524409 0 0 Z " fill="#F8C8C9" transform="translate(66,59)"/>
<path d="M0 0 C-0.66 0.66 -1.32 1.32 -2 2 C-3.32 2 -4.64 2 -6 2 C-6 1.34 -6 0.68 -6 0 C-13.18850409 -0.53029948 -17.83600514 0.31236989 -24 4 C-26.0390625 5.1953125 -26.0390625 5.1953125 -28 6 C-28.99 5.67 -29.98 5.34 -31 5 C-30.34 5 -29.68 5 -29 5 C-29 4.34 -29 3.68 -29 3 C-20.63619369 -2.90386328 -9.4541903 -4.20186235 0 0 Z " fill="#F0B2AD" transform="translate(48,54)"/>
<path d="M0 0 C0.33 0 0.66 0 1 0 C1.33 4.95 1.66 9.9 2 15 C2.33 12.03 2.66 9.06 3 6 C3.33 6 3.66 6 4 6 C4 10.95 4 15.9 4 21 C4.99 21.33 5.98 21.66 7 22 C4.35261084 23.4606285 3.10551666 24 0 24 C0 16.08 0 8.16 0 0 Z " fill="#B8B8B8" transform="translate(165,68)"/>
<path d="M0 0 C2.31 0.33 4.62 0.66 7 1 C6.67 1.70125 6.34 2.4025 6 3.125 C4.90955438 6.26003116 4.84677357 8.70563182 5 12 C4.34 12 3.68 12 3 12 C3 10.68 3 9.36 3 8 C2.34 8 1.68 8 1 8 C1 12.62 1 17.24 1 22 C0.67 22 0.34 22 0 22 C0 14.74 0 7.48 0 0 Z " fill="#AE0D0C" transform="translate(20,64)"/>
<path d="M0 0 C1.65 0.33 3.3 0.66 5 1 C6.05404945 4.98196457 5.84098656 7.98195309 5 12 C2.36 11.34 -0.28 10.68 -3 10 C-2.67 9.01 -2.34 8.02 -2 7 C-1.67 7 -1.34 7 -1 7 C-0.67 4.69 -0.34 2.38 0 0 Z " fill="#C43838" transform="translate(66,81)"/>
<path d="M0 0 C0.99 0 1.98 0 3 0 C3.66 1.32 4.32 2.64 5 4 C1.730187 7.87533393 1.730187 7.87533393 -1.5625 8.4375 C-4 8 -4 8 -5.5 6.4375 C-5.995 5.963125 -6.49 5.48875 -7 5 C-9.65466049 5.23043864 -9.65466049 5.23043864 -12 6 C-11 4 -11 4 -8.1875 2.75 C-5 2 -5 2 -2.625 2.875 C-2.08875 3.24625 -1.5525 3.6175 -1 4 C-0.67 2.68 -0.34 1.36 0 0 Z " fill="#C83939" transform="translate(57,102)"/>
<path d="M0 0 C1.32 0.33 2.64 0.66 4 1 C3.01 1 2.02 1 1 1 C1 5.62 1 10.24 1 15 C0.01 15 -0.98 15 -2 15 C-2.33 15.99 -2.66 16.98 -3 18 C-5.52588702 15.63707344 -6.88820837 14.33537489 -8 11 C-7.5625 8.3125 -7.5625 8.3125 -7 6 C-4.20127563 8.52788007 -2.54226981 10.20411134 -2 14 C-1.34 14 -0.68 14 0 14 C0 9.38 0 4.76 0 0 Z " fill="#252525" transform="translate(161,68)"/>
<path d="M0 0 C4.95 0 9.9 0 15 0 C15 0.99 15 1.98 15 3 C11.37 3 7.74 3 4 3 C4 4.98 4 6.96 4 9 C3.67 7.68 3.34 6.36 3 5 C2.01 5 1.02 5 0 5 C0 3.35 0 1.7 0 0 Z " fill="#0E0E0E" transform="translate(241,69)"/>
<path d="M0 0 C1.22589844 0.15275391 1.22589844 0.15275391 2.4765625 0.30859375 C3.41628906 0.43427734 3.41628906 0.43427734 4.375 0.5625 C4.375 2.2125 4.375 3.8625 4.375 5.5625 C2.725 5.5625 1.075 5.5625 -0.625 5.5625 C-0.955 6.2225 -1.285 6.8825 -1.625 7.5625 C-2.615 6.9025 -3.605 6.2425 -4.625 5.5625 C-4.625 4.2425 -4.625 2.9225 -4.625 1.5625 C-5.285 1.2325 -5.945 0.9025 -6.625 0.5625 C-4.10446405 -0.69776798 -2.7707902 -0.35624445 0 0 Z " fill="#CE3C3E" transform="translate(30.625,45.4375)"/>
<path d="M0 0 C6.93 0 13.86 0 21 0 C21 0.66 21 1.32 21 2 C22.0725 2.28875 23.145 2.5775 24.25 2.875 C27.09400364 3.72820109 29.43508983 4.5636503 32 6 C31.01 7.485 31.01 7.485 30 9 C29.21625 8.401875 28.4325 7.80375 27.625 7.1875 C19.29577135 1.72507563 9.68598872 1.40474593 0 1 C0 0.67 0 0.34 0 0 Z " fill="#F0BCB7" transform="translate(29,44)"/>
<path d="M0 0 C2.74485827 2.74485827 3.88295346 4.46469031 5.5 7.875 C7.18697649 11.36107831 8.92492177 14.7235607 11 18 C10.34 18 9.68 18 9 18 C8.67 17.34 8.34 16.68 8 16 C7.175 15.731875 6.35 15.46375 5.5 15.1875 C4.675 14.795625 3.85 14.40375 3 14 C2.1875 11.375 2.1875 11.375 2 9 C1.34 9 0.68 9 0 9 C0 6.03 0 3.06 0 0 Z " fill="#F8E2E2" transform="translate(0,89)"/>
<path d="M0 0 C3.45201639 1.47721422 5.64961936 3.43794001 8.25 6.125 C8.95640625 6.84945312 9.6628125 7.57390625 10.390625 8.3203125 C11.18726562 9.15175781 11.18726562 9.15175781 12 10 C11.67 10.66 11.34 11.32 11 12 C8.4375 12.625 8.4375 12.625 6 13 C6.226875 12.401875 6.45375 11.80375 6.6875 11.1875 C7.23938689 8.97701922 7.23938689 8.97701922 5.9375 7.25 C3.24828988 5.51502573 1.13104437 5.79126371 -2 6 C-1.34 4.02 -0.68 2.04 0 0 Z " fill="#C53D3C" transform="translate(55,50)"/>
<path d="M0 0 C1.37478516 0.01740234 1.37478516 0.01740234 2.77734375 0.03515625 C3.69644531 0.04417969 4.61554688 0.05320312 5.5625 0.0625 C6.27277344 0.07410156 6.98304688 0.08570312 7.71484375 0.09765625 C7.71484375 0.75765625 7.71484375 1.41765625 7.71484375 2.09765625 C6.72484375 2.42765625 5.73484375 2.75765625 4.71484375 3.09765625 C5.04484375 4.41765625 5.37484375 5.73765625 5.71484375 7.09765625 C3.07484375 6.76765625 0.43484375 6.43765625 -2.28515625 6.09765625 C-2.66734392 4.44150968 -2.99910727 2.77308601 -3.28515625 1.09765625 C-2.28515625 0.09765625 -2.28515625 0.09765625 0 0 Z " fill="#D9D9D9" transform="translate(204.28515625,71.90234375)"/>
<path d="M0 0 C1.875 0.1875 1.875 0.1875 4 1 C4.68132451 2.66072849 5.34742127 4.327767 6 6 C8.01735205 7.34410262 8.01735205 7.34410262 10 8 C9.67 8.66 9.34 9.32 9 10 C6.1875 10.25 6.1875 10.25 3 10 C1.125 8.375 1.125 8.375 0 6 C-0.1875 2.75 -0.1875 2.75 0 0 Z " fill="#1D1D1D" transform="translate(197,72)"/>
<path d="M0 0 C2.00881937 3.01322906 3.03927918 5.52662474 4 9 C3.67 9.66 3.34 10.32 3 11 C1.35 10.67 -0.3 10.34 -2 10 C-2 9.01 -2 8.02 -2 7 C-2.99 6.67 -3.98 6.34 -5 6 C-4.67 5.01 -4.34 4.02 -4 3 C-1.9375 2.3125 -1.9375 2.3125 0 2 C0 1.34 0 0.68 0 0 Z " fill="#C83E3C" transform="translate(67,62)"/>
<path d="M0 0 C-0.33 1.98 -0.66 3.96 -1 6 C-6.75 6.125 -6.75 6.125 -9 5 C-8.625 2.5625 -8.625 2.5625 -8 0 C-5.13822943 -1.43088528 -3.06624227 -0.59991697 0 0 Z " fill="#BD0608" transform="translate(29,108)"/>
<path d="M0 0 C0.33 0.99 0.66 1.98 1 3 C-7.19743656 6.34319417 -14.30253195 6.0401871 -23 5 C-23 4.67 -23 4.34 -23 4 C-22.154375 3.96261719 -21.30875 3.92523438 -20.4375 3.88671875 C-13.58975703 3.48986092 -6.37348702 0 0 0 Z " fill="#F0C7C5" transform="translate(55,112)"/>
<path d="M0 0 C2.475 0.99 2.475 0.99 5 2 C4.67 3.65 4.34 5.3 4 7 C5.32 7.33 6.64 7.66 8 8 C8 8.66 8 9.32 8 10 C5.03 9.505 5.03 9.505 2 9 C1.67 7.68 1.34 6.36 1 5 C0.34 5 -0.32 5 -1 5 C-0.67 3.35 -0.34 1.7 0 0 Z " fill="#F2FDF9" transform="translate(18,93)"/>
<path d="M0 0 C0 1.32 0 2.64 0 4 C0.66 4.33 1.32 4.66 2 5 C2 5.99 2 6.98 2 8 C1.01 7.67 0.02 7.34 -1 7 C-1 6.34 -1 5.68 -1 5 C-1.99 5.33 -2.98 5.66 -4 6 C-4 7.32 -4 8.64 -4 10 C-5.32 9.67 -6.64 9.34 -8 9 C-8 6 -8 6 -6.7578125 4.39453125 C-5.94957031 3.61142578 -5.94957031 3.61142578 -5.125 2.8125 C-4.59132813 2.28269531 -4.05765625 1.75289063 -3.5078125 1.20703125 C-2 0 -2 0 0 0 Z " fill="#AE2A26" transform="translate(61,97)"/>
<path d="M0 0 C2 2 2 2 2 5 C3.97536745 4.65213292 3.97536745 4.65213292 6 4 C6.33 3.34 6.66 2.68 7 2 C7.66 2 8.32 2 9 2 C8.67 3.32 8.34 4.64 8 6 C7.34 6 6.68 6 6 6 C6 6.66 6 7.32 6 8 C4.51515588 7.60404157 3.0371169 7.18249294 1.5625 6.75 C0.73878906 6.51796875 -0.08492187 6.2859375 -0.93359375 6.046875 C-3 5 -3 5 -3.78515625 2.890625 C-3.85605469 2.26671875 -3.92695312 1.6428125 -4 1 C-2.125 0.375 -2.125 0.375 0 0 Z " fill="#9C191A" transform="translate(46,48)"/>
<path d="M0 0 C1 3 1 3 0 6 C-1.32 5.67 -2.64 5.34 -4 5 C-4 6.32 -4 7.64 -4 9 C-4.66 9 -5.32 9 -6 9 C-6.12375 8.360625 -6.2475 7.72125 -6.375 7.0625 C-6.684375 6.0415625 -6.684375 6.0415625 -7 5 C-7.66 4.67 -8.32 4.34 -9 4 C-7.68 3.67 -6.36 3.34 -5 3 C-5 2.34 -5 1.68 -5 1 C-2 0 -2 0 0 0 Z " fill="#D04746" transform="translate(24,47)"/>
<path d="M0 0 C-0.33 0.66 -0.66 1.32 -1 2 C-11.395 2.495 -11.395 2.495 -22 3 C-22.33 2.01 -22.66 1.02 -23 0 C-22.02160156 0.01740234 -22.02160156 0.01740234 -21.0234375 0.03515625 C-17.19323144 0.07470115 -13.59377806 0.10478436 -9.8125 -0.5625 C-6.35810468 -1.09985038 -3.42244689 -0.61604044 0 0 Z " fill="#FCF6F2" transform="translate(48,42)"/>
<path d="M0 0 C3.96 0 7.92 0 12 0 C12 1.65 12 3.3 12 5 C12.99 5.33 13.98 5.66 15 6 C13.35 6 11.7 6 10 6 C10 4.68 10 3.36 10 2 C9.01 1.67 8.02 1.34 7 1 C7.33 2.65 7.66 4.3 8 6 C7.34 6 6.68 6 6 6 C6 4.35 6 2.7 6 1 C5.01 1.33 4.02 1.66 3 2 C2.26676204 4.01508358 2.26676204 4.01508358 2 6 C1.01 5.67 0.02 5.34 -1 5 C-0.67 3.35 -0.34 1.7 0 0 Z " fill="#A01514" transform="translate(30,109)"/>
<path d="M0 0 C0.33 0.66 0.66 1.32 1 2 C1.66 2 2.32 2 3 2 C3 1.34 3 0.68 3 0 C4.32 0.33 5.64 0.66 7 1 C-0.85879847 7.11239881 -8.55227281 6.52165365 -18 6 C-18 5.67 -18 5.34 -18 5 C-17.10796875 4.95101562 -16.2159375 4.90203125 -15.296875 4.8515625 C-13.54117188 4.73941406 -13.54117188 4.73941406 -11.75 4.625 C-10.00976562 4.52058594 -10.00976562 4.52058594 -8.234375 4.4140625 C-5.27336043 4.03499542 -3.46455987 3.63130392 -1 2 C-0.67 1.34 -0.34 0.68 0 0 Z " fill="#FDDEDF" transform="translate(47,102)"/>
<path d="M0 0 C1.65 0 3.3 0 5 0 C5 0.99 5 1.98 5 3 C5.99 3 6.98 3 8 3 C7.67 3.99 7.34 4.98 7 6 C5.0625 6.75 5.0625 6.75 3 7 C2.34 6.67 1.68 6.34 1 6 C0.67 6.66 0.34 7.32 0 8 C-0.98120464 4.94736336 -0.98120464 3.05263664 0 0 Z " fill="#EE9FA1" transform="translate(43,72)"/>
<path d="M0 0 C-1.81309003 3.77727089 -3.9073259 7.37269822 -6 11 C-6.66 11 -7.32 11 -8 11 C-8.3125 8.3125 -8.3125 8.3125 -8 5 C-3.97826087 0 -3.97826087 0 0 0 Z " fill="#050505" transform="translate(267,69)"/>
<path d="M0 0 C0.66 0 1.32 0 2 0 C3.03974406 3.4163019 3.13374875 6.56426012 3.125 10.125 C3.12886719 11.70667969 3.12886719 11.70667969 3.1328125 13.3203125 C3 16 3 16 2 18 C1.34 18 0.68 18 0 18 C0 12.06 0 6.12 0 0 Z " fill="#F8D0C8" transform="translate(53,63)"/>
<path d="M0 0 C1.65 0.33 3.3 0.66 5 1 C4.67 3.97 4.34 6.94 4 10 C2.35 9.01 0.7 8.02 -1 7 C-0.67 4.69 -0.34 2.38 0 0 Z " fill="#BB0B11" transform="translate(3,70)"/>
<path d="M0 0 C5.41538462 -0.36923077 5.41538462 -0.36923077 8.375 1.5 C8.91125 1.995 9.4475 2.49 10 3 C9.67 4.32 9.34 5.64 9 7 C8.01 7 7.02 7 6 7 C4.64172029 5.35360035 3.30745749 3.68704193 2 2 C1.34 2 0.68 2 0 2 C0 1.34 0 0.68 0 0 Z " fill="#171717" transform="translate(176,69)"/>
<path d="M0 0 C3.63 0 7.26 0 11 0 C9.68 0.33 8.36 0.66 7 1 C7 2.65 7 4.3 7 6 C7.99 6.33 8.98 6.66 10 7 C6.37 7 2.74 7 -1 7 C-1 6.67 -1 6.34 -1 6 C0.65 6 2.3 6 4 6 C4 4.35 4 2.7 4 1 C2.68 0.67 1.36 0.34 0 0 Z " fill="#9A1617" transform="translate(31,45)"/>
<path d="M0 0 C0.99 0 1.98 0 3 0 C3 1.65 3 3.3 3 5 C3.33 3.35 3.66 1.7 4 0 C5.32 0.33 6.64 0.66 8 1 C8 1.99 8 2.98 8 4 C9.32 4.66 10.64 5.32 12 6 C8.04 6 4.08 6 0 6 C0.66 5.67 1.32 5.34 2 5 C2 3.68 2 2.36 2 1 C1.34 0.67 0.68 0.34 0 0 Z " fill="#BA3738" transform="translate(33,110)"/>
<path d="M0 0 C0.99 0.33 1.98 0.66 3 1 C3 1.66 3 2.32 3 3 C6.3 3.33 9.6 3.66 13 4 C12.67 4.99 12.34 5.98 12 7 C10.02 7 8.04 7 6 7 C6 6.34 6 5.68 6 5 C4.68 5 3.36 5 2 5 C2 4.34 2 3.68 2 3 C1.34 3 0.68 3 0 3 C0 2.01 0 1.02 0 0 Z " fill="#C40309" transform="translate(26,94)"/>
<path d="M0 0 C0.66 0 1.32 0 2 0 C0.63589551 5.59282842 -2.15383526 8.91193811 -6 13 C-6.33 12.01 -6.66 11.02 -7 10 C-5.6875 8.0625 -5.6875 8.0625 -4 6 C-3.649375 5.29875 -3.29875 4.5975 -2.9375 3.875 C-2 2 -2 2 0 0 Z " fill="#FCE4DD" transform="translate(61,89)"/>
<path d="M0 0 C4.455 0.99 4.455 0.99 9 2 C9 2.66 9 3.32 9 4 C8.01 4 7.02 4 6 4 C5.67 4.99 5.34 5.98 5 7 C3 6 1 5 -1 4 C-0.67 2.68 -0.34 1.36 0 0 Z " fill="#EE8C88" transform="translate(24,74)"/>
<path d="M0 0 C0.71285156 0.20496094 1.42570312 0.40992187 2.16015625 0.62109375 C7.43976749 2.10620647 12.54711116 3.39412346 18 4 C17.01 4.99 16.02 5.98 15 7 C14.67 6.34 14.34 5.68 14 5 C11.03 5 8.06 5 5 5 C5 4.34 5 3.68 5 3 C4.01 3.33 3.02 3.66 2 4 C1.34 2.68 0.68 1.36 0 0 Z " fill="#FDE0E1" transform="translate(21,113)"/>
<path d="M0 0 C-1 3 -1 3 -2.765625 4.1796875 C-5.25718223 5.09442005 -7.10616836 5.20275975 -9.75 5.125 C-10.54921875 5.10695313 -11.3484375 5.08890625 -12.171875 5.0703125 C-12.77515625 5.04710938 -13.3784375 5.02390625 -14 5 C-12.65625 3.50390625 -12.65625 3.50390625 -11 2 C-9.33385392 1.95834635 -7.66614608 1.95834635 -6 2 C-3 0 -3 0 0 0 Z " fill="#FBFBFB" transform="translate(47,102)"/>
<path d="M0 0 C0.33 0 0.66 0 1 0 C1.125 5.75 1.125 5.75 0 8 C-0.99 8.33 -1.98 8.66 -3 9 C-3.309375 9.66 -3.61875 10.32 -3.9375 11 C-4.288125 11.66 -4.63875 12.32 -5 13 C-7.06640625 13.625 -7.06640625 13.625 -9 14 C-7.87540329 12.22891052 -6.75030797 10.45813764 -5.625 8.6875 C-4.99851562 7.70136719 -4.37203125 6.71523437 -3.7265625 5.69921875 C-2.50348387 3.78712071 -1.2590644 1.8885966 0 0 Z " fill="#F4C7C4" transform="translate(70,93)"/>
<path d="M0 0 C4.95 0.99 4.95 0.99 10 2 C10 3.65 10 5.3 10 7 C9 8 9 8 5.4375 8.0625 C4.303125 8.041875 3.16875 8.02125 2 8 C3.32 7.34 4.64 6.68 6 6 C6 4.68 6 3.36 6 2 C4.02 2 2.04 2 0 2 C0 1.34 0 0.68 0 0 Z " fill="#D0D0D0" transform="translate(199,81)"/>
<path d="M0 0 C2.3828125 -0.29296875 2.3828125 -0.29296875 5.125 -0.1875 C6.03507813 -0.16042969 6.94515625 -0.13335937 7.8828125 -0.10546875 C8.58148438 -0.07066406 9.28015625 -0.03585938 10 0 C10 0.99 10 1.98 10 3 C6.04 3 2.08 3 -2 3 C-1.34 2.01 -0.68 1.02 0 0 Z " fill="#010101" transform="translate(246,89)"/>
<path d="M0 0 C1.32 0 2.64 0 4 0 C4 2.97 4 5.94 4 9 C2.68 8.67 1.36 8.34 0 8 C0 5.36 0 2.72 0 0 Z " fill="#FCF2EC" transform="translate(30,86)"/>
<path d="M0 0 C0.33 0.66 0.66 1.32 1 2 C1.66 2.33 2.32 2.66 3 3 C-1.45220435 4.80208271 -4.33556149 5.24385027 -9 4 C-9.99 3.34 -10.98 2.68 -12 2 C-8.94152152 1.45627049 -6.11227195 1 -3 1 C-2.01 0.67 -1.02 0.34 0 0 Z " fill="#CE4B4F" transform="translate(41,82)"/>
<path d="M0 0 C2.97 0.99 5.94 1.98 9 3 C7.02 3.99 7.02 3.99 5 5 C5 4.34 5 3.68 5 3 C3.68 3.33 2.36 3.66 1 4 C0.67 5.32 0.34 6.64 0 8 C-1.32 7.67 -2.64 7.34 -4 7 C-3.34 6.67 -2.68 6.34 -2 6 C-1.27306096 4.02111039 -0.60183749 2.02045442 0 0 Z " fill="#C64445" transform="translate(20,104)"/>
<path d="M0 0 C0.99 0.33 1.98 0.66 3 1 C2.719172 2.98073365 2.42503386 4.95958448 2.125 6.9375 C1.88136719 8.59072266 1.88136719 8.59072266 1.6328125 10.27734375 C1.42398438 11.17582031 1.21515625 12.07429688 1 13 C0.01 13.495 0.01 13.495 -1 14 C-1.02685938 11.85423363 -1.04633088 9.70837355 -1.0625 7.5625 C-1.07410156 6.36753906 -1.08570313 5.17257813 -1.09765625 3.94140625 C-1 1 -1 1 0 0 Z " fill="#F6F6F6" transform="translate(167,70)"/>
<path d="M0 0 C1.65 0 3.3 0 5 0 C4.01 0.495 4.01 0.495 3 1 C3.309375 1.8971875 3.309375 1.8971875 3.625 2.8125 C4 5 4 5 2 8 C1.01 7.67 0.02 7.34 -1 7 C-0.67 4.69 -0.34 2.38 0 0 Z " fill="#F0918F" transform="translate(38,70)"/>
<path d="M0 0 C0.99 0 1.98 0 3 0 C5.125 4.625 5.125 4.625 4 8 C2.68 8 1.36 8 0 8 C0 5.36 0 2.72 0 0 Z " fill="#CC0202" transform="translate(22,82)"/>
<path d="M0 0 C0.33 0 0.66 0 1 0 C1.34548714 6.33393082 0.29342747 11.10261508 -2 17 C-2.33 17 -2.66 17 -3 17 C-3.40214229 10.83381819 -1.96818336 5.82254243 0 0 Z " fill="#FDF3EE" transform="translate(74,80)"/>
<path d="M0 0 C1.32 0 2.64 0 4 0 C4 2.64 4 5.28 4 8 C3.01 7.67 2.02 7.34 1 7 C1.33 6.34 1.66 5.68 2 5 C1.01 4.67 0.02 4.34 -1 4 C-0.67 2.68 -0.34 1.36 0 0 Z " fill="#AE0C0D" transform="translate(48,65)"/>
<path d="M0 0 C2.9375 0.75 2.9375 0.75 6 2 C6.875 4.125 6.875 4.125 7 6 C7.66 6 8.32 6 9 6 C9.33 6.99 9.66 7.98 10 9 C4.98709528 7.56774151 3.01961382 5.05490999 0 1 C0 0.67 0 0.34 0 0 Z " fill="#F6CEC9" transform="translate(13,96)"/>
<path d="M0 0 C-1 3 -1 3 -3 4 C-5.3329866 4.04022391 -7.66706666 4.04320247 -10 4 C-9.67 3.01 -9.34 2.02 -9 1 C-2.63157895 -1.31578947 -2.63157895 -1.31578947 0 0 Z " fill="#101010" transform="translate(275,88)"/>
<path d="M0 0 C0.99 0 1.98 0 3 0 C3 1.32 3 2.64 3 4 C2.34 4 1.68 4 1 4 C0.67 5.65 0.34 7.3 0 9 C-0.66 9 -1.32 9 -2 9 C-2.25 3.375 -2.25 3.375 0 0 Z " fill="#F9EFEA" transform="translate(40,86)"/>
<path d="M0 0 C1.65 0 3.3 0 5 0 C5.33 0.99 5.66 1.98 6 3 C5.34 3 4.68 3 4 3 C4 4.98 4 6.96 4 9 C3.34 9 2.68 9 2 9 C1.855625 8.2575 1.71125 7.515 1.5625 6.75 C1.09812508 4.47972261 0.58136431 2.24240521 0 0 Z " fill="#B50708" transform="translate(32,69)"/>
<path d="M0 0 C0.33 0.66 0.66 1.32 1 2 C0.67 2.99 0.34 3.98 0 5 C-0.66 5 -1.32 5 -2 5 C-1.67 6.65 -1.34 8.3 -1 10 C-2.65 10 -4.3 10 -6 10 C-4.6302836 6.00499382 -2.74277578 3.19990508 0 0 Z " fill="#F5CACA" transform="translate(16,60)"/>
<path d="M0 0 C0.66 0.33 1.32 0.66 2 1 C2 2.32 2 3.64 2 5 C3.32 4.67 4.64 4.34 6 4 C6 4.99 6 5.98 6 7 C5.34 7 4.68 7 4 7 C3.67 7.66 3.34 8.32 3 9 C0.9375 6.75 0.9375 6.75 -1 4 C-0.75 1.6875 -0.75 1.6875 0 0 Z " fill="#A91F20" transform="translate(9,99)"/>
<path d="M0 0 C0.33 0 0.66 0 1 0 C1 1.65 1 3.3 1 5 C1.99 5.33 2.98 5.66 4 6 C3.67 7.65 3.34 9.3 3 11 C2.67 10.34 2.34 9.68 2 9 C1.01 8.67 0.02 8.34 -1 8 C-1.125 2.25 -1.125 2.25 0 0 Z " fill="#C74D4B" transform="translate(61,93)"/>
<path d="M0 0 C2 3 2 3 3 6 C0.69 6.33 -1.62 6.66 -4 7 C-3.34 5.35 -2.68 3.7 -2 2 C-1.34 2 -0.68 2 0 2 C0 1.34 0 0.68 0 0 Z " fill="#D14144" transform="translate(9,89)"/>
<path d="M0 0 C2.9375 0.8125 2.9375 0.8125 6 2 C6.33 2.99 6.66 3.98 7 5 C4.69 5 2.38 5 0 5 C-0.5625 3.0625 -0.5625 3.0625 -1 1 C-0.67 0.67 -0.34 0.34 0 0 Z " fill="#191919" transform="translate(198,87)"/>
<path d="M0 0 C1.98 0 3.96 0 6 0 C6 0.33 6 0.66 6 1 C4.35 1 2.7 1 1 1 C1 4.96 1 8.92 1 13 C-0.99641149 10.00538277 -1.6651717 8.51569716 -2 5 C-1.0625 2.1875 -1.0625 2.1875 0 0 Z " fill="#F5F5F5" transform="translate(188,67)"/>
<path d="M0 0 C0.33 1.32 0.66 2.64 1 4 C-2.21451269 5.60725635 -5.43612536 5.05748185 -9 5 C-8.01 4.34 -7.02 3.68 -6 3 C-6 2.34 -6 1.68 -6 1 C-3.92446352 0.4465236 -2.15634036 0 0 0 Z " fill="#323232" transform="translate(210,88)"/>
<path d="M0 0 C0.33 0.66 0.66 1.32 1 2 C0.0625 4.125 0.0625 4.125 -1 6 C-2.32 6 -3.64 6 -5 6 C-5 4.35 -5 2.7 -5 1 C-3.35 0.67 -1.7 0.34 0 0 Z " fill="#D85B58" transform="translate(71,74)"/>
<path d="M0 0 C3.26954202 0.56371414 4.82575883 1.49962266 7 4 C6.67 4.66 6.34 5.32 6 6 C4.35 5.67 2.7 5.34 1 5 C0.67 3.35 0.34 1.7 0 0 Z " fill="#C7080A" transform="translate(56,55)"/>
<path d="M0 0 C1.98 1.65 3.96 3.3 6 5 C5.67 6.32 5.34 7.64 5 9 C4.34 9 3.68 9 3 9 C3 7.35 3 5.7 3 4 C1.68 4.33 0.36 4.66 -1 5 C-0.67 3.35 -0.34 1.7 0 0 Z " fill="#E9534F" transform="translate(12,99)"/>
<path d="M0 0 C2.74501997 3.61186839 5.37012014 7.30395263 8 11 C7.01 11.495 7.01 11.495 6 12 C5.67 11.34 5.34 10.68 5 10 C4.01 9.67 3.02 9.34 2 9 C0.29466783 5.67908998 0 3.81507216 0 0 Z " fill="#F6CBCB" transform="translate(3,95)"/>
<path d="M0 0 C1.35439668 2.70879335 1.06501451 5.00933268 1 8 C-1.475 7.01 -1.475 7.01 -4 6 C-4 4.35 -4 2.7 -4 1 C-2.68 0.67 -1.36 0.34 0 0 Z " fill="#D73F3F" transform="translate(42,45)"/>
<path d="M0 0 C2.52588702 2.36292656 3.88820837 3.66462511 5 7 C4.34 7 3.68 7 3 7 C3 6.34 3 5.68 3 5 C1.68 4.67 0.36 4.34 -1 4 C-0.67 2.68 -0.34 1.36 0 0 Z M-1 7 C0.32 7 1.64 7 3 7 C3 7.66 3 8.32 3 9 C1.68 8.67 0.36 8.34 -1 8 C-1 7.67 -1 7.34 -1 7 Z " fill="#FCF5F3" transform="translate(23,96)"/>
<path d="M0 0 C0.99 0.33 1.98 0.66 3 1 C2.67 2.65 2.34 4.3 2 6 C-0.875 6.125 -0.875 6.125 -4 6 C-4.66 5.34 -5.32 4.68 -6 4 C-4.02 4 -2.04 4 0 4 C0 2.68 0 1.36 0 0 Z " fill="#B6131A" transform="translate(26,108)"/>
<path d="M0 0 C-0.33 2.31 -0.66 4.62 -1 7 C-1.99 7 -2.98 7 -4 7 C-4 5.02 -4 3.04 -4 1 C-2 0 -2 0 0 0 Z " fill="#D70004" transform="translate(50,81)"/>
<path d="M0 0 C0.78375 0.04125 1.5675 0.0825 2.375 0.125 C-1.375 3.125 -1.375 3.125 -3.625 3.125 C-3.625 7.085 -3.625 11.045 -3.625 15.125 C-3.955 15.125 -4.285 15.125 -4.625 15.125 C-4.67886629 13.00027424 -4.71773071 10.87516348 -4.75 8.75 C-4.77320313 7.56664063 -4.79640625 6.38328125 -4.8203125 5.1640625 C-4.5707518 1.28089801 -3.97031482 0.18906261 0 0 Z " fill="#BBBBBB" transform="translate(267.625,71.875)"/>
<path d="M0 0 C1.32 0.66 2.64 1.32 4 2 C4 2.99 4 3.98 4 5 C2.02 5.33 0.04 5.66 -2 6 C-1.34 4.02 -0.68 2.04 0 0 Z " fill="#CD4948" transform="translate(55,50)"/>
<path d="M0 0 C1.6875 1.75 1.6875 1.75 1.6875 3.75 C0.6975 3.75 -0.2925 3.75 -1.3125 3.75 C-1.9725 3.09 -2.6325 2.43 -3.3125 1.75 C-5.91530568 2.07041397 -5.91530568 2.07041397 -8.3125 2.75 C-7.3125 0.75 -7.3125 0.75 -5 -0.5625 C-2.3125 -1.25 -2.3125 -1.25 0 0 Z " fill="#D15556" transform="translate(53.3125,105.25)"/>
<path d="M0 0 C0.33 0 0.66 0 1 0 C1.18175781 0.90492187 1.18175781 0.90492187 1.3671875 1.828125 C1.53476562 2.62734375 1.70234375 3.4265625 1.875 4.25 C2.03742187 5.03890625 2.19984375 5.8278125 2.3671875 6.640625 C2.99150075 8.96831144 3.84838542 10.89031952 5 13 C2.5 12.125 2.5 12.125 0 10 C-0.46087248 6.63291991 -0.28526928 3.37885612 0 0 Z " fill="#F4C8C6" transform="translate(19,83)"/>
<path d="M0 0 C0.66 0 1.32 0 2 0 C2 0.66 2 1.32 2 2 C3.98 2 5.96 2 8 2 C7.67 2.99 7.34 3.98 7 5 C5.02 5.33 3.04 5.66 1 6 C0.67 4.02 0.34 2.04 0 0 Z " fill="#A51514" transform="translate(0,82)"/>
<path d="M0 0 C0.66 0.33 1.32 0.66 2 1 C0.68 4.63 -0.64 8.26 -2 12 C-2.33 12 -2.66 12 -3 12 C-3.36923077 4.61538462 -3.36923077 4.61538462 -1.5 1.5 C-1.005 1.005 -0.51 0.51 0 0 Z " fill="#FAD4D4" transform="translate(3,62)"/>
<path d="M0 0 C-1.65519326 3.31038651 -4.65442221 3.78867011 -8 5 C-8.99 4.67 -9.98 4.34 -11 4 C-10.34 4 -9.68 4 -9 4 C-9 3.34 -9 2.68 -9 2 C-5.5647952 -0.29013653 -4.014669 -0.17842973 0 0 Z " fill="#F9D4CE" transform="translate(28,55)"/>
<path d="M0 0 C1.65 0 3.3 0 5 0 C5 0.99 5 1.98 5 3 C1.37 3.33 -2.26 3.66 -6 4 C-6 3.67 -6 3.34 -6 3 C-5.195625 2.87625 -4.39125 2.7525 -3.5625 2.625 C-2.716875 2.41875 -1.87125 2.2125 -1 2 C-0.67 1.34 -0.34 0.68 0 0 Z " fill="#515151" transform="translate(271,85)"/>
<path d="M0 0 C0 0.33 0 0.66 0 1 C-1.65 1 -3.3 1 -5 1 C-5 1.66 -5 2.32 -5 3 C-4.01 2.67 -3.02 2.34 -2 2 C-2 2.66 -2 3.32 -2 4 C-3.65 4.33 -5.3 4.66 -7 5 C-7.66 3.68 -8.32 2.36 -9 1 C-6.04335481 -0.4783226 -3.25770263 -0.06032783 0 0 Z " fill="#2B2B2B" transform="translate(181,68)"/>
<path d="M0 0 C3.53372712 1.96318174 6.24479785 4.04070881 9 7 C6.625 6.75 6.625 6.75 4 6 C2.875 4 2.875 4 2 2 C1.01 1.67 0.02 1.34 -1 1 C-0.67 0.67 -0.34 0.34 0 0 Z " fill="#F8D6D4" transform="translate(50,56)"/>
<path d="M0 0 C3.34373475 0.55728913 6.03312999 1.35173889 9 3 C8.01 4.485 8.01 4.485 7 6 C5.83054208 5.19152271 4.66449539 4.37810888 3.5 3.5625 C2.8503125 3.11003906 2.200625 2.65757813 1.53125 2.19140625 C1.0259375 1.79824219 0.520625 1.40507813 0 1 C0 0.67 0 0.34 0 0 Z " fill="#F9DCD9" transform="translate(52,47)"/>
<path d="M0 0 C2 3 2 3 2 6 C2.66 6 3.32 6 4 6 C4 6.99 4 7.98 4 9 C2.68 8.67 1.36 8.34 0 8 C0 5.36 0 2.72 0 0 Z " fill="#A50F11" transform="translate(44,86)"/>
<path d="M0 0 C1.98 0 3.96 0 6 0 C6 1.32 6 2.64 6 4 C3.03 3.505 3.03 3.505 0 3 C0 2.01 0 1.02 0 0 Z " fill="#DB5151" transform="translate(63,88)"/>
<path d="M0 0 C0.68707555 2.49064888 1 4.37886292 1 7 C0.01 8.485 0.01 8.485 -1 10 C-1.66 10 -2.32 10 -3 10 C-3.33 8.68 -3.66 7.36 -4 6 C-3.01 5.67 -2.02 5.34 -1 5 C-0.67 3.35 -0.34 1.7 0 0 Z " fill="#141414" transform="translate(163,82)"/>
<path d="M0 0 C2.475 0.99 2.475 0.99 5 2 C5 3.32 5 4.64 5 6 C3.35 6 1.7 6 0 6 C0.185625 5.38125 0.37125 4.7625 0.5625 4.125 C1.23686176 1.95839822 1.23686176 1.95839822 0 0 Z " fill="#383838" transform="translate(271,70)"/>
<path d="M0 0 C2.0625 0.4375 2.0625 0.4375 4 1 C3.67 2.32 3.34 3.64 3 5 C2.01 5 1.02 5 0 5 C-0.5625 3.0625 -0.5625 3.0625 -1 1 C-0.67 0.67 -0.34 0.34 0 0 Z " fill="#F8B1B4" transform="translate(26,68)"/>
<path d="M0 0 C1.32 0.33 2.64 0.66 4 1 C3.67 1.99 3.34 2.98 3 4 C3.66 4.33 4.32 4.66 5 5 C5 6.98 5 8.96 5 11 C2.77174356 8.77174356 2.30760631 7.34238372 1.375 4.375 C1.11460938 3.55773438 0.85421875 2.74046875 0.5859375 1.8984375 C0.39257812 1.27195313 0.19921875 0.64546875 0 0 Z " fill="#F2C0BA" transform="translate(66,59)"/>
<path d="M0 0 C2.53731364 1.26865682 2.78646846 2.49709121 4 5 C4.66 5.66 5.32 6.32 6 7 C5.01 7.33 4.02 7.66 3 8 C1.35 6.02 -0.3 4.04 -2 2 C-1.34 1.34 -0.68 0.68 0 0 Z " fill="#CC5450" transform="translate(13,52)"/>
<path d="M0 0 C0.66 0 1.32 0 2 0 C2 1.32 2 2.64 2 4 C2.66 4.33 3.32 4.66 4 5 C4 5.99 4 6.98 4 8 C1 7 1 7 -1 4 C-0.625 1.8125 -0.625 1.8125 0 0 Z " fill="#9B1315" transform="translate(59,97)"/>
<path d="M0 0 C0.99 0.66 1.98 1.32 3 2 C0.69 3.65 -1.62 5.3 -4 7 C-4 4 -4 4 -2 1.8125 C-1.34 1.214375 -0.68 0.61625 0 0 Z " fill="#FBE6E1" transform="translate(13,49)"/>
<path d="M0 0 C0 1.98 0 3.96 0 6 C-0.33 5.34 -0.66 4.68 -1 4 C-2.98 4 -4.96 4 -7 4 C-1.7826087 0 -1.7826087 0 0 0 Z " fill="#BD2021" transform="translate(34,72)"/>
<path d="M0 0 C1.98 0.495 1.98 0.495 4 1 C4.33 2.98 4.66 4.96 5 7 C3.02 5.68 1.04 4.36 -1 3 C-0.67 2.01 -0.34 1.02 0 0 Z " fill="#B13631" transform="translate(52,54)"/>
<path d="M0 0 C0.66 0.66 1.32 1.32 2 2 C1.67 2.99 1.34 3.98 1 5 C-1.475 4.01 -1.475 4.01 -4 3 C-4 2.34 -4 1.68 -4 1 C-2.125 0.375 -2.125 0.375 0 0 Z " fill="#C10E11" transform="translate(46,48)"/>
<path d="M0 0 C1.32 0.33 2.64 0.66 4 1 C3.67 2.32 3.34 3.64 3 5 C2.01 4.67 1.02 4.34 0 4 C0 2.68 0 1.36 0 0 Z " fill="#DF4A48" transform="translate(37,110)"/>
<path d="M0 0 C0.99 0.33 1.98 0.66 3 1 C1 4 1 4 -2.125 4.6875 C-3.07375 4.790625 -4.0225 4.89375 -5 5 C-3.35 3.35 -1.7 1.7 0 0 Z " fill="#F1CAC3" transform="translate(45,97)"/>
<path d="M0 0 C2.97 0.495 2.97 0.495 6 1 C5.67 1.99 5.34 2.98 5 4 C3.35 3.67 1.7 3.34 0 3 C0 2.01 0 1.02 0 0 Z " fill="#040404" transform="translate(201,78)"/>
<path d="M0 0 C1.32 0 2.64 0 4 0 C4.66 1.32 5.32 2.64 6 4 C3.69 3.67 1.38 3.34 -1 3 C-0.67 2.01 -0.34 1.02 0 0 Z " fill="#C10105" transform="translate(34,65)"/>
<path d="M0 0 C3.375 -0.125 3.375 -0.125 7 0 C7.66 0.66 8.32 1.32 9 2 C7.02 2.33 5.04 2.66 3 3 C3 2.34 3 1.68 3 1 C2.01 0.67 1.02 0.34 0 0 Z " fill="#F8D1D1" transform="translate(39,53)"/>
<path d="M0 0 C0.66 0.66 1.32 1.32 2 2 C1.01 3.485 1.01 3.485 0 5 C-1.32 5 -2.64 5 -4 5 C-4 4.01 -4 3.02 -4 2 C-2.68 2 -1.36 2 0 2 C0 1.34 0 0.68 0 0 Z " fill="#E25154" transform="translate(52,48)"/>
</svg>
