<?xml version="1.0" encoding="UTF-8"?>
<svg version="1.1" xmlns="http://www.w3.org/2000/svg" width="1484" height="835">
<path d="M0 0 C489.72 0 979.44 0 1484 0 C1484 275.55 1484 551.1 1484 835 C994.28 835 504.56 835 0 835 C0 559.45 0 283.9 0 0 Z " fill="#FEFEFE" transform="translate(0,0)"/>
<path d="M0 0 C0.79334747 -0.00710495 1.58669495 -0.0142099 2.40408325 -0.02153015 C40.85151145 -0.28746019 76.10566158 5.89121809 110.36328125 24.203125 C110.97977539 24.53070801 111.59626953 24.85829102 112.23144531 25.19580078 C152.65485617 46.87666278 184.23251252 85.62105202 198.36328125 129.203125 C200.02699338 134.78875539 201.48269517 140.42449318 202.84863281 146.08959961 C203.18246172 147.4605469 203.52751583 148.82882804 203.88574219 150.19360352 C217.45395479 202.03063669 205.98346742 259.59596215 179.36328125 305.203125 C176.88857303 309.04913942 174.2150173 312.63158659 171.36328125 316.203125 C170.54909519 317.27638554 169.73807272 318.35205098 168.9296875 319.4296875 C162.43055456 328.06451637 155.82061071 336.37973361 147.51171875 343.3515625 C146.01514215 344.64133943 144.56423926 345.98522617 143.15234375 347.3671875 C107.44327803 381.94978427 55.61126488 396.80348242 6.93334961 396.69506836 C-36.48571646 395.78473763 -77.59649713 383.04036707 -112.63671875 357.203125 C-113.56484375 356.52121094 -114.49296875 355.83929687 -115.44921875 355.13671875 C-151.21716268 327.27479902 -176.18812172 284.89470715 -183.63671875 240.203125 C-183.96671875 289.373125 -184.29671875 338.543125 -184.63671875 389.203125 C-202.14734375 389.285625 -219.65796875 389.368125 -237.69921875 389.453125 C-243.20101807 389.48954102 -248.70281738 389.52595703 -254.37133789 389.56347656 C-261.15905762 389.58154297 -261.15905762 389.58154297 -264.3500824 389.5848999 C-266.54945628 389.59098872 -268.74881793 389.60494426 -270.94810486 389.62542725 C-294.02290635 389.82934128 -314.07651839 386.68878814 -331.63671875 370.203125 C-338.5343037 363.3652594 -344.39115365 356.0543447 -349.921875 348.0859375 C-352.99065619 343.66533588 -356.18628655 339.34142585 -359.38671875 335.015625 C-359.9794458 334.21310303 -360.57217285 333.41058105 -361.18286133 332.58374023 C-362.39565567 330.94180579 -363.60879271 329.30012442 -364.82226562 327.65869141 C-367.7646655 323.67663302 -370.70049355 319.68973732 -373.63671875 315.703125 C-377.1455909 310.93929773 -380.6556968 306.17640699 -384.171875 301.41796875 C-390.40489348 292.97857204 -396.59600975 284.51195327 -402.72485352 275.99658203 C-407.39589234 269.51516806 -412.12918537 263.08067852 -416.88085938 256.65820312 C-417.42935547 255.91634766 -417.97785156 255.17449219 -418.54296875 254.41015625 C-419.02056641 253.7653833 -419.49816406 253.12061035 -419.99023438 252.45629883 C-422.23083246 249.39009483 -424.42939933 246.29337219 -426.63671875 243.203125 C-426.96671875 291.383125 -427.29671875 339.563125 -427.63671875 389.203125 C-445.93109375 389.244375 -464.22546875 389.285625 -483.07421875 389.328125 C-488.83947021 389.34633301 -494.60472168 389.36454102 -500.54467773 389.38330078 C-507.61340332 389.39233398 -507.61340332 389.39233398 -510.92811584 389.39401245 C-513.23106154 389.39707298 -515.53400414 389.40408502 -517.83692932 389.41427612 C-521.33592248 389.42897908 -524.83472067 389.43093484 -528.33374023 389.43017578 C-529.35061385 389.437372 -530.36748747 389.44456821 -531.41517544 389.4519825 C-542.03843444 389.42126594 -551.45548443 387.67723587 -559.6171875 380.44921875 C-567.64571977 371.97560794 -569.79840143 362.02619433 -569.75697327 350.66740417 C-569.7582549 349.38080232 -569.7582549 349.38080232 -569.75956243 348.06820852 C-569.76120894 345.19543479 -569.75570941 342.32271951 -569.75024414 339.44995117 C-569.74996206 337.39012656 -569.7501204 335.33030185 -569.75068665 333.27047729 C-569.75097382 327.67796774 -569.74508993 322.08547958 -569.73811269 316.492975 C-569.73186592 310.64866351 -569.7312743 304.80435154 -569.73008728 298.96003723 C-569.72697788 287.89270923 -569.71876974 276.82539109 -569.70873779 265.75806743 C-569.69756454 253.15843436 -569.69206314 240.55880082 -569.68704236 227.95916402 C-569.67658682 202.04047762 -569.65824617 176.12180474 -569.63671875 150.203125 C-599.66671875 150.203125 -629.69671875 150.203125 -660.63671875 150.203125 C-660.63671875 229.073125 -660.63671875 307.943125 -660.63671875 389.203125 C-680.35421875 389.285625 -700.07171875 389.368125 -720.38671875 389.453125 C-726.59452148 389.48954102 -732.80232422 389.52595703 -739.19824219 389.56347656 C-746.82470703 389.58154297 -746.82470703 389.58154297 -750.40386963 389.5848999 C-752.88420488 389.59101066 -755.36452883 389.60501311 -757.8447876 389.62542725 C-761.61906326 389.65491795 -765.39261774 389.65874201 -769.16699219 389.65722656 C-770.80258402 389.67881521 -770.80258402 389.67881521 -772.47121811 389.70084 C-783.25352995 389.64330022 -793.81509263 387.00651889 -801.63671875 379.203125 C-811.82253854 367.51537468 -811.2042197 351.11455338 -811.09082031 336.61181641 C-811.08968985 334.57036868 -811.09032956 332.52891932 -811.09259033 330.48747253 C-811.09373066 324.98626568 -811.07033224 319.48541285 -811.0422945 313.98428774 C-811.01716662 308.22012442 -811.01492991 302.45595159 -811.01019287 296.69174194 C-810.99779642 285.79463739 -810.96502009 274.89769475 -810.92479491 264.00066125 C-810.87997323 251.58705274 -810.85806407 239.1734362 -810.83801317 226.75976682 C-810.79628437 201.24079671 -810.72599744 175.72196995 -810.63671875 150.203125 C-812.00615631 150.21311775 -812.00615631 150.21311775 -813.40325928 150.22331238 C-822.05258568 150.28369356 -830.7018402 150.32923578 -839.3513298 150.35856152 C-843.79697491 150.37414554 -848.24244428 150.39524924 -852.68798828 150.42944336 C-856.9868566 150.46229829 -861.28555703 150.48003247 -865.58454132 150.48775673 C-867.21580901 150.49325375 -868.84706863 150.50398655 -870.47826385 150.52031517 C-883.07587672 150.6412807 -896.23137154 150.25179089 -906.63671875 142.203125 C-916.68155634 131.96248161 -917.79893381 120.93454689 -917.75024414 107.21899414 C-917.75039017 106.13532562 -917.75053619 105.0516571 -917.75068665 103.93515015 C-917.74999251 100.3695065 -917.74222352 96.80391572 -917.734375 93.23828125 C-917.73250905 90.75963876 -917.73108598 88.2809959 -917.73008728 85.80235291 C-917.72627607 79.29058813 -917.71645772 72.77884578 -917.7053833 66.26708984 C-917.69459604 59.61751733 -917.69058322 52.96793826 -917.68554688 46.31835938 C-917.67483419 33.27993837 -917.6579678 20.24153288 -917.63671875 7.203125 C-859.84262986 7.15735587 -802.04854247 7.12210596 -744.25443906 7.10099434 C-737.43264684 7.09849969 -730.61085466 7.09590658 -723.7890625 7.09326172 C-722.77079375 7.09286944 -722.77079375 7.09286944 -721.73195391 7.09246924 C-699.73352291 7.08394844 -677.7351022 7.06892722 -655.73667743 7.05053056 C-632.48698524 7.03112283 -609.23729917 7.01913157 -585.9875983 7.01494801 C-572.06087194 7.01220262 -558.1341751 7.00352875 -544.20745783 6.98729207 C-534.65979444 6.97672721 -525.11214633 6.97352325 -515.56447752 6.97612225 C-510.0544934 6.9774043 -504.54456091 6.97542694 -499.03458595 6.96471405 C-493.98854877 6.95497482 -488.94259789 6.95449453 -483.89655672 6.96132721 C-482.07270138 6.96217158 -480.24884063 6.95964026 -478.42499591 6.95335864 C-456.08193341 6.88089051 -437.2499202 11.9413131 -420.77734375 27.89453125 C-414.70885633 34.07913465 -409.72431599 41.21452562 -404.63671875 48.203125 C-403.71315131 49.45640155 -402.78871424 50.70903786 -401.86328125 51.9609375 C-400.07602293 54.38405675 -398.29657955 56.81262682 -396.5234375 59.24609375 C-393.20104745 63.80520943 -389.85755511 68.34869903 -386.51171875 72.890625 C-385.60993896 74.11519409 -385.60993896 74.11519409 -384.68994141 75.36450195 C-381.50696522 79.68212995 -378.3059148 83.98436895 -375.07421875 88.265625 C-371.46928708 93.05446412 -367.95128958 97.90146464 -364.44921875 102.765625 C-354.98771543 115.90582974 -345.38549541 128.94170248 -335.63061523 141.86572266 C-335.17759033 142.46690918 -334.72456543 143.0680957 -334.2578125 143.6875 C-333.87036865 144.20022461 -333.4829248 144.71294922 -333.08374023 145.24121094 C-330.89941215 148.20278685 -328.77566117 151.20860561 -326.63671875 154.203125 C-326.30671875 105.693125 -325.97671875 57.183125 -325.63671875 7.203125 C-307.21859375 7.120625 -288.80046875 7.038125 -269.82421875 6.953125 C-264.02496826 6.91670898 -258.22571777 6.88029297 -252.25073242 6.84277344 C-245.12756348 6.82470703 -245.12756348 6.82470703 -241.78486633 6.8213501 C-239.46781841 6.81523832 -237.15078261 6.80123369 -234.83381653 6.78082275 C-231.30850379 6.75133998 -227.78396334 6.74750771 -224.25854492 6.74902344 C-223.23949916 6.734631 -222.2204534 6.72023857 -221.17052746 6.70541 C-211.22078055 6.76228265 -201.23138811 9.56711571 -194.05078125 16.80078125 C-185.04916919 26.79037512 -184.34442159 38.23159756 -184.31787109 51.19213867 C-184.30782547 52.33491272 -184.29777985 53.47768677 -184.28742981 54.65509033 C-184.25679237 58.3937535 -184.23961693 62.13234571 -184.22265625 65.87109375 C-184.20392896 68.47854718 -184.18435441 71.08599466 -184.16397095 73.69343567 C-184.11741123 79.83062239 -184.08055773 85.96782642 -184.04729807 92.10509807 C-184.00891424 99.0992299 -183.95954741 106.09327121 -183.90931392 113.08732641 C-183.80633385 127.4591908 -183.7169645 141.83111657 -183.63671875 156.203125 C-183.36618683 155.03738953 -183.09565491 153.87165405 -182.81692505 152.67059326 C-182.45632038 151.1251028 -182.09562852 149.57963268 -181.73486328 148.03417969 C-181.55723953 147.26774139 -181.37961578 146.5013031 -181.1966095 145.7116394 C-179.90478043 140.18868539 -178.42906586 134.79540119 -176.51171875 129.453125 C-176.2187793 128.63223389 -175.92583984 127.81134277 -175.62402344 126.96557617 C-163.70169445 94.54138433 -143.25926011 64.28245443 -115.63671875 43.203125 C-114.16525391 42.00816406 -114.16525391 42.00816406 -112.6640625 40.7890625 C-89.89944755 22.42231965 -62.23142054 9.94085559 -33.63671875 4.203125 C-32.57396729 3.9868042 -32.57396729 3.9868042 -31.48974609 3.76611328 C-20.99474868 1.6509347 -10.71606366 0.06408165 0 0 Z " fill="#231F20" transform="translate(1097.63671875,221.796875)"/>
<path d="M0 0 C10.71705716 8.00595102 18.56500392 17.13386025 23.30078125 29.71875 C23.59984375 30.41742188 23.89890625 31.11609375 24.20703125 31.8359375 C28.90323914 44.40264196 27.36155651 59.58287775 22.30078125 71.71875 C21.95015625 72.58628906 21.59953125 73.45382812 21.23828125 74.34765625 C16.0951155 85.75905526 7.78313319 94.1024529 -2.69921875 100.71875 C-3.34246094 101.12738281 -3.98570313 101.53601563 -4.6484375 101.95703125 C-17.6258631 109.24803609 -32.92908229 110.52093034 -47.19921875 107.21875 C-62.82025462 102.55672064 -76.33727634 93.27676051 -84.22314453 78.77929688 C-91.66574234 64.01307085 -94.51766109 48.43216987 -89.63671875 32.40625 C-84.7056933 17.57737674 -74.92835711 5.87778381 -61.69921875 -2.28125 C-61.05339844 -2.68214844 -60.40757813 -3.08304687 -59.7421875 -3.49609375 C-41.49383944 -13.67675109 -17.10906336 -11.27185351 0 0 Z " fill="#FDFDFD" transform="translate(1140.69921875,370.28125)"/>
<path d="M0 0 C2.56616632 3.84924948 2.55097676 6.4349304 3 11 C2.34 11 1.68 11 1 11 C1 57.53 1 104.06 1 152 C0.67 152 0.34 152 0 152 C0 101.84 0 51.68 0 0 Z " fill="#C7C7C7" transform="translate(913,459)"/>
<path d="M0 0 C-0.1875 1.875 -0.1875 1.875 -1 4 C-3.5625 5.25 -3.5625 5.25 -6 6 C-6 5.34 -6 4.68 -6 4 C-6.86625 4.309375 -6.86625 4.309375 -7.75 4.625 C-10.53731028 5.08955171 -11.58030999 4.33184618 -14 3 C-12.04486839 2.303447 -10.08577524 1.61800435 -8.125 0.9375 C-7.03445313 0.55464844 -5.94390625 0.17179687 -4.8203125 -0.22265625 C-2 -1 -2 -1 0 0 Z " fill="#302C2D" transform="translate(1134,474)"/>
<path d="M0 0 C0.33 0.66 0.66 1.32 1 2 C2.32 2 3.64 2 5 2 C5.33 2.66 5.66 3.32 6 4 C6.66 3.67 7.32 3.34 8 3 C7.625 5.9375 7.625 5.9375 7 9 C6.01 9.495 6.01 9.495 5 10 C4.15801693 8.90241493 3.32669329 7.79664683 2.5 6.6875 C2.0359375 6.07261719 1.571875 5.45773437 1.09375 4.82421875 C0 3 0 3 0 0 Z " fill="#2B2728" transform="translate(742,559)"/>
<path d="M0 0 C2.56616632 3.84924948 2.55097676 6.4349304 3 11 C2.34 11 1.68 11 1 11 C1 12.65 1 14.3 1 16 C0.67 16 0.34 16 0 16 C0 10.72 0 5.44 0 0 Z " fill="#C3BFC0" transform="translate(913,459)"/>
<path d="M0 0 C2 2 2 2 2 6 C0.02 6.99 0.02 6.99 -2 8 C-2.99 6.35 -3.98 4.7 -5 3 C-3.35 2.67 -1.7 2.34 0 2 C0 1.34 0 0.68 0 0 Z " fill="#2C292A" transform="translate(757,572)"/>
<path d="M0 0 C1.32 0.33 2.64 0.66 4 1 C4.33 2.32 4.66 3.64 5 5 C3.35 5.66 1.7 6.32 0 7 C0 4.69 0 2.38 0 0 Z " fill="#2E2A2B" transform="translate(906,247)"/>
<path d="M0 0 C1 2 2 4 3 6 C2.01 6.33 1.02 6.66 0 7 C-0.99 5.35 -1.98 3.7 -3 2 C-2.01 1.34 -1.02 0.68 0 0 Z " fill="#2C292A" transform="translate(190,356)"/>
<path d="M0 0 C0.66 0.33 1.32 0.66 2 1 C1.690625 1.598125 1.38125 2.19625 1.0625 2.8125 C-0.10209704 5.08956772 -0.10209704 5.08956772 -1 8 C-1.66 7.67 -2.32 7.34 -3 7 C-3 6.34 -3 5.68 -3 5 C-3.66 4.67 -4.32 4.34 -5 4 C-3.35 2.68 -1.7 1.36 0 0 Z " fill="#2F2B2D" transform="translate(984,263)"/>
<path d="M0 0 C0.12375 0.639375 0.2475 1.27875 0.375 1.9375 C0.684375 2.9584375 0.684375 2.9584375 1 4 C1.66 4.33 2.32 4.66 3 5 C2.01 5.66 1.02 6.32 0 7 C0 6.34 0 5.68 0 5 C-1.32 5.33 -2.64 5.66 -4 6 C-2.68 4.02 -1.36 2.04 0 0 Z " fill="#333031" transform="translate(1156,453)"/>
<path d="M0 0 C0.66 0.33 1.32 0.66 2 1 C2 1.66 2 2.32 2 3 C2.66 3 3.32 3 4 3 C3.34 4.32 2.68 5.64 2 7 C0.4375 5.75 0.4375 5.75 -1 4 C-0.6875 1.8125 -0.6875 1.8125 0 0 Z " fill="#343031" transform="translate(1143,368)"/>
<path d="M0 0 C2.62187494 1.04874998 3.79371361 1.64931313 5.25 4.125 C5.4975 4.74375 5.745 5.3625 6 6 C5.01 6 4.02 6 3 6 C0 2.66666667 0 2.66666667 0 0 Z " fill="#2D2B2C" transform="translate(1265,297)"/>
</svg>
